<?xml version="1.0" encoding="utf-8" standalone="no"?>
<!DOCTYPE svg PUBLIC "-//W3C//DTD SVG 1.1//EN"
  "http://www.w3.org/Graphics/SVG/1.1/DTD/svg11.dtd">
<svg xmlns:xlink="http://www.w3.org/1999/xlink" width="296.646175pt" height="114.866875pt" viewBox="0 0 296.646175 114.866875" xmlns="http://www.w3.org/2000/svg" version="1.1">
 <metadata>
  <rdf:RDF xmlns:dc="http://purl.org/dc/elements/1.1/" xmlns:cc="http://creativecommons.org/ns#" xmlns:rdf="http://www.w3.org/1999/02/22-rdf-syntax-ns#">
   <cc:Work>
    <dc:type rdf:resource="http://purl.org/dc/dcmitype/StillImage"/>
    <dc:date>2023-04-11T15:30:12.047133</dc:date>
    <dc:format>image/svg+xml</dc:format>
    <dc:creator>
     <cc:Agent>
      <dc:title>Matplotlib v3.5.1, https://matplotlib.org/</dc:title>
     </cc:Agent>
    </dc:creator>
   </cc:Work>
  </rdf:RDF>
 </metadata>
 <defs>
  <style type="text/css">*{stroke-linejoin: round; stroke-linecap: butt}</style>
 </defs>
 <g id="figure_1">
  <g id="patch_1">
   <path d="M 0 114.866875 
L 296.646175 114.866875 
L 296.646175 0 
L 0 0 
z
" style="fill: #ffffff"/>
  </g>
  <g id="axes_1">
   <g id="patch_2">
    <path d="M 35.27875 90.36 
L 169.19875 90.36 
L 169.19875 7.2 
L 35.27875 7.2 
z
" style="fill: #ffffff"/>
   </g>
   <g id="line2d_1">
    <path d="M 163.111477 56.664657 
L 156.347841 56.390247 
L 149.584205 55.526845 
L 142.820568 58.350203 
L 136.056932 58.706066 
L 129.293295 60.276136 
L 122.529659 59.824394 
L 115.766023 57.865808 
L 109.002386 56.254867 
L 102.23875 54.944963 
L 95.475114 51.190936 
L 88.711477 46.623077 
L 81.947841 42.570839 
L 75.184205 37.907664 
L 68.420568 33.887218 
L 61.656932 28.796151 
L 54.893295 25.587512 
L 48.129659 25.245517 
L 41.366023 26.769592 
" clip-path="url(#p0354583866)" style="fill: none; stroke: #cdf5cd; stroke-width: 1.5; stroke-linecap: square"/>
   </g>
   <g id="line2d_2">
    <path d="M 163.111477 55.11995 
L 156.347841 62.882231 
L 149.584205 67.617094 
L 142.820568 71.14976 
L 136.056932 74.60206 
L 129.293295 77.433876 
L 122.529659 80.322696 
L 115.766023 83.471406 
L 109.002386 85.188222 
L 102.23875 85.820712 
L 95.475114 86.58 
L 88.711477 85.409464 
L 81.947841 83.880933 
L 75.184205 82.980049 
L 68.420568 79.284737 
L 61.656932 74.943913 
L 54.893295 70.024251 
L 48.129659 60.425965 
L 41.366023 49.733446 
" clip-path="url(#p0354583866)" style="fill: none; stroke: #cacaf8; stroke-width: 1.5; stroke-linecap: square"/>
   </g>
   <g id="line2d_3">
    <path d="M 163.111477 64.129765 
L 156.347841 68.436596 
L 149.584205 71.739066 
L 142.820568 73.064629 
L 136.056932 74.813924 
L 129.293295 75.106236 
L 122.529659 75.02498 
L 115.766023 74.437508 
L 109.002386 73.004919 
L 102.23875 71.492886 
L 95.475114 69.238877 
L 88.711477 65.983387 
L 81.947841 62.220762 
L 75.184205 58.803868 
L 68.420568 53.728583 
L 61.656932 48.347078 
L 54.893295 42.032308 
L 48.129659 33.718657 
L 41.366023 26.813226 
" clip-path="url(#p0354583866)" style="fill: none; stroke: #feeeba; stroke-width: 1.5; stroke-linecap: square"/>
   </g>
   <g id="line2d_4">
    <path d="M 163.111477 70.464973 
L 156.347841 75.448344 
L 149.584205 78.494474 
L 142.820568 78.001725 
L 136.056932 77.284717 
L 129.293295 75.799732 
L 122.529659 73.79553 
L 115.766023 70.308363 
L 109.002386 66.155912 
L 102.23875 62.059299 
L 95.475114 57.888546 
L 88.711477 52.195607 
L 81.947841 46.341681 
L 75.184205 40.875533 
L 68.420568 34.324415 
L 61.656932 27.775224 
L 54.893295 21.698939 
L 48.129659 15.137861 
L 41.366023 10.98 
" clip-path="url(#p0354583866)" style="fill: none; stroke: #f5cdf5; stroke-width: 1.5; stroke-linecap: square"/>
   </g>
   <g id="line2d_5">
    <path d="M 163.111477 54.632673 
L 156.347841 58.483643 
L 149.584205 59.973529 
L 142.820568 62.254668 
L 136.056932 64.899939 
L 129.293295 66.243121 
L 122.529659 66.26958 
L 115.766023 66.002048 
L 109.002386 65.050822 
L 102.23875 63.81372 
L 95.475114 62.737797 
L 88.711477 60.032061 
L 81.947841 56.819469 
L 75.184205 54.118457 
L 68.420568 50.519453 
L 61.656932 45.231978 
L 54.893295 40.849091 
L 48.129659 36.309445 
L 41.366023 31.425097 
" clip-path="url(#p0354583866)" style="fill: none; stroke: #caf8f8; stroke-width: 1.5; stroke-linecap: square"/>
   </g>
   <g id="PathCollection_1">
    <defs>
     <path id="C0_0_ff5de21201" d="M 0 1.581139 
C 0.419323 1.581139 0.821528 1.41454 1.118034 1.118034 
C 1.41454 0.821528 1.581139 0.419323 1.581139 -0 
C 1.581139 -0.419323 1.41454 -0.821528 1.118034 -1.118034 
C 0.821528 -1.41454 0.419323 -1.581139 0 -1.581139 
C -0.419323 -1.581139 -0.821528 -1.41454 -1.118034 -1.118034 
C -1.41454 -0.821528 -1.581139 -0.419323 -1.581139 0 
C -1.581139 0.419323 -1.41454 0.821528 -1.118034 1.118034 
C -0.821528 1.41454 -0.419323 1.581139 0 1.581139 
z
"/>
    </defs>
    <g clip-path="url(#p0354583866)">
     <use xlink:href="#C0_0_ff5de21201" x="163.111477" y="56.664657" style="fill: #cdf5cd; stroke: #cdf5cd"/>
    </g>
    <g clip-path="url(#p0354583866)">
     <use xlink:href="#C0_0_ff5de21201" x="156.347841" y="56.390247" style="fill: #cdf5cd; stroke: #cdf5cd"/>
    </g>
    <g clip-path="url(#p0354583866)">
     <use xlink:href="#C0_0_ff5de21201" x="149.584205" y="55.526845" style="fill: #cdf5cd; stroke: #cdf5cd"/>
    </g>
    <g clip-path="url(#p0354583866)">
     <use xlink:href="#C0_0_ff5de21201" x="142.820568" y="58.350203" style="fill: #cdf5cd; stroke: #cdf5cd"/>
    </g>
    <g clip-path="url(#p0354583866)">
     <use xlink:href="#C0_0_ff5de21201" x="136.056932" y="58.706066" style="fill: #cdf5cd; stroke: #cdf5cd"/>
    </g>
    <g clip-path="url(#p0354583866)">
     <use xlink:href="#C0_0_ff5de21201" x="129.293295" y="60.276136" style="fill: #cdf5cd; stroke: #cdf5cd"/>
    </g>
    <g clip-path="url(#p0354583866)">
     <use xlink:href="#C0_0_ff5de21201" x="122.529659" y="59.824394" style="fill: #cdf5cd; stroke: #cdf5cd"/>
    </g>
    <g clip-path="url(#p0354583866)">
     <use xlink:href="#C0_0_ff5de21201" x="115.766023" y="57.865808" style="fill: #cdf5cd; stroke: #cdf5cd"/>
    </g>
    <g clip-path="url(#p0354583866)">
     <use xlink:href="#C0_0_ff5de21201" x="109.002386" y="56.254867" style="fill: #cdf5cd; stroke: #cdf5cd"/>
    </g>
    <g clip-path="url(#p0354583866)">
     <use xlink:href="#C0_0_ff5de21201" x="102.23875" y="54.944963" style="fill: #cdf5cd; stroke: #cdf5cd"/>
    </g>
    <g clip-path="url(#p0354583866)">
     <use xlink:href="#C0_0_ff5de21201" x="95.475114" y="51.190936" style="fill: #cdf5cd; stroke: #cdf5cd"/>
    </g>
    <g clip-path="url(#p0354583866)">
     <use xlink:href="#C0_0_ff5de21201" x="88.711477" y="46.623077" style="fill: #cdf5cd; stroke: #cdf5cd"/>
    </g>
    <g clip-path="url(#p0354583866)">
     <use xlink:href="#C0_0_ff5de21201" x="81.947841" y="42.570839" style="fill: #cdf5cd; stroke: #cdf5cd"/>
    </g>
    <g clip-path="url(#p0354583866)">
     <use xlink:href="#C0_0_ff5de21201" x="75.184205" y="37.907664" style="fill: #cdf5cd; stroke: #cdf5cd"/>
    </g>
    <g clip-path="url(#p0354583866)">
     <use xlink:href="#C0_0_ff5de21201" x="68.420568" y="33.887218" style="fill: #cdf5cd; stroke: #cdf5cd"/>
    </g>
    <g clip-path="url(#p0354583866)">
     <use xlink:href="#C0_0_ff5de21201" x="61.656932" y="28.796151" style="fill: #cdf5cd; stroke: #cdf5cd"/>
    </g>
    <g clip-path="url(#p0354583866)">
     <use xlink:href="#C0_0_ff5de21201" x="54.893295" y="25.587512" style="fill: #cdf5cd; stroke: #cdf5cd"/>
    </g>
    <g clip-path="url(#p0354583866)">
     <use xlink:href="#C0_0_ff5de21201" x="48.129659" y="25.245517" style="fill: #cdf5cd; stroke: #cdf5cd"/>
    </g>
    <g clip-path="url(#p0354583866)">
     <use xlink:href="#C0_0_ff5de21201" x="41.366023" y="26.769592" style="fill: #cdf5cd; stroke: #cdf5cd"/>
    </g>
   </g>
   <g id="PathCollection_2">
    <defs>
     <path id="C1_0_752aec7786" d="M 0 1.581139 
C 0.419323 1.581139 0.821528 1.41454 1.118034 1.118034 
C 1.41454 0.821528 1.581139 0.419323 1.581139 -0 
C 1.581139 -0.419323 1.41454 -0.821528 1.118034 -1.118034 
C 0.821528 -1.41454 0.419323 -1.581139 0 -1.581139 
C -0.419323 -1.581139 -0.821528 -1.41454 -1.118034 -1.118034 
C -1.41454 -0.821528 -1.581139 -0.419323 -1.581139 0 
C -1.581139 0.419323 -1.41454 0.821528 -1.118034 1.118034 
C -0.821528 1.41454 -0.419323 1.581139 0 1.581139 
z
"/>
    </defs>
    <g clip-path="url(#p0354583866)">
     <use xlink:href="#C1_0_752aec7786" x="163.111477" y="55.11995" style="fill: #cacaf8; stroke: #cacaf8"/>
    </g>
    <g clip-path="url(#p0354583866)">
     <use xlink:href="#C1_0_752aec7786" x="156.347841" y="62.882231" style="fill: #cacaf8; stroke: #cacaf8"/>
    </g>
    <g clip-path="url(#p0354583866)">
     <use xlink:href="#C1_0_752aec7786" x="149.584205" y="67.617094" style="fill: #cacaf8; stroke: #cacaf8"/>
    </g>
    <g clip-path="url(#p0354583866)">
     <use xlink:href="#C1_0_752aec7786" x="142.820568" y="71.14976" style="fill: #cacaf8; stroke: #cacaf8"/>
    </g>
    <g clip-path="url(#p0354583866)">
     <use xlink:href="#C1_0_752aec7786" x="136.056932" y="74.60206" style="fill: #cacaf8; stroke: #cacaf8"/>
    </g>
    <g clip-path="url(#p0354583866)">
     <use xlink:href="#C1_0_752aec7786" x="129.293295" y="77.433876" style="fill: #cacaf8; stroke: #cacaf8"/>
    </g>
    <g clip-path="url(#p0354583866)">
     <use xlink:href="#C1_0_752aec7786" x="122.529659" y="80.322696" style="fill: #cacaf8; stroke: #cacaf8"/>
    </g>
    <g clip-path="url(#p0354583866)">
     <use xlink:href="#C1_0_752aec7786" x="115.766023" y="83.471406" style="fill: #cacaf8; stroke: #cacaf8"/>
    </g>
    <g clip-path="url(#p0354583866)">
     <use xlink:href="#C1_0_752aec7786" x="109.002386" y="85.188222" style="fill: #cacaf8; stroke: #cacaf8"/>
    </g>
    <g clip-path="url(#p0354583866)">
     <use xlink:href="#C1_0_752aec7786" x="102.23875" y="85.820712" style="fill: #1a1ad6; stroke: #1a1ad6"/>
    </g>
    <g clip-path="url(#p0354583866)">
     <use xlink:href="#C1_0_752aec7786" x="95.475114" y="86.58" style="fill: #1a1ad6; stroke: #1a1ad6"/>
    </g>
    <g clip-path="url(#p0354583866)">
     <use xlink:href="#C1_0_752aec7786" x="88.711477" y="85.409464" style="fill: #cacaf8; stroke: #cacaf8"/>
    </g>
    <g clip-path="url(#p0354583866)">
     <use xlink:href="#C1_0_752aec7786" x="81.947841" y="83.880933" style="fill: #cacaf8; stroke: #cacaf8"/>
    </g>
    <g clip-path="url(#p0354583866)">
     <use xlink:href="#C1_0_752aec7786" x="75.184205" y="82.980049" style="fill: #cacaf8; stroke: #cacaf8"/>
    </g>
    <g clip-path="url(#p0354583866)">
     <use xlink:href="#C1_0_752aec7786" x="68.420568" y="79.284737" style="fill: #cacaf8; stroke: #cacaf8"/>
    </g>
    <g clip-path="url(#p0354583866)">
     <use xlink:href="#C1_0_752aec7786" x="61.656932" y="74.943913" style="fill: #cacaf8; stroke: #cacaf8"/>
    </g>
    <g clip-path="url(#p0354583866)">
     <use xlink:href="#C1_0_752aec7786" x="54.893295" y="70.024251" style="fill: #cacaf8; stroke: #cacaf8"/>
    </g>
    <g clip-path="url(#p0354583866)">
     <use xlink:href="#C1_0_752aec7786" x="48.129659" y="60.425965" style="fill: #cacaf8; stroke: #cacaf8"/>
    </g>
    <g clip-path="url(#p0354583866)">
     <use xlink:href="#C1_0_752aec7786" x="41.366023" y="49.733446" style="fill: #cacaf8; stroke: #cacaf8"/>
    </g>
   </g>
   <g id="PathCollection_3">
    <defs>
     <path id="C2_0_2fc450906c" d="M 0 1.581139 
C 0.419323 1.581139 0.821528 1.41454 1.118034 1.118034 
C 1.41454 0.821528 1.581139 0.419323 1.581139 -0 
C 1.581139 -0.419323 1.41454 -0.821528 1.118034 -1.118034 
C 0.821528 -1.41454 0.419323 -1.581139 0 -1.581139 
C -0.419323 -1.581139 -0.821528 -1.41454 -1.118034 -1.118034 
C -1.41454 -0.821528 -1.581139 -0.419323 -1.581139 0 
C -1.581139 0.419323 -1.41454 0.821528 -1.118034 1.118034 
C -0.821528 1.41454 -0.419323 1.581139 0 1.581139 
z
"/>
    </defs>
    <g clip-path="url(#p0354583866)">
     <use xlink:href="#C2_0_2fc450906c" x="163.111477" y="64.129765" style="fill: #feeeba; stroke: #feeeba"/>
    </g>
    <g clip-path="url(#p0354583866)">
     <use xlink:href="#C2_0_2fc450906c" x="156.347841" y="68.436596" style="fill: #feeeba; stroke: #feeeba"/>
    </g>
    <g clip-path="url(#p0354583866)">
     <use xlink:href="#C2_0_2fc450906c" x="149.584205" y="71.739066" style="fill: #feeeba; stroke: #feeeba"/>
    </g>
    <g clip-path="url(#p0354583866)">
     <use xlink:href="#C2_0_2fc450906c" x="142.820568" y="73.064629" style="fill: #feeeba; stroke: #feeeba"/>
    </g>
    <g clip-path="url(#p0354583866)">
     <use xlink:href="#C2_0_2fc450906c" x="136.056932" y="74.813924" style="fill: #feeeba; stroke: #feeeba"/>
    </g>
    <g clip-path="url(#p0354583866)">
     <use xlink:href="#C2_0_2fc450906c" x="129.293295" y="75.106236" style="fill: #feeeba; stroke: #feeeba"/>
    </g>
    <g clip-path="url(#p0354583866)">
     <use xlink:href="#C2_0_2fc450906c" x="122.529659" y="75.02498" style="fill: #feeeba; stroke: #feeeba"/>
    </g>
    <g clip-path="url(#p0354583866)">
     <use xlink:href="#C2_0_2fc450906c" x="115.766023" y="74.437508" style="fill: #feeeba; stroke: #feeeba"/>
    </g>
    <g clip-path="url(#p0354583866)">
     <use xlink:href="#C2_0_2fc450906c" x="109.002386" y="73.004919" style="fill: #feeeba; stroke: #feeeba"/>
    </g>
    <g clip-path="url(#p0354583866)">
     <use xlink:href="#C2_0_2fc450906c" x="102.23875" y="71.492886" style="fill: #feeeba; stroke: #feeeba"/>
    </g>
    <g clip-path="url(#p0354583866)">
     <use xlink:href="#C2_0_2fc450906c" x="95.475114" y="69.238877" style="fill: #feeeba; stroke: #feeeba"/>
    </g>
    <g clip-path="url(#p0354583866)">
     <use xlink:href="#C2_0_2fc450906c" x="88.711477" y="65.983387" style="fill: #feeeba; stroke: #feeeba"/>
    </g>
    <g clip-path="url(#p0354583866)">
     <use xlink:href="#C2_0_2fc450906c" x="81.947841" y="62.220762" style="fill: #feeeba; stroke: #feeeba"/>
    </g>
    <g clip-path="url(#p0354583866)">
     <use xlink:href="#C2_0_2fc450906c" x="75.184205" y="58.803868" style="fill: #feeeba; stroke: #feeeba"/>
    </g>
    <g clip-path="url(#p0354583866)">
     <use xlink:href="#C2_0_2fc450906c" x="68.420568" y="53.728583" style="fill: #feeeba; stroke: #feeeba"/>
    </g>
    <g clip-path="url(#p0354583866)">
     <use xlink:href="#C2_0_2fc450906c" x="61.656932" y="48.347078" style="fill: #feeeba; stroke: #feeeba"/>
    </g>
    <g clip-path="url(#p0354583866)">
     <use xlink:href="#C2_0_2fc450906c" x="54.893295" y="42.032308" style="fill: #feeeba; stroke: #feeeba"/>
    </g>
    <g clip-path="url(#p0354583866)">
     <use xlink:href="#C2_0_2fc450906c" x="48.129659" y="33.718657" style="fill: #feeeba; stroke: #feeeba"/>
    </g>
    <g clip-path="url(#p0354583866)">
     <use xlink:href="#C2_0_2fc450906c" x="41.366023" y="26.813226" style="fill: #feeeba; stroke: #feeeba"/>
    </g>
   </g>
   <g id="PathCollection_4">
    <defs>
     <path id="C3_0_2f0e4bb856" d="M 0 1.581139 
C 0.419323 1.581139 0.821528 1.41454 1.118034 1.118034 
C 1.41454 0.821528 1.581139 0.419323 1.581139 -0 
C 1.581139 -0.419323 1.41454 -0.821528 1.118034 -1.118034 
C 0.821528 -1.41454 0.419323 -1.581139 0 -1.581139 
C -0.419323 -1.581139 -0.821528 -1.41454 -1.118034 -1.118034 
C -1.41454 -0.821528 -1.581139 -0.419323 -1.581139 0 
C -1.581139 0.419323 -1.41454 0.821528 -1.118034 1.118034 
C -0.821528 1.41454 -0.419323 1.581139 0 1.581139 
z
"/>
    </defs>
    <g clip-path="url(#p0354583866)">
     <use xlink:href="#C3_0_2f0e4bb856" x="163.111477" y="70.464973" style="fill: #f5cdf5; stroke: #f5cdf5"/>
    </g>
    <g clip-path="url(#p0354583866)">
     <use xlink:href="#C3_0_2f0e4bb856" x="156.347841" y="75.448344" style="fill: #f5cdf5; stroke: #f5cdf5"/>
    </g>
    <g clip-path="url(#p0354583866)">
     <use xlink:href="#C3_0_2f0e4bb856" x="149.584205" y="78.494474" style="fill: #f5cdf5; stroke: #f5cdf5"/>
    </g>
    <g clip-path="url(#p0354583866)">
     <use xlink:href="#C3_0_2f0e4bb856" x="142.820568" y="78.001725" style="fill: #f5cdf5; stroke: #f5cdf5"/>
    </g>
    <g clip-path="url(#p0354583866)">
     <use xlink:href="#C3_0_2f0e4bb856" x="136.056932" y="77.284717" style="fill: #f5cdf5; stroke: #f5cdf5"/>
    </g>
    <g clip-path="url(#p0354583866)">
     <use xlink:href="#C3_0_2f0e4bb856" x="129.293295" y="75.799732" style="fill: #f5cdf5; stroke: #f5cdf5"/>
    </g>
    <g clip-path="url(#p0354583866)">
     <use xlink:href="#C3_0_2f0e4bb856" x="122.529659" y="73.79553" style="fill: #f5cdf5; stroke: #f5cdf5"/>
    </g>
    <g clip-path="url(#p0354583866)">
     <use xlink:href="#C3_0_2f0e4bb856" x="115.766023" y="70.308363" style="fill: #f5cdf5; stroke: #f5cdf5"/>
    </g>
    <g clip-path="url(#p0354583866)">
     <use xlink:href="#C3_0_2f0e4bb856" x="109.002386" y="66.155912" style="fill: #f5cdf5; stroke: #f5cdf5"/>
    </g>
    <g clip-path="url(#p0354583866)">
     <use xlink:href="#C3_0_2f0e4bb856" x="102.23875" y="62.059299" style="fill: #f5cdf5; stroke: #f5cdf5"/>
    </g>
    <g clip-path="url(#p0354583866)">
     <use xlink:href="#C3_0_2f0e4bb856" x="95.475114" y="57.888546" style="fill: #f5cdf5; stroke: #f5cdf5"/>
    </g>
    <g clip-path="url(#p0354583866)">
     <use xlink:href="#C3_0_2f0e4bb856" x="88.711477" y="52.195607" style="fill: #f5cdf5; stroke: #f5cdf5"/>
    </g>
    <g clip-path="url(#p0354583866)">
     <use xlink:href="#C3_0_2f0e4bb856" x="81.947841" y="46.341681" style="fill: #f5cdf5; stroke: #f5cdf5"/>
    </g>
    <g clip-path="url(#p0354583866)">
     <use xlink:href="#C3_0_2f0e4bb856" x="75.184205" y="40.875533" style="fill: #f5cdf5; stroke: #f5cdf5"/>
    </g>
    <g clip-path="url(#p0354583866)">
     <use xlink:href="#C3_0_2f0e4bb856" x="68.420568" y="34.324415" style="fill: #f5cdf5; stroke: #f5cdf5"/>
    </g>
    <g clip-path="url(#p0354583866)">
     <use xlink:href="#C3_0_2f0e4bb856" x="61.656932" y="27.775224" style="fill: #f5cdf5; stroke: #f5cdf5"/>
    </g>
    <g clip-path="url(#p0354583866)">
     <use xlink:href="#C3_0_2f0e4bb856" x="54.893295" y="21.698939" style="fill: #f5cdf5; stroke: #f5cdf5"/>
    </g>
    <g clip-path="url(#p0354583866)">
     <use xlink:href="#C3_0_2f0e4bb856" x="48.129659" y="15.137861" style="fill: #c828c6; stroke: #c828c6"/>
    </g>
    <g clip-path="url(#p0354583866)">
     <use xlink:href="#C3_0_2f0e4bb856" x="41.366023" y="10.98" style="fill: #c828c6; stroke: #c828c6"/>
    </g>
   </g>
   <g id="PathCollection_5">
    <defs>
     <path id="C4_0_11dcec3014" d="M 0 1.581139 
C 0.419323 1.581139 0.821528 1.41454 1.118034 1.118034 
C 1.41454 0.821528 1.581139 0.419323 1.581139 -0 
C 1.581139 -0.419323 1.41454 -0.821528 1.118034 -1.118034 
C 0.821528 -1.41454 0.419323 -1.581139 0 -1.581139 
C -0.419323 -1.581139 -0.821528 -1.41454 -1.118034 -1.118034 
C -1.41454 -0.821528 -1.581139 -0.419323 -1.581139 0 
C -1.581139 0.419323 -1.41454 0.821528 -1.118034 1.118034 
C -0.821528 1.41454 -0.419323 1.581139 0 1.581139 
z
"/>
    </defs>
    <g clip-path="url(#p0354583866)">
     <use xlink:href="#C4_0_11dcec3014" x="163.111477" y="54.632673" style="fill: #caf8f8; stroke: #caf8f8"/>
    </g>
    <g clip-path="url(#p0354583866)">
     <use xlink:href="#C4_0_11dcec3014" x="156.347841" y="58.483643" style="fill: #caf8f8; stroke: #caf8f8"/>
    </g>
    <g clip-path="url(#p0354583866)">
     <use xlink:href="#C4_0_11dcec3014" x="149.584205" y="59.973529" style="fill: #caf8f8; stroke: #caf8f8"/>
    </g>
    <g clip-path="url(#p0354583866)">
     <use xlink:href="#C4_0_11dcec3014" x="142.820568" y="62.254668" style="fill: #caf8f8; stroke: #caf8f8"/>
    </g>
    <g clip-path="url(#p0354583866)">
     <use xlink:href="#C4_0_11dcec3014" x="136.056932" y="64.899939" style="fill: #caf8f8; stroke: #caf8f8"/>
    </g>
    <g clip-path="url(#p0354583866)">
     <use xlink:href="#C4_0_11dcec3014" x="129.293295" y="66.243121" style="fill: #caf8f8; stroke: #caf8f8"/>
    </g>
    <g clip-path="url(#p0354583866)">
     <use xlink:href="#C4_0_11dcec3014" x="122.529659" y="66.26958" style="fill: #caf8f8; stroke: #caf8f8"/>
    </g>
    <g clip-path="url(#p0354583866)">
     <use xlink:href="#C4_0_11dcec3014" x="115.766023" y="66.002048" style="fill: #caf8f8; stroke: #caf8f8"/>
    </g>
    <g clip-path="url(#p0354583866)">
     <use xlink:href="#C4_0_11dcec3014" x="109.002386" y="65.050822" style="fill: #caf8f8; stroke: #caf8f8"/>
    </g>
    <g clip-path="url(#p0354583866)">
     <use xlink:href="#C4_0_11dcec3014" x="102.23875" y="63.81372" style="fill: #caf8f8; stroke: #caf8f8"/>
    </g>
    <g clip-path="url(#p0354583866)">
     <use xlink:href="#C4_0_11dcec3014" x="95.475114" y="62.737797" style="fill: #caf8f8; stroke: #caf8f8"/>
    </g>
    <g clip-path="url(#p0354583866)">
     <use xlink:href="#C4_0_11dcec3014" x="88.711477" y="60.032061" style="fill: #caf8f8; stroke: #caf8f8"/>
    </g>
    <g clip-path="url(#p0354583866)">
     <use xlink:href="#C4_0_11dcec3014" x="81.947841" y="56.819469" style="fill: #caf8f8; stroke: #caf8f8"/>
    </g>
    <g clip-path="url(#p0354583866)">
     <use xlink:href="#C4_0_11dcec3014" x="75.184205" y="54.118457" style="fill: #caf8f8; stroke: #caf8f8"/>
    </g>
    <g clip-path="url(#p0354583866)">
     <use xlink:href="#C4_0_11dcec3014" x="68.420568" y="50.519453" style="fill: #caf8f8; stroke: #caf8f8"/>
    </g>
    <g clip-path="url(#p0354583866)">
     <use xlink:href="#C4_0_11dcec3014" x="61.656932" y="45.231978" style="fill: #caf8f8; stroke: #caf8f8"/>
    </g>
    <g clip-path="url(#p0354583866)">
     <use xlink:href="#C4_0_11dcec3014" x="54.893295" y="40.849091" style="fill: #caf8f8; stroke: #caf8f8"/>
    </g>
    <g clip-path="url(#p0354583866)">
     <use xlink:href="#C4_0_11dcec3014" x="48.129659" y="36.309445" style="fill: #caf8f8; stroke: #caf8f8"/>
    </g>
    <g clip-path="url(#p0354583866)">
     <use xlink:href="#C4_0_11dcec3014" x="41.366023" y="31.425097" style="fill: #caf8f8; stroke: #caf8f8"/>
    </g>
   </g>
   <g id="matplotlib.axis_1">
    <g id="xtick_1">
     <g id="line2d_6">
      <defs>
       <path id="me9b081a44f" d="M 0 0 
L 0 3.5 
" style="stroke: #000000; stroke-width: 0.8"/>
      </defs>
      <g>
       <use xlink:href="#me9b081a44f" x="48.129659" y="90.36" style="stroke: #000000; stroke-width: 0.8"/>
      </g>
     </g>
     <g id="text_1">
      <text style="font: 200 12px 'Calibri'; text-anchor: middle" x="48.129659" y="105.5275" transform="rotate(-0, 48.129659, 105.5275)">10</text>
     </g>
    </g>
    <g id="xtick_2">
     <g id="line2d_7">
      <g>
       <use xlink:href="#me9b081a44f" x="61.656932" y="90.36" style="stroke: #000000; stroke-width: 0.8"/>
      </g>
     </g>
     <g id="text_2">
      <text style="font: 200 12px 'Calibri'; text-anchor: middle" x="61.656932" y="105.5275" transform="rotate(-0, 61.656932, 105.5275)">20</text>
     </g>
    </g>
    <g id="xtick_3">
     <g id="line2d_8">
      <g>
       <use xlink:href="#me9b081a44f" x="75.184205" y="90.36" style="stroke: #000000; stroke-width: 0.8"/>
      </g>
     </g>
     <g id="text_3">
      <text style="font: 200 12px 'Calibri'; text-anchor: middle" x="75.184205" y="105.5275" transform="rotate(-0, 75.184205, 105.5275)">30</text>
     </g>
    </g>
    <g id="xtick_4">
     <g id="line2d_9">
      <g>
       <use xlink:href="#me9b081a44f" x="88.711477" y="90.36" style="stroke: #000000; stroke-width: 0.8"/>
      </g>
     </g>
     <g id="text_4">
      <text style="font: 200 12px 'Calibri'; text-anchor: middle" x="88.711477" y="105.5275" transform="rotate(-0, 88.711477, 105.5275)">40</text>
     </g>
    </g>
    <g id="xtick_5">
     <g id="line2d_10">
      <g>
       <use xlink:href="#me9b081a44f" x="102.23875" y="90.36" style="stroke: #000000; stroke-width: 0.8"/>
      </g>
     </g>
     <g id="text_5">
      <text style="font: 200 12px 'Calibri'; text-anchor: middle" x="102.23875" y="105.5275" transform="rotate(-0, 102.23875, 105.5275)">50</text>
     </g>
    </g>
    <g id="xtick_6">
     <g id="line2d_11">
      <g>
       <use xlink:href="#me9b081a44f" x="115.766023" y="90.36" style="stroke: #000000; stroke-width: 0.8"/>
      </g>
     </g>
     <g id="text_6">
      <text style="font: 200 12px 'Calibri'; text-anchor: middle" x="115.766023" y="105.5275" transform="rotate(-0, 115.766023, 105.5275)">60</text>
     </g>
    </g>
    <g id="xtick_7">
     <g id="line2d_12">
      <g>
       <use xlink:href="#me9b081a44f" x="129.293295" y="90.36" style="stroke: #000000; stroke-width: 0.8"/>
      </g>
     </g>
     <g id="text_7">
      <text style="font: 200 12px 'Calibri'; text-anchor: middle" x="129.293295" y="105.5275" transform="rotate(-0, 129.293295, 105.5275)">70</text>
     </g>
    </g>
    <g id="xtick_8">
     <g id="line2d_13">
      <g>
       <use xlink:href="#me9b081a44f" x="142.820568" y="90.36" style="stroke: #000000; stroke-width: 0.8"/>
      </g>
     </g>
     <g id="text_8">
      <text style="font: 200 12px 'Calibri'; text-anchor: middle" x="142.820568" y="105.5275" transform="rotate(-0, 142.820568, 105.5275)">80</text>
     </g>
    </g>
    <g id="xtick_9">
     <g id="line2d_14">
      <g>
       <use xlink:href="#me9b081a44f" x="156.347841" y="90.36" style="stroke: #000000; stroke-width: 0.8"/>
      </g>
     </g>
     <g id="text_9">
      <text style="font: 200 12px 'Calibri'; text-anchor: middle" x="156.347841" y="105.5275" transform="rotate(-0, 156.347841, 105.5275)">90</text>
     </g>
    </g>
    <g id="xtick_10">
     <g id="line2d_15">
      <defs>
       <path id="m35639e4306" d="M 0 0 
L 0 2 
" style="stroke: #000000; stroke-width: 0.6"/>
      </defs>
      <g>
       <use xlink:href="#m35639e4306" x="41.366023" y="90.36" style="stroke: #000000; stroke-width: 0.6"/>
      </g>
     </g>
    </g>
    <g id="xtick_11">
     <g id="line2d_16">
      <g>
       <use xlink:href="#m35639e4306" x="54.893295" y="90.36" style="stroke: #000000; stroke-width: 0.6"/>
      </g>
     </g>
    </g>
    <g id="xtick_12">
     <g id="line2d_17">
      <g>
       <use xlink:href="#m35639e4306" x="68.420568" y="90.36" style="stroke: #000000; stroke-width: 0.6"/>
      </g>
     </g>
    </g>
    <g id="xtick_13">
     <g id="line2d_18">
      <g>
       <use xlink:href="#m35639e4306" x="81.947841" y="90.36" style="stroke: #000000; stroke-width: 0.6"/>
      </g>
     </g>
    </g>
    <g id="xtick_14">
     <g id="line2d_19">
      <g>
       <use xlink:href="#m35639e4306" x="95.475114" y="90.36" style="stroke: #000000; stroke-width: 0.6"/>
      </g>
     </g>
    </g>
    <g id="xtick_15">
     <g id="line2d_20">
      <g>
       <use xlink:href="#m35639e4306" x="109.002386" y="90.36" style="stroke: #000000; stroke-width: 0.6"/>
      </g>
     </g>
    </g>
    <g id="xtick_16">
     <g id="line2d_21">
      <g>
       <use xlink:href="#m35639e4306" x="122.529659" y="90.36" style="stroke: #000000; stroke-width: 0.6"/>
      </g>
     </g>
    </g>
    <g id="xtick_17">
     <g id="line2d_22">
      <g>
       <use xlink:href="#m35639e4306" x="136.056932" y="90.36" style="stroke: #000000; stroke-width: 0.6"/>
      </g>
     </g>
    </g>
    <g id="xtick_18">
     <g id="line2d_23">
      <g>
       <use xlink:href="#m35639e4306" x="149.584205" y="90.36" style="stroke: #000000; stroke-width: 0.6"/>
      </g>
     </g>
    </g>
    <g id="xtick_19">
     <g id="line2d_24">
      <g>
       <use xlink:href="#m35639e4306" x="163.111477" y="90.36" style="stroke: #000000; stroke-width: 0.6"/>
      </g>
     </g>
    </g>
   </g>
   <g id="matplotlib.axis_2">
    <g id="ytick_1">
     <g id="line2d_25">
      <defs>
       <path id="m9b0741d631" d="M 0 0 
L -3.5 0 
" style="stroke: #000000; stroke-width: 0.8"/>
      </defs>
      <g>
       <use xlink:href="#m9b0741d631" x="35.27875" y="80.22817" style="stroke: #000000; stroke-width: 0.8"/>
      </g>
     </g>
     <g id="text_10">
      <text style="font: 200 12px 'Calibri'; text-anchor: end" x="28.27875" y="84.31192" transform="rotate(-0, 28.27875, 84.31192)">−2.5</text>
     </g>
    </g>
    <g id="ytick_2">
     <g id="line2d_26">
      <g>
       <use xlink:href="#m9b0741d631" x="35.27875" y="52.62822" style="stroke: #000000; stroke-width: 0.8"/>
      </g>
     </g>
     <g id="text_11">
      <text style="font: 200 12px 'Calibri'; text-anchor: end" x="28.27875" y="56.71197" transform="rotate(-0, 28.27875, 56.71197)">0.0</text>
     </g>
    </g>
    <g id="ytick_3">
     <g id="line2d_27">
      <g>
       <use xlink:href="#m9b0741d631" x="35.27875" y="25.028271" style="stroke: #000000; stroke-width: 0.8"/>
      </g>
     </g>
     <g id="text_12">
      <text style="font: 200 12px 'Calibri'; text-anchor: end" x="28.27875" y="29.112021" transform="rotate(-0, 28.27875, 29.112021)">2.5</text>
     </g>
    </g>
   </g>
   <g id="line2d_28">
    <path d="M 163.111477 52.62822 
L 156.347841 52.62822 
L 149.584205 52.62822 
L 142.820568 52.62822 
L 136.056932 52.62822 
L 129.293295 52.62822 
L 122.529659 52.62822 
L 115.766023 52.62822 
L 109.002386 52.62822 
L 102.23875 52.62822 
L 95.475114 52.62822 
L 88.711477 52.62822 
L 81.947841 52.62822 
L 75.184205 52.62822 
L 68.420568 52.62822 
L 61.656932 52.62822 
L 54.893295 52.62822 
L 48.129659 52.62822 
L 41.366023 52.62822 
" clip-path="url(#p0354583866)" style="fill: none; stroke-dasharray: 5.55,2.4; stroke-dashoffset: 0; stroke: #d3d3d3; stroke-width: 1.5"/>
   </g>
   <g id="line2d_29">
    <path d="M 163.111477 52.62822 
L 156.347841 52.62822 
L 149.584205 52.62822 
L 142.820568 52.62822 
L 136.056932 52.62822 
L 129.293295 52.62822 
L 122.529659 52.62822 
L 115.766023 52.62822 
L 109.002386 52.62822 
L 102.23875 52.62822 
L 95.475114 52.62822 
L 88.711477 52.62822 
L 81.947841 52.62822 
L 75.184205 52.62822 
L 68.420568 52.62822 
L 61.656932 52.62822 
L 54.893295 52.62822 
L 48.129659 52.62822 
L 41.366023 52.62822 
" clip-path="url(#p0354583866)" style="fill: none; stroke-dasharray: 5.55,2.4; stroke-dashoffset: 0; stroke: #d3d3d3; stroke-width: 1.5"/>
   </g>
   <g id="line2d_30">
    <path d="M 163.111477 52.62822 
L 156.347841 52.62822 
L 149.584205 52.62822 
L 142.820568 52.62822 
L 136.056932 52.62822 
L 129.293295 52.62822 
L 122.529659 52.62822 
L 115.766023 52.62822 
L 109.002386 52.62822 
L 102.23875 52.62822 
L 95.475114 52.62822 
L 88.711477 52.62822 
L 81.947841 52.62822 
L 75.184205 52.62822 
L 68.420568 52.62822 
L 61.656932 52.62822 
L 54.893295 52.62822 
L 48.129659 52.62822 
L 41.366023 52.62822 
" clip-path="url(#p0354583866)" style="fill: none; stroke-dasharray: 5.55,2.4; stroke-dashoffset: 0; stroke: #d3d3d3; stroke-width: 1.5"/>
   </g>
   <g id="line2d_31">
    <path d="M 163.111477 52.62822 
L 156.347841 52.62822 
L 149.584205 52.62822 
L 142.820568 52.62822 
L 136.056932 52.62822 
L 129.293295 52.62822 
L 122.529659 52.62822 
L 115.766023 52.62822 
L 109.002386 52.62822 
L 102.23875 52.62822 
L 95.475114 52.62822 
L 88.711477 52.62822 
L 81.947841 52.62822 
L 75.184205 52.62822 
L 68.420568 52.62822 
L 61.656932 52.62822 
L 54.893295 52.62822 
L 48.129659 52.62822 
L 41.366023 52.62822 
" clip-path="url(#p0354583866)" style="fill: none; stroke-dasharray: 5.55,2.4; stroke-dashoffset: 0; stroke: #d3d3d3; stroke-width: 1.5"/>
   </g>
   <g id="line2d_32">
    <path d="M 163.111477 52.62822 
L 156.347841 52.62822 
L 149.584205 52.62822 
L 142.820568 52.62822 
L 136.056932 52.62822 
L 129.293295 52.62822 
L 122.529659 52.62822 
L 115.766023 52.62822 
L 109.002386 52.62822 
L 102.23875 52.62822 
L 95.475114 52.62822 
L 88.711477 52.62822 
L 81.947841 52.62822 
L 75.184205 52.62822 
L 68.420568 52.62822 
L 61.656932 52.62822 
L 54.893295 52.62822 
L 48.129659 52.62822 
L 41.366023 52.62822 
" clip-path="url(#p0354583866)" style="fill: none; stroke-dasharray: 5.55,2.4; stroke-dashoffset: 0; stroke: #d3d3d3; stroke-width: 1.5"/>
   </g>
   <g id="patch_3">
    <path d="M 35.27875 90.36 
L 35.27875 7.2 
" style="fill: none; stroke: #000000; stroke-width: 0.8; stroke-linejoin: miter; stroke-linecap: square"/>
   </g>
   <g id="patch_4">
    <path d="M 35.27875 90.36 
L 169.19875 90.36 
" style="fill: none; stroke: #000000; stroke-width: 0.8; stroke-linejoin: miter; stroke-linecap: square"/>
   </g>
   <g id="legend_1">
    <g id="patch_5">
     <path d="M 182.95555 99.496875 
L 287.046175 99.496875 
Q 289.446175 99.496875 289.446175 97.096875 
L 289.446175 15.6 
Q 289.446175 13.2 287.046175 13.2 
L 182.95555 13.2 
Q 180.55555 13.2 180.55555 15.6 
L 180.55555 97.096875 
Q 180.55555 99.496875 182.95555 99.496875 
z
" style="fill: #ffffff; opacity: 0.8; stroke: #cccccc; stroke-linejoin: miter"/>
    </g>
    <g id="PathCollection_6">
     <path d="M 197.35555 24.831139 
C 197.774873 24.831139 198.177078 24.66454 198.473584 24.368034 
C 198.77009 24.071528 198.936689 23.669323 198.936689 23.25 
C 198.936689 22.830677 198.77009 22.428472 198.473584 22.131966 
C 198.177078 21.83546 197.774873 21.668861 197.35555 21.668861 
C 196.936227 21.668861 196.534022 21.83546 196.237516 22.131966 
C 195.94101 22.428472 195.774411 22.830677 195.774411 23.25 
C 195.774411 23.669323 195.94101 24.071528 196.237516 24.368034 
C 196.534022 24.66454 196.936227 24.831139 197.35555 24.831139 
z
" style="fill: #cdf5cd; stroke: #cdf5cd"/>
    </g>
    <g id="text_13">
     <text style="font: 200 12px 'Calibri'; text-anchor: start" x="218.95555" y="26.4" transform="rotate(-0, 218.95555, 26.4)">receptor_den</text>
    </g>
    <g id="PathCollection_7">
     <path d="M 197.35555 41.370514 
C 197.774873 41.370514 198.177078 41.203915 198.473584 40.907409 
C 198.77009 40.610903 198.936689 40.208698 198.936689 39.789375 
C 198.936689 39.370052 198.77009 38.967847 198.473584 38.671341 
C 198.177078 38.374835 197.774873 38.208236 197.35555 38.208236 
C 196.936227 38.208236 196.534022 38.374835 196.237516 38.671341 
C 195.94101 38.967847 195.774411 39.370052 195.774411 39.789375 
C 195.774411 40.208698 195.94101 40.610903 196.237516 40.907409 
C 196.534022 41.203915 196.936227 41.370514 197.35555 41.370514 
z
" style="fill: #cacaf8; stroke: #cacaf8"/>
    </g>
    <g id="text_14">
     <text style="font: 200 12px 'Calibri'; text-anchor: start" x="218.95555" y="42.939375" transform="rotate(-0, 218.95555, 42.939375)">EI_ratio</text>
    </g>
    <g id="PathCollection_8">
     <path d="M 197.35555 57.909889 
C 197.774873 57.909889 198.177078 57.74329 198.473584 57.446784 
C 198.77009 57.150278 198.936689 56.748073 198.936689 56.32875 
C 198.936689 55.909427 198.77009 55.507222 198.473584 55.210716 
C 198.177078 54.91421 197.774873 54.747611 197.35555 54.747611 
C 196.936227 54.747611 196.534022 54.91421 196.237516 55.210716 
C 195.94101 55.507222 195.774411 55.909427 195.774411 56.32875 
C 195.774411 56.748073 195.94101 57.150278 196.237516 57.446784 
C 196.534022 57.74329 196.936227 57.909889 197.35555 57.909889 
z
" style="fill: #feeeba; stroke: #feeeba"/>
    </g>
    <g id="text_15">
     <text style="font: 200 12px 'Calibri'; text-anchor: start" x="218.95555" y="59.47875" transform="rotate(-0, 218.95555, 59.47875)">genePC1</text>
    </g>
    <g id="PathCollection_9">
     <path d="M 197.35555 74.449264 
C 197.774873 74.449264 198.177078 74.282665 198.473584 73.986159 
C 198.77009 73.689653 198.936689 73.287448 198.936689 72.868125 
C 198.936689 72.448802 198.77009 72.046597 198.473584 71.750091 
C 198.177078 71.453585 197.774873 71.286986 197.35555 71.286986 
C 196.936227 71.286986 196.534022 71.453585 196.237516 71.750091 
C 195.94101 72.046597 195.774411 72.448802 195.774411 72.868125 
C 195.774411 73.287448 195.94101 73.689653 196.237516 73.986159 
C 196.534022 74.282665 196.936227 74.449264 197.35555 74.449264 
z
" style="fill: #f5cdf5; stroke: #f5cdf5"/>
    </g>
    <g id="text_16">
     <text style="font: 200 12px 'Calibri'; text-anchor: start" x="218.95555" y="76.018125" transform="rotate(-0, 218.95555, 76.018125)">t1t2</text>
    </g>
    <g id="PathCollection_10">
     <path d="M 197.35555 90.988639 
C 197.774873 90.988639 198.177078 90.82204 198.473584 90.525534 
C 198.77009 90.229028 198.936689 89.826823 198.936689 89.4075 
C 198.936689 88.988177 198.77009 88.585972 198.473584 88.289466 
C 198.177078 87.99296 197.774873 87.826361 197.35555 87.826361 
C 196.936227 87.826361 196.534022 87.99296 196.237516 88.289466 
C 195.94101 88.585972 195.774411 88.988177 195.774411 89.4075 
C 195.774411 89.826823 195.94101 90.229028 196.237516 90.525534 
C 196.534022 90.82204 196.936227 90.988639 197.35555 90.988639 
z
" style="fill: #caf8f8; stroke: #caf8f8"/>
    </g>
    <g id="text_17">
     <text style="font: 200 12px 'Calibri'; text-anchor: start" x="218.95555" y="92.5575" transform="rotate(-0, 218.95555, 92.5575)">thi</text>
    </g>
   </g>
  </g>
 </g>
 <defs>
  <clipPath id="p0354583866">
   <rect x="35.27875" y="7.2" width="133.92" height="83.16"/>
  </clipPath>
 </defs>
</svg>
