<?xml version="1.0" encoding="utf-8" standalone="no"?>
<!DOCTYPE svg PUBLIC "-//W3C//DTD SVG 1.1//EN"
  "http://www.w3.org/Graphics/SVG/1.1/DTD/svg11.dtd">
<svg xmlns:xlink="http://www.w3.org/1999/xlink" width="296.646175pt" height="114.866875pt" viewBox="0 0 296.646175 114.866875" xmlns="http://www.w3.org/2000/svg" version="1.1">
 <metadata>
  <rdf:RDF xmlns:dc="http://purl.org/dc/elements/1.1/" xmlns:cc="http://creativecommons.org/ns#" xmlns:rdf="http://www.w3.org/1999/02/22-rdf-syntax-ns#">
   <cc:Work>
    <dc:type rdf:resource="http://purl.org/dc/dcmitype/StillImage"/>
    <dc:date>2023-04-11T15:30:12.525268</dc:date>
    <dc:format>image/svg+xml</dc:format>
    <dc:creator>
     <cc:Agent>
      <dc:title>Matplotlib v3.5.1, https://matplotlib.org/</dc:title>
     </cc:Agent>
    </dc:creator>
   </cc:Work>
  </rdf:RDF>
 </metadata>
 <defs>
  <style type="text/css">*{stroke-linejoin: round; stroke-linecap: butt}</style>
 </defs>
 <g id="figure_1">
  <g id="patch_1">
   <path d="M 0 114.866875 
L 296.646175 114.866875 
L 296.646175 0 
L 0 0 
z
" style="fill: #ffffff"/>
  </g>
  <g id="axes_1">
   <g id="patch_2">
    <path d="M 35.27875 90.36 
L 169.19875 90.36 
L 169.19875 7.2 
L 35.27875 7.2 
z
" style="fill: #ffffff"/>
   </g>
   <g id="line2d_1">
    <path d="M 163.111477 60.347609 
L 156.347841 61.180545 
L 149.584205 62.561414 
L 142.820568 63.076986 
L 136.056932 63.878199 
L 129.293295 64.494307 
L 122.529659 65.444043 
L 115.766023 65.298818 
L 109.002386 64.907795 
L 102.23875 62.505915 
L 95.475114 59.641271 
L 88.711477 56.514115 
L 81.947841 52.236139 
L 75.184205 48.072667 
L 68.420568 42.963314 
L 61.656932 39.11161 
L 54.893295 36.208749 
L 48.129659 33.826695 
L 41.366023 30.499749 
" clip-path="url(#pa6df53b075)" style="fill: none; stroke: #cdf5cd; stroke-width: 1.5; stroke-linecap: square"/>
   </g>
   <g id="line2d_2">
    <path d="M 163.111477 55.643076 
L 156.347841 58.887639 
L 149.584205 62.637316 
L 142.820568 66.168488 
L 136.056932 69.583245 
L 129.293295 73.57135 
L 122.529659 76.96789 
L 115.766023 80.807704 
L 109.002386 83.118482 
L 102.23875 85.586898 
L 95.475114 86.482283 
L 88.711477 86.58 
L 81.947841 86.20644 
L 75.184205 85.264425 
L 68.420568 84.395977 
L 61.656932 82.600413 
L 54.893295 77.547189 
L 48.129659 62.423061 
L 41.366023 36.861139 
" clip-path="url(#pa6df53b075)" style="fill: none; stroke: #cacaf8; stroke-width: 1.5; stroke-linecap: square"/>
   </g>
   <g id="line2d_3">
    <path d="M 163.111477 58.351891 
L 156.347841 61.594173 
L 149.584205 63.849697 
L 142.820568 64.741829 
L 136.056932 65.500054 
L 129.293295 65.416591 
L 122.529659 64.580116 
L 115.766023 63.724463 
L 109.002386 62.424095 
L 102.23875 60.980387 
L 95.475114 59.333547 
L 88.711477 57.926826 
L 81.947841 55.75631 
L 75.184205 52.93274 
L 68.420568 48.833668 
L 61.656932 43.947475 
L 54.893295 36.93814 
L 48.129659 27.68135 
L 41.366023 19.339641 
" clip-path="url(#pa6df53b075)" style="fill: none; stroke: #feeeba; stroke-width: 1.5; stroke-linecap: square"/>
   </g>
   <g id="line2d_4">
    <path d="M 163.111477 57.090743 
L 156.347841 60.751801 
L 149.584205 61.733174 
L 142.820568 61.845071 
L 136.056932 61.319003 
L 129.293295 59.849224 
L 122.529659 57.901815 
L 115.766023 55.537041 
L 109.002386 52.651245 
L 102.23875 49.588592 
L 95.475114 46.107248 
L 88.711477 42.220312 
L 81.947841 38.332766 
L 75.184205 35.342694 
L 68.420568 32.708494 
L 61.656932 29.787055 
L 54.893295 25.235667 
L 48.129659 18.90996 
L 41.366023 11.56893 
" clip-path="url(#pa6df53b075)" style="fill: none; stroke: #f5cdf5; stroke-width: 1.5; stroke-linecap: square"/>
   </g>
   <g id="line2d_5">
    <path d="M 163.111477 56.723418 
L 156.347841 62.209357 
L 149.584205 65.987839 
L 142.820568 68.136202 
L 136.056932 68.822364 
L 129.293295 67.674405 
L 122.529659 64.993338 
L 115.766023 61.781741 
L 109.002386 57.333287 
L 102.23875 52.011769 
L 95.475114 46.688656 
L 88.711477 41.948383 
L 81.947841 37.529239 
L 75.184205 33.778338 
L 68.420568 30.07873 
L 61.656932 26.55031 
L 54.893295 21.751381 
L 48.129659 15.573762 
L 41.366023 10.98 
" clip-path="url(#pa6df53b075)" style="fill: none; stroke: #caf8f8; stroke-width: 1.5; stroke-linecap: square"/>
   </g>
   <g id="PathCollection_1">
    <defs>
     <path id="C0_0_1959d3b110" d="M 0 1.581139 
C 0.419323 1.581139 0.821528 1.41454 1.118034 1.118034 
C 1.41454 0.821528 1.581139 0.419323 1.581139 -0 
C 1.581139 -0.419323 1.41454 -0.821528 1.118034 -1.118034 
C 0.821528 -1.41454 0.419323 -1.581139 0 -1.581139 
C -0.419323 -1.581139 -0.821528 -1.41454 -1.118034 -1.118034 
C -1.41454 -0.821528 -1.581139 -0.419323 -1.581139 0 
C -1.581139 0.419323 -1.41454 0.821528 -1.118034 1.118034 
C -0.821528 1.41454 -0.419323 1.581139 0 1.581139 
z
"/>
    </defs>
    <g clip-path="url(#pa6df53b075)">
     <use xlink:href="#C0_0_1959d3b110" x="163.111477" y="60.347609" style="fill: #cdf5cd; stroke: #cdf5cd"/>
    </g>
    <g clip-path="url(#pa6df53b075)">
     <use xlink:href="#C0_0_1959d3b110" x="156.347841" y="61.180545" style="fill: #cdf5cd; stroke: #cdf5cd"/>
    </g>
    <g clip-path="url(#pa6df53b075)">
     <use xlink:href="#C0_0_1959d3b110" x="149.584205" y="62.561414" style="fill: #cdf5cd; stroke: #cdf5cd"/>
    </g>
    <g clip-path="url(#pa6df53b075)">
     <use xlink:href="#C0_0_1959d3b110" x="142.820568" y="63.076986" style="fill: #cdf5cd; stroke: #cdf5cd"/>
    </g>
    <g clip-path="url(#pa6df53b075)">
     <use xlink:href="#C0_0_1959d3b110" x="136.056932" y="63.878199" style="fill: #cdf5cd; stroke: #cdf5cd"/>
    </g>
    <g clip-path="url(#pa6df53b075)">
     <use xlink:href="#C0_0_1959d3b110" x="129.293295" y="64.494307" style="fill: #cdf5cd; stroke: #cdf5cd"/>
    </g>
    <g clip-path="url(#pa6df53b075)">
     <use xlink:href="#C0_0_1959d3b110" x="122.529659" y="65.444043" style="fill: #cdf5cd; stroke: #cdf5cd"/>
    </g>
    <g clip-path="url(#pa6df53b075)">
     <use xlink:href="#C0_0_1959d3b110" x="115.766023" y="65.298818" style="fill: #cdf5cd; stroke: #cdf5cd"/>
    </g>
    <g clip-path="url(#pa6df53b075)">
     <use xlink:href="#C0_0_1959d3b110" x="109.002386" y="64.907795" style="fill: #cdf5cd; stroke: #cdf5cd"/>
    </g>
    <g clip-path="url(#pa6df53b075)">
     <use xlink:href="#C0_0_1959d3b110" x="102.23875" y="62.505915" style="fill: #cdf5cd; stroke: #cdf5cd"/>
    </g>
    <g clip-path="url(#pa6df53b075)">
     <use xlink:href="#C0_0_1959d3b110" x="95.475114" y="59.641271" style="fill: #cdf5cd; stroke: #cdf5cd"/>
    </g>
    <g clip-path="url(#pa6df53b075)">
     <use xlink:href="#C0_0_1959d3b110" x="88.711477" y="56.514115" style="fill: #cdf5cd; stroke: #cdf5cd"/>
    </g>
    <g clip-path="url(#pa6df53b075)">
     <use xlink:href="#C0_0_1959d3b110" x="81.947841" y="52.236139" style="fill: #cdf5cd; stroke: #cdf5cd"/>
    </g>
    <g clip-path="url(#pa6df53b075)">
     <use xlink:href="#C0_0_1959d3b110" x="75.184205" y="48.072667" style="fill: #cdf5cd; stroke: #cdf5cd"/>
    </g>
    <g clip-path="url(#pa6df53b075)">
     <use xlink:href="#C0_0_1959d3b110" x="68.420568" y="42.963314" style="fill: #cdf5cd; stroke: #cdf5cd"/>
    </g>
    <g clip-path="url(#pa6df53b075)">
     <use xlink:href="#C0_0_1959d3b110" x="61.656932" y="39.11161" style="fill: #cdf5cd; stroke: #cdf5cd"/>
    </g>
    <g clip-path="url(#pa6df53b075)">
     <use xlink:href="#C0_0_1959d3b110" x="54.893295" y="36.208749" style="fill: #cdf5cd; stroke: #cdf5cd"/>
    </g>
    <g clip-path="url(#pa6df53b075)">
     <use xlink:href="#C0_0_1959d3b110" x="48.129659" y="33.826695" style="fill: #cdf5cd; stroke: #cdf5cd"/>
    </g>
    <g clip-path="url(#pa6df53b075)">
     <use xlink:href="#C0_0_1959d3b110" x="41.366023" y="30.499749" style="fill: #cdf5cd; stroke: #cdf5cd"/>
    </g>
   </g>
   <g id="PathCollection_2">
    <defs>
     <path id="C1_0_8ddcb8b0bd" d="M 0 1.581139 
C 0.419323 1.581139 0.821528 1.41454 1.118034 1.118034 
C 1.41454 0.821528 1.581139 0.419323 1.581139 -0 
C 1.581139 -0.419323 1.41454 -0.821528 1.118034 -1.118034 
C 0.821528 -1.41454 0.419323 -1.581139 0 -1.581139 
C -0.419323 -1.581139 -0.821528 -1.41454 -1.118034 -1.118034 
C -1.41454 -0.821528 -1.581139 -0.419323 -1.581139 0 
C -1.581139 0.419323 -1.41454 0.821528 -1.118034 1.118034 
C -0.821528 1.41454 -0.419323 1.581139 0 1.581139 
z
"/>
    </defs>
    <g clip-path="url(#pa6df53b075)">
     <use xlink:href="#C1_0_8ddcb8b0bd" x="163.111477" y="55.643076" style="fill: #cacaf8; stroke: #cacaf8"/>
    </g>
    <g clip-path="url(#pa6df53b075)">
     <use xlink:href="#C1_0_8ddcb8b0bd" x="156.347841" y="58.887639" style="fill: #cacaf8; stroke: #cacaf8"/>
    </g>
    <g clip-path="url(#pa6df53b075)">
     <use xlink:href="#C1_0_8ddcb8b0bd" x="149.584205" y="62.637316" style="fill: #cacaf8; stroke: #cacaf8"/>
    </g>
    <g clip-path="url(#pa6df53b075)">
     <use xlink:href="#C1_0_8ddcb8b0bd" x="142.820568" y="66.168488" style="fill: #cacaf8; stroke: #cacaf8"/>
    </g>
    <g clip-path="url(#pa6df53b075)">
     <use xlink:href="#C1_0_8ddcb8b0bd" x="136.056932" y="69.583245" style="fill: #1a1ad6; stroke: #1a1ad6"/>
    </g>
    <g clip-path="url(#pa6df53b075)">
     <use xlink:href="#C1_0_8ddcb8b0bd" x="129.293295" y="73.57135" style="fill: #1a1ad6; stroke: #1a1ad6"/>
    </g>
    <g clip-path="url(#pa6df53b075)">
     <use xlink:href="#C1_0_8ddcb8b0bd" x="122.529659" y="76.96789" style="fill: #1a1ad6; stroke: #1a1ad6"/>
    </g>
    <g clip-path="url(#pa6df53b075)">
     <use xlink:href="#C1_0_8ddcb8b0bd" x="115.766023" y="80.807704" style="fill: #1a1ad6; stroke: #1a1ad6"/>
    </g>
    <g clip-path="url(#pa6df53b075)">
     <use xlink:href="#C1_0_8ddcb8b0bd" x="109.002386" y="83.118482" style="fill: #1a1ad6; stroke: #1a1ad6"/>
    </g>
    <g clip-path="url(#pa6df53b075)">
     <use xlink:href="#C1_0_8ddcb8b0bd" x="102.23875" y="85.586898" style="fill: #1a1ad6; stroke: #1a1ad6"/>
    </g>
    <g clip-path="url(#pa6df53b075)">
     <use xlink:href="#C1_0_8ddcb8b0bd" x="95.475114" y="86.482283" style="fill: #1a1ad6; stroke: #1a1ad6"/>
    </g>
    <g clip-path="url(#pa6df53b075)">
     <use xlink:href="#C1_0_8ddcb8b0bd" x="88.711477" y="86.58" style="fill: #1a1ad6; stroke: #1a1ad6"/>
    </g>
    <g clip-path="url(#pa6df53b075)">
     <use xlink:href="#C1_0_8ddcb8b0bd" x="81.947841" y="86.20644" style="fill: #1a1ad6; stroke: #1a1ad6"/>
    </g>
    <g clip-path="url(#pa6df53b075)">
     <use xlink:href="#C1_0_8ddcb8b0bd" x="75.184205" y="85.264425" style="fill: #1a1ad6; stroke: #1a1ad6"/>
    </g>
    <g clip-path="url(#pa6df53b075)">
     <use xlink:href="#C1_0_8ddcb8b0bd" x="68.420568" y="84.395977" style="fill: #1a1ad6; stroke: #1a1ad6"/>
    </g>
    <g clip-path="url(#pa6df53b075)">
     <use xlink:href="#C1_0_8ddcb8b0bd" x="61.656932" y="82.600413" style="fill: #1a1ad6; stroke: #1a1ad6"/>
    </g>
    <g clip-path="url(#pa6df53b075)">
     <use xlink:href="#C1_0_8ddcb8b0bd" x="54.893295" y="77.547189" style="fill: #1a1ad6; stroke: #1a1ad6"/>
    </g>
    <g clip-path="url(#pa6df53b075)">
     <use xlink:href="#C1_0_8ddcb8b0bd" x="48.129659" y="62.423061" style="fill: #cacaf8; stroke: #cacaf8"/>
    </g>
    <g clip-path="url(#pa6df53b075)">
     <use xlink:href="#C1_0_8ddcb8b0bd" x="41.366023" y="36.861139" style="fill: #cacaf8; stroke: #cacaf8"/>
    </g>
   </g>
   <g id="PathCollection_3">
    <defs>
     <path id="C2_0_cd59c04e14" d="M 0 1.581139 
C 0.419323 1.581139 0.821528 1.41454 1.118034 1.118034 
C 1.41454 0.821528 1.581139 0.419323 1.581139 -0 
C 1.581139 -0.419323 1.41454 -0.821528 1.118034 -1.118034 
C 0.821528 -1.41454 0.419323 -1.581139 0 -1.581139 
C -0.419323 -1.581139 -0.821528 -1.41454 -1.118034 -1.118034 
C -1.41454 -0.821528 -1.581139 -0.419323 -1.581139 0 
C -1.581139 0.419323 -1.41454 0.821528 -1.118034 1.118034 
C -0.821528 1.41454 -0.419323 1.581139 0 1.581139 
z
"/>
    </defs>
    <g clip-path="url(#pa6df53b075)">
     <use xlink:href="#C2_0_cd59c04e14" x="163.111477" y="58.351891" style="fill: #feeeba; stroke: #feeeba"/>
    </g>
    <g clip-path="url(#pa6df53b075)">
     <use xlink:href="#C2_0_cd59c04e14" x="156.347841" y="61.594173" style="fill: #feeeba; stroke: #feeeba"/>
    </g>
    <g clip-path="url(#pa6df53b075)">
     <use xlink:href="#C2_0_cd59c04e14" x="149.584205" y="63.849697" style="fill: #feeeba; stroke: #feeeba"/>
    </g>
    <g clip-path="url(#pa6df53b075)">
     <use xlink:href="#C2_0_cd59c04e14" x="142.820568" y="64.741829" style="fill: #feeeba; stroke: #feeeba"/>
    </g>
    <g clip-path="url(#pa6df53b075)">
     <use xlink:href="#C2_0_cd59c04e14" x="136.056932" y="65.500054" style="fill: #f2b701; stroke: #f2b701"/>
    </g>
    <g clip-path="url(#pa6df53b075)">
     <use xlink:href="#C2_0_cd59c04e14" x="129.293295" y="65.416591" style="fill: #f2b701; stroke: #f2b701"/>
    </g>
    <g clip-path="url(#pa6df53b075)">
     <use xlink:href="#C2_0_cd59c04e14" x="122.529659" y="64.580116" style="fill: #feeeba; stroke: #feeeba"/>
    </g>
    <g clip-path="url(#pa6df53b075)">
     <use xlink:href="#C2_0_cd59c04e14" x="115.766023" y="63.724463" style="fill: #feeeba; stroke: #feeeba"/>
    </g>
    <g clip-path="url(#pa6df53b075)">
     <use xlink:href="#C2_0_cd59c04e14" x="109.002386" y="62.424095" style="fill: #feeeba; stroke: #feeeba"/>
    </g>
    <g clip-path="url(#pa6df53b075)">
     <use xlink:href="#C2_0_cd59c04e14" x="102.23875" y="60.980387" style="fill: #feeeba; stroke: #feeeba"/>
    </g>
    <g clip-path="url(#pa6df53b075)">
     <use xlink:href="#C2_0_cd59c04e14" x="95.475114" y="59.333547" style="fill: #feeeba; stroke: #feeeba"/>
    </g>
    <g clip-path="url(#pa6df53b075)">
     <use xlink:href="#C2_0_cd59c04e14" x="88.711477" y="57.926826" style="fill: #feeeba; stroke: #feeeba"/>
    </g>
    <g clip-path="url(#pa6df53b075)">
     <use xlink:href="#C2_0_cd59c04e14" x="81.947841" y="55.75631" style="fill: #feeeba; stroke: #feeeba"/>
    </g>
    <g clip-path="url(#pa6df53b075)">
     <use xlink:href="#C2_0_cd59c04e14" x="75.184205" y="52.93274" style="fill: #feeeba; stroke: #feeeba"/>
    </g>
    <g clip-path="url(#pa6df53b075)">
     <use xlink:href="#C2_0_cd59c04e14" x="68.420568" y="48.833668" style="fill: #feeeba; stroke: #feeeba"/>
    </g>
    <g clip-path="url(#pa6df53b075)">
     <use xlink:href="#C2_0_cd59c04e14" x="61.656932" y="43.947475" style="fill: #feeeba; stroke: #feeeba"/>
    </g>
    <g clip-path="url(#pa6df53b075)">
     <use xlink:href="#C2_0_cd59c04e14" x="54.893295" y="36.93814" style="fill: #feeeba; stroke: #feeeba"/>
    </g>
    <g clip-path="url(#pa6df53b075)">
     <use xlink:href="#C2_0_cd59c04e14" x="48.129659" y="27.68135" style="fill: #feeeba; stroke: #feeeba"/>
    </g>
    <g clip-path="url(#pa6df53b075)">
     <use xlink:href="#C2_0_cd59c04e14" x="41.366023" y="19.339641" style="fill: #f2b701; stroke: #f2b701"/>
    </g>
   </g>
   <g id="PathCollection_4">
    <defs>
     <path id="C3_0_3a09909251" d="M 0 1.581139 
C 0.419323 1.581139 0.821528 1.41454 1.118034 1.118034 
C 1.41454 0.821528 1.581139 0.419323 1.581139 -0 
C 1.581139 -0.419323 1.41454 -0.821528 1.118034 -1.118034 
C 0.821528 -1.41454 0.419323 -1.581139 0 -1.581139 
C -0.419323 -1.581139 -0.821528 -1.41454 -1.118034 -1.118034 
C -1.41454 -0.821528 -1.581139 -0.419323 -1.581139 0 
C -1.581139 0.419323 -1.41454 0.821528 -1.118034 1.118034 
C -0.821528 1.41454 -0.419323 1.581139 0 1.581139 
z
"/>
    </defs>
    <g clip-path="url(#pa6df53b075)">
     <use xlink:href="#C3_0_3a09909251" x="163.111477" y="57.090743" style="fill: #f5cdf5; stroke: #f5cdf5"/>
    </g>
    <g clip-path="url(#pa6df53b075)">
     <use xlink:href="#C3_0_3a09909251" x="156.347841" y="60.751801" style="fill: #f5cdf5; stroke: #f5cdf5"/>
    </g>
    <g clip-path="url(#pa6df53b075)">
     <use xlink:href="#C3_0_3a09909251" x="149.584205" y="61.733174" style="fill: #f5cdf5; stroke: #f5cdf5"/>
    </g>
    <g clip-path="url(#pa6df53b075)">
     <use xlink:href="#C3_0_3a09909251" x="142.820568" y="61.845071" style="fill: #f5cdf5; stroke: #f5cdf5"/>
    </g>
    <g clip-path="url(#pa6df53b075)">
     <use xlink:href="#C3_0_3a09909251" x="136.056932" y="61.319003" style="fill: #f5cdf5; stroke: #f5cdf5"/>
    </g>
    <g clip-path="url(#pa6df53b075)">
     <use xlink:href="#C3_0_3a09909251" x="129.293295" y="59.849224" style="fill: #f5cdf5; stroke: #f5cdf5"/>
    </g>
    <g clip-path="url(#pa6df53b075)">
     <use xlink:href="#C3_0_3a09909251" x="122.529659" y="57.901815" style="fill: #f5cdf5; stroke: #f5cdf5"/>
    </g>
    <g clip-path="url(#pa6df53b075)">
     <use xlink:href="#C3_0_3a09909251" x="115.766023" y="55.537041" style="fill: #f5cdf5; stroke: #f5cdf5"/>
    </g>
    <g clip-path="url(#pa6df53b075)">
     <use xlink:href="#C3_0_3a09909251" x="109.002386" y="52.651245" style="fill: #f5cdf5; stroke: #f5cdf5"/>
    </g>
    <g clip-path="url(#pa6df53b075)">
     <use xlink:href="#C3_0_3a09909251" x="102.23875" y="49.588592" style="fill: #f5cdf5; stroke: #f5cdf5"/>
    </g>
    <g clip-path="url(#pa6df53b075)">
     <use xlink:href="#C3_0_3a09909251" x="95.475114" y="46.107248" style="fill: #f5cdf5; stroke: #f5cdf5"/>
    </g>
    <g clip-path="url(#pa6df53b075)">
     <use xlink:href="#C3_0_3a09909251" x="88.711477" y="42.220312" style="fill: #f5cdf5; stroke: #f5cdf5"/>
    </g>
    <g clip-path="url(#pa6df53b075)">
     <use xlink:href="#C3_0_3a09909251" x="81.947841" y="38.332766" style="fill: #f5cdf5; stroke: #f5cdf5"/>
    </g>
    <g clip-path="url(#pa6df53b075)">
     <use xlink:href="#C3_0_3a09909251" x="75.184205" y="35.342694" style="fill: #f5cdf5; stroke: #f5cdf5"/>
    </g>
    <g clip-path="url(#pa6df53b075)">
     <use xlink:href="#C3_0_3a09909251" x="68.420568" y="32.708494" style="fill: #f5cdf5; stroke: #f5cdf5"/>
    </g>
    <g clip-path="url(#pa6df53b075)">
     <use xlink:href="#C3_0_3a09909251" x="61.656932" y="29.787055" style="fill: #f5cdf5; stroke: #f5cdf5"/>
    </g>
    <g clip-path="url(#pa6df53b075)">
     <use xlink:href="#C3_0_3a09909251" x="54.893295" y="25.235667" style="fill: #f5cdf5; stroke: #f5cdf5"/>
    </g>
    <g clip-path="url(#pa6df53b075)">
     <use xlink:href="#C3_0_3a09909251" x="48.129659" y="18.90996" style="fill: #f5cdf5; stroke: #f5cdf5"/>
    </g>
    <g clip-path="url(#pa6df53b075)">
     <use xlink:href="#C3_0_3a09909251" x="41.366023" y="11.56893" style="fill: #c828c6; stroke: #c828c6"/>
    </g>
   </g>
   <g id="PathCollection_5">
    <defs>
     <path id="C4_0_58f4615a7c" d="M 0 1.581139 
C 0.419323 1.581139 0.821528 1.41454 1.118034 1.118034 
C 1.41454 0.821528 1.581139 0.419323 1.581139 -0 
C 1.581139 -0.419323 1.41454 -0.821528 1.118034 -1.118034 
C 0.821528 -1.41454 0.419323 -1.581139 0 -1.581139 
C -0.419323 -1.581139 -0.821528 -1.41454 -1.118034 -1.118034 
C -1.41454 -0.821528 -1.581139 -0.419323 -1.581139 0 
C -1.581139 0.419323 -1.41454 0.821528 -1.118034 1.118034 
C -0.821528 1.41454 -0.419323 1.581139 0 1.581139 
z
"/>
    </defs>
    <g clip-path="url(#pa6df53b075)">
     <use xlink:href="#C4_0_58f4615a7c" x="163.111477" y="56.723418" style="fill: #caf8f8; stroke: #caf8f8"/>
    </g>
    <g clip-path="url(#pa6df53b075)">
     <use xlink:href="#C4_0_58f4615a7c" x="156.347841" y="62.209357" style="fill: #caf8f8; stroke: #caf8f8"/>
    </g>
    <g clip-path="url(#pa6df53b075)">
     <use xlink:href="#C4_0_58f4615a7c" x="149.584205" y="65.987839" style="fill: #caf8f8; stroke: #caf8f8"/>
    </g>
    <g clip-path="url(#pa6df53b075)">
     <use xlink:href="#C4_0_58f4615a7c" x="142.820568" y="68.136202" style="fill: #caf8f8; stroke: #caf8f8"/>
    </g>
    <g clip-path="url(#pa6df53b075)">
     <use xlink:href="#C4_0_58f4615a7c" x="136.056932" y="68.822364" style="fill: #1ad6d4; stroke: #1ad6d4"/>
    </g>
    <g clip-path="url(#pa6df53b075)">
     <use xlink:href="#C4_0_58f4615a7c" x="129.293295" y="67.674405" style="fill: #caf8f8; stroke: #caf8f8"/>
    </g>
    <g clip-path="url(#pa6df53b075)">
     <use xlink:href="#C4_0_58f4615a7c" x="122.529659" y="64.993338" style="fill: #caf8f8; stroke: #caf8f8"/>
    </g>
    <g clip-path="url(#pa6df53b075)">
     <use xlink:href="#C4_0_58f4615a7c" x="115.766023" y="61.781741" style="fill: #caf8f8; stroke: #caf8f8"/>
    </g>
    <g clip-path="url(#pa6df53b075)">
     <use xlink:href="#C4_0_58f4615a7c" x="109.002386" y="57.333287" style="fill: #caf8f8; stroke: #caf8f8"/>
    </g>
    <g clip-path="url(#pa6df53b075)">
     <use xlink:href="#C4_0_58f4615a7c" x="102.23875" y="52.011769" style="fill: #caf8f8; stroke: #caf8f8"/>
    </g>
    <g clip-path="url(#pa6df53b075)">
     <use xlink:href="#C4_0_58f4615a7c" x="95.475114" y="46.688656" style="fill: #caf8f8; stroke: #caf8f8"/>
    </g>
    <g clip-path="url(#pa6df53b075)">
     <use xlink:href="#C4_0_58f4615a7c" x="88.711477" y="41.948383" style="fill: #caf8f8; stroke: #caf8f8"/>
    </g>
    <g clip-path="url(#pa6df53b075)">
     <use xlink:href="#C4_0_58f4615a7c" x="81.947841" y="37.529239" style="fill: #caf8f8; stroke: #caf8f8"/>
    </g>
    <g clip-path="url(#pa6df53b075)">
     <use xlink:href="#C4_0_58f4615a7c" x="75.184205" y="33.778338" style="fill: #caf8f8; stroke: #caf8f8"/>
    </g>
    <g clip-path="url(#pa6df53b075)">
     <use xlink:href="#C4_0_58f4615a7c" x="68.420568" y="30.07873" style="fill: #caf8f8; stroke: #caf8f8"/>
    </g>
    <g clip-path="url(#pa6df53b075)">
     <use xlink:href="#C4_0_58f4615a7c" x="61.656932" y="26.55031" style="fill: #caf8f8; stroke: #caf8f8"/>
    </g>
    <g clip-path="url(#pa6df53b075)">
     <use xlink:href="#C4_0_58f4615a7c" x="54.893295" y="21.751381" style="fill: #caf8f8; stroke: #caf8f8"/>
    </g>
    <g clip-path="url(#pa6df53b075)">
     <use xlink:href="#C4_0_58f4615a7c" x="48.129659" y="15.573762" style="fill: #caf8f8; stroke: #caf8f8"/>
    </g>
    <g clip-path="url(#pa6df53b075)">
     <use xlink:href="#C4_0_58f4615a7c" x="41.366023" y="10.98" style="fill: #1ad6d4; stroke: #1ad6d4"/>
    </g>
   </g>
   <g id="matplotlib.axis_1">
    <g id="xtick_1">
     <g id="line2d_6">
      <defs>
       <path id="m4a9549b0bf" d="M 0 0 
L 0 3.5 
" style="stroke: #000000; stroke-width: 0.8"/>
      </defs>
      <g>
       <use xlink:href="#m4a9549b0bf" x="48.129659" y="90.36" style="stroke: #000000; stroke-width: 0.8"/>
      </g>
     </g>
     <g id="text_1">
      <text style="font: 200 12px 'Calibri'; text-anchor: middle" x="48.129659" y="105.5275" transform="rotate(-0, 48.129659, 105.5275)">10</text>
     </g>
    </g>
    <g id="xtick_2">
     <g id="line2d_7">
      <g>
       <use xlink:href="#m4a9549b0bf" x="61.656932" y="90.36" style="stroke: #000000; stroke-width: 0.8"/>
      </g>
     </g>
     <g id="text_2">
      <text style="font: 200 12px 'Calibri'; text-anchor: middle" x="61.656932" y="105.5275" transform="rotate(-0, 61.656932, 105.5275)">20</text>
     </g>
    </g>
    <g id="xtick_3">
     <g id="line2d_8">
      <g>
       <use xlink:href="#m4a9549b0bf" x="75.184205" y="90.36" style="stroke: #000000; stroke-width: 0.8"/>
      </g>
     </g>
     <g id="text_3">
      <text style="font: 200 12px 'Calibri'; text-anchor: middle" x="75.184205" y="105.5275" transform="rotate(-0, 75.184205, 105.5275)">30</text>
     </g>
    </g>
    <g id="xtick_4">
     <g id="line2d_9">
      <g>
       <use xlink:href="#m4a9549b0bf" x="88.711477" y="90.36" style="stroke: #000000; stroke-width: 0.8"/>
      </g>
     </g>
     <g id="text_4">
      <text style="font: 200 12px 'Calibri'; text-anchor: middle" x="88.711477" y="105.5275" transform="rotate(-0, 88.711477, 105.5275)">40</text>
     </g>
    </g>
    <g id="xtick_5">
     <g id="line2d_10">
      <g>
       <use xlink:href="#m4a9549b0bf" x="102.23875" y="90.36" style="stroke: #000000; stroke-width: 0.8"/>
      </g>
     </g>
     <g id="text_5">
      <text style="font: 200 12px 'Calibri'; text-anchor: middle" x="102.23875" y="105.5275" transform="rotate(-0, 102.23875, 105.5275)">50</text>
     </g>
    </g>
    <g id="xtick_6">
     <g id="line2d_11">
      <g>
       <use xlink:href="#m4a9549b0bf" x="115.766023" y="90.36" style="stroke: #000000; stroke-width: 0.8"/>
      </g>
     </g>
     <g id="text_6">
      <text style="font: 200 12px 'Calibri'; text-anchor: middle" x="115.766023" y="105.5275" transform="rotate(-0, 115.766023, 105.5275)">60</text>
     </g>
    </g>
    <g id="xtick_7">
     <g id="line2d_12">
      <g>
       <use xlink:href="#m4a9549b0bf" x="129.293295" y="90.36" style="stroke: #000000; stroke-width: 0.8"/>
      </g>
     </g>
     <g id="text_7">
      <text style="font: 200 12px 'Calibri'; text-anchor: middle" x="129.293295" y="105.5275" transform="rotate(-0, 129.293295, 105.5275)">70</text>
     </g>
    </g>
    <g id="xtick_8">
     <g id="line2d_13">
      <g>
       <use xlink:href="#m4a9549b0bf" x="142.820568" y="90.36" style="stroke: #000000; stroke-width: 0.8"/>
      </g>
     </g>
     <g id="text_8">
      <text style="font: 200 12px 'Calibri'; text-anchor: middle" x="142.820568" y="105.5275" transform="rotate(-0, 142.820568, 105.5275)">80</text>
     </g>
    </g>
    <g id="xtick_9">
     <g id="line2d_14">
      <g>
       <use xlink:href="#m4a9549b0bf" x="156.347841" y="90.36" style="stroke: #000000; stroke-width: 0.8"/>
      </g>
     </g>
     <g id="text_9">
      <text style="font: 200 12px 'Calibri'; text-anchor: middle" x="156.347841" y="105.5275" transform="rotate(-0, 156.347841, 105.5275)">90</text>
     </g>
    </g>
    <g id="xtick_10">
     <g id="line2d_15">
      <defs>
       <path id="m380ccfdb79" d="M 0 0 
L 0 2 
" style="stroke: #000000; stroke-width: 0.6"/>
      </defs>
      <g>
       <use xlink:href="#m380ccfdb79" x="41.366023" y="90.36" style="stroke: #000000; stroke-width: 0.6"/>
      </g>
     </g>
    </g>
    <g id="xtick_11">
     <g id="line2d_16">
      <g>
       <use xlink:href="#m380ccfdb79" x="54.893295" y="90.36" style="stroke: #000000; stroke-width: 0.6"/>
      </g>
     </g>
    </g>
    <g id="xtick_12">
     <g id="line2d_17">
      <g>
       <use xlink:href="#m380ccfdb79" x="68.420568" y="90.36" style="stroke: #000000; stroke-width: 0.6"/>
      </g>
     </g>
    </g>
    <g id="xtick_13">
     <g id="line2d_18">
      <g>
       <use xlink:href="#m380ccfdb79" x="81.947841" y="90.36" style="stroke: #000000; stroke-width: 0.6"/>
      </g>
     </g>
    </g>
    <g id="xtick_14">
     <g id="line2d_19">
      <g>
       <use xlink:href="#m380ccfdb79" x="95.475114" y="90.36" style="stroke: #000000; stroke-width: 0.6"/>
      </g>
     </g>
    </g>
    <g id="xtick_15">
     <g id="line2d_20">
      <g>
       <use xlink:href="#m380ccfdb79" x="109.002386" y="90.36" style="stroke: #000000; stroke-width: 0.6"/>
      </g>
     </g>
    </g>
    <g id="xtick_16">
     <g id="line2d_21">
      <g>
       <use xlink:href="#m380ccfdb79" x="122.529659" y="90.36" style="stroke: #000000; stroke-width: 0.6"/>
      </g>
     </g>
    </g>
    <g id="xtick_17">
     <g id="line2d_22">
      <g>
       <use xlink:href="#m380ccfdb79" x="136.056932" y="90.36" style="stroke: #000000; stroke-width: 0.6"/>
      </g>
     </g>
    </g>
    <g id="xtick_18">
     <g id="line2d_23">
      <g>
       <use xlink:href="#m380ccfdb79" x="149.584205" y="90.36" style="stroke: #000000; stroke-width: 0.6"/>
      </g>
     </g>
    </g>
    <g id="xtick_19">
     <g id="line2d_24">
      <g>
       <use xlink:href="#m380ccfdb79" x="163.111477" y="90.36" style="stroke: #000000; stroke-width: 0.6"/>
      </g>
     </g>
    </g>
   </g>
   <g id="matplotlib.axis_2">
    <g id="ytick_1">
     <g id="line2d_25">
      <defs>
       <path id="mf42124323d" d="M 0 0 
L -3.5 0 
" style="stroke: #000000; stroke-width: 0.8"/>
      </defs>
      <g>
       <use xlink:href="#mf42124323d" x="35.27875" y="71.896558" style="stroke: #000000; stroke-width: 0.8"/>
      </g>
     </g>
     <g id="text_10">
      <text style="font: 200 12px 'Calibri'; text-anchor: end" x="28.27875" y="75.980308" transform="rotate(-0, 28.27875, 75.980308)">−2.5</text>
     </g>
    </g>
    <g id="ytick_2">
     <g id="line2d_26">
      <g>
       <use xlink:href="#mf42124323d" x="35.27875" y="44.622688" style="stroke: #000000; stroke-width: 0.8"/>
      </g>
     </g>
     <g id="text_11">
      <text style="font: 200 12px 'Calibri'; text-anchor: end" x="28.27875" y="48.706438" transform="rotate(-0, 28.27875, 48.706438)">0.0</text>
     </g>
    </g>
    <g id="ytick_3">
     <g id="line2d_27">
      <g>
       <use xlink:href="#mf42124323d" x="35.27875" y="17.348817" style="stroke: #000000; stroke-width: 0.8"/>
      </g>
     </g>
     <g id="text_12">
      <text style="font: 200 12px 'Calibri'; text-anchor: end" x="28.27875" y="21.432567" transform="rotate(-0, 28.27875, 21.432567)">2.5</text>
     </g>
    </g>
   </g>
   <g id="line2d_28">
    <path d="M 163.111477 44.622688 
L 156.347841 44.622688 
L 149.584205 44.622688 
L 142.820568 44.622688 
L 136.056932 44.622688 
L 129.293295 44.622688 
L 122.529659 44.622688 
L 115.766023 44.622688 
L 109.002386 44.622688 
L 102.23875 44.622688 
L 95.475114 44.622688 
L 88.711477 44.622688 
L 81.947841 44.622688 
L 75.184205 44.622688 
L 68.420568 44.622688 
L 61.656932 44.622688 
L 54.893295 44.622688 
L 48.129659 44.622688 
L 41.366023 44.622688 
" clip-path="url(#pa6df53b075)" style="fill: none; stroke-dasharray: 5.55,2.4; stroke-dashoffset: 0; stroke: #d3d3d3; stroke-width: 1.5"/>
   </g>
   <g id="line2d_29">
    <path d="M 163.111477 44.622688 
L 156.347841 44.622688 
L 149.584205 44.622688 
L 142.820568 44.622688 
L 136.056932 44.622688 
L 129.293295 44.622688 
L 122.529659 44.622688 
L 115.766023 44.622688 
L 109.002386 44.622688 
L 102.23875 44.622688 
L 95.475114 44.622688 
L 88.711477 44.622688 
L 81.947841 44.622688 
L 75.184205 44.622688 
L 68.420568 44.622688 
L 61.656932 44.622688 
L 54.893295 44.622688 
L 48.129659 44.622688 
L 41.366023 44.622688 
" clip-path="url(#pa6df53b075)" style="fill: none; stroke-dasharray: 5.55,2.4; stroke-dashoffset: 0; stroke: #d3d3d3; stroke-width: 1.5"/>
   </g>
   <g id="line2d_30">
    <path d="M 163.111477 44.622688 
L 156.347841 44.622688 
L 149.584205 44.622688 
L 142.820568 44.622688 
L 136.056932 44.622688 
L 129.293295 44.622688 
L 122.529659 44.622688 
L 115.766023 44.622688 
L 109.002386 44.622688 
L 102.23875 44.622688 
L 95.475114 44.622688 
L 88.711477 44.622688 
L 81.947841 44.622688 
L 75.184205 44.622688 
L 68.420568 44.622688 
L 61.656932 44.622688 
L 54.893295 44.622688 
L 48.129659 44.622688 
L 41.366023 44.622688 
" clip-path="url(#pa6df53b075)" style="fill: none; stroke-dasharray: 5.55,2.4; stroke-dashoffset: 0; stroke: #d3d3d3; stroke-width: 1.5"/>
   </g>
   <g id="line2d_31">
    <path d="M 163.111477 44.622688 
L 156.347841 44.622688 
L 149.584205 44.622688 
L 142.820568 44.622688 
L 136.056932 44.622688 
L 129.293295 44.622688 
L 122.529659 44.622688 
L 115.766023 44.622688 
L 109.002386 44.622688 
L 102.23875 44.622688 
L 95.475114 44.622688 
L 88.711477 44.622688 
L 81.947841 44.622688 
L 75.184205 44.622688 
L 68.420568 44.622688 
L 61.656932 44.622688 
L 54.893295 44.622688 
L 48.129659 44.622688 
L 41.366023 44.622688 
" clip-path="url(#pa6df53b075)" style="fill: none; stroke-dasharray: 5.55,2.4; stroke-dashoffset: 0; stroke: #d3d3d3; stroke-width: 1.5"/>
   </g>
   <g id="line2d_32">
    <path d="M 163.111477 44.622688 
L 156.347841 44.622688 
L 149.584205 44.622688 
L 142.820568 44.622688 
L 136.056932 44.622688 
L 129.293295 44.622688 
L 122.529659 44.622688 
L 115.766023 44.622688 
L 109.002386 44.622688 
L 102.23875 44.622688 
L 95.475114 44.622688 
L 88.711477 44.622688 
L 81.947841 44.622688 
L 75.184205 44.622688 
L 68.420568 44.622688 
L 61.656932 44.622688 
L 54.893295 44.622688 
L 48.129659 44.622688 
L 41.366023 44.622688 
" clip-path="url(#pa6df53b075)" style="fill: none; stroke-dasharray: 5.55,2.4; stroke-dashoffset: 0; stroke: #d3d3d3; stroke-width: 1.5"/>
   </g>
   <g id="patch_3">
    <path d="M 35.27875 90.36 
L 35.27875 7.2 
" style="fill: none; stroke: #000000; stroke-width: 0.8; stroke-linejoin: miter; stroke-linecap: square"/>
   </g>
   <g id="patch_4">
    <path d="M 35.27875 90.36 
L 169.19875 90.36 
" style="fill: none; stroke: #000000; stroke-width: 0.8; stroke-linejoin: miter; stroke-linecap: square"/>
   </g>
   <g id="legend_1">
    <g id="patch_5">
     <path d="M 182.95555 99.496875 
L 287.046175 99.496875 
Q 289.446175 99.496875 289.446175 97.096875 
L 289.446175 15.6 
Q 289.446175 13.2 287.046175 13.2 
L 182.95555 13.2 
Q 180.55555 13.2 180.55555 15.6 
L 180.55555 97.096875 
Q 180.55555 99.496875 182.95555 99.496875 
z
" style="fill: #ffffff; opacity: 0.8; stroke: #cccccc; stroke-linejoin: miter"/>
    </g>
    <g id="PathCollection_6">
     <path d="M 197.35555 24.831139 
C 197.774873 24.831139 198.177078 24.66454 198.473584 24.368034 
C 198.77009 24.071528 198.936689 23.669323 198.936689 23.25 
C 198.936689 22.830677 198.77009 22.428472 198.473584 22.131966 
C 198.177078 21.83546 197.774873 21.668861 197.35555 21.668861 
C 196.936227 21.668861 196.534022 21.83546 196.237516 22.131966 
C 195.94101 22.428472 195.774411 22.830677 195.774411 23.25 
C 195.774411 23.669323 195.94101 24.071528 196.237516 24.368034 
C 196.534022 24.66454 196.936227 24.831139 197.35555 24.831139 
z
" style="fill: #cdf5cd; stroke: #cdf5cd"/>
    </g>
    <g id="text_13">
     <text style="font: 200 12px 'Calibri'; text-anchor: start" x="218.95555" y="26.4" transform="rotate(-0, 218.95555, 26.4)">receptor_den</text>
    </g>
    <g id="PathCollection_7">
     <path d="M 197.35555 41.370514 
C 197.774873 41.370514 198.177078 41.203915 198.473584 40.907409 
C 198.77009 40.610903 198.936689 40.208698 198.936689 39.789375 
C 198.936689 39.370052 198.77009 38.967847 198.473584 38.671341 
C 198.177078 38.374835 197.774873 38.208236 197.35555 38.208236 
C 196.936227 38.208236 196.534022 38.374835 196.237516 38.671341 
C 195.94101 38.967847 195.774411 39.370052 195.774411 39.789375 
C 195.774411 40.208698 195.94101 40.610903 196.237516 40.907409 
C 196.534022 41.203915 196.936227 41.370514 197.35555 41.370514 
z
" style="fill: #cacaf8; stroke: #cacaf8"/>
    </g>
    <g id="text_14">
     <text style="font: 200 12px 'Calibri'; text-anchor: start" x="218.95555" y="42.939375" transform="rotate(-0, 218.95555, 42.939375)">EI_ratio</text>
    </g>
    <g id="PathCollection_8">
     <path d="M 197.35555 57.909889 
C 197.774873 57.909889 198.177078 57.74329 198.473584 57.446784 
C 198.77009 57.150278 198.936689 56.748073 198.936689 56.32875 
C 198.936689 55.909427 198.77009 55.507222 198.473584 55.210716 
C 198.177078 54.91421 197.774873 54.747611 197.35555 54.747611 
C 196.936227 54.747611 196.534022 54.91421 196.237516 55.210716 
C 195.94101 55.507222 195.774411 55.909427 195.774411 56.32875 
C 195.774411 56.748073 195.94101 57.150278 196.237516 57.446784 
C 196.534022 57.74329 196.936227 57.909889 197.35555 57.909889 
z
" style="fill: #feeeba; stroke: #feeeba"/>
    </g>
    <g id="text_15">
     <text style="font: 200 12px 'Calibri'; text-anchor: start" x="218.95555" y="59.47875" transform="rotate(-0, 218.95555, 59.47875)">genePC1</text>
    </g>
    <g id="PathCollection_9">
     <path d="M 197.35555 74.449264 
C 197.774873 74.449264 198.177078 74.282665 198.473584 73.986159 
C 198.77009 73.689653 198.936689 73.287448 198.936689 72.868125 
C 198.936689 72.448802 198.77009 72.046597 198.473584 71.750091 
C 198.177078 71.453585 197.774873 71.286986 197.35555 71.286986 
C 196.936227 71.286986 196.534022 71.453585 196.237516 71.750091 
C 195.94101 72.046597 195.774411 72.448802 195.774411 72.868125 
C 195.774411 73.287448 195.94101 73.689653 196.237516 73.986159 
C 196.534022 74.282665 196.936227 74.449264 197.35555 74.449264 
z
" style="fill: #f5cdf5; stroke: #f5cdf5"/>
    </g>
    <g id="text_16">
     <text style="font: 200 12px 'Calibri'; text-anchor: start" x="218.95555" y="76.018125" transform="rotate(-0, 218.95555, 76.018125)">t1t2</text>
    </g>
    <g id="PathCollection_10">
     <path d="M 197.35555 90.988639 
C 197.774873 90.988639 198.177078 90.82204 198.473584 90.525534 
C 198.77009 90.229028 198.936689 89.826823 198.936689 89.4075 
C 198.936689 88.988177 198.77009 88.585972 198.473584 88.289466 
C 198.177078 87.99296 197.774873 87.826361 197.35555 87.826361 
C 196.936227 87.826361 196.534022 87.99296 196.237516 88.289466 
C 195.94101 88.585972 195.774411 88.988177 195.774411 89.4075 
C 195.774411 89.826823 195.94101 90.229028 196.237516 90.525534 
C 196.534022 90.82204 196.936227 90.988639 197.35555 90.988639 
z
" style="fill: #caf8f8; stroke: #caf8f8"/>
    </g>
    <g id="text_17">
     <text style="font: 200 12px 'Calibri'; text-anchor: start" x="218.95555" y="92.5575" transform="rotate(-0, 218.95555, 92.5575)">thi</text>
    </g>
   </g>
  </g>
 </g>
 <defs>
  <clipPath id="pa6df53b075">
   <rect x="35.27875" y="7.2" width="133.92" height="83.16"/>
  </clipPath>
 </defs>
</svg>
