<?xml version="1.0" encoding="utf-8" standalone="no"?>
<!DOCTYPE svg PUBLIC "-//W3C//DTD SVG 1.1//EN"
  "http://www.w3.org/Graphics/SVG/1.1/DTD/svg11.dtd">
<svg xmlns:xlink="http://www.w3.org/1999/xlink" width="281.649925pt" height="118.267921pt" viewBox="0 0 281.649925 118.267921" xmlns="http://www.w3.org/2000/svg" version="1.1">
 <metadata>
  <rdf:RDF xmlns:dc="http://purl.org/dc/elements/1.1/" xmlns:cc="http://creativecommons.org/ns#" xmlns:rdf="http://www.w3.org/1999/02/22-rdf-syntax-ns#">
   <cc:Work>
    <dc:type rdf:resource="http://purl.org/dc/dcmitype/StillImage"/>
    <dc:date>2023-04-11T15:30:11.812790</dc:date>
    <dc:format>image/svg+xml</dc:format>
    <dc:creator>
     <cc:Agent>
      <dc:title>Matplotlib v3.5.1, https://matplotlib.org/</dc:title>
     </cc:Agent>
    </dc:creator>
   </cc:Work>
  </rdf:RDF>
 </metadata>
 <defs>
  <style type="text/css">*{stroke-linejoin: round; stroke-linecap: butt}</style>
 </defs>
 <g id="figure_1">
  <g id="patch_1">
   <path d="M 0 118.267921 
L 281.649925 118.267921 
L 281.649925 0 
L 0 0 
z
" style="fill: #ffffff"/>
  </g>
  <g id="axes_1">
   <g id="patch_2">
    <path d="M 20.2825 93.761046 
L 154.2025 93.761046 
L 154.2025 10.601046 
L 20.2825 10.601046 
z
" style="fill: #ffffff"/>
   </g>
   <g id="line2d_1">
    <path d="M 148.115227 74.357268 
L 141.351591 73.212095 
L 134.587955 70.713017 
L 127.824318 68.285005 
L 121.060682 66.638022 
L 114.297045 66.149199 
L 107.533409 65.51267 
L 100.769773 64.545764 
L 94.006136 64.223778 
L 87.2425 63.858705 
L 80.478864 63.382574 
L 73.715227 62.430147 
L 66.951591 61.536332 
L 60.187955 60.825487 
L 53.424318 60.120036 
L 46.660682 58.623498 
L 39.897045 56.526331 
L 33.133409 52.923712 
L 26.369773 47.266296 
" clip-path="url(#p60d540336b)" style="fill: none; stroke: #cdf5cd; stroke-width: 1.5; stroke-linecap: square"/>
   </g>
   <g id="line2d_2">
    <path d="M 148.115227 78.621445 
L 141.351591 83.022243 
L 134.587955 85.769134 
L 127.824318 87.662168 
L 121.060682 88.91031 
L 114.297045 89.673887 
L 107.533409 89.981046 
L 100.769773 89.95873 
L 94.006136 89.359391 
L 87.2425 88.323874 
L 80.478864 86.934388 
L 73.715227 83.947739 
L 66.951591 81.249397 
L 60.187955 78.305702 
L 53.424318 74.536801 
L 46.660682 69.823552 
L 39.897045 64.481564 
L 33.133409 57.944372 
L 26.369773 48.317941 
" clip-path="url(#p60d540336b)" style="fill: none; stroke: #cacaf8; stroke-width: 1.5; stroke-linecap: square"/>
   </g>
   <g id="line2d_3">
    <path d="M 148.115227 72.154192 
L 141.351591 71.93363 
L 134.587955 71.284966 
L 127.824318 69.39258 
L 121.060682 67.266156 
L 114.297045 65.014563 
L 107.533409 63.131164 
L 100.769773 60.797476 
L 94.006136 58.621904 
L 87.2425 56.557591 
L 80.478864 54.865842 
L 73.715227 52.813755 
L 66.951591 51.163857 
L 60.187955 49.165538 
L 53.424318 47.059714 
L 46.660682 43.656945 
L 39.897045 39.202483 
L 33.133409 32.901505 
L 26.369773 27.855647 
" clip-path="url(#p60d540336b)" style="fill: none; stroke: #feeeba; stroke-width: 1.5; stroke-linecap: square"/>
   </g>
   <g id="line2d_4">
    <path d="M 148.115227 71.385029 
L 141.351591 67.831464 
L 134.587955 60.739941 
L 127.824318 53.654917 
L 121.060682 48.410703 
L 114.297045 44.548153 
L 107.533409 41.483642 
L 100.769773 38.158513 
L 94.006136 35.697766 
L 87.2425 35.127877 
L 80.478864 33.967465 
L 73.715227 33.524352 
L 66.951591 32.351177 
L 60.187955 30.89636 
L 53.424318 29.003332 
L 46.660682 26.195864 
L 39.897045 22.267397 
L 33.133409 17.553376 
L 26.369773 14.381046 
" clip-path="url(#p60d540336b)" style="fill: none; stroke: #f5cdf5; stroke-width: 1.5; stroke-linecap: square"/>
   </g>
   <g id="line2d_5">
    <path d="M 148.115227 67.871755 
L 141.351591 67.869616 
L 134.587955 66.181965 
L 127.824318 63.010741 
L 121.060682 60.52579 
L 114.297045 58.172286 
L 107.533409 55.850901 
L 100.769773 52.58751 
L 94.006136 49.545748 
L 87.2425 46.548949 
L 80.478864 43.40179 
L 73.715227 40.4297 
L 66.951591 37.722731 
L 60.187955 34.82875 
L 53.424318 32.562466 
L 46.660682 28.848436 
L 39.897045 27.342892 
L 33.133409 25.186299 
L 26.369773 25.291221 
" clip-path="url(#p60d540336b)" style="fill: none; stroke: #caf8f8; stroke-width: 1.5; stroke-linecap: square"/>
   </g>
   <g id="PathCollection_1">
    <defs>
     <path id="C0_0_28ca9282eb" d="M 0 1.581139 
C 0.419323 1.581139 0.821528 1.41454 1.118034 1.118034 
C 1.41454 0.821528 1.581139 0.419323 1.581139 -0 
C 1.581139 -0.419323 1.41454 -0.821528 1.118034 -1.118034 
C 0.821528 -1.41454 0.419323 -1.581139 0 -1.581139 
C -0.419323 -1.581139 -0.821528 -1.41454 -1.118034 -1.118034 
C -1.41454 -0.821528 -1.581139 -0.419323 -1.581139 0 
C -1.581139 0.419323 -1.41454 0.821528 -1.118034 1.118034 
C -0.821528 1.41454 -0.419323 1.581139 0 1.581139 
z
"/>
    </defs>
    <g clip-path="url(#p60d540336b)">
     <use xlink:href="#C0_0_28ca9282eb" x="148.115227" y="74.357268" style="fill: #cdf5cd; stroke: #cdf5cd"/>
    </g>
    <g clip-path="url(#p60d540336b)">
     <use xlink:href="#C0_0_28ca9282eb" x="141.351591" y="73.212095" style="fill: #cdf5cd; stroke: #cdf5cd"/>
    </g>
    <g clip-path="url(#p60d540336b)">
     <use xlink:href="#C0_0_28ca9282eb" x="134.587955" y="70.713017" style="fill: #cdf5cd; stroke: #cdf5cd"/>
    </g>
    <g clip-path="url(#p60d540336b)">
     <use xlink:href="#C0_0_28ca9282eb" x="127.824318" y="68.285005" style="fill: #cdf5cd; stroke: #cdf5cd"/>
    </g>
    <g clip-path="url(#p60d540336b)">
     <use xlink:href="#C0_0_28ca9282eb" x="121.060682" y="66.638022" style="fill: #cdf5cd; stroke: #cdf5cd"/>
    </g>
    <g clip-path="url(#p60d540336b)">
     <use xlink:href="#C0_0_28ca9282eb" x="114.297045" y="66.149199" style="fill: #cdf5cd; stroke: #cdf5cd"/>
    </g>
    <g clip-path="url(#p60d540336b)">
     <use xlink:href="#C0_0_28ca9282eb" x="107.533409" y="65.51267" style="fill: #cdf5cd; stroke: #cdf5cd"/>
    </g>
    <g clip-path="url(#p60d540336b)">
     <use xlink:href="#C0_0_28ca9282eb" x="100.769773" y="64.545764" style="fill: #cdf5cd; stroke: #cdf5cd"/>
    </g>
    <g clip-path="url(#p60d540336b)">
     <use xlink:href="#C0_0_28ca9282eb" x="94.006136" y="64.223778" style="fill: #cdf5cd; stroke: #cdf5cd"/>
    </g>
    <g clip-path="url(#p60d540336b)">
     <use xlink:href="#C0_0_28ca9282eb" x="87.2425" y="63.858705" style="fill: #cdf5cd; stroke: #cdf5cd"/>
    </g>
    <g clip-path="url(#p60d540336b)">
     <use xlink:href="#C0_0_28ca9282eb" x="80.478864" y="63.382574" style="fill: #cdf5cd; stroke: #cdf5cd"/>
    </g>
    <g clip-path="url(#p60d540336b)">
     <use xlink:href="#C0_0_28ca9282eb" x="73.715227" y="62.430147" style="fill: #cdf5cd; stroke: #cdf5cd"/>
    </g>
    <g clip-path="url(#p60d540336b)">
     <use xlink:href="#C0_0_28ca9282eb" x="66.951591" y="61.536332" style="fill: #cdf5cd; stroke: #cdf5cd"/>
    </g>
    <g clip-path="url(#p60d540336b)">
     <use xlink:href="#C0_0_28ca9282eb" x="60.187955" y="60.825487" style="fill: #cdf5cd; stroke: #cdf5cd"/>
    </g>
    <g clip-path="url(#p60d540336b)">
     <use xlink:href="#C0_0_28ca9282eb" x="53.424318" y="60.120036" style="fill: #cdf5cd; stroke: #cdf5cd"/>
    </g>
    <g clip-path="url(#p60d540336b)">
     <use xlink:href="#C0_0_28ca9282eb" x="46.660682" y="58.623498" style="fill: #cdf5cd; stroke: #cdf5cd"/>
    </g>
    <g clip-path="url(#p60d540336b)">
     <use xlink:href="#C0_0_28ca9282eb" x="39.897045" y="56.526331" style="fill: #cdf5cd; stroke: #cdf5cd"/>
    </g>
    <g clip-path="url(#p60d540336b)">
     <use xlink:href="#C0_0_28ca9282eb" x="33.133409" y="52.923712" style="fill: #cdf5cd; stroke: #cdf5cd"/>
    </g>
    <g clip-path="url(#p60d540336b)">
     <use xlink:href="#C0_0_28ca9282eb" x="26.369773" y="47.266296" style="fill: #cdf5cd; stroke: #cdf5cd"/>
    </g>
   </g>
   <g id="PathCollection_2">
    <defs>
     <path id="C1_0_1b66317225" d="M 0 1.581139 
C 0.419323 1.581139 0.821528 1.41454 1.118034 1.118034 
C 1.41454 0.821528 1.581139 0.419323 1.581139 -0 
C 1.581139 -0.419323 1.41454 -0.821528 1.118034 -1.118034 
C 0.821528 -1.41454 0.419323 -1.581139 0 -1.581139 
C -0.419323 -1.581139 -0.821528 -1.41454 -1.118034 -1.118034 
C -1.41454 -0.821528 -1.581139 -0.419323 -1.581139 0 
C -1.581139 0.419323 -1.41454 0.821528 -1.118034 1.118034 
C -0.821528 1.41454 -0.419323 1.581139 0 1.581139 
z
"/>
    </defs>
    <g clip-path="url(#p60d540336b)">
     <use xlink:href="#C1_0_1b66317225" x="148.115227" y="78.621445" style="fill: #cacaf8; stroke: #cacaf8"/>
    </g>
    <g clip-path="url(#p60d540336b)">
     <use xlink:href="#C1_0_1b66317225" x="141.351591" y="83.022243" style="fill: #cacaf8; stroke: #cacaf8"/>
    </g>
    <g clip-path="url(#p60d540336b)">
     <use xlink:href="#C1_0_1b66317225" x="134.587955" y="85.769134" style="fill: #1a1ad6; stroke: #1a1ad6"/>
    </g>
    <g clip-path="url(#p60d540336b)">
     <use xlink:href="#C1_0_1b66317225" x="127.824318" y="87.662168" style="fill: #1a1ad6; stroke: #1a1ad6"/>
    </g>
    <g clip-path="url(#p60d540336b)">
     <use xlink:href="#C1_0_1b66317225" x="121.060682" y="88.91031" style="fill: #1a1ad6; stroke: #1a1ad6"/>
    </g>
    <g clip-path="url(#p60d540336b)">
     <use xlink:href="#C1_0_1b66317225" x="114.297045" y="89.673887" style="fill: #1a1ad6; stroke: #1a1ad6"/>
    </g>
    <g clip-path="url(#p60d540336b)">
     <use xlink:href="#C1_0_1b66317225" x="107.533409" y="89.981046" style="fill: #1a1ad6; stroke: #1a1ad6"/>
    </g>
    <g clip-path="url(#p60d540336b)">
     <use xlink:href="#C1_0_1b66317225" x="100.769773" y="89.95873" style="fill: #1a1ad6; stroke: #1a1ad6"/>
    </g>
    <g clip-path="url(#p60d540336b)">
     <use xlink:href="#C1_0_1b66317225" x="94.006136" y="89.359391" style="fill: #1a1ad6; stroke: #1a1ad6"/>
    </g>
    <g clip-path="url(#p60d540336b)">
     <use xlink:href="#C1_0_1b66317225" x="87.2425" y="88.323874" style="fill: #1a1ad6; stroke: #1a1ad6"/>
    </g>
    <g clip-path="url(#p60d540336b)">
     <use xlink:href="#C1_0_1b66317225" x="80.478864" y="86.934388" style="fill: #1a1ad6; stroke: #1a1ad6"/>
    </g>
    <g clip-path="url(#p60d540336b)">
     <use xlink:href="#C1_0_1b66317225" x="73.715227" y="83.947739" style="fill: #1a1ad6; stroke: #1a1ad6"/>
    </g>
    <g clip-path="url(#p60d540336b)">
     <use xlink:href="#C1_0_1b66317225" x="66.951591" y="81.249397" style="fill: #cacaf8; stroke: #cacaf8"/>
    </g>
    <g clip-path="url(#p60d540336b)">
     <use xlink:href="#C1_0_1b66317225" x="60.187955" y="78.305702" style="fill: #cacaf8; stroke: #cacaf8"/>
    </g>
    <g clip-path="url(#p60d540336b)">
     <use xlink:href="#C1_0_1b66317225" x="53.424318" y="74.536801" style="fill: #cacaf8; stroke: #cacaf8"/>
    </g>
    <g clip-path="url(#p60d540336b)">
     <use xlink:href="#C1_0_1b66317225" x="46.660682" y="69.823552" style="fill: #cacaf8; stroke: #cacaf8"/>
    </g>
    <g clip-path="url(#p60d540336b)">
     <use xlink:href="#C1_0_1b66317225" x="39.897045" y="64.481564" style="fill: #cacaf8; stroke: #cacaf8"/>
    </g>
    <g clip-path="url(#p60d540336b)">
     <use xlink:href="#C1_0_1b66317225" x="33.133409" y="57.944372" style="fill: #cacaf8; stroke: #cacaf8"/>
    </g>
    <g clip-path="url(#p60d540336b)">
     <use xlink:href="#C1_0_1b66317225" x="26.369773" y="48.317941" style="fill: #cacaf8; stroke: #cacaf8"/>
    </g>
   </g>
   <g id="PathCollection_3">
    <defs>
     <path id="C2_0_67e02d14d0" d="M 0 1.581139 
C 0.419323 1.581139 0.821528 1.41454 1.118034 1.118034 
C 1.41454 0.821528 1.581139 0.419323 1.581139 -0 
C 1.581139 -0.419323 1.41454 -0.821528 1.118034 -1.118034 
C 0.821528 -1.41454 0.419323 -1.581139 0 -1.581139 
C -0.419323 -1.581139 -0.821528 -1.41454 -1.118034 -1.118034 
C -1.41454 -0.821528 -1.581139 -0.419323 -1.581139 0 
C -1.581139 0.419323 -1.41454 0.821528 -1.118034 1.118034 
C -0.821528 1.41454 -0.419323 1.581139 0 1.581139 
z
"/>
    </defs>
    <g clip-path="url(#p60d540336b)">
     <use xlink:href="#C2_0_67e02d14d0" x="148.115227" y="72.154192" style="fill: #feeeba; stroke: #feeeba"/>
    </g>
    <g clip-path="url(#p60d540336b)">
     <use xlink:href="#C2_0_67e02d14d0" x="141.351591" y="71.93363" style="fill: #feeeba; stroke: #feeeba"/>
    </g>
    <g clip-path="url(#p60d540336b)">
     <use xlink:href="#C2_0_67e02d14d0" x="134.587955" y="71.284966" style="fill: #feeeba; stroke: #feeeba"/>
    </g>
    <g clip-path="url(#p60d540336b)">
     <use xlink:href="#C2_0_67e02d14d0" x="127.824318" y="69.39258" style="fill: #feeeba; stroke: #feeeba"/>
    </g>
    <g clip-path="url(#p60d540336b)">
     <use xlink:href="#C2_0_67e02d14d0" x="121.060682" y="67.266156" style="fill: #feeeba; stroke: #feeeba"/>
    </g>
    <g clip-path="url(#p60d540336b)">
     <use xlink:href="#C2_0_67e02d14d0" x="114.297045" y="65.014563" style="fill: #feeeba; stroke: #feeeba"/>
    </g>
    <g clip-path="url(#p60d540336b)">
     <use xlink:href="#C2_0_67e02d14d0" x="107.533409" y="63.131164" style="fill: #feeeba; stroke: #feeeba"/>
    </g>
    <g clip-path="url(#p60d540336b)">
     <use xlink:href="#C2_0_67e02d14d0" x="100.769773" y="60.797476" style="fill: #feeeba; stroke: #feeeba"/>
    </g>
    <g clip-path="url(#p60d540336b)">
     <use xlink:href="#C2_0_67e02d14d0" x="94.006136" y="58.621904" style="fill: #feeeba; stroke: #feeeba"/>
    </g>
    <g clip-path="url(#p60d540336b)">
     <use xlink:href="#C2_0_67e02d14d0" x="87.2425" y="56.557591" style="fill: #feeeba; stroke: #feeeba"/>
    </g>
    <g clip-path="url(#p60d540336b)">
     <use xlink:href="#C2_0_67e02d14d0" x="80.478864" y="54.865842" style="fill: #feeeba; stroke: #feeeba"/>
    </g>
    <g clip-path="url(#p60d540336b)">
     <use xlink:href="#C2_0_67e02d14d0" x="73.715227" y="52.813755" style="fill: #feeeba; stroke: #feeeba"/>
    </g>
    <g clip-path="url(#p60d540336b)">
     <use xlink:href="#C2_0_67e02d14d0" x="66.951591" y="51.163857" style="fill: #feeeba; stroke: #feeeba"/>
    </g>
    <g clip-path="url(#p60d540336b)">
     <use xlink:href="#C2_0_67e02d14d0" x="60.187955" y="49.165538" style="fill: #feeeba; stroke: #feeeba"/>
    </g>
    <g clip-path="url(#p60d540336b)">
     <use xlink:href="#C2_0_67e02d14d0" x="53.424318" y="47.059714" style="fill: #feeeba; stroke: #feeeba"/>
    </g>
    <g clip-path="url(#p60d540336b)">
     <use xlink:href="#C2_0_67e02d14d0" x="46.660682" y="43.656945" style="fill: #feeeba; stroke: #feeeba"/>
    </g>
    <g clip-path="url(#p60d540336b)">
     <use xlink:href="#C2_0_67e02d14d0" x="39.897045" y="39.202483" style="fill: #feeeba; stroke: #feeeba"/>
    </g>
    <g clip-path="url(#p60d540336b)">
     <use xlink:href="#C2_0_67e02d14d0" x="33.133409" y="32.901505" style="fill: #f2b701; stroke: #f2b701"/>
    </g>
    <g clip-path="url(#p60d540336b)">
     <use xlink:href="#C2_0_67e02d14d0" x="26.369773" y="27.855647" style="fill: #f2b701; stroke: #f2b701"/>
    </g>
   </g>
   <g id="PathCollection_4">
    <defs>
     <path id="C3_0_96ec982a46" d="M 0 1.581139 
C 0.419323 1.581139 0.821528 1.41454 1.118034 1.118034 
C 1.41454 0.821528 1.581139 0.419323 1.581139 -0 
C 1.581139 -0.419323 1.41454 -0.821528 1.118034 -1.118034 
C 0.821528 -1.41454 0.419323 -1.581139 0 -1.581139 
C -0.419323 -1.581139 -0.821528 -1.41454 -1.118034 -1.118034 
C -1.41454 -0.821528 -1.581139 -0.419323 -1.581139 0 
C -1.581139 0.419323 -1.41454 0.821528 -1.118034 1.118034 
C -0.821528 1.41454 -0.419323 1.581139 0 1.581139 
z
"/>
    </defs>
    <g clip-path="url(#p60d540336b)">
     <use xlink:href="#C3_0_96ec982a46" x="148.115227" y="71.385029" style="fill: #f5cdf5; stroke: #f5cdf5"/>
    </g>
    <g clip-path="url(#p60d540336b)">
     <use xlink:href="#C3_0_96ec982a46" x="141.351591" y="67.831464" style="fill: #f5cdf5; stroke: #f5cdf5"/>
    </g>
    <g clip-path="url(#p60d540336b)">
     <use xlink:href="#C3_0_96ec982a46" x="134.587955" y="60.739941" style="fill: #f5cdf5; stroke: #f5cdf5"/>
    </g>
    <g clip-path="url(#p60d540336b)">
     <use xlink:href="#C3_0_96ec982a46" x="127.824318" y="53.654917" style="fill: #f5cdf5; stroke: #f5cdf5"/>
    </g>
    <g clip-path="url(#p60d540336b)">
     <use xlink:href="#C3_0_96ec982a46" x="121.060682" y="48.410703" style="fill: #f5cdf5; stroke: #f5cdf5"/>
    </g>
    <g clip-path="url(#p60d540336b)">
     <use xlink:href="#C3_0_96ec982a46" x="114.297045" y="44.548153" style="fill: #f5cdf5; stroke: #f5cdf5"/>
    </g>
    <g clip-path="url(#p60d540336b)">
     <use xlink:href="#C3_0_96ec982a46" x="107.533409" y="41.483642" style="fill: #f5cdf5; stroke: #f5cdf5"/>
    </g>
    <g clip-path="url(#p60d540336b)">
     <use xlink:href="#C3_0_96ec982a46" x="100.769773" y="38.158513" style="fill: #f5cdf5; stroke: #f5cdf5"/>
    </g>
    <g clip-path="url(#p60d540336b)">
     <use xlink:href="#C3_0_96ec982a46" x="94.006136" y="35.697766" style="fill: #c828c6; stroke: #c828c6"/>
    </g>
    <g clip-path="url(#p60d540336b)">
     <use xlink:href="#C3_0_96ec982a46" x="87.2425" y="35.127877" style="fill: #c828c6; stroke: #c828c6"/>
    </g>
    <g clip-path="url(#p60d540336b)">
     <use xlink:href="#C3_0_96ec982a46" x="80.478864" y="33.967465" style="fill: #c828c6; stroke: #c828c6"/>
    </g>
    <g clip-path="url(#p60d540336b)">
     <use xlink:href="#C3_0_96ec982a46" x="73.715227" y="33.524352" style="fill: #c828c6; stroke: #c828c6"/>
    </g>
    <g clip-path="url(#p60d540336b)">
     <use xlink:href="#C3_0_96ec982a46" x="66.951591" y="32.351177" style="fill: #c828c6; stroke: #c828c6"/>
    </g>
    <g clip-path="url(#p60d540336b)">
     <use xlink:href="#C3_0_96ec982a46" x="60.187955" y="30.89636" style="fill: #c828c6; stroke: #c828c6"/>
    </g>
    <g clip-path="url(#p60d540336b)">
     <use xlink:href="#C3_0_96ec982a46" x="53.424318" y="29.003332" style="fill: #c828c6; stroke: #c828c6"/>
    </g>
    <g clip-path="url(#p60d540336b)">
     <use xlink:href="#C3_0_96ec982a46" x="46.660682" y="26.195864" style="fill: #c828c6; stroke: #c828c6"/>
    </g>
    <g clip-path="url(#p60d540336b)">
     <use xlink:href="#C3_0_96ec982a46" x="39.897045" y="22.267397" style="fill: #c828c6; stroke: #c828c6"/>
    </g>
    <g clip-path="url(#p60d540336b)">
     <use xlink:href="#C3_0_96ec982a46" x="33.133409" y="17.553376" style="fill: #c828c6; stroke: #c828c6"/>
    </g>
    <g clip-path="url(#p60d540336b)">
     <use xlink:href="#C3_0_96ec982a46" x="26.369773" y="14.381046" style="fill: #c828c6; stroke: #c828c6"/>
    </g>
   </g>
   <g id="PathCollection_5">
    <defs>
     <path id="C4_0_83a420f2ea" d="M 0 1.581139 
C 0.419323 1.581139 0.821528 1.41454 1.118034 1.118034 
C 1.41454 0.821528 1.581139 0.419323 1.581139 -0 
C 1.581139 -0.419323 1.41454 -0.821528 1.118034 -1.118034 
C 0.821528 -1.41454 0.419323 -1.581139 0 -1.581139 
C -0.419323 -1.581139 -0.821528 -1.41454 -1.118034 -1.118034 
C -1.41454 -0.821528 -1.581139 -0.419323 -1.581139 0 
C -1.581139 0.419323 -1.41454 0.821528 -1.118034 1.118034 
C -0.821528 1.41454 -0.419323 1.581139 0 1.581139 
z
"/>
    </defs>
    <g clip-path="url(#p60d540336b)">
     <use xlink:href="#C4_0_83a420f2ea" x="148.115227" y="67.871755" style="fill: #caf8f8; stroke: #caf8f8"/>
    </g>
    <g clip-path="url(#p60d540336b)">
     <use xlink:href="#C4_0_83a420f2ea" x="141.351591" y="67.869616" style="fill: #caf8f8; stroke: #caf8f8"/>
    </g>
    <g clip-path="url(#p60d540336b)">
     <use xlink:href="#C4_0_83a420f2ea" x="134.587955" y="66.181965" style="fill: #caf8f8; stroke: #caf8f8"/>
    </g>
    <g clip-path="url(#p60d540336b)">
     <use xlink:href="#C4_0_83a420f2ea" x="127.824318" y="63.010741" style="fill: #caf8f8; stroke: #caf8f8"/>
    </g>
    <g clip-path="url(#p60d540336b)">
     <use xlink:href="#C4_0_83a420f2ea" x="121.060682" y="60.52579" style="fill: #caf8f8; stroke: #caf8f8"/>
    </g>
    <g clip-path="url(#p60d540336b)">
     <use xlink:href="#C4_0_83a420f2ea" x="114.297045" y="58.172286" style="fill: #caf8f8; stroke: #caf8f8"/>
    </g>
    <g clip-path="url(#p60d540336b)">
     <use xlink:href="#C4_0_83a420f2ea" x="107.533409" y="55.850901" style="fill: #caf8f8; stroke: #caf8f8"/>
    </g>
    <g clip-path="url(#p60d540336b)">
     <use xlink:href="#C4_0_83a420f2ea" x="100.769773" y="52.58751" style="fill: #caf8f8; stroke: #caf8f8"/>
    </g>
    <g clip-path="url(#p60d540336b)">
     <use xlink:href="#C4_0_83a420f2ea" x="94.006136" y="49.545748" style="fill: #caf8f8; stroke: #caf8f8"/>
    </g>
    <g clip-path="url(#p60d540336b)">
     <use xlink:href="#C4_0_83a420f2ea" x="87.2425" y="46.548949" style="fill: #caf8f8; stroke: #caf8f8"/>
    </g>
    <g clip-path="url(#p60d540336b)">
     <use xlink:href="#C4_0_83a420f2ea" x="80.478864" y="43.40179" style="fill: #caf8f8; stroke: #caf8f8"/>
    </g>
    <g clip-path="url(#p60d540336b)">
     <use xlink:href="#C4_0_83a420f2ea" x="73.715227" y="40.4297" style="fill: #caf8f8; stroke: #caf8f8"/>
    </g>
    <g clip-path="url(#p60d540336b)">
     <use xlink:href="#C4_0_83a420f2ea" x="66.951591" y="37.722731" style="fill: #caf8f8; stroke: #caf8f8"/>
    </g>
    <g clip-path="url(#p60d540336b)">
     <use xlink:href="#C4_0_83a420f2ea" x="60.187955" y="34.82875" style="fill: #1ad6d4; stroke: #1ad6d4"/>
    </g>
    <g clip-path="url(#p60d540336b)">
     <use xlink:href="#C4_0_83a420f2ea" x="53.424318" y="32.562466" style="fill: #1ad6d4; stroke: #1ad6d4"/>
    </g>
    <g clip-path="url(#p60d540336b)">
     <use xlink:href="#C4_0_83a420f2ea" x="46.660682" y="28.848436" style="fill: #1ad6d4; stroke: #1ad6d4"/>
    </g>
    <g clip-path="url(#p60d540336b)">
     <use xlink:href="#C4_0_83a420f2ea" x="39.897045" y="27.342892" style="fill: #1ad6d4; stroke: #1ad6d4"/>
    </g>
    <g clip-path="url(#p60d540336b)">
     <use xlink:href="#C4_0_83a420f2ea" x="33.133409" y="25.186299" style="fill: #1ad6d4; stroke: #1ad6d4"/>
    </g>
    <g clip-path="url(#p60d540336b)">
     <use xlink:href="#C4_0_83a420f2ea" x="26.369773" y="25.291221" style="fill: #1ad6d4; stroke: #1ad6d4"/>
    </g>
   </g>
   <g id="matplotlib.axis_1">
    <g id="xtick_1">
     <g id="line2d_6">
      <defs>
       <path id="m678259eeb7" d="M 0 0 
L 0 3.5 
" style="stroke: #000000; stroke-width: 0.8"/>
      </defs>
      <g>
       <use xlink:href="#m678259eeb7" x="33.133409" y="93.761046" style="stroke: #000000; stroke-width: 0.8"/>
      </g>
     </g>
     <g id="text_1">
      <text style="font: 200 12px 'Calibri'; text-anchor: middle" x="33.133409" y="108.928546" transform="rotate(-0, 33.133409, 108.928546)">10</text>
     </g>
    </g>
    <g id="xtick_2">
     <g id="line2d_7">
      <g>
       <use xlink:href="#m678259eeb7" x="46.660682" y="93.761046" style="stroke: #000000; stroke-width: 0.8"/>
      </g>
     </g>
     <g id="text_2">
      <text style="font: 200 12px 'Calibri'; text-anchor: middle" x="46.660682" y="108.928546" transform="rotate(-0, 46.660682, 108.928546)">20</text>
     </g>
    </g>
    <g id="xtick_3">
     <g id="line2d_8">
      <g>
       <use xlink:href="#m678259eeb7" x="60.187955" y="93.761046" style="stroke: #000000; stroke-width: 0.8"/>
      </g>
     </g>
     <g id="text_3">
      <text style="font: 200 12px 'Calibri'; text-anchor: middle" x="60.187955" y="108.928546" transform="rotate(-0, 60.187955, 108.928546)">30</text>
     </g>
    </g>
    <g id="xtick_4">
     <g id="line2d_9">
      <g>
       <use xlink:href="#m678259eeb7" x="73.715227" y="93.761046" style="stroke: #000000; stroke-width: 0.8"/>
      </g>
     </g>
     <g id="text_4">
      <text style="font: 200 12px 'Calibri'; text-anchor: middle" x="73.715227" y="108.928546" transform="rotate(-0, 73.715227, 108.928546)">40</text>
     </g>
    </g>
    <g id="xtick_5">
     <g id="line2d_10">
      <g>
       <use xlink:href="#m678259eeb7" x="87.2425" y="93.761046" style="stroke: #000000; stroke-width: 0.8"/>
      </g>
     </g>
     <g id="text_5">
      <text style="font: 200 12px 'Calibri'; text-anchor: middle" x="87.2425" y="108.928546" transform="rotate(-0, 87.2425, 108.928546)">50</text>
     </g>
    </g>
    <g id="xtick_6">
     <g id="line2d_11">
      <g>
       <use xlink:href="#m678259eeb7" x="100.769773" y="93.761046" style="stroke: #000000; stroke-width: 0.8"/>
      </g>
     </g>
     <g id="text_6">
      <text style="font: 200 12px 'Calibri'; text-anchor: middle" x="100.769773" y="108.928546" transform="rotate(-0, 100.769773, 108.928546)">60</text>
     </g>
    </g>
    <g id="xtick_7">
     <g id="line2d_12">
      <g>
       <use xlink:href="#m678259eeb7" x="114.297045" y="93.761046" style="stroke: #000000; stroke-width: 0.8"/>
      </g>
     </g>
     <g id="text_7">
      <text style="font: 200 12px 'Calibri'; text-anchor: middle" x="114.297045" y="108.928546" transform="rotate(-0, 114.297045, 108.928546)">70</text>
     </g>
    </g>
    <g id="xtick_8">
     <g id="line2d_13">
      <g>
       <use xlink:href="#m678259eeb7" x="127.824318" y="93.761046" style="stroke: #000000; stroke-width: 0.8"/>
      </g>
     </g>
     <g id="text_8">
      <text style="font: 200 12px 'Calibri'; text-anchor: middle" x="127.824318" y="108.928546" transform="rotate(-0, 127.824318, 108.928546)">80</text>
     </g>
    </g>
    <g id="xtick_9">
     <g id="line2d_14">
      <g>
       <use xlink:href="#m678259eeb7" x="141.351591" y="93.761046" style="stroke: #000000; stroke-width: 0.8"/>
      </g>
     </g>
     <g id="text_9">
      <text style="font: 200 12px 'Calibri'; text-anchor: middle" x="141.351591" y="108.928546" transform="rotate(-0, 141.351591, 108.928546)">90</text>
     </g>
    </g>
    <g id="xtick_10">
     <g id="line2d_15">
      <defs>
       <path id="m436e56b238" d="M 0 0 
L 0 2 
" style="stroke: #000000; stroke-width: 0.6"/>
      </defs>
      <g>
       <use xlink:href="#m436e56b238" x="26.369773" y="93.761046" style="stroke: #000000; stroke-width: 0.6"/>
      </g>
     </g>
    </g>
    <g id="xtick_11">
     <g id="line2d_16">
      <g>
       <use xlink:href="#m436e56b238" x="39.897045" y="93.761046" style="stroke: #000000; stroke-width: 0.6"/>
      </g>
     </g>
    </g>
    <g id="xtick_12">
     <g id="line2d_17">
      <g>
       <use xlink:href="#m436e56b238" x="53.424318" y="93.761046" style="stroke: #000000; stroke-width: 0.6"/>
      </g>
     </g>
    </g>
    <g id="xtick_13">
     <g id="line2d_18">
      <g>
       <use xlink:href="#m436e56b238" x="66.951591" y="93.761046" style="stroke: #000000; stroke-width: 0.6"/>
      </g>
     </g>
    </g>
    <g id="xtick_14">
     <g id="line2d_19">
      <g>
       <use xlink:href="#m436e56b238" x="80.478864" y="93.761046" style="stroke: #000000; stroke-width: 0.6"/>
      </g>
     </g>
    </g>
    <g id="xtick_15">
     <g id="line2d_20">
      <g>
       <use xlink:href="#m436e56b238" x="94.006136" y="93.761046" style="stroke: #000000; stroke-width: 0.6"/>
      </g>
     </g>
    </g>
    <g id="xtick_16">
     <g id="line2d_21">
      <g>
       <use xlink:href="#m436e56b238" x="107.533409" y="93.761046" style="stroke: #000000; stroke-width: 0.6"/>
      </g>
     </g>
    </g>
    <g id="xtick_17">
     <g id="line2d_22">
      <g>
       <use xlink:href="#m436e56b238" x="121.060682" y="93.761046" style="stroke: #000000; stroke-width: 0.6"/>
      </g>
     </g>
    </g>
    <g id="xtick_18">
     <g id="line2d_23">
      <g>
       <use xlink:href="#m436e56b238" x="134.587955" y="93.761046" style="stroke: #000000; stroke-width: 0.6"/>
      </g>
     </g>
    </g>
    <g id="xtick_19">
     <g id="line2d_24">
      <g>
       <use xlink:href="#m436e56b238" x="148.115227" y="93.761046" style="stroke: #000000; stroke-width: 0.6"/>
      </g>
     </g>
    </g>
   </g>
   <g id="matplotlib.axis_2">
    <g id="ytick_1">
     <g id="line2d_25">
      <defs>
       <path id="m004dcf1538" d="M 0 0 
L -3.5 0 
" style="stroke: #000000; stroke-width: 0.8"/>
      </defs>
      <g>
       <use xlink:href="#m004dcf1538" x="20.2825" y="61.078166" style="stroke: #000000; stroke-width: 0.8"/>
      </g>
     </g>
     <g id="text_10">
      <text style="font: 200 12px 'Calibri'; text-anchor: end" x="13.2825" y="65.161916" transform="rotate(-0, 13.2825, 65.161916)">0</text>
     </g>
    </g>
    <g id="ytick_2">
     <g id="line2d_26">
      <g>
       <use xlink:href="#m004dcf1538" x="20.2825" y="11.28375" style="stroke: #000000; stroke-width: 0.8"/>
      </g>
     </g>
     <g id="text_11">
      <text style="font: 200 12px 'Calibri'; text-anchor: end" x="13.2825" y="15.3675" transform="rotate(-0, 13.2825, 15.3675)">5</text>
     </g>
    </g>
   </g>
   <g id="line2d_27">
    <path d="M 148.115227 61.078166 
L 141.351591 61.078166 
L 134.587955 61.078166 
L 127.824318 61.078166 
L 121.060682 61.078166 
L 114.297045 61.078166 
L 107.533409 61.078166 
L 100.769773 61.078166 
L 94.006136 61.078166 
L 87.2425 61.078166 
L 80.478864 61.078166 
L 73.715227 61.078166 
L 66.951591 61.078166 
L 60.187955 61.078166 
L 53.424318 61.078166 
L 46.660682 61.078166 
L 39.897045 61.078166 
L 33.133409 61.078166 
L 26.369773 61.078166 
" clip-path="url(#p60d540336b)" style="fill: none; stroke-dasharray: 5.55,2.4; stroke-dashoffset: 0; stroke: #d3d3d3; stroke-width: 1.5"/>
   </g>
   <g id="line2d_28">
    <path d="M 148.115227 61.078166 
L 141.351591 61.078166 
L 134.587955 61.078166 
L 127.824318 61.078166 
L 121.060682 61.078166 
L 114.297045 61.078166 
L 107.533409 61.078166 
L 100.769773 61.078166 
L 94.006136 61.078166 
L 87.2425 61.078166 
L 80.478864 61.078166 
L 73.715227 61.078166 
L 66.951591 61.078166 
L 60.187955 61.078166 
L 53.424318 61.078166 
L 46.660682 61.078166 
L 39.897045 61.078166 
L 33.133409 61.078166 
L 26.369773 61.078166 
" clip-path="url(#p60d540336b)" style="fill: none; stroke-dasharray: 5.55,2.4; stroke-dashoffset: 0; stroke: #d3d3d3; stroke-width: 1.5"/>
   </g>
   <g id="line2d_29">
    <path d="M 148.115227 61.078166 
L 141.351591 61.078166 
L 134.587955 61.078166 
L 127.824318 61.078166 
L 121.060682 61.078166 
L 114.297045 61.078166 
L 107.533409 61.078166 
L 100.769773 61.078166 
L 94.006136 61.078166 
L 87.2425 61.078166 
L 80.478864 61.078166 
L 73.715227 61.078166 
L 66.951591 61.078166 
L 60.187955 61.078166 
L 53.424318 61.078166 
L 46.660682 61.078166 
L 39.897045 61.078166 
L 33.133409 61.078166 
L 26.369773 61.078166 
" clip-path="url(#p60d540336b)" style="fill: none; stroke-dasharray: 5.55,2.4; stroke-dashoffset: 0; stroke: #d3d3d3; stroke-width: 1.5"/>
   </g>
   <g id="line2d_30">
    <path d="M 148.115227 61.078166 
L 141.351591 61.078166 
L 134.587955 61.078166 
L 127.824318 61.078166 
L 121.060682 61.078166 
L 114.297045 61.078166 
L 107.533409 61.078166 
L 100.769773 61.078166 
L 94.006136 61.078166 
L 87.2425 61.078166 
L 80.478864 61.078166 
L 73.715227 61.078166 
L 66.951591 61.078166 
L 60.187955 61.078166 
L 53.424318 61.078166 
L 46.660682 61.078166 
L 39.897045 61.078166 
L 33.133409 61.078166 
L 26.369773 61.078166 
" clip-path="url(#p60d540336b)" style="fill: none; stroke-dasharray: 5.55,2.4; stroke-dashoffset: 0; stroke: #d3d3d3; stroke-width: 1.5"/>
   </g>
   <g id="line2d_31">
    <path d="M 148.115227 61.078166 
L 141.351591 61.078166 
L 134.587955 61.078166 
L 127.824318 61.078166 
L 121.060682 61.078166 
L 114.297045 61.078166 
L 107.533409 61.078166 
L 100.769773 61.078166 
L 94.006136 61.078166 
L 87.2425 61.078166 
L 80.478864 61.078166 
L 73.715227 61.078166 
L 66.951591 61.078166 
L 60.187955 61.078166 
L 53.424318 61.078166 
L 46.660682 61.078166 
L 39.897045 61.078166 
L 33.133409 61.078166 
L 26.369773 61.078166 
" clip-path="url(#p60d540336b)" style="fill: none; stroke-dasharray: 5.55,2.4; stroke-dashoffset: 0; stroke: #d3d3d3; stroke-width: 1.5"/>
   </g>
   <g id="patch_3">
    <path d="M 20.2825 93.761046 
L 20.2825 10.601046 
" style="fill: none; stroke: #000000; stroke-width: 0.8; stroke-linejoin: miter; stroke-linecap: square"/>
   </g>
   <g id="patch_4">
    <path d="M 20.2825 93.761046 
L 154.2025 93.761046 
" style="fill: none; stroke: #000000; stroke-width: 0.8; stroke-linejoin: miter; stroke-linecap: square"/>
   </g>
   <g id="legend_1">
    <g id="patch_5">
     <path d="M 167.9593 102.897921 
L 272.049925 102.897921 
Q 274.449925 102.897921 274.449925 100.497921 
L 274.449925 19.001046 
Q 274.449925 16.601046 272.049925 16.601046 
L 167.9593 16.601046 
Q 165.5593 16.601046 165.5593 19.001046 
L 165.5593 100.497921 
Q 165.5593 102.897921 167.9593 102.897921 
z
" style="fill: #ffffff; opacity: 0.8; stroke: #cccccc; stroke-linejoin: miter"/>
    </g>
    <g id="PathCollection_6">
     <path d="M 182.3593 28.232185 
C 182.778623 28.232185 183.180828 28.065586 183.477334 27.76908 
C 183.77384 27.472574 183.940439 27.070369 183.940439 26.651046 
C 183.940439 26.231723 183.77384 25.829518 183.477334 25.533012 
C 183.180828 25.236506 182.778623 25.069907 182.3593 25.069907 
C 181.939977 25.069907 181.537772 25.236506 181.241266 25.533012 
C 180.94476 25.829518 180.778161 26.231723 180.778161 26.651046 
C 180.778161 27.070369 180.94476 27.472574 181.241266 27.76908 
C 181.537772 28.065586 181.939977 28.232185 182.3593 28.232185 
z
" style="fill: #cdf5cd; stroke: #cdf5cd"/>
    </g>
    <g id="text_12">
     <text style="font: 200 12px 'Calibri'; text-anchor: start" x="203.9593" y="29.801046" transform="rotate(-0, 203.9593, 29.801046)">receptor_den</text>
    </g>
    <g id="PathCollection_7">
     <path d="M 182.3593 44.77156 
C 182.778623 44.77156 183.180828 44.604961 183.477334 44.308455 
C 183.77384 44.011949 183.940439 43.609744 183.940439 43.190421 
C 183.940439 42.771098 183.77384 42.368893 183.477334 42.072387 
C 183.180828 41.775881 182.778623 41.609282 182.3593 41.609282 
C 181.939977 41.609282 181.537772 41.775881 181.241266 42.072387 
C 180.94476 42.368893 180.778161 42.771098 180.778161 43.190421 
C 180.778161 43.609744 180.94476 44.011949 181.241266 44.308455 
C 181.537772 44.604961 181.939977 44.77156 182.3593 44.77156 
z
" style="fill: #cacaf8; stroke: #cacaf8"/>
    </g>
    <g id="text_13">
     <text style="font: 200 12px 'Calibri'; text-anchor: start" x="203.9593" y="46.340421" transform="rotate(-0, 203.9593, 46.340421)">EI_ratio</text>
    </g>
    <g id="PathCollection_8">
     <path d="M 182.3593 61.310935 
C 182.778623 61.310935 183.180828 61.144336 183.477334 60.84783 
C 183.77384 60.551324 183.940439 60.149119 183.940439 59.729796 
C 183.940439 59.310473 183.77384 58.908268 183.477334 58.611762 
C 183.180828 58.315256 182.778623 58.148657 182.3593 58.148657 
C 181.939977 58.148657 181.537772 58.315256 181.241266 58.611762 
C 180.94476 58.908268 180.778161 59.310473 180.778161 59.729796 
C 180.778161 60.149119 180.94476 60.551324 181.241266 60.84783 
C 181.537772 61.144336 181.939977 61.310935 182.3593 61.310935 
z
" style="fill: #feeeba; stroke: #feeeba"/>
    </g>
    <g id="text_14">
     <text style="font: 200 12px 'Calibri'; text-anchor: start" x="203.9593" y="62.879796" transform="rotate(-0, 203.9593, 62.879796)">genePC1</text>
    </g>
    <g id="PathCollection_9">
     <path d="M 182.3593 77.85031 
C 182.778623 77.85031 183.180828 77.683711 183.477334 77.387205 
C 183.77384 77.090699 183.940439 76.688494 183.940439 76.269171 
C 183.940439 75.849848 183.77384 75.447643 183.477334 75.151137 
C 183.180828 74.854631 182.778623 74.688032 182.3593 74.688032 
C 181.939977 74.688032 181.537772 74.854631 181.241266 75.151137 
C 180.94476 75.447643 180.778161 75.849848 180.778161 76.269171 
C 180.778161 76.688494 180.94476 77.090699 181.241266 77.387205 
C 181.537772 77.683711 181.939977 77.85031 182.3593 77.85031 
z
" style="fill: #f5cdf5; stroke: #f5cdf5"/>
    </g>
    <g id="text_15">
     <text style="font: 200 12px 'Calibri'; text-anchor: start" x="203.9593" y="79.419171" transform="rotate(-0, 203.9593, 79.419171)">t1t2</text>
    </g>
    <g id="PathCollection_10">
     <path d="M 182.3593 94.389685 
C 182.778623 94.389685 183.180828 94.223086 183.477334 93.92658 
C 183.77384 93.630074 183.940439 93.227869 183.940439 92.808546 
C 183.940439 92.389223 183.77384 91.987018 183.477334 91.690512 
C 183.180828 91.394006 182.778623 91.227407 182.3593 91.227407 
C 181.939977 91.227407 181.537772 91.394006 181.241266 91.690512 
C 180.94476 91.987018 180.778161 92.389223 180.778161 92.808546 
C 180.778161 93.227869 180.94476 93.630074 181.241266 93.92658 
C 181.537772 94.223086 181.939977 94.389685 182.3593 94.389685 
z
" style="fill: #caf8f8; stroke: #caf8f8"/>
    </g>
    <g id="text_16">
     <text style="font: 200 12px 'Calibri'; text-anchor: start" x="203.9593" y="95.958546" transform="rotate(-0, 203.9593, 95.958546)">thi</text>
    </g>
   </g>
  </g>
 </g>
 <defs>
  <clipPath id="p60d540336b">
   <rect x="20.2825" y="10.601046" width="133.92" height="83.16"/>
  </clipPath>
 </defs>
</svg>
