<?xml version="1.0" encoding="utf-8" standalone="no"?>
<!DOCTYPE svg PUBLIC "-//W3C//DTD SVG 1.1//EN"
  "http://www.w3.org/Graphics/SVG/1.1/DTD/svg11.dtd">
<svg xmlns:xlink="http://www.w3.org/1999/xlink" width="180pt" height="180pt" viewBox="0 0 180 180" xmlns="http://www.w3.org/2000/svg" version="1.1">
 <metadata>
  <rdf:RDF xmlns:dc="http://purl.org/dc/elements/1.1/" xmlns:cc="http://creativecommons.org/ns#" xmlns:rdf="http://www.w3.org/1999/02/22-rdf-syntax-ns#">
   <cc:Work>
    <dc:type rdf:resource="http://purl.org/dc/dcmitype/StillImage"/>
    <dc:date>2023-02-27T09:25:28.132601</dc:date>
    <dc:format>image/svg+xml</dc:format>
    <dc:creator>
     <cc:Agent>
      <dc:title>Matplotlib v3.6.2, https://matplotlib.org/</dc:title>
     </cc:Agent>
    </dc:creator>
   </cc:Work>
  </rdf:RDF>
 </metadata>
 <defs>
  <style type="text/css">*{stroke-linejoin: round; stroke-linecap: butt}</style>
 </defs>
 <g id="figure_1">
  <g id="axes_1">
   <g id="patch_1">
    <path d="M 22.5 160.2 
L 162 160.2 
L 162 21.6 
L 22.5 21.6 
z
" style="fill: #ffffff"/>
   </g>
   <g id="patch_2">
    <path d="M 76.329856 157.428 
L 76.329856 135.252 
L 97.658993 135.252 
L 97.658993 157.428 
L 76.329856 157.428 
z
" clip-path="url(#p840290c907)" style="fill: #fcbba1; stroke: #cb181d; stroke-linejoin: miter"/>
   </g>
   <g id="line2d_1">
    <path d="M 76.329856 146.34 
L 50.103848 146.34 
" clip-path="url(#p840290c907)" style="fill: none; stroke: #cb181d; stroke-linecap: square"/>
   </g>
   <g id="line2d_2">
    <path d="M 97.658993 146.34 
L 129.167607 146.34 
" clip-path="url(#p840290c907)" style="fill: none; stroke: #cb181d; stroke-linecap: square"/>
   </g>
   <g id="line2d_3">
    <defs>
     <path id="m0d69d90d60" d="M -3 0 
L 3 0 
M 0 3 
L 0 -3 
" style="stroke: #d3d3d3"/>
    </defs>
    <g clip-path="url(#p840290c907)">
     <use xlink:href="#m0d69d90d60" x="130.879463" y="146.34" style="fill: #d3d3d3; stroke: #d3d3d3"/>
     <use xlink:href="#m0d69d90d60" x="133.22663" y="146.34" style="fill: #d3d3d3; stroke: #d3d3d3"/>
     <use xlink:href="#m0d69d90d60" x="137.897622" y="146.34" style="fill: #d3d3d3; stroke: #d3d3d3"/>
     <use xlink:href="#m0d69d90d60" x="131.274583" y="146.34" style="fill: #d3d3d3; stroke: #d3d3d3"/>
    </g>
   </g>
   <g id="patch_3">
    <path d="M 73.307091 129.708 
L 73.307091 107.532 
L 95.407288 107.532 
L 95.407288 129.708 
L 73.307091 129.708 
z
" clip-path="url(#p840290c907)" style="fill: #fcbba1; stroke: #cb181d; stroke-linejoin: miter"/>
   </g>
   <g id="line2d_4">
    <path d="M 73.307091 118.62 
L 45.458333 118.62 
" clip-path="url(#p840290c907)" style="fill: none; stroke: #cb181d; stroke-linecap: square"/>
   </g>
   <g id="line2d_5">
    <path d="M 95.407288 118.62 
L 127.570225 118.62 
" clip-path="url(#p840290c907)" style="fill: none; stroke: #cb181d; stroke-linecap: square"/>
   </g>
   <g id="line2d_6"/>
   <g id="patch_4">
    <path d="M 90.504475 101.988 
L 90.504475 79.812 
L 115.609212 79.812 
L 115.609212 101.988 
L 90.504475 101.988 
z
" clip-path="url(#p840290c907)" style="fill: #fcbba1; stroke: #cb181d; stroke-linejoin: miter"/>
   </g>
   <g id="line2d_7">
    <path d="M 90.504475 90.9 
L 53.783898 90.9 
" clip-path="url(#p840290c907)" style="fill: none; stroke: #cb181d; stroke-linecap: square"/>
   </g>
   <g id="line2d_8">
    <path d="M 115.609212 90.9 
L 153.164723 90.9 
" clip-path="url(#p840290c907)" style="fill: none; stroke: #cb181d; stroke-linecap: square"/>
   </g>
   <g id="line2d_9">
    <g clip-path="url(#p840290c907)">
     <use xlink:href="#m0d69d90d60" x="153.557824" y="90.9" style="fill: #d3d3d3; stroke: #d3d3d3"/>
     <use xlink:href="#m0d69d90d60" x="155.659091" y="90.9" style="fill: #d3d3d3; stroke: #d3d3d3"/>
    </g>
   </g>
   <g id="patch_5">
    <path d="M 75.409246 74.268 
L 75.409246 52.092 
L 97.916303 52.092 
L 97.916303 74.268 
L 75.409246 74.268 
z
" clip-path="url(#p840290c907)" style="fill: #fcbba1; stroke: #cb181d; stroke-linejoin: miter"/>
   </g>
   <g id="line2d_10">
    <path d="M 75.409246 63.18 
L 42.647131 63.18 
" clip-path="url(#p840290c907)" style="fill: none; stroke: #cb181d; stroke-linecap: square"/>
   </g>
   <g id="line2d_11">
    <path d="M 97.916303 63.18 
L 130.386557 63.18 
" clip-path="url(#p840290c907)" style="fill: none; stroke: #cb181d; stroke-linecap: square"/>
   </g>
   <g id="line2d_12">
    <g clip-path="url(#p840290c907)">
     <use xlink:href="#m0d69d90d60" x="34.217638" y="63.18" style="fill: #d3d3d3; stroke: #d3d3d3"/>
     <use xlink:href="#m0d69d90d60" x="40.602789" y="63.18" style="fill: #d3d3d3; stroke: #d3d3d3"/>
     <use xlink:href="#m0d69d90d60" x="136.099687" y="63.18" style="fill: #d3d3d3; stroke: #d3d3d3"/>
     <use xlink:href="#m0d69d90d60" x="134.162363" y="63.18" style="fill: #d3d3d3; stroke: #d3d3d3"/>
     <use xlink:href="#m0d69d90d60" x="131.844923" y="63.18" style="fill: #d3d3d3; stroke: #d3d3d3"/>
     <use xlink:href="#m0d69d90d60" x="142.661261" y="63.18" style="fill: #d3d3d3; stroke: #d3d3d3"/>
     <use xlink:href="#m0d69d90d60" x="138.216542" y="63.18" style="fill: #d3d3d3; stroke: #d3d3d3"/>
    </g>
   </g>
   <g id="patch_6">
    <path d="M 45.725254 46.548 
L 45.725254 24.372 
L 62.495623 24.372 
L 62.495623 46.548 
L 45.725254 46.548 
z
" clip-path="url(#p840290c907)" style="fill: #fcbba1; stroke: #cb181d; stroke-linejoin: miter"/>
   </g>
   <g id="line2d_13">
    <path d="M 45.725254 35.46 
L 28.840909 35.46 
" clip-path="url(#p840290c907)" style="fill: none; stroke: #cb181d; stroke-linecap: square"/>
   </g>
   <g id="line2d_14">
    <path d="M 62.495623 35.46 
L 87.200101 35.46 
" clip-path="url(#p840290c907)" style="fill: none; stroke: #cb181d; stroke-linecap: square"/>
   </g>
   <g id="line2d_15"/>
   <g id="line2d_16">
    <path d="M 86.698061 157.428 
L 86.698061 135.252 
" clip-path="url(#p840290c907)" style="fill: none; stroke: #cb181d; stroke-linecap: square"/>
   </g>
   <g id="line2d_17">
    <path d="M 84.269134 129.708 
L 84.269134 107.532 
" clip-path="url(#p840290c907)" style="fill: none; stroke: #cb181d; stroke-linecap: square"/>
   </g>
   <g id="line2d_18">
    <path d="M 102.231095 101.988 
L 102.231095 79.812 
" clip-path="url(#p840290c907)" style="fill: none; stroke: #cb181d; stroke-linecap: square"/>
   </g>
   <g id="line2d_19">
    <path d="M 86.018188 74.268 
L 86.018188 52.092 
" clip-path="url(#p840290c907)" style="fill: none; stroke: #cb181d; stroke-linecap: square"/>
   </g>
   <g id="line2d_20">
    <path d="M 53.623408 46.548 
L 53.623408 24.372 
" clip-path="url(#p840290c907)" style="fill: none; stroke: #cb181d; stroke-linecap: square"/>
   </g>
   <g id="PathCollection_1">
    <defs>
     <path id="m00cec2508f" d="M 0 3 
C 0.795609 3 1.55874 2.683901 2.12132 2.12132 
C 2.683901 1.55874 3 0.795609 3 0 
C 3 -0.795609 2.683901 -1.55874 2.12132 -2.12132 
C 1.55874 -2.683901 0.795609 -3 0 -3 
C -0.795609 -3 -1.55874 -2.683901 -2.12132 -2.12132 
C -2.683901 -1.55874 -3 -0.795609 -3 0 
C -3 0.795609 -2.683901 1.55874 -2.12132 2.12132 
C -1.55874 2.683901 -0.795609 3 0 3 
z
" style="stroke: #cb181d"/>
    </defs>
    <g clip-path="url(#p840290c907)">
     <use xlink:href="#m00cec2508f" x="102.091711" y="146.34" style="fill: #cb181d; stroke: #cb181d"/>
     <use xlink:href="#m00cec2508f" x="124.055272" y="118.62" style="fill: #cb181d; stroke: #cb181d"/>
     <use xlink:href="#m00cec2508f" x="97.725868" y="90.9" style="fill: #cb181d; stroke: #cb181d"/>
     <use xlink:href="#m00cec2508f" x="85.145128" y="63.18" style="fill: #cb181d; stroke: #cb181d"/>
     <use xlink:href="#m00cec2508f" x="64.778088" y="35.46" style="fill: #cb181d; stroke: #cb181d"/>
    </g>
   </g>
   <g id="matplotlib.axis_1">
    <g id="xtick_1">
     <g id="line2d_21">
      <defs>
       <path id="m55e27c6785" d="M 0 0 
L 0 3.5 
" style="stroke: #000000; stroke-width: 0.8"/>
      </defs>
      <g>
       <use xlink:href="#m55e27c6785" x="81.485009" y="160.2" style="stroke: #000000; stroke-width: 0.8"/>
      </g>
     </g>
     <g id="text_1">
      <text style="font: 200 12px 'Calibri'; text-anchor: middle" x="81.485009" y="175.3675" transform="rotate(-0 81.485009 175.3675)">0.2</text>
     </g>
    </g>
    <g id="xtick_2">
     <g id="line2d_22">
      <g>
       <use xlink:href="#m55e27c6785" x="158.128623" y="160.2" style="stroke: #000000; stroke-width: 0.8"/>
      </g>
     </g>
     <g id="text_2">
      <text style="font: 200 12px 'Calibri'; text-anchor: middle" x="158.128623" y="175.3675" transform="rotate(-0 158.128623 175.3675)">0.4</text>
     </g>
    </g>
    <g id="text_3">
     <text style="font: 12px 'Calibri'; text-anchor: middle" x="92.25" y="189.66875" transform="rotate(-0 92.25 189.66875)">R2</text>
    </g>
   </g>
   <g id="matplotlib.axis_2">
    <g id="ytick_1">
     <g id="line2d_23">
      <defs>
       <path id="m3a6372e22b" d="M 0 0 
L -3.5 0 
" style="stroke: #000000; stroke-width: 0.8"/>
      </defs>
      <g>
       <use xlink:href="#m3a6372e22b" x="22.5" y="146.34" style="stroke: #000000; stroke-width: 0.8"/>
      </g>
     </g>
     <g id="text_4">
      <text style="font: 200 12px 'Calibri'; text-anchor: end" x="15.5" y="150.42375" transform="rotate(-0 15.5 150.42375)">thi</text>
     </g>
    </g>
    <g id="ytick_2">
     <g id="line2d_24">
      <g>
       <use xlink:href="#m3a6372e22b" x="22.5" y="118.62" style="stroke: #000000; stroke-width: 0.8"/>
      </g>
     </g>
     <g id="text_5">
      <text style="font: 200 12px 'Calibri'; text-anchor: end" x="15.5" y="122.70375" transform="rotate(-0 15.5 122.70375)">t1t2</text>
     </g>
    </g>
    <g id="ytick_3">
     <g id="line2d_25">
      <g>
       <use xlink:href="#m3a6372e22b" x="22.5" y="90.9" style="stroke: #000000; stroke-width: 0.8"/>
      </g>
     </g>
     <g id="text_6">
      <text style="font: 200 12px 'Calibri'; text-anchor: end" x="15.5" y="94.98375" transform="rotate(-0 15.5 94.98375)">genePC1</text>
     </g>
    </g>
    <g id="ytick_4">
     <g id="line2d_26">
      <g>
       <use xlink:href="#m3a6372e22b" x="22.5" y="63.18" style="stroke: #000000; stroke-width: 0.8"/>
      </g>
     </g>
     <g id="text_7">
      <text style="font: 200 12px 'Calibri'; text-anchor: end" x="15.5" y="67.26375" transform="rotate(-0 15.5 67.26375)">EI_ratio</text>
     </g>
    </g>
    <g id="ytick_5">
     <g id="line2d_27">
      <g>
       <use xlink:href="#m3a6372e22b" x="22.5" y="35.46" style="stroke: #000000; stroke-width: 0.8"/>
      </g>
     </g>
     <g id="text_8">
      <text style="font: 200 12px 'Calibri'; text-anchor: end" x="15.5" y="39.54375" transform="rotate(-0 15.5 39.54375)">receptor_den</text>
     </g>
    </g>
   </g>
   <g id="patch_7">
    <path d="M 22.5 160.2 
L 22.5 21.6 
" style="fill: none; stroke: #000000; stroke-width: 0.8; stroke-linejoin: miter; stroke-linecap: square"/>
   </g>
   <g id="patch_8">
    <path d="M 22.5 160.2 
L 162 160.2 
" style="fill: none; stroke: #000000; stroke-width: 0.8; stroke-linejoin: miter; stroke-linecap: square"/>
   </g>
  </g>
 </g>
 <defs>
  <clipPath id="p840290c907">
   <rect x="22.5" y="21.6" width="139.5" height="138.6"/>
  </clipPath>
 </defs>
</svg>
