<?xml version="1.0" encoding="utf-8" standalone="no"?>
<!DOCTYPE svg PUBLIC "-//W3C//DTD SVG 1.1//EN"
  "http://www.w3.org/Graphics/SVG/1.1/DTD/svg11.dtd">
<svg xmlns:xlink="http://www.w3.org/1999/xlink" width="287.627425pt" height="114.866875pt" viewBox="0 0 287.627425 114.866875" xmlns="http://www.w3.org/2000/svg" version="1.1">
 <metadata>
  <rdf:RDF xmlns:dc="http://purl.org/dc/elements/1.1/" xmlns:cc="http://creativecommons.org/ns#" xmlns:rdf="http://www.w3.org/1999/02/22-rdf-syntax-ns#">
   <cc:Work>
    <dc:type rdf:resource="http://purl.org/dc/dcmitype/StillImage"/>
    <dc:date>2023-04-11T10:52:30.109973</dc:date>
    <dc:format>image/svg+xml</dc:format>
    <dc:creator>
     <cc:Agent>
      <dc:title>Matplotlib v3.6.2, https://matplotlib.org/</dc:title>
     </cc:Agent>
    </dc:creator>
   </cc:Work>
  </rdf:RDF>
 </metadata>
 <defs>
  <style type="text/css">*{stroke-linejoin: round; stroke-linecap: butt}</style>
 </defs>
 <g id="figure_1">
  <g id="patch_1">
   <path d="M 0 114.866875 
L 287.627425 114.866875 
L 287.627425 0 
L 0 0 
z
" style="fill: #ffffff"/>
  </g>
  <g id="axes_1">
   <g id="patch_2">
    <path d="M 26.26 90.36 
L 160.18 90.36 
L 160.18 7.2 
L 26.26 7.2 
z
" style="fill: #ffffff"/>
   </g>
   <g id="line2d_1">
    <path d="M 154.092727 38.402445 
L 147.329091 46.047304 
L 140.565455 54.429736 
L 133.801818 57.479286 
L 127.038182 60.806112 
L 120.274545 57.251004 
L 113.510909 51.56419 
L 106.747273 46.109135 
L 99.983636 40.274021 
L 93.22 37.842326 
L 86.456364 35.652385 
L 79.692727 35.076227 
L 72.929091 33.063291 
L 66.165455 33.506298 
L 59.401818 31.201426 
L 52.638182 31.22664 
L 45.874545 29.428462 
L 39.110909 28.676395 
L 32.347273 30.028429 
" clip-path="url(#pc37b35d3a6)" style="fill: none; stroke: #cdf5cd; stroke-width: 1.5; stroke-linecap: square"/>
   </g>
   <g id="line2d_2">
    <path d="M 154.092727 70.736245 
L 147.329091 77.679207 
L 140.565455 83.04066 
L 133.801818 84.626648 
L 127.038182 85.367611 
L 120.274545 83.567658 
L 113.510909 78.276527 
L 106.747273 73.262483 
L 99.983636 68.306929 
L 93.22 64.315647 
L 86.456364 61.119858 
L 79.692727 59.386341 
L 72.929091 57.699521 
L 66.165455 56.434412 
L 59.401818 55.279445 
L 52.638182 54.082735 
L 45.874545 53.178167 
L 39.110909 52.525735 
L 32.347273 51.16535 
" clip-path="url(#pc37b35d3a6)" style="fill: none; stroke: #cacaf8; stroke-width: 1.5; stroke-linecap: square"/>
   </g>
   <g id="line2d_3">
    <path d="M 154.092727 73.839818 
L 147.329091 77.404732 
L 140.565455 80.885877 
L 133.801818 84.606283 
L 127.038182 86.58 
L 120.274545 85.591046 
L 113.510909 84.022805 
L 106.747273 80.776619 
L 99.983636 77.463508 
L 93.22 75.451925 
L 86.456364 73.521574 
L 79.692727 72.059378 
L 72.929091 69.144108 
L 66.165455 66.62017 
L 59.401818 64.860531 
L 52.638182 62.702196 
L 45.874545 60.862045 
L 39.110909 59.493964 
L 32.347273 60.569323 
" clip-path="url(#pc37b35d3a6)" style="fill: none; stroke: #feeeba; stroke-width: 1.5; stroke-linecap: square"/>
   </g>
   <g id="line2d_4">
    <path d="M 154.092727 78.717582 
L 147.329091 76.961598 
L 140.565455 78.846919 
L 133.801818 78.344523 
L 127.038182 74.380082 
L 120.274545 66.780955 
L 113.510909 60.629856 
L 106.747273 53.3514 
L 99.983636 46.000335 
L 93.22 40.213125 
L 86.456364 33.852046 
L 79.692727 29.903238 
L 72.929091 25.726123 
L 66.165455 21.530441 
L 59.401818 18.36547 
L 52.638182 15.623682 
L 45.874545 13.058027 
L 39.110909 10.98 
L 32.347273 11.039143 
" clip-path="url(#pc37b35d3a6)" style="fill: none; stroke: #f5cdf5; stroke-width: 1.5; stroke-linecap: square"/>
   </g>
   <g id="line2d_5">
    <path d="M 154.092727 74.400332 
L 147.329091 73.920867 
L 140.565455 76.919133 
L 133.801818 78.180444 
L 127.038182 77.174407 
L 120.274545 74.50376 
L 113.510909 69.609512 
L 106.747273 65.77314 
L 99.983636 60.80193 
L 93.22 56.53907 
L 86.456364 52.946351 
L 79.692727 49.109388 
L 72.929091 45.463973 
L 66.165455 43.42286 
L 59.401818 41.291638 
L 52.638182 39.762968 
L 45.874545 37.070083 
L 39.110909 35.275386 
L 32.347273 34.772606 
" clip-path="url(#pc37b35d3a6)" style="fill: none; stroke: #caf8f8; stroke-width: 1.5; stroke-linecap: square"/>
   </g>
   <g id="PathCollection_1">
    <defs>
     <path id="C0_0_b3dc92409b" d="M 0 1.581139 
C 0.419323 1.581139 0.821528 1.41454 1.118034 1.118034 
C 1.41454 0.821528 1.581139 0.419323 1.581139 -0 
C 1.581139 -0.419323 1.41454 -0.821528 1.118034 -1.118034 
C 0.821528 -1.41454 0.419323 -1.581139 0 -1.581139 
C -0.419323 -1.581139 -0.821528 -1.41454 -1.118034 -1.118034 
C -1.41454 -0.821528 -1.581139 -0.419323 -1.581139 0 
C -1.581139 0.419323 -1.41454 0.821528 -1.118034 1.118034 
C -0.821528 1.41454 -0.419323 1.581139 0 1.581139 
z
"/>
    </defs>
    <g clip-path="url(#pc37b35d3a6)">
     <use xlink:href="#C0_0_b3dc92409b" x="154.092727" y="38.402445" style="fill: #cdf5cd; stroke: #cdf5cd"/>
    </g>
    <g clip-path="url(#pc37b35d3a6)">
     <use xlink:href="#C0_0_b3dc92409b" x="147.329091" y="46.047304" style="fill: #cdf5cd; stroke: #cdf5cd"/>
    </g>
    <g clip-path="url(#pc37b35d3a6)">
     <use xlink:href="#C0_0_b3dc92409b" x="140.565455" y="54.429736" style="fill: #cdf5cd; stroke: #cdf5cd"/>
    </g>
    <g clip-path="url(#pc37b35d3a6)">
     <use xlink:href="#C0_0_b3dc92409b" x="133.801818" y="57.479286" style="fill: #cdf5cd; stroke: #cdf5cd"/>
    </g>
    <g clip-path="url(#pc37b35d3a6)">
     <use xlink:href="#C0_0_b3dc92409b" x="127.038182" y="60.806112" style="fill: #cdf5cd; stroke: #cdf5cd"/>
    </g>
    <g clip-path="url(#pc37b35d3a6)">
     <use xlink:href="#C0_0_b3dc92409b" x="120.274545" y="57.251004" style="fill: #cdf5cd; stroke: #cdf5cd"/>
    </g>
    <g clip-path="url(#pc37b35d3a6)">
     <use xlink:href="#C0_0_b3dc92409b" x="113.510909" y="51.56419" style="fill: #cdf5cd; stroke: #cdf5cd"/>
    </g>
    <g clip-path="url(#pc37b35d3a6)">
     <use xlink:href="#C0_0_b3dc92409b" x="106.747273" y="46.109135" style="fill: #cdf5cd; stroke: #cdf5cd"/>
    </g>
    <g clip-path="url(#pc37b35d3a6)">
     <use xlink:href="#C0_0_b3dc92409b" x="99.983636" y="40.274021" style="fill: #cdf5cd; stroke: #cdf5cd"/>
    </g>
    <g clip-path="url(#pc37b35d3a6)">
     <use xlink:href="#C0_0_b3dc92409b" x="93.22" y="37.842326" style="fill: #cdf5cd; stroke: #cdf5cd"/>
    </g>
    <g clip-path="url(#pc37b35d3a6)">
     <use xlink:href="#C0_0_b3dc92409b" x="86.456364" y="35.652385" style="fill: #cdf5cd; stroke: #cdf5cd"/>
    </g>
    <g clip-path="url(#pc37b35d3a6)">
     <use xlink:href="#C0_0_b3dc92409b" x="79.692727" y="35.076227" style="fill: #cdf5cd; stroke: #cdf5cd"/>
    </g>
    <g clip-path="url(#pc37b35d3a6)">
     <use xlink:href="#C0_0_b3dc92409b" x="72.929091" y="33.063291" style="fill: #cdf5cd; stroke: #cdf5cd"/>
    </g>
    <g clip-path="url(#pc37b35d3a6)">
     <use xlink:href="#C0_0_b3dc92409b" x="66.165455" y="33.506298" style="fill: #cdf5cd; stroke: #cdf5cd"/>
    </g>
    <g clip-path="url(#pc37b35d3a6)">
     <use xlink:href="#C0_0_b3dc92409b" x="59.401818" y="31.201426" style="fill: #cdf5cd; stroke: #cdf5cd"/>
    </g>
    <g clip-path="url(#pc37b35d3a6)">
     <use xlink:href="#C0_0_b3dc92409b" x="52.638182" y="31.22664" style="fill: #cdf5cd; stroke: #cdf5cd"/>
    </g>
    <g clip-path="url(#pc37b35d3a6)">
     <use xlink:href="#C0_0_b3dc92409b" x="45.874545" y="29.428462" style="fill: #cdf5cd; stroke: #cdf5cd"/>
    </g>
    <g clip-path="url(#pc37b35d3a6)">
     <use xlink:href="#C0_0_b3dc92409b" x="39.110909" y="28.676395" style="fill: #cdf5cd; stroke: #cdf5cd"/>
    </g>
    <g clip-path="url(#pc37b35d3a6)">
     <use xlink:href="#C0_0_b3dc92409b" x="32.347273" y="30.028429" style="fill: #cdf5cd; stroke: #cdf5cd"/>
    </g>
   </g>
   <g id="PathCollection_2">
    <defs>
     <path id="C1_0_77aedd8809" d="M 0 1.581139 
C 0.419323 1.581139 0.821528 1.41454 1.118034 1.118034 
C 1.41454 0.821528 1.581139 0.419323 1.581139 -0 
C 1.581139 -0.419323 1.41454 -0.821528 1.118034 -1.118034 
C 0.821528 -1.41454 0.419323 -1.581139 0 -1.581139 
C -0.419323 -1.581139 -0.821528 -1.41454 -1.118034 -1.118034 
C -1.41454 -0.821528 -1.581139 -0.419323 -1.581139 0 
C -1.581139 0.419323 -1.41454 0.821528 -1.118034 1.118034 
C -0.821528 1.41454 -0.419323 1.581139 0 1.581139 
z
"/>
    </defs>
    <g clip-path="url(#pc37b35d3a6)">
     <use xlink:href="#C1_0_77aedd8809" x="154.092727" y="70.736245" style="fill: #cacaf8; stroke: #cacaf8"/>
    </g>
    <g clip-path="url(#pc37b35d3a6)">
     <use xlink:href="#C1_0_77aedd8809" x="147.329091" y="77.679207" style="fill: #cacaf8; stroke: #cacaf8"/>
    </g>
    <g clip-path="url(#pc37b35d3a6)">
     <use xlink:href="#C1_0_77aedd8809" x="140.565455" y="83.04066" style="fill: #1a1ad6; stroke: #1a1ad6"/>
    </g>
    <g clip-path="url(#pc37b35d3a6)">
     <use xlink:href="#C1_0_77aedd8809" x="133.801818" y="84.626648" style="fill: #1a1ad6; stroke: #1a1ad6"/>
    </g>
    <g clip-path="url(#pc37b35d3a6)">
     <use xlink:href="#C1_0_77aedd8809" x="127.038182" y="85.367611" style="fill: #1a1ad6; stroke: #1a1ad6"/>
    </g>
    <g clip-path="url(#pc37b35d3a6)">
     <use xlink:href="#C1_0_77aedd8809" x="120.274545" y="83.567658" style="fill: #cacaf8; stroke: #cacaf8"/>
    </g>
    <g clip-path="url(#pc37b35d3a6)">
     <use xlink:href="#C1_0_77aedd8809" x="113.510909" y="78.276527" style="fill: #cacaf8; stroke: #cacaf8"/>
    </g>
    <g clip-path="url(#pc37b35d3a6)">
     <use xlink:href="#C1_0_77aedd8809" x="106.747273" y="73.262483" style="fill: #cacaf8; stroke: #cacaf8"/>
    </g>
    <g clip-path="url(#pc37b35d3a6)">
     <use xlink:href="#C1_0_77aedd8809" x="99.983636" y="68.306929" style="fill: #cacaf8; stroke: #cacaf8"/>
    </g>
    <g clip-path="url(#pc37b35d3a6)">
     <use xlink:href="#C1_0_77aedd8809" x="93.22" y="64.315647" style="fill: #cacaf8; stroke: #cacaf8"/>
    </g>
    <g clip-path="url(#pc37b35d3a6)">
     <use xlink:href="#C1_0_77aedd8809" x="86.456364" y="61.119858" style="fill: #cacaf8; stroke: #cacaf8"/>
    </g>
    <g clip-path="url(#pc37b35d3a6)">
     <use xlink:href="#C1_0_77aedd8809" x="79.692727" y="59.386341" style="fill: #cacaf8; stroke: #cacaf8"/>
    </g>
    <g clip-path="url(#pc37b35d3a6)">
     <use xlink:href="#C1_0_77aedd8809" x="72.929091" y="57.699521" style="fill: #cacaf8; stroke: #cacaf8"/>
    </g>
    <g clip-path="url(#pc37b35d3a6)">
     <use xlink:href="#C1_0_77aedd8809" x="66.165455" y="56.434412" style="fill: #cacaf8; stroke: #cacaf8"/>
    </g>
    <g clip-path="url(#pc37b35d3a6)">
     <use xlink:href="#C1_0_77aedd8809" x="59.401818" y="55.279445" style="fill: #cacaf8; stroke: #cacaf8"/>
    </g>
    <g clip-path="url(#pc37b35d3a6)">
     <use xlink:href="#C1_0_77aedd8809" x="52.638182" y="54.082735" style="fill: #cacaf8; stroke: #cacaf8"/>
    </g>
    <g clip-path="url(#pc37b35d3a6)">
     <use xlink:href="#C1_0_77aedd8809" x="45.874545" y="53.178167" style="fill: #cacaf8; stroke: #cacaf8"/>
    </g>
    <g clip-path="url(#pc37b35d3a6)">
     <use xlink:href="#C1_0_77aedd8809" x="39.110909" y="52.525735" style="fill: #cacaf8; stroke: #cacaf8"/>
    </g>
    <g clip-path="url(#pc37b35d3a6)">
     <use xlink:href="#C1_0_77aedd8809" x="32.347273" y="51.16535" style="fill: #cacaf8; stroke: #cacaf8"/>
    </g>
   </g>
   <g id="PathCollection_3">
    <defs>
     <path id="C2_0_3aa6046a87" d="M 0 1.581139 
C 0.419323 1.581139 0.821528 1.41454 1.118034 1.118034 
C 1.41454 0.821528 1.581139 0.419323 1.581139 -0 
C 1.581139 -0.419323 1.41454 -0.821528 1.118034 -1.118034 
C 0.821528 -1.41454 0.419323 -1.581139 0 -1.581139 
C -0.419323 -1.581139 -0.821528 -1.41454 -1.118034 -1.118034 
C -1.41454 -0.821528 -1.581139 -0.419323 -1.581139 0 
C -1.581139 0.419323 -1.41454 0.821528 -1.118034 1.118034 
C -0.821528 1.41454 -0.419323 1.581139 0 1.581139 
z
"/>
    </defs>
    <g clip-path="url(#pc37b35d3a6)">
     <use xlink:href="#C2_0_3aa6046a87" x="154.092727" y="73.839818" style="fill: #feeeba; stroke: #feeeba"/>
    </g>
    <g clip-path="url(#pc37b35d3a6)">
     <use xlink:href="#C2_0_3aa6046a87" x="147.329091" y="77.404732" style="fill: #feeeba; stroke: #feeeba"/>
    </g>
    <g clip-path="url(#pc37b35d3a6)">
     <use xlink:href="#C2_0_3aa6046a87" x="140.565455" y="80.885877" style="fill: #f2b701; stroke: #f2b701"/>
    </g>
    <g clip-path="url(#pc37b35d3a6)">
     <use xlink:href="#C2_0_3aa6046a87" x="133.801818" y="84.606283" style="fill: #f2b701; stroke: #f2b701"/>
    </g>
    <g clip-path="url(#pc37b35d3a6)">
     <use xlink:href="#C2_0_3aa6046a87" x="127.038182" y="86.58" style="fill: #f2b701; stroke: #f2b701"/>
    </g>
    <g clip-path="url(#pc37b35d3a6)">
     <use xlink:href="#C2_0_3aa6046a87" x="120.274545" y="85.591046" style="fill: #f2b701; stroke: #f2b701"/>
    </g>
    <g clip-path="url(#pc37b35d3a6)">
     <use xlink:href="#C2_0_3aa6046a87" x="113.510909" y="84.022805" style="fill: #f2b701; stroke: #f2b701"/>
    </g>
    <g clip-path="url(#pc37b35d3a6)">
     <use xlink:href="#C2_0_3aa6046a87" x="106.747273" y="80.776619" style="fill: #feeeba; stroke: #feeeba"/>
    </g>
    <g clip-path="url(#pc37b35d3a6)">
     <use xlink:href="#C2_0_3aa6046a87" x="99.983636" y="77.463508" style="fill: #feeeba; stroke: #feeeba"/>
    </g>
    <g clip-path="url(#pc37b35d3a6)">
     <use xlink:href="#C2_0_3aa6046a87" x="93.22" y="75.451925" style="fill: #feeeba; stroke: #feeeba"/>
    </g>
    <g clip-path="url(#pc37b35d3a6)">
     <use xlink:href="#C2_0_3aa6046a87" x="86.456364" y="73.521574" style="fill: #feeeba; stroke: #feeeba"/>
    </g>
    <g clip-path="url(#pc37b35d3a6)">
     <use xlink:href="#C2_0_3aa6046a87" x="79.692727" y="72.059378" style="fill: #feeeba; stroke: #feeeba"/>
    </g>
    <g clip-path="url(#pc37b35d3a6)">
     <use xlink:href="#C2_0_3aa6046a87" x="72.929091" y="69.144108" style="fill: #feeeba; stroke: #feeeba"/>
    </g>
    <g clip-path="url(#pc37b35d3a6)">
     <use xlink:href="#C2_0_3aa6046a87" x="66.165455" y="66.62017" style="fill: #feeeba; stroke: #feeeba"/>
    </g>
    <g clip-path="url(#pc37b35d3a6)">
     <use xlink:href="#C2_0_3aa6046a87" x="59.401818" y="64.860531" style="fill: #feeeba; stroke: #feeeba"/>
    </g>
    <g clip-path="url(#pc37b35d3a6)">
     <use xlink:href="#C2_0_3aa6046a87" x="52.638182" y="62.702196" style="fill: #feeeba; stroke: #feeeba"/>
    </g>
    <g clip-path="url(#pc37b35d3a6)">
     <use xlink:href="#C2_0_3aa6046a87" x="45.874545" y="60.862045" style="fill: #feeeba; stroke: #feeeba"/>
    </g>
    <g clip-path="url(#pc37b35d3a6)">
     <use xlink:href="#C2_0_3aa6046a87" x="39.110909" y="59.493964" style="fill: #feeeba; stroke: #feeeba"/>
    </g>
    <g clip-path="url(#pc37b35d3a6)">
     <use xlink:href="#C2_0_3aa6046a87" x="32.347273" y="60.569323" style="fill: #feeeba; stroke: #feeeba"/>
    </g>
   </g>
   <g id="PathCollection_4">
    <defs>
     <path id="C3_0_380f6dcc77" d="M 0 1.581139 
C 0.419323 1.581139 0.821528 1.41454 1.118034 1.118034 
C 1.41454 0.821528 1.581139 0.419323 1.581139 -0 
C 1.581139 -0.419323 1.41454 -0.821528 1.118034 -1.118034 
C 0.821528 -1.41454 0.419323 -1.581139 0 -1.581139 
C -0.419323 -1.581139 -0.821528 -1.41454 -1.118034 -1.118034 
C -1.41454 -0.821528 -1.581139 -0.419323 -1.581139 0 
C -1.581139 0.419323 -1.41454 0.821528 -1.118034 1.118034 
C -0.821528 1.41454 -0.419323 1.581139 0 1.581139 
z
"/>
    </defs>
    <g clip-path="url(#pc37b35d3a6)">
     <use xlink:href="#C3_0_380f6dcc77" x="154.092727" y="78.717582" style="fill: #f5cdf5; stroke: #f5cdf5"/>
    </g>
    <g clip-path="url(#pc37b35d3a6)">
     <use xlink:href="#C3_0_380f6dcc77" x="147.329091" y="76.961598" style="fill: #f5cdf5; stroke: #f5cdf5"/>
    </g>
    <g clip-path="url(#pc37b35d3a6)">
     <use xlink:href="#C3_0_380f6dcc77" x="140.565455" y="78.846919" style="fill: #c828c6; stroke: #c828c6"/>
    </g>
    <g clip-path="url(#pc37b35d3a6)">
     <use xlink:href="#C3_0_380f6dcc77" x="133.801818" y="78.344523" style="fill: #c828c6; stroke: #c828c6"/>
    </g>
    <g clip-path="url(#pc37b35d3a6)">
     <use xlink:href="#C3_0_380f6dcc77" x="127.038182" y="74.380082" style="fill: #f5cdf5; stroke: #f5cdf5"/>
    </g>
    <g clip-path="url(#pc37b35d3a6)">
     <use xlink:href="#C3_0_380f6dcc77" x="120.274545" y="66.780955" style="fill: #f5cdf5; stroke: #f5cdf5"/>
    </g>
    <g clip-path="url(#pc37b35d3a6)">
     <use xlink:href="#C3_0_380f6dcc77" x="113.510909" y="60.629856" style="fill: #f5cdf5; stroke: #f5cdf5"/>
    </g>
    <g clip-path="url(#pc37b35d3a6)">
     <use xlink:href="#C3_0_380f6dcc77" x="106.747273" y="53.3514" style="fill: #f5cdf5; stroke: #f5cdf5"/>
    </g>
    <g clip-path="url(#pc37b35d3a6)">
     <use xlink:href="#C3_0_380f6dcc77" x="99.983636" y="46.000335" style="fill: #f5cdf5; stroke: #f5cdf5"/>
    </g>
    <g clip-path="url(#pc37b35d3a6)">
     <use xlink:href="#C3_0_380f6dcc77" x="93.22" y="40.213125" style="fill: #f5cdf5; stroke: #f5cdf5"/>
    </g>
    <g clip-path="url(#pc37b35d3a6)">
     <use xlink:href="#C3_0_380f6dcc77" x="86.456364" y="33.852046" style="fill: #f5cdf5; stroke: #f5cdf5"/>
    </g>
    <g clip-path="url(#pc37b35d3a6)">
     <use xlink:href="#C3_0_380f6dcc77" x="79.692727" y="29.903238" style="fill: #f5cdf5; stroke: #f5cdf5"/>
    </g>
    <g clip-path="url(#pc37b35d3a6)">
     <use xlink:href="#C3_0_380f6dcc77" x="72.929091" y="25.726123" style="fill: #f5cdf5; stroke: #f5cdf5"/>
    </g>
    <g clip-path="url(#pc37b35d3a6)">
     <use xlink:href="#C3_0_380f6dcc77" x="66.165455" y="21.530441" style="fill: #f5cdf5; stroke: #f5cdf5"/>
    </g>
    <g clip-path="url(#pc37b35d3a6)">
     <use xlink:href="#C3_0_380f6dcc77" x="59.401818" y="18.36547" style="fill: #f5cdf5; stroke: #f5cdf5"/>
    </g>
    <g clip-path="url(#pc37b35d3a6)">
     <use xlink:href="#C3_0_380f6dcc77" x="52.638182" y="15.623682" style="fill: #f5cdf5; stroke: #f5cdf5"/>
    </g>
    <g clip-path="url(#pc37b35d3a6)">
     <use xlink:href="#C3_0_380f6dcc77" x="45.874545" y="13.058027" style="fill: #f5cdf5; stroke: #f5cdf5"/>
    </g>
    <g clip-path="url(#pc37b35d3a6)">
     <use xlink:href="#C3_0_380f6dcc77" x="39.110909" y="10.98" style="fill: #f5cdf5; stroke: #f5cdf5"/>
    </g>
    <g clip-path="url(#pc37b35d3a6)">
     <use xlink:href="#C3_0_380f6dcc77" x="32.347273" y="11.039143" style="fill: #f5cdf5; stroke: #f5cdf5"/>
    </g>
   </g>
   <g id="PathCollection_5">
    <defs>
     <path id="C4_0_2898904c46" d="M 0 1.581139 
C 0.419323 1.581139 0.821528 1.41454 1.118034 1.118034 
C 1.41454 0.821528 1.581139 0.419323 1.581139 -0 
C 1.581139 -0.419323 1.41454 -0.821528 1.118034 -1.118034 
C 0.821528 -1.41454 0.419323 -1.581139 0 -1.581139 
C -0.419323 -1.581139 -0.821528 -1.41454 -1.118034 -1.118034 
C -1.41454 -0.821528 -1.581139 -0.419323 -1.581139 0 
C -1.581139 0.419323 -1.41454 0.821528 -1.118034 1.118034 
C -0.821528 1.41454 -0.419323 1.581139 0 1.581139 
z
"/>
    </defs>
    <g clip-path="url(#pc37b35d3a6)">
     <use xlink:href="#C4_0_2898904c46" x="154.092727" y="74.400332" style="fill: #caf8f8; stroke: #caf8f8"/>
    </g>
    <g clip-path="url(#pc37b35d3a6)">
     <use xlink:href="#C4_0_2898904c46" x="147.329091" y="73.920867" style="fill: #caf8f8; stroke: #caf8f8"/>
    </g>
    <g clip-path="url(#pc37b35d3a6)">
     <use xlink:href="#C4_0_2898904c46" x="140.565455" y="76.919133" style="fill: #caf8f8; stroke: #caf8f8"/>
    </g>
    <g clip-path="url(#pc37b35d3a6)">
     <use xlink:href="#C4_0_2898904c46" x="133.801818" y="78.180444" style="fill: #1ad6d4; stroke: #1ad6d4"/>
    </g>
    <g clip-path="url(#pc37b35d3a6)">
     <use xlink:href="#C4_0_2898904c46" x="127.038182" y="77.174407" style="fill: #caf8f8; stroke: #caf8f8"/>
    </g>
    <g clip-path="url(#pc37b35d3a6)">
     <use xlink:href="#C4_0_2898904c46" x="120.274545" y="74.50376" style="fill: #caf8f8; stroke: #caf8f8"/>
    </g>
    <g clip-path="url(#pc37b35d3a6)">
     <use xlink:href="#C4_0_2898904c46" x="113.510909" y="69.609512" style="fill: #caf8f8; stroke: #caf8f8"/>
    </g>
    <g clip-path="url(#pc37b35d3a6)">
     <use xlink:href="#C4_0_2898904c46" x="106.747273" y="65.77314" style="fill: #caf8f8; stroke: #caf8f8"/>
    </g>
    <g clip-path="url(#pc37b35d3a6)">
     <use xlink:href="#C4_0_2898904c46" x="99.983636" y="60.80193" style="fill: #caf8f8; stroke: #caf8f8"/>
    </g>
    <g clip-path="url(#pc37b35d3a6)">
     <use xlink:href="#C4_0_2898904c46" x="93.22" y="56.53907" style="fill: #caf8f8; stroke: #caf8f8"/>
    </g>
    <g clip-path="url(#pc37b35d3a6)">
     <use xlink:href="#C4_0_2898904c46" x="86.456364" y="52.946351" style="fill: #caf8f8; stroke: #caf8f8"/>
    </g>
    <g clip-path="url(#pc37b35d3a6)">
     <use xlink:href="#C4_0_2898904c46" x="79.692727" y="49.109388" style="fill: #caf8f8; stroke: #caf8f8"/>
    </g>
    <g clip-path="url(#pc37b35d3a6)">
     <use xlink:href="#C4_0_2898904c46" x="72.929091" y="45.463973" style="fill: #caf8f8; stroke: #caf8f8"/>
    </g>
    <g clip-path="url(#pc37b35d3a6)">
     <use xlink:href="#C4_0_2898904c46" x="66.165455" y="43.42286" style="fill: #caf8f8; stroke: #caf8f8"/>
    </g>
    <g clip-path="url(#pc37b35d3a6)">
     <use xlink:href="#C4_0_2898904c46" x="59.401818" y="41.291638" style="fill: #caf8f8; stroke: #caf8f8"/>
    </g>
    <g clip-path="url(#pc37b35d3a6)">
     <use xlink:href="#C4_0_2898904c46" x="52.638182" y="39.762968" style="fill: #caf8f8; stroke: #caf8f8"/>
    </g>
    <g clip-path="url(#pc37b35d3a6)">
     <use xlink:href="#C4_0_2898904c46" x="45.874545" y="37.070083" style="fill: #caf8f8; stroke: #caf8f8"/>
    </g>
    <g clip-path="url(#pc37b35d3a6)">
     <use xlink:href="#C4_0_2898904c46" x="39.110909" y="35.275386" style="fill: #caf8f8; stroke: #caf8f8"/>
    </g>
    <g clip-path="url(#pc37b35d3a6)">
     <use xlink:href="#C4_0_2898904c46" x="32.347273" y="34.772606" style="fill: #caf8f8; stroke: #caf8f8"/>
    </g>
   </g>
   <g id="matplotlib.axis_1">
    <g id="xtick_1">
     <g id="line2d_6">
      <defs>
       <path id="m34a7cff67e" d="M 0 0 
L 0 3.5 
" style="stroke: #000000; stroke-width: 0.8"/>
      </defs>
      <g>
       <use xlink:href="#m34a7cff67e" x="39.110909" y="90.36" style="stroke: #000000; stroke-width: 0.8"/>
      </g>
     </g>
     <g id="text_1">
      <text style="font: 200 12px 'Calibri'; text-anchor: middle" x="39.110909" y="105.5275" transform="rotate(-0 39.110909 105.5275)">10</text>
     </g>
    </g>
    <g id="xtick_2">
     <g id="line2d_7">
      <g>
       <use xlink:href="#m34a7cff67e" x="52.638182" y="90.36" style="stroke: #000000; stroke-width: 0.8"/>
      </g>
     </g>
     <g id="text_2">
      <text style="font: 200 12px 'Calibri'; text-anchor: middle" x="52.638182" y="105.5275" transform="rotate(-0 52.638182 105.5275)">20</text>
     </g>
    </g>
    <g id="xtick_3">
     <g id="line2d_8">
      <g>
       <use xlink:href="#m34a7cff67e" x="66.165455" y="90.36" style="stroke: #000000; stroke-width: 0.8"/>
      </g>
     </g>
     <g id="text_3">
      <text style="font: 200 12px 'Calibri'; text-anchor: middle" x="66.165455" y="105.5275" transform="rotate(-0 66.165455 105.5275)">30</text>
     </g>
    </g>
    <g id="xtick_4">
     <g id="line2d_9">
      <g>
       <use xlink:href="#m34a7cff67e" x="79.692727" y="90.36" style="stroke: #000000; stroke-width: 0.8"/>
      </g>
     </g>
     <g id="text_4">
      <text style="font: 200 12px 'Calibri'; text-anchor: middle" x="79.692727" y="105.5275" transform="rotate(-0 79.692727 105.5275)">40</text>
     </g>
    </g>
    <g id="xtick_5">
     <g id="line2d_10">
      <g>
       <use xlink:href="#m34a7cff67e" x="93.22" y="90.36" style="stroke: #000000; stroke-width: 0.8"/>
      </g>
     </g>
     <g id="text_5">
      <text style="font: 200 12px 'Calibri'; text-anchor: middle" x="93.22" y="105.5275" transform="rotate(-0 93.22 105.5275)">50</text>
     </g>
    </g>
    <g id="xtick_6">
     <g id="line2d_11">
      <g>
       <use xlink:href="#m34a7cff67e" x="106.747273" y="90.36" style="stroke: #000000; stroke-width: 0.8"/>
      </g>
     </g>
     <g id="text_6">
      <text style="font: 200 12px 'Calibri'; text-anchor: middle" x="106.747273" y="105.5275" transform="rotate(-0 106.747273 105.5275)">60</text>
     </g>
    </g>
    <g id="xtick_7">
     <g id="line2d_12">
      <g>
       <use xlink:href="#m34a7cff67e" x="120.274545" y="90.36" style="stroke: #000000; stroke-width: 0.8"/>
      </g>
     </g>
     <g id="text_7">
      <text style="font: 200 12px 'Calibri'; text-anchor: middle" x="120.274545" y="105.5275" transform="rotate(-0 120.274545 105.5275)">70</text>
     </g>
    </g>
    <g id="xtick_8">
     <g id="line2d_13">
      <g>
       <use xlink:href="#m34a7cff67e" x="133.801818" y="90.36" style="stroke: #000000; stroke-width: 0.8"/>
      </g>
     </g>
     <g id="text_8">
      <text style="font: 200 12px 'Calibri'; text-anchor: middle" x="133.801818" y="105.5275" transform="rotate(-0 133.801818 105.5275)">80</text>
     </g>
    </g>
    <g id="xtick_9">
     <g id="line2d_14">
      <g>
       <use xlink:href="#m34a7cff67e" x="147.329091" y="90.36" style="stroke: #000000; stroke-width: 0.8"/>
      </g>
     </g>
     <g id="text_9">
      <text style="font: 200 12px 'Calibri'; text-anchor: middle" x="147.329091" y="105.5275" transform="rotate(-0 147.329091 105.5275)">90</text>
     </g>
    </g>
    <g id="xtick_10">
     <g id="line2d_15">
      <defs>
       <path id="m9c6693be1a" d="M 0 0 
L 0 2 
" style="stroke: #000000; stroke-width: 0.6"/>
      </defs>
      <g>
       <use xlink:href="#m9c6693be1a" x="32.347273" y="90.36" style="stroke: #000000; stroke-width: 0.6"/>
      </g>
     </g>
    </g>
    <g id="xtick_11">
     <g id="line2d_16">
      <g>
       <use xlink:href="#m9c6693be1a" x="45.874545" y="90.36" style="stroke: #000000; stroke-width: 0.6"/>
      </g>
     </g>
    </g>
    <g id="xtick_12">
     <g id="line2d_17">
      <g>
       <use xlink:href="#m9c6693be1a" x="59.401818" y="90.36" style="stroke: #000000; stroke-width: 0.6"/>
      </g>
     </g>
    </g>
    <g id="xtick_13">
     <g id="line2d_18">
      <g>
       <use xlink:href="#m9c6693be1a" x="72.929091" y="90.36" style="stroke: #000000; stroke-width: 0.6"/>
      </g>
     </g>
    </g>
    <g id="xtick_14">
     <g id="line2d_19">
      <g>
       <use xlink:href="#m9c6693be1a" x="86.456364" y="90.36" style="stroke: #000000; stroke-width: 0.6"/>
      </g>
     </g>
    </g>
    <g id="xtick_15">
     <g id="line2d_20">
      <g>
       <use xlink:href="#m9c6693be1a" x="99.983636" y="90.36" style="stroke: #000000; stroke-width: 0.6"/>
      </g>
     </g>
    </g>
    <g id="xtick_16">
     <g id="line2d_21">
      <g>
       <use xlink:href="#m9c6693be1a" x="113.510909" y="90.36" style="stroke: #000000; stroke-width: 0.6"/>
      </g>
     </g>
    </g>
    <g id="xtick_17">
     <g id="line2d_22">
      <g>
       <use xlink:href="#m9c6693be1a" x="127.038182" y="90.36" style="stroke: #000000; stroke-width: 0.6"/>
      </g>
     </g>
    </g>
    <g id="xtick_18">
     <g id="line2d_23">
      <g>
       <use xlink:href="#m9c6693be1a" x="140.565455" y="90.36" style="stroke: #000000; stroke-width: 0.6"/>
      </g>
     </g>
    </g>
    <g id="xtick_19">
     <g id="line2d_24">
      <g>
       <use xlink:href="#m9c6693be1a" x="154.092727" y="90.36" style="stroke: #000000; stroke-width: 0.6"/>
      </g>
     </g>
    </g>
   </g>
   <g id="matplotlib.axis_2">
    <g id="ytick_1">
     <g id="line2d_25">
      <defs>
       <path id="m989d48dd06" d="M 0 0 
L -3.5 0 
" style="stroke: #000000; stroke-width: 0.8"/>
      </defs>
      <g>
       <use xlink:href="#m989d48dd06" x="26.26" y="70.218172" style="stroke: #000000; stroke-width: 0.8"/>
      </g>
     </g>
     <g id="text_10">
      <text style="font: 200 12px 'Calibri'; text-anchor: end" x="19.26" y="74.301922" transform="rotate(-0 19.26 74.301922)">−2</text>
     </g>
    </g>
    <g id="ytick_2">
     <g id="line2d_26">
      <g>
       <use xlink:href="#m989d48dd06" x="26.26" y="36.293548" style="stroke: #000000; stroke-width: 0.8"/>
      </g>
     </g>
     <g id="text_11">
      <text style="font: 200 12px 'Calibri'; text-anchor: end" x="19.26" y="40.377298" transform="rotate(-0 19.26 40.377298)">0</text>
     </g>
    </g>
   </g>
   <g id="line2d_27">
    <path d="M 154.092727 36.293548 
L 147.329091 36.293548 
L 140.565455 36.293548 
L 133.801818 36.293548 
L 127.038182 36.293548 
L 120.274545 36.293548 
L 113.510909 36.293548 
L 106.747273 36.293548 
L 99.983636 36.293548 
L 93.22 36.293548 
L 86.456364 36.293548 
L 79.692727 36.293548 
L 72.929091 36.293548 
L 66.165455 36.293548 
L 59.401818 36.293548 
L 52.638182 36.293548 
L 45.874545 36.293548 
L 39.110909 36.293548 
L 32.347273 36.293548 
" clip-path="url(#pc37b35d3a6)" style="fill: none; stroke-dasharray: 5.55,2.4; stroke-dashoffset: 0; stroke: #d3d3d3; stroke-width: 1.5"/>
   </g>
   <g id="line2d_28">
    <path d="M 154.092727 36.293548 
L 147.329091 36.293548 
L 140.565455 36.293548 
L 133.801818 36.293548 
L 127.038182 36.293548 
L 120.274545 36.293548 
L 113.510909 36.293548 
L 106.747273 36.293548 
L 99.983636 36.293548 
L 93.22 36.293548 
L 86.456364 36.293548 
L 79.692727 36.293548 
L 72.929091 36.293548 
L 66.165455 36.293548 
L 59.401818 36.293548 
L 52.638182 36.293548 
L 45.874545 36.293548 
L 39.110909 36.293548 
L 32.347273 36.293548 
" clip-path="url(#pc37b35d3a6)" style="fill: none; stroke-dasharray: 5.55,2.4; stroke-dashoffset: 0; stroke: #d3d3d3; stroke-width: 1.5"/>
   </g>
   <g id="line2d_29">
    <path d="M 154.092727 36.293548 
L 147.329091 36.293548 
L 140.565455 36.293548 
L 133.801818 36.293548 
L 127.038182 36.293548 
L 120.274545 36.293548 
L 113.510909 36.293548 
L 106.747273 36.293548 
L 99.983636 36.293548 
L 93.22 36.293548 
L 86.456364 36.293548 
L 79.692727 36.293548 
L 72.929091 36.293548 
L 66.165455 36.293548 
L 59.401818 36.293548 
L 52.638182 36.293548 
L 45.874545 36.293548 
L 39.110909 36.293548 
L 32.347273 36.293548 
" clip-path="url(#pc37b35d3a6)" style="fill: none; stroke-dasharray: 5.55,2.4; stroke-dashoffset: 0; stroke: #d3d3d3; stroke-width: 1.5"/>
   </g>
   <g id="line2d_30">
    <path d="M 154.092727 36.293548 
L 147.329091 36.293548 
L 140.565455 36.293548 
L 133.801818 36.293548 
L 127.038182 36.293548 
L 120.274545 36.293548 
L 113.510909 36.293548 
L 106.747273 36.293548 
L 99.983636 36.293548 
L 93.22 36.293548 
L 86.456364 36.293548 
L 79.692727 36.293548 
L 72.929091 36.293548 
L 66.165455 36.293548 
L 59.401818 36.293548 
L 52.638182 36.293548 
L 45.874545 36.293548 
L 39.110909 36.293548 
L 32.347273 36.293548 
" clip-path="url(#pc37b35d3a6)" style="fill: none; stroke-dasharray: 5.55,2.4; stroke-dashoffset: 0; stroke: #d3d3d3; stroke-width: 1.5"/>
   </g>
   <g id="line2d_31">
    <path d="M 154.092727 36.293548 
L 147.329091 36.293548 
L 140.565455 36.293548 
L 133.801818 36.293548 
L 127.038182 36.293548 
L 120.274545 36.293548 
L 113.510909 36.293548 
L 106.747273 36.293548 
L 99.983636 36.293548 
L 93.22 36.293548 
L 86.456364 36.293548 
L 79.692727 36.293548 
L 72.929091 36.293548 
L 66.165455 36.293548 
L 59.401818 36.293548 
L 52.638182 36.293548 
L 45.874545 36.293548 
L 39.110909 36.293548 
L 32.347273 36.293548 
" clip-path="url(#pc37b35d3a6)" style="fill: none; stroke-dasharray: 5.55,2.4; stroke-dashoffset: 0; stroke: #d3d3d3; stroke-width: 1.5"/>
   </g>
   <g id="patch_3">
    <path d="M 26.26 90.36 
L 26.26 7.2 
" style="fill: none; stroke: #000000; stroke-width: 0.8; stroke-linejoin: miter; stroke-linecap: square"/>
   </g>
   <g id="patch_4">
    <path d="M 26.26 90.36 
L 160.18 90.36 
" style="fill: none; stroke: #000000; stroke-width: 0.8; stroke-linejoin: miter; stroke-linecap: square"/>
   </g>
   <g id="legend_1">
    <g id="patch_5">
     <path d="M 173.9368 99.496875 
L 278.027425 99.496875 
Q 280.427425 99.496875 280.427425 97.096875 
L 280.427425 15.6 
Q 280.427425 13.2 278.027425 13.2 
L 173.9368 13.2 
Q 171.5368 13.2 171.5368 15.6 
L 171.5368 97.096875 
Q 171.5368 99.496875 173.9368 99.496875 
z
" style="fill: #ffffff; opacity: 0.8; stroke: #cccccc; stroke-linejoin: miter"/>
    </g>
    <g id="PathCollection_6">
     <path d="M 188.3368 24.831139 
C 188.756123 24.831139 189.158328 24.66454 189.454834 24.368034 
C 189.75134 24.071528 189.917939 23.669323 189.917939 23.25 
C 189.917939 22.830677 189.75134 22.428472 189.454834 22.131966 
C 189.158328 21.83546 188.756123 21.668861 188.3368 21.668861 
C 187.917477 21.668861 187.515272 21.83546 187.218766 22.131966 
C 186.92226 22.428472 186.755661 22.830677 186.755661 23.25 
C 186.755661 23.669323 186.92226 24.071528 187.218766 24.368034 
C 187.515272 24.66454 187.917477 24.831139 188.3368 24.831139 
z
" style="fill: #cdf5cd; stroke: #cdf5cd"/>
    </g>
    <g id="text_12">
     <text style="font: 200 12px 'Calibri'; text-anchor: start" x="209.9368" y="26.4" transform="rotate(-0 209.9368 26.4)">receptor_den</text>
    </g>
    <g id="PathCollection_7">
     <path d="M 188.3368 41.370514 
C 188.756123 41.370514 189.158328 41.203915 189.454834 40.907409 
C 189.75134 40.610903 189.917939 40.208698 189.917939 39.789375 
C 189.917939 39.370052 189.75134 38.967847 189.454834 38.671341 
C 189.158328 38.374835 188.756123 38.208236 188.3368 38.208236 
C 187.917477 38.208236 187.515272 38.374835 187.218766 38.671341 
C 186.92226 38.967847 186.755661 39.370052 186.755661 39.789375 
C 186.755661 40.208698 186.92226 40.610903 187.218766 40.907409 
C 187.515272 41.203915 187.917477 41.370514 188.3368 41.370514 
z
" style="fill: #cacaf8; stroke: #cacaf8"/>
    </g>
    <g id="text_13">
     <text style="font: 200 12px 'Calibri'; text-anchor: start" x="209.9368" y="42.939375" transform="rotate(-0 209.9368 42.939375)">EI_ratio</text>
    </g>
    <g id="PathCollection_8">
     <path d="M 188.3368 57.909889 
C 188.756123 57.909889 189.158328 57.74329 189.454834 57.446784 
C 189.75134 57.150278 189.917939 56.748073 189.917939 56.32875 
C 189.917939 55.909427 189.75134 55.507222 189.454834 55.210716 
C 189.158328 54.91421 188.756123 54.747611 188.3368 54.747611 
C 187.917477 54.747611 187.515272 54.91421 187.218766 55.210716 
C 186.92226 55.507222 186.755661 55.909427 186.755661 56.32875 
C 186.755661 56.748073 186.92226 57.150278 187.218766 57.446784 
C 187.515272 57.74329 187.917477 57.909889 188.3368 57.909889 
z
" style="fill: #feeeba; stroke: #feeeba"/>
    </g>
    <g id="text_14">
     <text style="font: 200 12px 'Calibri'; text-anchor: start" x="209.9368" y="59.47875" transform="rotate(-0 209.9368 59.47875)">genePC1</text>
    </g>
    <g id="PathCollection_9">
     <path d="M 188.3368 74.449264 
C 188.756123 74.449264 189.158328 74.282665 189.454834 73.986159 
C 189.75134 73.689653 189.917939 73.287448 189.917939 72.868125 
C 189.917939 72.448802 189.75134 72.046597 189.454834 71.750091 
C 189.158328 71.453585 188.756123 71.286986 188.3368 71.286986 
C 187.917477 71.286986 187.515272 71.453585 187.218766 71.750091 
C 186.92226 72.046597 186.755661 72.448802 186.755661 72.868125 
C 186.755661 73.287448 186.92226 73.689653 187.218766 73.986159 
C 187.515272 74.282665 187.917477 74.449264 188.3368 74.449264 
z
" style="fill: #f5cdf5; stroke: #f5cdf5"/>
    </g>
    <g id="text_15">
     <text style="font: 200 12px 'Calibri'; text-anchor: start" x="209.9368" y="76.018125" transform="rotate(-0 209.9368 76.018125)">t1t2</text>
    </g>
    <g id="PathCollection_10">
     <path d="M 188.3368 90.988639 
C 188.756123 90.988639 189.158328 90.82204 189.454834 90.525534 
C 189.75134 90.229028 189.917939 89.826823 189.917939 89.4075 
C 189.917939 88.988177 189.75134 88.585972 189.454834 88.289466 
C 189.158328 87.99296 188.756123 87.826361 188.3368 87.826361 
C 187.917477 87.826361 187.515272 87.99296 187.218766 88.289466 
C 186.92226 88.585972 186.755661 88.988177 186.755661 89.4075 
C 186.755661 89.826823 186.92226 90.229028 187.218766 90.525534 
C 187.515272 90.82204 187.917477 90.988639 188.3368 90.988639 
z
" style="fill: #caf8f8; stroke: #caf8f8"/>
    </g>
    <g id="text_16">
     <text style="font: 200 12px 'Calibri'; text-anchor: start" x="209.9368" y="92.5575" transform="rotate(-0 209.9368 92.5575)">thi</text>
    </g>
   </g>
  </g>
 </g>
 <defs>
  <clipPath id="pc37b35d3a6">
   <rect x="26.26" y="7.2" width="133.92" height="83.16"/>
  </clipPath>
 </defs>
</svg>
