<?xml version="1.0" encoding="utf-8" standalone="no"?>
<!DOCTYPE svg PUBLIC "-//W3C//DTD SVG 1.1//EN"
  "http://www.w3.org/Graphics/SVG/1.1/DTD/svg11.dtd">
<svg xmlns:xlink="http://www.w3.org/1999/xlink" width="287.627425pt" height="114.866875pt" viewBox="0 0 287.627425 114.866875" xmlns="http://www.w3.org/2000/svg" version="1.1">
 <metadata>
  <rdf:RDF xmlns:dc="http://purl.org/dc/elements/1.1/" xmlns:cc="http://creativecommons.org/ns#" xmlns:rdf="http://www.w3.org/1999/02/22-rdf-syntax-ns#">
   <cc:Work>
    <dc:type rdf:resource="http://purl.org/dc/dcmitype/StillImage"/>
    <dc:date>2023-04-11T10:52:28.310242</dc:date>
    <dc:format>image/svg+xml</dc:format>
    <dc:creator>
     <cc:Agent>
      <dc:title>Matplotlib v3.6.2, https://matplotlib.org/</dc:title>
     </cc:Agent>
    </dc:creator>
   </cc:Work>
  </rdf:RDF>
 </metadata>
 <defs>
  <style type="text/css">*{stroke-linejoin: round; stroke-linecap: butt}</style>
 </defs>
 <g id="figure_1">
  <g id="patch_1">
   <path d="M 0 114.866875 
L 287.627425 114.866875 
L 287.627425 0 
L 0 0 
z
" style="fill: #ffffff"/>
  </g>
  <g id="axes_1">
   <g id="patch_2">
    <path d="M 26.26 90.36 
L 160.18 90.36 
L 160.18 7.2 
L 26.26 7.2 
z
" style="fill: #ffffff"/>
   </g>
   <g id="line2d_1">
    <path d="M 154.092727 56.13896 
L 147.329091 75.631423 
L 140.565455 78.854616 
L 133.801818 81.881937 
L 127.038182 82.349286 
L 120.274545 78.622447 
L 113.510909 71.488419 
L 106.747273 67.678803 
L 99.983636 63.15055 
L 93.22 60.826712 
L 86.456364 58.630668 
L 79.692727 58.029624 
L 72.929091 57.080399 
L 66.165455 54.920083 
L 59.401818 51.987641 
L 52.638182 52.388991 
L 45.874545 52.646944 
L 39.110909 53.030053 
L 32.347273 52.003441 
" clip-path="url(#p74c5f5ae23)" style="fill: none; stroke: #cdf5cd; stroke-width: 1.5; stroke-linecap: square"/>
   </g>
   <g id="line2d_2">
    <path d="M 154.092727 60.692135 
L 147.329091 73.777641 
L 140.565455 77.496634 
L 133.801818 77.876469 
L 127.038182 78.151273 
L 120.274545 76.687455 
L 113.510909 68.63681 
L 106.747273 61.017187 
L 99.983636 57.776216 
L 93.22 52.287142 
L 86.456364 50.131986 
L 79.692727 48.016415 
L 72.929091 45.788393 
L 66.165455 45.724982 
L 59.401818 43.504509 
L 52.638182 43.825779 
L 45.874545 43.484744 
L 39.110909 41.779489 
L 32.347273 42.410087 
" clip-path="url(#p74c5f5ae23)" style="fill: none; stroke: #cacaf8; stroke-width: 1.5; stroke-linecap: square"/>
   </g>
   <g id="line2d_3">
    <path d="M 154.092727 69.840081 
L 147.329091 76.970687 
L 140.565455 79.84982 
L 133.801818 81.383578 
L 127.038182 83.034964 
L 120.274545 83.855857 
L 113.510909 82.888748 
L 106.747273 81.677295 
L 99.983636 80.341738 
L 93.22 77.732314 
L 86.456364 75.475276 
L 79.692727 71.29613 
L 72.929091 69.292201 
L 66.165455 68.221771 
L 59.401818 64.967638 
L 52.638182 64.103835 
L 45.874545 62.249002 
L 39.110909 61.590434 
L 32.347273 60.623977 
" clip-path="url(#p74c5f5ae23)" style="fill: none; stroke: #feeeba; stroke-width: 1.5; stroke-linecap: square"/>
   </g>
   <g id="line2d_4">
    <path d="M 154.092727 84.301163 
L 147.329091 86.58 
L 140.565455 81.775702 
L 133.801818 77.877037 
L 127.038182 71.834512 
L 120.274545 66.614619 
L 113.510909 58.05684 
L 106.747273 51.075203 
L 99.983636 45.746682 
L 93.22 39.280089 
L 86.456364 33.48233 
L 79.692727 28.098492 
L 72.929091 25.056344 
L 66.165455 21.207034 
L 59.401818 17.871687 
L 52.638182 16.369306 
L 45.874545 14.899622 
L 39.110909 12.721616 
L 32.347273 10.98 
" clip-path="url(#p74c5f5ae23)" style="fill: none; stroke: #f5cdf5; stroke-width: 1.5; stroke-linecap: square"/>
   </g>
   <g id="line2d_5">
    <path d="M 154.092727 67.099323 
L 147.329091 73.486718 
L 140.565455 78.401717 
L 133.801818 80.744998 
L 127.038182 81.698302 
L 120.274545 81.10655 
L 113.510909 76.965564 
L 106.747273 73.905738 
L 99.983636 69.964323 
L 93.22 68.419656 
L 86.456364 64.679477 
L 79.692727 58.866643 
L 72.929091 57.696018 
L 66.165455 54.741578 
L 59.401818 51.573648 
L 52.638182 49.675634 
L 45.874545 47.238902 
L 39.110909 45.415833 
L 32.347273 42.085974 
" clip-path="url(#p74c5f5ae23)" style="fill: none; stroke: #caf8f8; stroke-width: 1.5; stroke-linecap: square"/>
   </g>
   <g id="PathCollection_1">
    <defs>
     <path id="C0_0_eae423217b" d="M 0 1.581139 
C 0.419323 1.581139 0.821528 1.41454 1.118034 1.118034 
C 1.41454 0.821528 1.581139 0.419323 1.581139 -0 
C 1.581139 -0.419323 1.41454 -0.821528 1.118034 -1.118034 
C 0.821528 -1.41454 0.419323 -1.581139 0 -1.581139 
C -0.419323 -1.581139 -0.821528 -1.41454 -1.118034 -1.118034 
C -1.41454 -0.821528 -1.581139 -0.419323 -1.581139 0 
C -1.581139 0.419323 -1.41454 0.821528 -1.118034 1.118034 
C -0.821528 1.41454 -0.419323 1.581139 0 1.581139 
z
"/>
    </defs>
    <g clip-path="url(#p74c5f5ae23)">
     <use xlink:href="#C0_0_eae423217b" x="154.092727" y="56.13896" style="fill: #cdf5cd; stroke: #cdf5cd"/>
    </g>
    <g clip-path="url(#p74c5f5ae23)">
     <use xlink:href="#C0_0_eae423217b" x="147.329091" y="75.631423" style="fill: #cdf5cd; stroke: #cdf5cd"/>
    </g>
    <g clip-path="url(#p74c5f5ae23)">
     <use xlink:href="#C0_0_eae423217b" x="140.565455" y="78.854616" style="fill: #cdf5cd; stroke: #cdf5cd"/>
    </g>
    <g clip-path="url(#p74c5f5ae23)">
     <use xlink:href="#C0_0_eae423217b" x="133.801818" y="81.881937" style="fill: #cdf5cd; stroke: #cdf5cd"/>
    </g>
    <g clip-path="url(#p74c5f5ae23)">
     <use xlink:href="#C0_0_eae423217b" x="127.038182" y="82.349286" style="fill: #cdf5cd; stroke: #cdf5cd"/>
    </g>
    <g clip-path="url(#p74c5f5ae23)">
     <use xlink:href="#C0_0_eae423217b" x="120.274545" y="78.622447" style="fill: #cdf5cd; stroke: #cdf5cd"/>
    </g>
    <g clip-path="url(#p74c5f5ae23)">
     <use xlink:href="#C0_0_eae423217b" x="113.510909" y="71.488419" style="fill: #cdf5cd; stroke: #cdf5cd"/>
    </g>
    <g clip-path="url(#p74c5f5ae23)">
     <use xlink:href="#C0_0_eae423217b" x="106.747273" y="67.678803" style="fill: #cdf5cd; stroke: #cdf5cd"/>
    </g>
    <g clip-path="url(#p74c5f5ae23)">
     <use xlink:href="#C0_0_eae423217b" x="99.983636" y="63.15055" style="fill: #cdf5cd; stroke: #cdf5cd"/>
    </g>
    <g clip-path="url(#p74c5f5ae23)">
     <use xlink:href="#C0_0_eae423217b" x="93.22" y="60.826712" style="fill: #cdf5cd; stroke: #cdf5cd"/>
    </g>
    <g clip-path="url(#p74c5f5ae23)">
     <use xlink:href="#C0_0_eae423217b" x="86.456364" y="58.630668" style="fill: #cdf5cd; stroke: #cdf5cd"/>
    </g>
    <g clip-path="url(#p74c5f5ae23)">
     <use xlink:href="#C0_0_eae423217b" x="79.692727" y="58.029624" style="fill: #cdf5cd; stroke: #cdf5cd"/>
    </g>
    <g clip-path="url(#p74c5f5ae23)">
     <use xlink:href="#C0_0_eae423217b" x="72.929091" y="57.080399" style="fill: #cdf5cd; stroke: #cdf5cd"/>
    </g>
    <g clip-path="url(#p74c5f5ae23)">
     <use xlink:href="#C0_0_eae423217b" x="66.165455" y="54.920083" style="fill: #cdf5cd; stroke: #cdf5cd"/>
    </g>
    <g clip-path="url(#p74c5f5ae23)">
     <use xlink:href="#C0_0_eae423217b" x="59.401818" y="51.987641" style="fill: #cdf5cd; stroke: #cdf5cd"/>
    </g>
    <g clip-path="url(#p74c5f5ae23)">
     <use xlink:href="#C0_0_eae423217b" x="52.638182" y="52.388991" style="fill: #cdf5cd; stroke: #cdf5cd"/>
    </g>
    <g clip-path="url(#p74c5f5ae23)">
     <use xlink:href="#C0_0_eae423217b" x="45.874545" y="52.646944" style="fill: #cdf5cd; stroke: #cdf5cd"/>
    </g>
    <g clip-path="url(#p74c5f5ae23)">
     <use xlink:href="#C0_0_eae423217b" x="39.110909" y="53.030053" style="fill: #cdf5cd; stroke: #cdf5cd"/>
    </g>
    <g clip-path="url(#p74c5f5ae23)">
     <use xlink:href="#C0_0_eae423217b" x="32.347273" y="52.003441" style="fill: #cdf5cd; stroke: #cdf5cd"/>
    </g>
   </g>
   <g id="PathCollection_2">
    <defs>
     <path id="C1_0_17f2cac91f" d="M 0 1.581139 
C 0.419323 1.581139 0.821528 1.41454 1.118034 1.118034 
C 1.41454 0.821528 1.581139 0.419323 1.581139 -0 
C 1.581139 -0.419323 1.41454 -0.821528 1.118034 -1.118034 
C 0.821528 -1.41454 0.419323 -1.581139 0 -1.581139 
C -0.419323 -1.581139 -0.821528 -1.41454 -1.118034 -1.118034 
C -1.41454 -0.821528 -1.581139 -0.419323 -1.581139 0 
C -1.581139 0.419323 -1.41454 0.821528 -1.118034 1.118034 
C -0.821528 1.41454 -0.419323 1.581139 0 1.581139 
z
"/>
    </defs>
    <g clip-path="url(#p74c5f5ae23)">
     <use xlink:href="#C1_0_17f2cac91f" x="154.092727" y="60.692135" style="fill: #cacaf8; stroke: #cacaf8"/>
    </g>
    <g clip-path="url(#p74c5f5ae23)">
     <use xlink:href="#C1_0_17f2cac91f" x="147.329091" y="73.777641" style="fill: #cacaf8; stroke: #cacaf8"/>
    </g>
    <g clip-path="url(#p74c5f5ae23)">
     <use xlink:href="#C1_0_17f2cac91f" x="140.565455" y="77.496634" style="fill: #cacaf8; stroke: #cacaf8"/>
    </g>
    <g clip-path="url(#p74c5f5ae23)">
     <use xlink:href="#C1_0_17f2cac91f" x="133.801818" y="77.876469" style="fill: #cacaf8; stroke: #cacaf8"/>
    </g>
    <g clip-path="url(#p74c5f5ae23)">
     <use xlink:href="#C1_0_17f2cac91f" x="127.038182" y="78.151273" style="fill: #cacaf8; stroke: #cacaf8"/>
    </g>
    <g clip-path="url(#p74c5f5ae23)">
     <use xlink:href="#C1_0_17f2cac91f" x="120.274545" y="76.687455" style="fill: #cacaf8; stroke: #cacaf8"/>
    </g>
    <g clip-path="url(#p74c5f5ae23)">
     <use xlink:href="#C1_0_17f2cac91f" x="113.510909" y="68.63681" style="fill: #cacaf8; stroke: #cacaf8"/>
    </g>
    <g clip-path="url(#p74c5f5ae23)">
     <use xlink:href="#C1_0_17f2cac91f" x="106.747273" y="61.017187" style="fill: #cacaf8; stroke: #cacaf8"/>
    </g>
    <g clip-path="url(#p74c5f5ae23)">
     <use xlink:href="#C1_0_17f2cac91f" x="99.983636" y="57.776216" style="fill: #cacaf8; stroke: #cacaf8"/>
    </g>
    <g clip-path="url(#p74c5f5ae23)">
     <use xlink:href="#C1_0_17f2cac91f" x="93.22" y="52.287142" style="fill: #cacaf8; stroke: #cacaf8"/>
    </g>
    <g clip-path="url(#p74c5f5ae23)">
     <use xlink:href="#C1_0_17f2cac91f" x="86.456364" y="50.131986" style="fill: #cacaf8; stroke: #cacaf8"/>
    </g>
    <g clip-path="url(#p74c5f5ae23)">
     <use xlink:href="#C1_0_17f2cac91f" x="79.692727" y="48.016415" style="fill: #cacaf8; stroke: #cacaf8"/>
    </g>
    <g clip-path="url(#p74c5f5ae23)">
     <use xlink:href="#C1_0_17f2cac91f" x="72.929091" y="45.788393" style="fill: #cacaf8; stroke: #cacaf8"/>
    </g>
    <g clip-path="url(#p74c5f5ae23)">
     <use xlink:href="#C1_0_17f2cac91f" x="66.165455" y="45.724982" style="fill: #cacaf8; stroke: #cacaf8"/>
    </g>
    <g clip-path="url(#p74c5f5ae23)">
     <use xlink:href="#C1_0_17f2cac91f" x="59.401818" y="43.504509" style="fill: #cacaf8; stroke: #cacaf8"/>
    </g>
    <g clip-path="url(#p74c5f5ae23)">
     <use xlink:href="#C1_0_17f2cac91f" x="52.638182" y="43.825779" style="fill: #cacaf8; stroke: #cacaf8"/>
    </g>
    <g clip-path="url(#p74c5f5ae23)">
     <use xlink:href="#C1_0_17f2cac91f" x="45.874545" y="43.484744" style="fill: #cacaf8; stroke: #cacaf8"/>
    </g>
    <g clip-path="url(#p74c5f5ae23)">
     <use xlink:href="#C1_0_17f2cac91f" x="39.110909" y="41.779489" style="fill: #cacaf8; stroke: #cacaf8"/>
    </g>
    <g clip-path="url(#p74c5f5ae23)">
     <use xlink:href="#C1_0_17f2cac91f" x="32.347273" y="42.410087" style="fill: #cacaf8; stroke: #cacaf8"/>
    </g>
   </g>
   <g id="PathCollection_3">
    <defs>
     <path id="C2_0_923899f660" d="M 0 1.581139 
C 0.419323 1.581139 0.821528 1.41454 1.118034 1.118034 
C 1.41454 0.821528 1.581139 0.419323 1.581139 -0 
C 1.581139 -0.419323 1.41454 -0.821528 1.118034 -1.118034 
C 0.821528 -1.41454 0.419323 -1.581139 0 -1.581139 
C -0.419323 -1.581139 -0.821528 -1.41454 -1.118034 -1.118034 
C -1.41454 -0.821528 -1.581139 -0.419323 -1.581139 0 
C -1.581139 0.419323 -1.41454 0.821528 -1.118034 1.118034 
C -0.821528 1.41454 -0.419323 1.581139 0 1.581139 
z
"/>
    </defs>
    <g clip-path="url(#p74c5f5ae23)">
     <use xlink:href="#C2_0_923899f660" x="154.092727" y="69.840081" style="fill: #feeeba; stroke: #feeeba"/>
    </g>
    <g clip-path="url(#p74c5f5ae23)">
     <use xlink:href="#C2_0_923899f660" x="147.329091" y="76.970687" style="fill: #feeeba; stroke: #feeeba"/>
    </g>
    <g clip-path="url(#p74c5f5ae23)">
     <use xlink:href="#C2_0_923899f660" x="140.565455" y="79.84982" style="fill: #feeeba; stroke: #feeeba"/>
    </g>
    <g clip-path="url(#p74c5f5ae23)">
     <use xlink:href="#C2_0_923899f660" x="133.801818" y="81.383578" style="fill: #feeeba; stroke: #feeeba"/>
    </g>
    <g clip-path="url(#p74c5f5ae23)">
     <use xlink:href="#C2_0_923899f660" x="127.038182" y="83.034964" style="fill: #feeeba; stroke: #feeeba"/>
    </g>
    <g clip-path="url(#p74c5f5ae23)">
     <use xlink:href="#C2_0_923899f660" x="120.274545" y="83.855857" style="fill: #feeeba; stroke: #feeeba"/>
    </g>
    <g clip-path="url(#p74c5f5ae23)">
     <use xlink:href="#C2_0_923899f660" x="113.510909" y="82.888748" style="fill: #feeeba; stroke: #feeeba"/>
    </g>
    <g clip-path="url(#p74c5f5ae23)">
     <use xlink:href="#C2_0_923899f660" x="106.747273" y="81.677295" style="fill: #feeeba; stroke: #feeeba"/>
    </g>
    <g clip-path="url(#p74c5f5ae23)">
     <use xlink:href="#C2_0_923899f660" x="99.983636" y="80.341738" style="fill: #feeeba; stroke: #feeeba"/>
    </g>
    <g clip-path="url(#p74c5f5ae23)">
     <use xlink:href="#C2_0_923899f660" x="93.22" y="77.732314" style="fill: #feeeba; stroke: #feeeba"/>
    </g>
    <g clip-path="url(#p74c5f5ae23)">
     <use xlink:href="#C2_0_923899f660" x="86.456364" y="75.475276" style="fill: #feeeba; stroke: #feeeba"/>
    </g>
    <g clip-path="url(#p74c5f5ae23)">
     <use xlink:href="#C2_0_923899f660" x="79.692727" y="71.29613" style="fill: #feeeba; stroke: #feeeba"/>
    </g>
    <g clip-path="url(#p74c5f5ae23)">
     <use xlink:href="#C2_0_923899f660" x="72.929091" y="69.292201" style="fill: #feeeba; stroke: #feeeba"/>
    </g>
    <g clip-path="url(#p74c5f5ae23)">
     <use xlink:href="#C2_0_923899f660" x="66.165455" y="68.221771" style="fill: #feeeba; stroke: #feeeba"/>
    </g>
    <g clip-path="url(#p74c5f5ae23)">
     <use xlink:href="#C2_0_923899f660" x="59.401818" y="64.967638" style="fill: #feeeba; stroke: #feeeba"/>
    </g>
    <g clip-path="url(#p74c5f5ae23)">
     <use xlink:href="#C2_0_923899f660" x="52.638182" y="64.103835" style="fill: #feeeba; stroke: #feeeba"/>
    </g>
    <g clip-path="url(#p74c5f5ae23)">
     <use xlink:href="#C2_0_923899f660" x="45.874545" y="62.249002" style="fill: #feeeba; stroke: #feeeba"/>
    </g>
    <g clip-path="url(#p74c5f5ae23)">
     <use xlink:href="#C2_0_923899f660" x="39.110909" y="61.590434" style="fill: #feeeba; stroke: #feeeba"/>
    </g>
    <g clip-path="url(#p74c5f5ae23)">
     <use xlink:href="#C2_0_923899f660" x="32.347273" y="60.623977" style="fill: #feeeba; stroke: #feeeba"/>
    </g>
   </g>
   <g id="PathCollection_4">
    <defs>
     <path id="C3_0_11c6fe5863" d="M 0 1.581139 
C 0.419323 1.581139 0.821528 1.41454 1.118034 1.118034 
C 1.41454 0.821528 1.581139 0.419323 1.581139 -0 
C 1.581139 -0.419323 1.41454 -0.821528 1.118034 -1.118034 
C 0.821528 -1.41454 0.419323 -1.581139 0 -1.581139 
C -0.419323 -1.581139 -0.821528 -1.41454 -1.118034 -1.118034 
C -1.41454 -0.821528 -1.581139 -0.419323 -1.581139 0 
C -1.581139 0.419323 -1.41454 0.821528 -1.118034 1.118034 
C -0.821528 1.41454 -0.419323 1.581139 0 1.581139 
z
"/>
    </defs>
    <g clip-path="url(#p74c5f5ae23)">
     <use xlink:href="#C3_0_11c6fe5863" x="154.092727" y="84.301163" style="fill: #c828c6; stroke: #c828c6"/>
    </g>
    <g clip-path="url(#p74c5f5ae23)">
     <use xlink:href="#C3_0_11c6fe5863" x="147.329091" y="86.58" style="fill: #c828c6; stroke: #c828c6"/>
    </g>
    <g clip-path="url(#p74c5f5ae23)">
     <use xlink:href="#C3_0_11c6fe5863" x="140.565455" y="81.775702" style="fill: #f5cdf5; stroke: #f5cdf5"/>
    </g>
    <g clip-path="url(#p74c5f5ae23)">
     <use xlink:href="#C3_0_11c6fe5863" x="133.801818" y="77.877037" style="fill: #f5cdf5; stroke: #f5cdf5"/>
    </g>
    <g clip-path="url(#p74c5f5ae23)">
     <use xlink:href="#C3_0_11c6fe5863" x="127.038182" y="71.834512" style="fill: #f5cdf5; stroke: #f5cdf5"/>
    </g>
    <g clip-path="url(#p74c5f5ae23)">
     <use xlink:href="#C3_0_11c6fe5863" x="120.274545" y="66.614619" style="fill: #f5cdf5; stroke: #f5cdf5"/>
    </g>
    <g clip-path="url(#p74c5f5ae23)">
     <use xlink:href="#C3_0_11c6fe5863" x="113.510909" y="58.05684" style="fill: #f5cdf5; stroke: #f5cdf5"/>
    </g>
    <g clip-path="url(#p74c5f5ae23)">
     <use xlink:href="#C3_0_11c6fe5863" x="106.747273" y="51.075203" style="fill: #f5cdf5; stroke: #f5cdf5"/>
    </g>
    <g clip-path="url(#p74c5f5ae23)">
     <use xlink:href="#C3_0_11c6fe5863" x="99.983636" y="45.746682" style="fill: #f5cdf5; stroke: #f5cdf5"/>
    </g>
    <g clip-path="url(#p74c5f5ae23)">
     <use xlink:href="#C3_0_11c6fe5863" x="93.22" y="39.280089" style="fill: #f5cdf5; stroke: #f5cdf5"/>
    </g>
    <g clip-path="url(#p74c5f5ae23)">
     <use xlink:href="#C3_0_11c6fe5863" x="86.456364" y="33.48233" style="fill: #f5cdf5; stroke: #f5cdf5"/>
    </g>
    <g clip-path="url(#p74c5f5ae23)">
     <use xlink:href="#C3_0_11c6fe5863" x="79.692727" y="28.098492" style="fill: #f5cdf5; stroke: #f5cdf5"/>
    </g>
    <g clip-path="url(#p74c5f5ae23)">
     <use xlink:href="#C3_0_11c6fe5863" x="72.929091" y="25.056344" style="fill: #f5cdf5; stroke: #f5cdf5"/>
    </g>
    <g clip-path="url(#p74c5f5ae23)">
     <use xlink:href="#C3_0_11c6fe5863" x="66.165455" y="21.207034" style="fill: #f5cdf5; stroke: #f5cdf5"/>
    </g>
    <g clip-path="url(#p74c5f5ae23)">
     <use xlink:href="#C3_0_11c6fe5863" x="59.401818" y="17.871687" style="fill: #f5cdf5; stroke: #f5cdf5"/>
    </g>
    <g clip-path="url(#p74c5f5ae23)">
     <use xlink:href="#C3_0_11c6fe5863" x="52.638182" y="16.369306" style="fill: #f5cdf5; stroke: #f5cdf5"/>
    </g>
    <g clip-path="url(#p74c5f5ae23)">
     <use xlink:href="#C3_0_11c6fe5863" x="45.874545" y="14.899622" style="fill: #f5cdf5; stroke: #f5cdf5"/>
    </g>
    <g clip-path="url(#p74c5f5ae23)">
     <use xlink:href="#C3_0_11c6fe5863" x="39.110909" y="12.721616" style="fill: #f5cdf5; stroke: #f5cdf5"/>
    </g>
    <g clip-path="url(#p74c5f5ae23)">
     <use xlink:href="#C3_0_11c6fe5863" x="32.347273" y="10.98" style="fill: #f5cdf5; stroke: #f5cdf5"/>
    </g>
   </g>
   <g id="PathCollection_5">
    <defs>
     <path id="C4_0_21f628d045" d="M 0 1.581139 
C 0.419323 1.581139 0.821528 1.41454 1.118034 1.118034 
C 1.41454 0.821528 1.581139 0.419323 1.581139 -0 
C 1.581139 -0.419323 1.41454 -0.821528 1.118034 -1.118034 
C 0.821528 -1.41454 0.419323 -1.581139 0 -1.581139 
C -0.419323 -1.581139 -0.821528 -1.41454 -1.118034 -1.118034 
C -1.41454 -0.821528 -1.581139 -0.419323 -1.581139 0 
C -1.581139 0.419323 -1.41454 0.821528 -1.118034 1.118034 
C -0.821528 1.41454 -0.419323 1.581139 0 1.581139 
z
"/>
    </defs>
    <g clip-path="url(#p74c5f5ae23)">
     <use xlink:href="#C4_0_21f628d045" x="154.092727" y="67.099323" style="fill: #caf8f8; stroke: #caf8f8"/>
    </g>
    <g clip-path="url(#p74c5f5ae23)">
     <use xlink:href="#C4_0_21f628d045" x="147.329091" y="73.486718" style="fill: #caf8f8; stroke: #caf8f8"/>
    </g>
    <g clip-path="url(#p74c5f5ae23)">
     <use xlink:href="#C4_0_21f628d045" x="140.565455" y="78.401717" style="fill: #caf8f8; stroke: #caf8f8"/>
    </g>
    <g clip-path="url(#p74c5f5ae23)">
     <use xlink:href="#C4_0_21f628d045" x="133.801818" y="80.744998" style="fill: #caf8f8; stroke: #caf8f8"/>
    </g>
    <g clip-path="url(#p74c5f5ae23)">
     <use xlink:href="#C4_0_21f628d045" x="127.038182" y="81.698302" style="fill: #caf8f8; stroke: #caf8f8"/>
    </g>
    <g clip-path="url(#p74c5f5ae23)">
     <use xlink:href="#C4_0_21f628d045" x="120.274545" y="81.10655" style="fill: #caf8f8; stroke: #caf8f8"/>
    </g>
    <g clip-path="url(#p74c5f5ae23)">
     <use xlink:href="#C4_0_21f628d045" x="113.510909" y="76.965564" style="fill: #caf8f8; stroke: #caf8f8"/>
    </g>
    <g clip-path="url(#p74c5f5ae23)">
     <use xlink:href="#C4_0_21f628d045" x="106.747273" y="73.905738" style="fill: #caf8f8; stroke: #caf8f8"/>
    </g>
    <g clip-path="url(#p74c5f5ae23)">
     <use xlink:href="#C4_0_21f628d045" x="99.983636" y="69.964323" style="fill: #caf8f8; stroke: #caf8f8"/>
    </g>
    <g clip-path="url(#p74c5f5ae23)">
     <use xlink:href="#C4_0_21f628d045" x="93.22" y="68.419656" style="fill: #caf8f8; stroke: #caf8f8"/>
    </g>
    <g clip-path="url(#p74c5f5ae23)">
     <use xlink:href="#C4_0_21f628d045" x="86.456364" y="64.679477" style="fill: #caf8f8; stroke: #caf8f8"/>
    </g>
    <g clip-path="url(#p74c5f5ae23)">
     <use xlink:href="#C4_0_21f628d045" x="79.692727" y="58.866643" style="fill: #caf8f8; stroke: #caf8f8"/>
    </g>
    <g clip-path="url(#p74c5f5ae23)">
     <use xlink:href="#C4_0_21f628d045" x="72.929091" y="57.696018" style="fill: #caf8f8; stroke: #caf8f8"/>
    </g>
    <g clip-path="url(#p74c5f5ae23)">
     <use xlink:href="#C4_0_21f628d045" x="66.165455" y="54.741578" style="fill: #caf8f8; stroke: #caf8f8"/>
    </g>
    <g clip-path="url(#p74c5f5ae23)">
     <use xlink:href="#C4_0_21f628d045" x="59.401818" y="51.573648" style="fill: #caf8f8; stroke: #caf8f8"/>
    </g>
    <g clip-path="url(#p74c5f5ae23)">
     <use xlink:href="#C4_0_21f628d045" x="52.638182" y="49.675634" style="fill: #caf8f8; stroke: #caf8f8"/>
    </g>
    <g clip-path="url(#p74c5f5ae23)">
     <use xlink:href="#C4_0_21f628d045" x="45.874545" y="47.238902" style="fill: #caf8f8; stroke: #caf8f8"/>
    </g>
    <g clip-path="url(#p74c5f5ae23)">
     <use xlink:href="#C4_0_21f628d045" x="39.110909" y="45.415833" style="fill: #caf8f8; stroke: #caf8f8"/>
    </g>
    <g clip-path="url(#p74c5f5ae23)">
     <use xlink:href="#C4_0_21f628d045" x="32.347273" y="42.085974" style="fill: #caf8f8; stroke: #caf8f8"/>
    </g>
   </g>
   <g id="matplotlib.axis_1">
    <g id="xtick_1">
     <g id="line2d_6">
      <defs>
       <path id="m0607343b4a" d="M 0 0 
L 0 3.5 
" style="stroke: #000000; stroke-width: 0.8"/>
      </defs>
      <g>
       <use xlink:href="#m0607343b4a" x="39.110909" y="90.36" style="stroke: #000000; stroke-width: 0.8"/>
      </g>
     </g>
     <g id="text_1">
      <text style="font: 200 12px 'Calibri'; text-anchor: middle" x="39.110909" y="105.5275" transform="rotate(-0 39.110909 105.5275)">10</text>
     </g>
    </g>
    <g id="xtick_2">
     <g id="line2d_7">
      <g>
       <use xlink:href="#m0607343b4a" x="52.638182" y="90.36" style="stroke: #000000; stroke-width: 0.8"/>
      </g>
     </g>
     <g id="text_2">
      <text style="font: 200 12px 'Calibri'; text-anchor: middle" x="52.638182" y="105.5275" transform="rotate(-0 52.638182 105.5275)">20</text>
     </g>
    </g>
    <g id="xtick_3">
     <g id="line2d_8">
      <g>
       <use xlink:href="#m0607343b4a" x="66.165455" y="90.36" style="stroke: #000000; stroke-width: 0.8"/>
      </g>
     </g>
     <g id="text_3">
      <text style="font: 200 12px 'Calibri'; text-anchor: middle" x="66.165455" y="105.5275" transform="rotate(-0 66.165455 105.5275)">30</text>
     </g>
    </g>
    <g id="xtick_4">
     <g id="line2d_9">
      <g>
       <use xlink:href="#m0607343b4a" x="79.692727" y="90.36" style="stroke: #000000; stroke-width: 0.8"/>
      </g>
     </g>
     <g id="text_4">
      <text style="font: 200 12px 'Calibri'; text-anchor: middle" x="79.692727" y="105.5275" transform="rotate(-0 79.692727 105.5275)">40</text>
     </g>
    </g>
    <g id="xtick_5">
     <g id="line2d_10">
      <g>
       <use xlink:href="#m0607343b4a" x="93.22" y="90.36" style="stroke: #000000; stroke-width: 0.8"/>
      </g>
     </g>
     <g id="text_5">
      <text style="font: 200 12px 'Calibri'; text-anchor: middle" x="93.22" y="105.5275" transform="rotate(-0 93.22 105.5275)">50</text>
     </g>
    </g>
    <g id="xtick_6">
     <g id="line2d_11">
      <g>
       <use xlink:href="#m0607343b4a" x="106.747273" y="90.36" style="stroke: #000000; stroke-width: 0.8"/>
      </g>
     </g>
     <g id="text_6">
      <text style="font: 200 12px 'Calibri'; text-anchor: middle" x="106.747273" y="105.5275" transform="rotate(-0 106.747273 105.5275)">60</text>
     </g>
    </g>
    <g id="xtick_7">
     <g id="line2d_12">
      <g>
       <use xlink:href="#m0607343b4a" x="120.274545" y="90.36" style="stroke: #000000; stroke-width: 0.8"/>
      </g>
     </g>
     <g id="text_7">
      <text style="font: 200 12px 'Calibri'; text-anchor: middle" x="120.274545" y="105.5275" transform="rotate(-0 120.274545 105.5275)">70</text>
     </g>
    </g>
    <g id="xtick_8">
     <g id="line2d_13">
      <g>
       <use xlink:href="#m0607343b4a" x="133.801818" y="90.36" style="stroke: #000000; stroke-width: 0.8"/>
      </g>
     </g>
     <g id="text_8">
      <text style="font: 200 12px 'Calibri'; text-anchor: middle" x="133.801818" y="105.5275" transform="rotate(-0 133.801818 105.5275)">80</text>
     </g>
    </g>
    <g id="xtick_9">
     <g id="line2d_14">
      <g>
       <use xlink:href="#m0607343b4a" x="147.329091" y="90.36" style="stroke: #000000; stroke-width: 0.8"/>
      </g>
     </g>
     <g id="text_9">
      <text style="font: 200 12px 'Calibri'; text-anchor: middle" x="147.329091" y="105.5275" transform="rotate(-0 147.329091 105.5275)">90</text>
     </g>
    </g>
    <g id="xtick_10">
     <g id="line2d_15">
      <defs>
       <path id="m57f5218506" d="M 0 0 
L 0 2 
" style="stroke: #000000; stroke-width: 0.6"/>
      </defs>
      <g>
       <use xlink:href="#m57f5218506" x="32.347273" y="90.36" style="stroke: #000000; stroke-width: 0.6"/>
      </g>
     </g>
    </g>
    <g id="xtick_11">
     <g id="line2d_16">
      <g>
       <use xlink:href="#m57f5218506" x="45.874545" y="90.36" style="stroke: #000000; stroke-width: 0.6"/>
      </g>
     </g>
    </g>
    <g id="xtick_12">
     <g id="line2d_17">
      <g>
       <use xlink:href="#m57f5218506" x="59.401818" y="90.36" style="stroke: #000000; stroke-width: 0.6"/>
      </g>
     </g>
    </g>
    <g id="xtick_13">
     <g id="line2d_18">
      <g>
       <use xlink:href="#m57f5218506" x="72.929091" y="90.36" style="stroke: #000000; stroke-width: 0.6"/>
      </g>
     </g>
    </g>
    <g id="xtick_14">
     <g id="line2d_19">
      <g>
       <use xlink:href="#m57f5218506" x="86.456364" y="90.36" style="stroke: #000000; stroke-width: 0.6"/>
      </g>
     </g>
    </g>
    <g id="xtick_15">
     <g id="line2d_20">
      <g>
       <use xlink:href="#m57f5218506" x="99.983636" y="90.36" style="stroke: #000000; stroke-width: 0.6"/>
      </g>
     </g>
    </g>
    <g id="xtick_16">
     <g id="line2d_21">
      <g>
       <use xlink:href="#m57f5218506" x="113.510909" y="90.36" style="stroke: #000000; stroke-width: 0.6"/>
      </g>
     </g>
    </g>
    <g id="xtick_17">
     <g id="line2d_22">
      <g>
       <use xlink:href="#m57f5218506" x="127.038182" y="90.36" style="stroke: #000000; stroke-width: 0.6"/>
      </g>
     </g>
    </g>
    <g id="xtick_18">
     <g id="line2d_23">
      <g>
       <use xlink:href="#m57f5218506" x="140.565455" y="90.36" style="stroke: #000000; stroke-width: 0.6"/>
      </g>
     </g>
    </g>
    <g id="xtick_19">
     <g id="line2d_24">
      <g>
       <use xlink:href="#m57f5218506" x="154.092727" y="90.36" style="stroke: #000000; stroke-width: 0.6"/>
      </g>
     </g>
    </g>
   </g>
   <g id="matplotlib.axis_2">
    <g id="ytick_1">
     <g id="line2d_25">
      <defs>
       <path id="meec7e37ce2" d="M 0 0 
L -3.5 0 
" style="stroke: #000000; stroke-width: 0.8"/>
      </defs>
      <g>
       <use xlink:href="#meec7e37ce2" x="26.26" y="76.015781" style="stroke: #000000; stroke-width: 0.8"/>
      </g>
     </g>
     <g id="text_10">
      <text style="font: 200 12px 'Calibri'; text-anchor: end" x="19.26" y="80.099531" transform="rotate(-0 19.26 80.099531)">−2</text>
     </g>
    </g>
    <g id="ytick_2">
     <g id="line2d_26">
      <g>
       <use xlink:href="#meec7e37ce2" x="26.26" y="39.148549" style="stroke: #000000; stroke-width: 0.8"/>
      </g>
     </g>
     <g id="text_11">
      <text style="font: 200 12px 'Calibri'; text-anchor: end" x="19.26" y="43.232299" transform="rotate(-0 19.26 43.232299)">0</text>
     </g>
    </g>
   </g>
   <g id="line2d_27">
    <path d="M 154.092727 39.148549 
L 147.329091 39.148549 
L 140.565455 39.148549 
L 133.801818 39.148549 
L 127.038182 39.148549 
L 120.274545 39.148549 
L 113.510909 39.148549 
L 106.747273 39.148549 
L 99.983636 39.148549 
L 93.22 39.148549 
L 86.456364 39.148549 
L 79.692727 39.148549 
L 72.929091 39.148549 
L 66.165455 39.148549 
L 59.401818 39.148549 
L 52.638182 39.148549 
L 45.874545 39.148549 
L 39.110909 39.148549 
L 32.347273 39.148549 
" clip-path="url(#p74c5f5ae23)" style="fill: none; stroke-dasharray: 5.55,2.4; stroke-dashoffset: 0; stroke: #d3d3d3; stroke-width: 1.5"/>
   </g>
   <g id="line2d_28">
    <path d="M 154.092727 39.148549 
L 147.329091 39.148549 
L 140.565455 39.148549 
L 133.801818 39.148549 
L 127.038182 39.148549 
L 120.274545 39.148549 
L 113.510909 39.148549 
L 106.747273 39.148549 
L 99.983636 39.148549 
L 93.22 39.148549 
L 86.456364 39.148549 
L 79.692727 39.148549 
L 72.929091 39.148549 
L 66.165455 39.148549 
L 59.401818 39.148549 
L 52.638182 39.148549 
L 45.874545 39.148549 
L 39.110909 39.148549 
L 32.347273 39.148549 
" clip-path="url(#p74c5f5ae23)" style="fill: none; stroke-dasharray: 5.55,2.4; stroke-dashoffset: 0; stroke: #d3d3d3; stroke-width: 1.5"/>
   </g>
   <g id="line2d_29">
    <path d="M 154.092727 39.148549 
L 147.329091 39.148549 
L 140.565455 39.148549 
L 133.801818 39.148549 
L 127.038182 39.148549 
L 120.274545 39.148549 
L 113.510909 39.148549 
L 106.747273 39.148549 
L 99.983636 39.148549 
L 93.22 39.148549 
L 86.456364 39.148549 
L 79.692727 39.148549 
L 72.929091 39.148549 
L 66.165455 39.148549 
L 59.401818 39.148549 
L 52.638182 39.148549 
L 45.874545 39.148549 
L 39.110909 39.148549 
L 32.347273 39.148549 
" clip-path="url(#p74c5f5ae23)" style="fill: none; stroke-dasharray: 5.55,2.4; stroke-dashoffset: 0; stroke: #d3d3d3; stroke-width: 1.5"/>
   </g>
   <g id="line2d_30">
    <path d="M 154.092727 39.148549 
L 147.329091 39.148549 
L 140.565455 39.148549 
L 133.801818 39.148549 
L 127.038182 39.148549 
L 120.274545 39.148549 
L 113.510909 39.148549 
L 106.747273 39.148549 
L 99.983636 39.148549 
L 93.22 39.148549 
L 86.456364 39.148549 
L 79.692727 39.148549 
L 72.929091 39.148549 
L 66.165455 39.148549 
L 59.401818 39.148549 
L 52.638182 39.148549 
L 45.874545 39.148549 
L 39.110909 39.148549 
L 32.347273 39.148549 
" clip-path="url(#p74c5f5ae23)" style="fill: none; stroke-dasharray: 5.55,2.4; stroke-dashoffset: 0; stroke: #d3d3d3; stroke-width: 1.5"/>
   </g>
   <g id="line2d_31">
    <path d="M 154.092727 39.148549 
L 147.329091 39.148549 
L 140.565455 39.148549 
L 133.801818 39.148549 
L 127.038182 39.148549 
L 120.274545 39.148549 
L 113.510909 39.148549 
L 106.747273 39.148549 
L 99.983636 39.148549 
L 93.22 39.148549 
L 86.456364 39.148549 
L 79.692727 39.148549 
L 72.929091 39.148549 
L 66.165455 39.148549 
L 59.401818 39.148549 
L 52.638182 39.148549 
L 45.874545 39.148549 
L 39.110909 39.148549 
L 32.347273 39.148549 
" clip-path="url(#p74c5f5ae23)" style="fill: none; stroke-dasharray: 5.55,2.4; stroke-dashoffset: 0; stroke: #d3d3d3; stroke-width: 1.5"/>
   </g>
   <g id="patch_3">
    <path d="M 26.26 90.36 
L 26.26 7.2 
" style="fill: none; stroke: #000000; stroke-width: 0.8; stroke-linejoin: miter; stroke-linecap: square"/>
   </g>
   <g id="patch_4">
    <path d="M 26.26 90.36 
L 160.18 90.36 
" style="fill: none; stroke: #000000; stroke-width: 0.8; stroke-linejoin: miter; stroke-linecap: square"/>
   </g>
   <g id="legend_1">
    <g id="patch_5">
     <path d="M 173.9368 99.496875 
L 278.027425 99.496875 
Q 280.427425 99.496875 280.427425 97.096875 
L 280.427425 15.6 
Q 280.427425 13.2 278.027425 13.2 
L 173.9368 13.2 
Q 171.5368 13.2 171.5368 15.6 
L 171.5368 97.096875 
Q 171.5368 99.496875 173.9368 99.496875 
z
" style="fill: #ffffff; opacity: 0.8; stroke: #cccccc; stroke-linejoin: miter"/>
    </g>
    <g id="PathCollection_6">
     <path d="M 188.3368 24.831139 
C 188.756123 24.831139 189.158328 24.66454 189.454834 24.368034 
C 189.75134 24.071528 189.917939 23.669323 189.917939 23.25 
C 189.917939 22.830677 189.75134 22.428472 189.454834 22.131966 
C 189.158328 21.83546 188.756123 21.668861 188.3368 21.668861 
C 187.917477 21.668861 187.515272 21.83546 187.218766 22.131966 
C 186.92226 22.428472 186.755661 22.830677 186.755661 23.25 
C 186.755661 23.669323 186.92226 24.071528 187.218766 24.368034 
C 187.515272 24.66454 187.917477 24.831139 188.3368 24.831139 
z
" style="fill: #cdf5cd; stroke: #cdf5cd"/>
    </g>
    <g id="text_12">
     <text style="font: 200 12px 'Calibri'; text-anchor: start" x="209.9368" y="26.4" transform="rotate(-0 209.9368 26.4)">receptor_den</text>
    </g>
    <g id="PathCollection_7">
     <path d="M 188.3368 41.370514 
C 188.756123 41.370514 189.158328 41.203915 189.454834 40.907409 
C 189.75134 40.610903 189.917939 40.208698 189.917939 39.789375 
C 189.917939 39.370052 189.75134 38.967847 189.454834 38.671341 
C 189.158328 38.374835 188.756123 38.208236 188.3368 38.208236 
C 187.917477 38.208236 187.515272 38.374835 187.218766 38.671341 
C 186.92226 38.967847 186.755661 39.370052 186.755661 39.789375 
C 186.755661 40.208698 186.92226 40.610903 187.218766 40.907409 
C 187.515272 41.203915 187.917477 41.370514 188.3368 41.370514 
z
" style="fill: #cacaf8; stroke: #cacaf8"/>
    </g>
    <g id="text_13">
     <text style="font: 200 12px 'Calibri'; text-anchor: start" x="209.9368" y="42.939375" transform="rotate(-0 209.9368 42.939375)">EI_ratio</text>
    </g>
    <g id="PathCollection_8">
     <path d="M 188.3368 57.909889 
C 188.756123 57.909889 189.158328 57.74329 189.454834 57.446784 
C 189.75134 57.150278 189.917939 56.748073 189.917939 56.32875 
C 189.917939 55.909427 189.75134 55.507222 189.454834 55.210716 
C 189.158328 54.91421 188.756123 54.747611 188.3368 54.747611 
C 187.917477 54.747611 187.515272 54.91421 187.218766 55.210716 
C 186.92226 55.507222 186.755661 55.909427 186.755661 56.32875 
C 186.755661 56.748073 186.92226 57.150278 187.218766 57.446784 
C 187.515272 57.74329 187.917477 57.909889 188.3368 57.909889 
z
" style="fill: #feeeba; stroke: #feeeba"/>
    </g>
    <g id="text_14">
     <text style="font: 200 12px 'Calibri'; text-anchor: start" x="209.9368" y="59.47875" transform="rotate(-0 209.9368 59.47875)">genePC1</text>
    </g>
    <g id="PathCollection_9">
     <path d="M 188.3368 74.449264 
C 188.756123 74.449264 189.158328 74.282665 189.454834 73.986159 
C 189.75134 73.689653 189.917939 73.287448 189.917939 72.868125 
C 189.917939 72.448802 189.75134 72.046597 189.454834 71.750091 
C 189.158328 71.453585 188.756123 71.286986 188.3368 71.286986 
C 187.917477 71.286986 187.515272 71.453585 187.218766 71.750091 
C 186.92226 72.046597 186.755661 72.448802 186.755661 72.868125 
C 186.755661 73.287448 186.92226 73.689653 187.218766 73.986159 
C 187.515272 74.282665 187.917477 74.449264 188.3368 74.449264 
z
" style="fill: #c828c6; stroke: #c828c6"/>
    </g>
    <g id="text_15">
     <text style="font: 200 12px 'Calibri'; text-anchor: start" x="209.9368" y="76.018125" transform="rotate(-0 209.9368 76.018125)">t1t2</text>
    </g>
    <g id="PathCollection_10">
     <path d="M 188.3368 90.988639 
C 188.756123 90.988639 189.158328 90.82204 189.454834 90.525534 
C 189.75134 90.229028 189.917939 89.826823 189.917939 89.4075 
C 189.917939 88.988177 189.75134 88.585972 189.454834 88.289466 
C 189.158328 87.99296 188.756123 87.826361 188.3368 87.826361 
C 187.917477 87.826361 187.515272 87.99296 187.218766 88.289466 
C 186.92226 88.585972 186.755661 88.988177 186.755661 89.4075 
C 186.755661 89.826823 186.92226 90.229028 187.218766 90.525534 
C 187.515272 90.82204 187.917477 90.988639 188.3368 90.988639 
z
" style="fill: #caf8f8; stroke: #caf8f8"/>
    </g>
    <g id="text_16">
     <text style="font: 200 12px 'Calibri'; text-anchor: start" x="209.9368" y="92.5575" transform="rotate(-0 209.9368 92.5575)">thi</text>
    </g>
   </g>
  </g>
 </g>
 <defs>
  <clipPath id="p74c5f5ae23">
   <rect x="26.26" y="7.2" width="133.92" height="83.16"/>
  </clipPath>
 </defs>
</svg>
