<?xml version="1.0" encoding="utf-8" standalone="no"?>
<!DOCTYPE svg PUBLIC "-//W3C//DTD SVG 1.1//EN"
  "http://www.w3.org/Graphics/SVG/1.1/DTD/svg11.dtd">
<svg xmlns:xlink="http://www.w3.org/1999/xlink" width="86.4pt" height="144pt" viewBox="0 0 86.4 144" xmlns="http://www.w3.org/2000/svg" version="1.1">
 <metadata>
  <rdf:RDF xmlns:dc="http://purl.org/dc/elements/1.1/" xmlns:cc="http://creativecommons.org/ns#" xmlns:rdf="http://www.w3.org/1999/02/22-rdf-syntax-ns#">
   <cc:Work>
    <dc:type rdf:resource="http://purl.org/dc/dcmitype/StillImage"/>
    <dc:date>2022-05-27T23:39:52.955309</dc:date>
    <dc:format>image/svg+xml</dc:format>
    <dc:creator>
     <cc:Agent>
      <dc:title>Matplotlib v3.5.1, https://matplotlib.org/</dc:title>
     </cc:Agent>
    </dc:creator>
   </cc:Work>
  </rdf:RDF>
 </metadata>
 <defs>
  <style type="text/css">*{stroke-linejoin: round; stroke-linecap: butt}</style>
 </defs>
 <g id="figure_1">
  <g id="patch_1">
   <path d="M 0 144 
L 86.4 144 
L 86.4 0 
L 0 0 
z
" style="fill: #ffffff"/>
  </g>
  <g id="axes_1">
   <g id="patch_2">
    <path d="M 10.8 128.16 
L 77.76 128.16 
L 77.76 17.28 
L 10.8 17.28 
z
" style="fill: #ffffff"/>
   </g>
   <g id="patch_3">
    <path d="M 27.54 88.526356 
L 61.02 88.526356 
L 61.02 66.913925 
L 27.54 66.913925 
L 27.54 88.526356 
z
" clip-path="url(#pf1d4589779)" style="fill: #dadaeb; stroke: #6a51a3; stroke-linejoin: miter"/>
   </g>
   <g id="line2d_1">
    <path d="M 44.28 88.526356 
L 44.28 120.78158 
" clip-path="url(#pf1d4589779)" style="fill: none; stroke: #6a51a3; stroke-linecap: square"/>
   </g>
   <g id="line2d_2">
    <path d="M 44.28 66.913925 
L 44.28 34.579627 
" clip-path="url(#pf1d4589779)" style="fill: none; stroke: #6a51a3; stroke-linecap: square"/>
   </g>
   <g id="line2d_3">
    <defs>
     <path id="ma728e75bbe" d="M -3 0 
L 3 0 
M 0 3 
L 0 -3 
" style="stroke: #d3d3d3"/>
    </defs>
    <g clip-path="url(#pf1d4589779)">
     <use xlink:href="#ma728e75bbe" x="44.28" y="121.401193" style="fill: #d3d3d3; stroke: #d3d3d3"/>
     <use xlink:href="#ma728e75bbe" x="44.28" y="123.12" style="fill: #d3d3d3; stroke: #d3d3d3"/>
     <use xlink:href="#ma728e75bbe" x="44.28" y="121.888422" style="fill: #d3d3d3; stroke: #d3d3d3"/>
     <use xlink:href="#ma728e75bbe" x="44.28" y="121.339223" style="fill: #d3d3d3; stroke: #d3d3d3"/>
     <use xlink:href="#ma728e75bbe" x="44.28" y="34.437973" style="fill: #d3d3d3; stroke: #d3d3d3"/>
     <use xlink:href="#ma728e75bbe" x="44.28" y="27.037466" style="fill: #d3d3d3; stroke: #d3d3d3"/>
     <use xlink:href="#ma728e75bbe" x="44.28" y="25.136125" style="fill: #d3d3d3; stroke: #d3d3d3"/>
     <use xlink:href="#ma728e75bbe" x="44.28" y="29.893516" style="fill: #d3d3d3; stroke: #d3d3d3"/>
     <use xlink:href="#ma728e75bbe" x="44.28" y="31.088441" style="fill: #d3d3d3; stroke: #d3d3d3"/>
     <use xlink:href="#ma728e75bbe" x="44.28" y="32.413955" style="fill: #d3d3d3; stroke: #d3d3d3"/>
     <use xlink:href="#ma728e75bbe" x="44.28" y="31.833921" style="fill: #d3d3d3; stroke: #d3d3d3"/>
     <use xlink:href="#ma728e75bbe" x="44.28" y="34.388528" style="fill: #d3d3d3; stroke: #d3d3d3"/>
     <use xlink:href="#ma728e75bbe" x="44.28" y="28.928765" style="fill: #d3d3d3; stroke: #d3d3d3"/>
     <use xlink:href="#ma728e75bbe" x="44.28" y="34.489403" style="fill: #d3d3d3; stroke: #d3d3d3"/>
     <use xlink:href="#ma728e75bbe" x="44.28" y="32.685746" style="fill: #d3d3d3; stroke: #d3d3d3"/>
     <use xlink:href="#ma728e75bbe" x="44.28" y="32.734353" style="fill: #d3d3d3; stroke: #d3d3d3"/>
     <use xlink:href="#ma728e75bbe" x="44.28" y="33.492273" style="fill: #d3d3d3; stroke: #d3d3d3"/>
     <use xlink:href="#ma728e75bbe" x="44.28" y="27.702368" style="fill: #d3d3d3; stroke: #d3d3d3"/>
     <use xlink:href="#ma728e75bbe" x="44.28" y="34.434987" style="fill: #d3d3d3; stroke: #d3d3d3"/>
     <use xlink:href="#ma728e75bbe" x="44.28" y="33.865487" style="fill: #d3d3d3; stroke: #d3d3d3"/>
     <use xlink:href="#ma728e75bbe" x="44.28" y="30.245908" style="fill: #d3d3d3; stroke: #d3d3d3"/>
     <use xlink:href="#ma728e75bbe" x="44.28" y="33.75899" style="fill: #d3d3d3; stroke: #d3d3d3"/>
     <use xlink:href="#ma728e75bbe" x="44.28" y="26.748385" style="fill: #d3d3d3; stroke: #d3d3d3"/>
     <use xlink:href="#ma728e75bbe" x="44.28" y="26.440723" style="fill: #d3d3d3; stroke: #d3d3d3"/>
     <use xlink:href="#ma728e75bbe" x="44.28" y="29.868397" style="fill: #d3d3d3; stroke: #d3d3d3"/>
     <use xlink:href="#ma728e75bbe" x="44.28" y="33.76611" style="fill: #d3d3d3; stroke: #d3d3d3"/>
     <use xlink:href="#ma728e75bbe" x="44.28" y="32.975552" style="fill: #d3d3d3; stroke: #d3d3d3"/>
     <use xlink:href="#ma728e75bbe" x="44.28" y="32.227489" style="fill: #d3d3d3; stroke: #d3d3d3"/>
     <use xlink:href="#ma728e75bbe" x="44.28" y="30.764416" style="fill: #d3d3d3; stroke: #d3d3d3"/>
     <use xlink:href="#ma728e75bbe" x="44.28" y="27.95896" style="fill: #d3d3d3; stroke: #d3d3d3"/>
     <use xlink:href="#ma728e75bbe" x="44.28" y="34.218991" style="fill: #d3d3d3; stroke: #d3d3d3"/>
     <use xlink:href="#ma728e75bbe" x="44.28" y="25.845752" style="fill: #d3d3d3; stroke: #d3d3d3"/>
     <use xlink:href="#ma728e75bbe" x="44.28" y="29.821161" style="fill: #d3d3d3; stroke: #d3d3d3"/>
     <use xlink:href="#ma728e75bbe" x="44.28" y="33.492113" style="fill: #d3d3d3; stroke: #d3d3d3"/>
     <use xlink:href="#ma728e75bbe" x="44.28" y="31.699896" style="fill: #d3d3d3; stroke: #d3d3d3"/>
     <use xlink:href="#ma728e75bbe" x="44.28" y="27.628372" style="fill: #d3d3d3; stroke: #d3d3d3"/>
     <use xlink:href="#ma728e75bbe" x="44.28" y="33.106924" style="fill: #d3d3d3; stroke: #d3d3d3"/>
     <use xlink:href="#ma728e75bbe" x="44.28" y="22.32" style="fill: #d3d3d3; stroke: #d3d3d3"/>
     <use xlink:href="#ma728e75bbe" x="44.28" y="31.369874" style="fill: #d3d3d3; stroke: #d3d3d3"/>
     <use xlink:href="#ma728e75bbe" x="44.28" y="32.743334" style="fill: #d3d3d3; stroke: #d3d3d3"/>
     <use xlink:href="#ma728e75bbe" x="44.28" y="23.859732" style="fill: #d3d3d3; stroke: #d3d3d3"/>
     <use xlink:href="#ma728e75bbe" x="44.28" y="33.47188" style="fill: #d3d3d3; stroke: #d3d3d3"/>
    </g>
   </g>
   <g id="line2d_4">
    <path d="M 27.54 78.174698 
L 61.02 78.174698 
" clip-path="url(#pf1d4589779)" style="fill: none; stroke: #6a51a3; stroke-linecap: square"/>
   </g>
   <g id="PathCollection_1">
    <defs>
     <path id="mec13e2182b" d="M 0 3.535534 
C 0.937635 3.535534 1.836992 3.163008 2.5 2.5 
C 3.163008 1.836992 3.535534 0.937635 3.535534 0 
C 3.535534 -0.937635 3.163008 -1.836992 2.5 -2.5 
C 1.836992 -3.163008 0.937635 -3.535534 0 -3.535534 
C -0.937635 -3.535534 -1.836992 -3.163008 -2.5 -2.5 
C -3.163008 -1.836992 -3.535534 -0.937635 -3.535534 0 
C -3.535534 0.937635 -3.163008 1.836992 -2.5 2.5 
C -1.836992 3.163008 -0.937635 3.535534 0 3.535534 
z
" style="stroke: #6a51a3"/>
    </defs>
    <g clip-path="url(#pf1d4589779)">
     <use xlink:href="#mec13e2182b" x="44.28" y="57.94857" style="fill: #6a51a3; stroke: #6a51a3"/>
    </g>
   </g>
   <g id="matplotlib.axis_1">
    <g id="xtick_1">
     <g id="line2d_5">
      <defs>
       <path id="m1497170c5b" d="M 0 0 
L 0 3.5 
" style="stroke: #000000; stroke-width: 0.8"/>
      </defs>
      <g>
       <use xlink:href="#m1497170c5b" x="44.28" y="128.16" style="stroke: #000000; stroke-width: 0.8"/>
      </g>
     </g>
     <g id="text_1">
      <text style="font: 200 12px 'Calibri'; text-anchor: middle" x="44.28" y="143.3275" transform="rotate(-0, 44.28, 143.3275)">genePC1</text>
     </g>
    </g>
    <g id="text_2">
     <text style="font: 12px 'Calibri'; text-anchor: middle" x="44.28" y="157.62875" transform="rotate(-0, 44.28, 157.62875)">annotation</text>
    </g>
   </g>
   <g id="matplotlib.axis_2">
    <g id="ytick_1">
     <g id="line2d_6">
      <defs>
       <path id="m65a1ae1291" d="M 0 0 
L -3.5 0 
" style="stroke: #000000; stroke-width: 0.8"/>
      </defs>
      <g>
       <use xlink:href="#m65a1ae1291" x="10.8" y="104.159496" style="stroke: #000000; stroke-width: 0.8"/>
      </g>
     </g>
     <g id="text_3">
      <text style="font: 200 12px 'Calibri'; text-anchor: end" x="3.8" y="108.243246" transform="rotate(-0, 3.8, 108.243246)">0.00</text>
     </g>
    </g>
    <g id="ytick_2">
     <g id="line2d_7">
      <g>
       <use xlink:href="#m65a1ae1291" x="10.8" y="65.219643" style="stroke: #000000; stroke-width: 0.8"/>
      </g>
     </g>
     <g id="text_4">
      <text style="font: 200 12px 'Calibri'; text-anchor: end" x="3.8" y="69.303393" transform="rotate(-0, 3.8, 69.303393)">0.05</text>
     </g>
    </g>
    <g id="ytick_3">
     <g id="line2d_8">
      <g>
       <use xlink:href="#m65a1ae1291" x="10.8" y="26.27979" style="stroke: #000000; stroke-width: 0.8"/>
      </g>
     </g>
     <g id="text_5">
      <text style="font: 200 12px 'Calibri'; text-anchor: end" x="3.8" y="30.36354" transform="rotate(-0, 3.8, 30.36354)">0.10</text>
     </g>
    </g>
    <g id="text_6">
     <text style="font: 12px 'Calibri'; text-anchor: middle" x="-23.5175" y="72.72" transform="rotate(-90, -23.5175, 72.72)">assortativity</text>
    </g>
   </g>
   <g id="patch_4">
    <path d="M 10.8 128.16 
L 10.8 17.28 
" style="fill: none; stroke: #000000; stroke-width: 0.8; stroke-linejoin: miter; stroke-linecap: square"/>
   </g>
   <g id="patch_5">
    <path d="M 10.8 128.16 
L 77.76 128.16 
" style="fill: none; stroke: #000000; stroke-width: 0.8; stroke-linejoin: miter; stroke-linecap: square"/>
   </g>
  </g>
 </g>
 <defs>
  <clipPath id="pf1d4589779">
   <rect x="10.8" y="17.28" width="66.96" height="110.88"/>
  </clipPath>
 </defs>
</svg>
