<?xml version="1.0" encoding="utf-8" standalone="no"?>
<!DOCTYPE svg PUBLIC "-//W3C//DTD SVG 1.1//EN"
  "http://www.w3.org/Graphics/SVG/1.1/DTD/svg11.dtd">
<svg xmlns:xlink="http://www.w3.org/1999/xlink" width="86.4pt" height="144pt" viewBox="0 0 86.4 144" xmlns="http://www.w3.org/2000/svg" version="1.1">
 <metadata>
  <rdf:RDF xmlns:dc="http://purl.org/dc/elements/1.1/" xmlns:cc="http://creativecommons.org/ns#" xmlns:rdf="http://www.w3.org/1999/02/22-rdf-syntax-ns#">
   <cc:Work>
    <dc:type rdf:resource="http://purl.org/dc/dcmitype/StillImage"/>
    <dc:date>2023-02-27T09:42:36.897171</dc:date>
    <dc:format>image/svg+xml</dc:format>
    <dc:creator>
     <cc:Agent>
      <dc:title>Matplotlib v3.6.2, https://matplotlib.org/</dc:title>
     </cc:Agent>
    </dc:creator>
   </cc:Work>
  </rdf:RDF>
 </metadata>
 <defs>
  <style type="text/css">*{stroke-linejoin: round; stroke-linecap: butt}</style>
 </defs>
 <g id="figure_1">
  <g id="patch_1">
   <path d="M 0 144 
L 86.4 144 
L 86.4 0 
L 0 0 
z
" style="fill: #ffffff"/>
  </g>
  <g id="axes_1">
   <g id="patch_2">
    <path d="M 10.8 128.16 
L 77.76 128.16 
L 77.76 17.28 
L 10.8 17.28 
z
" style="fill: #ffffff"/>
   </g>
   <g id="patch_3">
    <path d="M 27.54 89.318849 
L 61.02 89.318849 
L 61.02 67.24118 
L 27.54 67.24118 
L 27.54 89.318849 
z
" clip-path="url(#p10676789e3)" style="fill: #dadaeb; stroke: #6a51a3; stroke-linejoin: miter"/>
   </g>
   <g id="line2d_1">
    <path d="M 44.28 89.318849 
L 44.28 122.139211 
" clip-path="url(#p10676789e3)" style="fill: none; stroke: #6a51a3; stroke-linecap: square"/>
   </g>
   <g id="line2d_2">
    <path d="M 44.28 67.24118 
L 44.28 34.363725 
" clip-path="url(#p10676789e3)" style="fill: none; stroke: #6a51a3; stroke-linecap: square"/>
   </g>
   <g id="line2d_3">
    <defs>
     <path id="m0bd5aed66a" d="M -3 0 
L 3 0 
M 0 3 
L 0 -3 
" style="stroke: #d3d3d3"/>
    </defs>
    <g clip-path="url(#p10676789e3)">
     <use xlink:href="#m0bd5aed66a" x="44.28" y="123.12" style="fill: #d3d3d3; stroke: #d3d3d3"/>
     <use xlink:href="#m0bd5aed66a" x="44.28" y="31.727479" style="fill: #d3d3d3; stroke: #d3d3d3"/>
     <use xlink:href="#m0bd5aed66a" x="44.28" y="28.265036" style="fill: #d3d3d3; stroke: #d3d3d3"/>
     <use xlink:href="#m0bd5aed66a" x="44.28" y="23.259585" style="fill: #d3d3d3; stroke: #d3d3d3"/>
     <use xlink:href="#m0bd5aed66a" x="44.28" y="31.001191" style="fill: #d3d3d3; stroke: #d3d3d3"/>
     <use xlink:href="#m0bd5aed66a" x="44.28" y="29.342695" style="fill: #d3d3d3; stroke: #d3d3d3"/>
     <use xlink:href="#m0bd5aed66a" x="44.28" y="31.331976" style="fill: #d3d3d3; stroke: #d3d3d3"/>
     <use xlink:href="#m0bd5aed66a" x="44.28" y="33.323156" style="fill: #d3d3d3; stroke: #d3d3d3"/>
     <use xlink:href="#m0bd5aed66a" x="44.28" y="34.010856" style="fill: #d3d3d3; stroke: #d3d3d3"/>
     <use xlink:href="#m0bd5aed66a" x="44.28" y="25.281415" style="fill: #d3d3d3; stroke: #d3d3d3"/>
     <use xlink:href="#m0bd5aed66a" x="44.28" y="32.799786" style="fill: #d3d3d3; stroke: #d3d3d3"/>
     <use xlink:href="#m0bd5aed66a" x="44.28" y="33.605804" style="fill: #d3d3d3; stroke: #d3d3d3"/>
     <use xlink:href="#m0bd5aed66a" x="44.28" y="29.866838" style="fill: #d3d3d3; stroke: #d3d3d3"/>
     <use xlink:href="#m0bd5aed66a" x="44.28" y="31.356659" style="fill: #d3d3d3; stroke: #d3d3d3"/>
     <use xlink:href="#m0bd5aed66a" x="44.28" y="24.755305" style="fill: #d3d3d3; stroke: #d3d3d3"/>
     <use xlink:href="#m0bd5aed66a" x="44.28" y="27.115735" style="fill: #d3d3d3; stroke: #d3d3d3"/>
     <use xlink:href="#m0bd5aed66a" x="44.28" y="25.189385" style="fill: #d3d3d3; stroke: #d3d3d3"/>
     <use xlink:href="#m0bd5aed66a" x="44.28" y="31.545474" style="fill: #d3d3d3; stroke: #d3d3d3"/>
     <use xlink:href="#m0bd5aed66a" x="44.28" y="34.096582" style="fill: #d3d3d3; stroke: #d3d3d3"/>
     <use xlink:href="#m0bd5aed66a" x="44.28" y="30.724841" style="fill: #d3d3d3; stroke: #d3d3d3"/>
     <use xlink:href="#m0bd5aed66a" x="44.28" y="32.223193" style="fill: #d3d3d3; stroke: #d3d3d3"/>
     <use xlink:href="#m0bd5aed66a" x="44.28" y="33.787132" style="fill: #d3d3d3; stroke: #d3d3d3"/>
     <use xlink:href="#m0bd5aed66a" x="44.28" y="29.038863" style="fill: #d3d3d3; stroke: #d3d3d3"/>
     <use xlink:href="#m0bd5aed66a" x="44.28" y="31.830461" style="fill: #d3d3d3; stroke: #d3d3d3"/>
     <use xlink:href="#m0bd5aed66a" x="44.28" y="27.232794" style="fill: #d3d3d3; stroke: #d3d3d3"/>
     <use xlink:href="#m0bd5aed66a" x="44.28" y="22.32" style="fill: #d3d3d3; stroke: #d3d3d3"/>
     <use xlink:href="#m0bd5aed66a" x="44.28" y="32.930784" style="fill: #d3d3d3; stroke: #d3d3d3"/>
     <use xlink:href="#m0bd5aed66a" x="44.28" y="33.835957" style="fill: #d3d3d3; stroke: #d3d3d3"/>
     <use xlink:href="#m0bd5aed66a" x="44.28" y="32.52284" style="fill: #d3d3d3; stroke: #d3d3d3"/>
     <use xlink:href="#m0bd5aed66a" x="44.28" y="32.904678" style="fill: #d3d3d3; stroke: #d3d3d3"/>
    </g>
   </g>
   <g id="line2d_4">
    <path d="M 27.54 78.598769 
L 61.02 78.598769 
" clip-path="url(#p10676789e3)" style="fill: none; stroke: #6a51a3; stroke-linecap: square"/>
   </g>
   <g id="PathCollection_1">
    <defs>
     <path id="m37f7674c51" d="M 0 3.535534 
C 0.937635 3.535534 1.836992 3.163008 2.5 2.5 
C 3.163008 1.836992 3.535534 0.937635 3.535534 0 
C 3.535534 -0.937635 3.163008 -1.836992 2.5 -2.5 
C 1.836992 -3.163008 0.937635 -3.535534 0 -3.535534 
C -0.937635 -3.535534 -1.836992 -3.163008 -2.5 -2.5 
C -3.163008 -1.836992 -3.535534 -0.937635 -3.535534 0 
C -3.535534 0.937635 -3.163008 1.836992 -2.5 2.5 
C -1.836992 3.163008 -0.937635 3.535534 0 3.535534 
z
" style="stroke: #6a51a3"/>
    </defs>
    <g clip-path="url(#p10676789e3)">
     <use xlink:href="#m37f7674c51" x="44.28" y="58.576407" style="fill: #6a51a3; stroke: #6a51a3"/>
    </g>
   </g>
   <g id="matplotlib.axis_1">
    <g id="xtick_1">
     <g id="line2d_5">
      <defs>
       <path id="m2041776ae1" d="M 0 0 
L 0 3.5 
" style="stroke: #000000; stroke-width: 0.8"/>
      </defs>
      <g>
       <use xlink:href="#m2041776ae1" x="44.28" y="128.16" style="stroke: #000000; stroke-width: 0.8"/>
      </g>
     </g>
     <g id="text_1">
      <text style="font: 200 12px 'Calibri'; text-anchor: middle" x="44.28" y="143.3275" transform="rotate(-0 44.28 143.3275)">genePC1</text>
     </g>
    </g>
    <g id="text_2">
     <text style="font: 12px 'Calibri'; text-anchor: middle" x="44.28" y="157.62875" transform="rotate(-0 44.28 157.62875)">annotation</text>
    </g>
   </g>
   <g id="matplotlib.axis_2">
    <g id="ytick_1">
     <g id="line2d_6">
      <defs>
       <path id="m31e9e9c53f" d="M 0 0 
L -3.5 0 
" style="stroke: #000000; stroke-width: 0.8"/>
      </defs>
      <g>
       <use xlink:href="#m31e9e9c53f" x="10.8" y="104.508084" style="stroke: #000000; stroke-width: 0.8"/>
      </g>
     </g>
     <g id="text_3">
      <text style="font: 200 12px 'Calibri'; text-anchor: end" x="3.8" y="108.591834" transform="rotate(-0 3.8 108.591834)">0.00</text>
     </g>
    </g>
    <g id="ytick_2">
     <g id="line2d_7">
      <g>
       <use xlink:href="#m31e9e9c53f" x="10.8" y="65.803541" style="stroke: #000000; stroke-width: 0.8"/>
      </g>
     </g>
     <g id="text_4">
      <text style="font: 200 12px 'Calibri'; text-anchor: end" x="3.8" y="69.887291" transform="rotate(-0 3.8 69.887291)">0.05</text>
     </g>
    </g>
    <g id="ytick_3">
     <g id="line2d_8">
      <g>
       <use xlink:href="#m31e9e9c53f" x="10.8" y="27.098997" style="stroke: #000000; stroke-width: 0.8"/>
      </g>
     </g>
     <g id="text_5">
      <text style="font: 200 12px 'Calibri'; text-anchor: end" x="3.8" y="31.182747" transform="rotate(-0 3.8 31.182747)">0.10</text>
     </g>
    </g>
    <g id="text_6">
     <text style="font: 12px 'Calibri'; text-anchor: middle" x="-23.5175" y="72.72" transform="rotate(-90 -23.5175 72.72)">assortativity</text>
    </g>
   </g>
   <g id="patch_4">
    <path d="M 10.8 128.16 
L 10.8 17.28 
" style="fill: none; stroke: #000000; stroke-width: 0.8; stroke-linejoin: miter; stroke-linecap: square"/>
   </g>
   <g id="patch_5">
    <path d="M 10.8 128.16 
L 77.76 128.16 
" style="fill: none; stroke: #000000; stroke-width: 0.8; stroke-linejoin: miter; stroke-linecap: square"/>
   </g>
  </g>
 </g>
 <defs>
  <clipPath id="p10676789e3">
   <rect x="10.8" y="17.28" width="66.96" height="110.88"/>
  </clipPath>
 </defs>
</svg>
