<?xml version="1.0" encoding="utf-8" standalone="no"?>
<!DOCTYPE svg PUBLIC "-//W3C//DTD SVG 1.1//EN"
  "http://www.w3.org/Graphics/SVG/1.1/DTD/svg11.dtd">
<svg xmlns:xlink="http://www.w3.org/1999/xlink" width="280.8pt" height="129.6pt" viewBox="0 0 280.8 129.6" xmlns="http://www.w3.org/2000/svg" version="1.1">
 <metadata>
  <rdf:RDF xmlns:dc="http://purl.org/dc/elements/1.1/" xmlns:cc="http://creativecommons.org/ns#" xmlns:rdf="http://www.w3.org/1999/02/22-rdf-syntax-ns#">
   <cc:Work>
    <dc:type rdf:resource="http://purl.org/dc/dcmitype/StillImage"/>
    <dc:date>2023-02-27T09:50:59.861323</dc:date>
    <dc:format>image/svg+xml</dc:format>
    <dc:creator>
     <cc:Agent>
      <dc:title>Matplotlib v3.6.2, https://matplotlib.org/</dc:title>
     </cc:Agent>
    </dc:creator>
   </cc:Work>
  </rdf:RDF>
 </metadata>
 <defs>
  <style type="text/css">*{stroke-linejoin: round; stroke-linecap: butt}</style>
 </defs>
 <g id="figure_1">
  <g id="patch_1">
   <path d="M 0 129.6 
L 280.8 129.6 
L 280.8 0 
L 0 0 
z
" style="fill: #ffffff"/>
  </g>
  <g id="axes_1">
   <g id="patch_2">
    <path d="M 35.1 115.344 
L 252.72 115.344 
L 252.72 15.552 
L 35.1 15.552 
z
" style="fill: #ffffff"/>
   </g>
   <g id="line2d_1">
    <path d="M 242.828182 109.409171 
L 231.837273 102.618256 
L 220.846364 102.564758 
L 209.855455 106.036615 
L 198.864545 97.337194 
L 187.873636 90.472977 
L 176.882727 84.0001 
L 165.891818 78.709285 
L 154.900909 77.700142 
L 143.91 74.350993 
L 132.919091 66.704629 
L 121.928182 61.737044 
L 110.937273 52.896853 
L 99.946364 48.465065 
L 88.955455 43.757949 
L 77.964545 41.153416 
L 66.973636 38.431902 
L 55.982727 37.701918 
L 44.991818 35.604065 
" clip-path="url(#p3c29c48028)" style="fill: none; stroke: #f5cdf5; stroke-width: 1.5; stroke-linecap: square"/>
   </g>
   <g id="line2d_2">
    <path d="M 242.828182 82.051114 
L 231.837273 80.381003 
L 220.846364 67.296301 
L 209.855455 59.696687 
L 198.864545 66.176203 
L 187.873636 66.013308 
L 176.882727 67.094098 
L 165.891818 68.357919 
L 154.900909 68.162429 
L 143.91 70.701171 
L 132.919091 73.708182 
L 121.928182 71.337003 
L 110.937273 65.440622 
L 99.946364 63.776712 
L 88.955455 66.321378 
L 77.964545 62.11825 
L 66.973636 64.685704 
L 55.982727 67.7439 
L 44.991818 73.211606 
" clip-path="url(#p3c29c48028)" style="fill: none; stroke: #caf8f8; stroke-width: 1.5; stroke-linecap: square"/>
   </g>
   <g id="line2d_3">
    <path d="M 242.828182 110.808 
L 231.837273 106.475175 
L 220.846364 109.163328 
L 209.855455 108.551749 
L 198.864545 104.318614 
L 187.873636 106.899153 
L 176.882727 108.6672 
L 165.891818 106.423108 
L 154.900909 105.3274 
L 143.91 102.57545 
L 132.919091 86.841213 
L 121.928182 82.251883 
L 110.937273 78.714071 
L 99.946364 76.845297 
L 88.955455 65.906598 
L 77.964545 47.83843 
L 66.973636 20.088 
L 55.982727 23.405514 
L 44.991818 33.351809 
" clip-path="url(#p3c29c48028)" style="fill: none; stroke: #f8caca; stroke-width: 1.5; stroke-linecap: square"/>
   </g>
   <g id="PathCollection_1">
    <defs>
     <path id="C0_0_eca4fbdeff" d="M 0 1.581139 
C 0.419323 1.581139 0.821528 1.41454 1.118034 1.118034 
C 1.41454 0.821528 1.581139 0.419323 1.581139 -0 
C 1.581139 -0.419323 1.41454 -0.821528 1.118034 -1.118034 
C 0.821528 -1.41454 0.419323 -1.581139 0 -1.581139 
C -0.419323 -1.581139 -0.821528 -1.41454 -1.118034 -1.118034 
C -1.41454 -0.821528 -1.581139 -0.419323 -1.581139 0 
C -1.581139 0.419323 -1.41454 0.821528 -1.118034 1.118034 
C -0.821528 1.41454 -0.419323 1.581139 0 1.581139 
z
"/>
    </defs>
    <g clip-path="url(#p3c29c48028)">
     <use xlink:href="#C0_0_eca4fbdeff" x="242.828182" y="109.409171" style="fill: #f5cdf5; stroke: #f5cdf5"/>
    </g>
    <g clip-path="url(#p3c29c48028)">
     <use xlink:href="#C0_0_eca4fbdeff" x="231.837273" y="102.618256" style="fill: #f5cdf5; stroke: #f5cdf5"/>
    </g>
    <g clip-path="url(#p3c29c48028)">
     <use xlink:href="#C0_0_eca4fbdeff" x="220.846364" y="102.564758" style="fill: #f5cdf5; stroke: #f5cdf5"/>
    </g>
    <g clip-path="url(#p3c29c48028)">
     <use xlink:href="#C0_0_eca4fbdeff" x="209.855455" y="106.036615" style="fill: #f5cdf5; stroke: #f5cdf5"/>
    </g>
    <g clip-path="url(#p3c29c48028)">
     <use xlink:href="#C0_0_eca4fbdeff" x="198.864545" y="97.337194" style="fill: #f5cdf5; stroke: #f5cdf5"/>
    </g>
    <g clip-path="url(#p3c29c48028)">
     <use xlink:href="#C0_0_eca4fbdeff" x="187.873636" y="90.472977" style="fill: #f5cdf5; stroke: #f5cdf5"/>
    </g>
    <g clip-path="url(#p3c29c48028)">
     <use xlink:href="#C0_0_eca4fbdeff" x="176.882727" y="84.0001" style="fill: #f5cdf5; stroke: #f5cdf5"/>
    </g>
    <g clip-path="url(#p3c29c48028)">
     <use xlink:href="#C0_0_eca4fbdeff" x="165.891818" y="78.709285" style="fill: #f5cdf5; stroke: #f5cdf5"/>
    </g>
    <g clip-path="url(#p3c29c48028)">
     <use xlink:href="#C0_0_eca4fbdeff" x="154.900909" y="77.700142" style="fill: #f5cdf5; stroke: #f5cdf5"/>
    </g>
    <g clip-path="url(#p3c29c48028)">
     <use xlink:href="#C0_0_eca4fbdeff" x="143.91" y="74.350993" style="fill: #f5cdf5; stroke: #f5cdf5"/>
    </g>
    <g clip-path="url(#p3c29c48028)">
     <use xlink:href="#C0_0_eca4fbdeff" x="132.919091" y="66.704629" style="fill: #f5cdf5; stroke: #f5cdf5"/>
    </g>
    <g clip-path="url(#p3c29c48028)">
     <use xlink:href="#C0_0_eca4fbdeff" x="121.928182" y="61.737044" style="fill: #f5cdf5; stroke: #f5cdf5"/>
    </g>
    <g clip-path="url(#p3c29c48028)">
     <use xlink:href="#C0_0_eca4fbdeff" x="110.937273" y="52.896853" style="fill: #c828c6; stroke: #c828c6"/>
    </g>
    <g clip-path="url(#p3c29c48028)">
     <use xlink:href="#C0_0_eca4fbdeff" x="99.946364" y="48.465065" style="fill: #c828c6; stroke: #c828c6"/>
    </g>
    <g clip-path="url(#p3c29c48028)">
     <use xlink:href="#C0_0_eca4fbdeff" x="88.955455" y="43.757949" style="fill: #c828c6; stroke: #c828c6"/>
    </g>
    <g clip-path="url(#p3c29c48028)">
     <use xlink:href="#C0_0_eca4fbdeff" x="77.964545" y="41.153416" style="fill: #c828c6; stroke: #c828c6"/>
    </g>
    <g clip-path="url(#p3c29c48028)">
     <use xlink:href="#C0_0_eca4fbdeff" x="66.973636" y="38.431902" style="fill: #c828c6; stroke: #c828c6"/>
    </g>
    <g clip-path="url(#p3c29c48028)">
     <use xlink:href="#C0_0_eca4fbdeff" x="55.982727" y="37.701918" style="fill: #c828c6; stroke: #c828c6"/>
    </g>
    <g clip-path="url(#p3c29c48028)">
     <use xlink:href="#C0_0_eca4fbdeff" x="44.991818" y="35.604065" style="fill: #c828c6; stroke: #c828c6"/>
    </g>
   </g>
   <g id="PathCollection_2">
    <defs>
     <path id="C1_0_b9c1dd2275" d="M 0 1.581139 
C 0.419323 1.581139 0.821528 1.41454 1.118034 1.118034 
C 1.41454 0.821528 1.581139 0.419323 1.581139 -0 
C 1.581139 -0.419323 1.41454 -0.821528 1.118034 -1.118034 
C 0.821528 -1.41454 0.419323 -1.581139 0 -1.581139 
C -0.419323 -1.581139 -0.821528 -1.41454 -1.118034 -1.118034 
C -1.41454 -0.821528 -1.581139 -0.419323 -1.581139 0 
C -1.581139 0.419323 -1.41454 0.821528 -1.118034 1.118034 
C -0.821528 1.41454 -0.419323 1.581139 0 1.581139 
z
"/>
    </defs>
    <g clip-path="url(#p3c29c48028)">
     <use xlink:href="#C1_0_b9c1dd2275" x="242.828182" y="82.051114" style="fill: #caf8f8; stroke: #caf8f8"/>
    </g>
    <g clip-path="url(#p3c29c48028)">
     <use xlink:href="#C1_0_b9c1dd2275" x="231.837273" y="80.381003" style="fill: #caf8f8; stroke: #caf8f8"/>
    </g>
    <g clip-path="url(#p3c29c48028)">
     <use xlink:href="#C1_0_b9c1dd2275" x="220.846364" y="67.296301" style="fill: #caf8f8; stroke: #caf8f8"/>
    </g>
    <g clip-path="url(#p3c29c48028)">
     <use xlink:href="#C1_0_b9c1dd2275" x="209.855455" y="59.696687" style="fill: #caf8f8; stroke: #caf8f8"/>
    </g>
    <g clip-path="url(#p3c29c48028)">
     <use xlink:href="#C1_0_b9c1dd2275" x="198.864545" y="66.176203" style="fill: #caf8f8; stroke: #caf8f8"/>
    </g>
    <g clip-path="url(#p3c29c48028)">
     <use xlink:href="#C1_0_b9c1dd2275" x="187.873636" y="66.013308" style="fill: #caf8f8; stroke: #caf8f8"/>
    </g>
    <g clip-path="url(#p3c29c48028)">
     <use xlink:href="#C1_0_b9c1dd2275" x="176.882727" y="67.094098" style="fill: #caf8f8; stroke: #caf8f8"/>
    </g>
    <g clip-path="url(#p3c29c48028)">
     <use xlink:href="#C1_0_b9c1dd2275" x="165.891818" y="68.357919" style="fill: #caf8f8; stroke: #caf8f8"/>
    </g>
    <g clip-path="url(#p3c29c48028)">
     <use xlink:href="#C1_0_b9c1dd2275" x="154.900909" y="68.162429" style="fill: #caf8f8; stroke: #caf8f8"/>
    </g>
    <g clip-path="url(#p3c29c48028)">
     <use xlink:href="#C1_0_b9c1dd2275" x="143.91" y="70.701171" style="fill: #caf8f8; stroke: #caf8f8"/>
    </g>
    <g clip-path="url(#p3c29c48028)">
     <use xlink:href="#C1_0_b9c1dd2275" x="132.919091" y="73.708182" style="fill: #caf8f8; stroke: #caf8f8"/>
    </g>
    <g clip-path="url(#p3c29c48028)">
     <use xlink:href="#C1_0_b9c1dd2275" x="121.928182" y="71.337003" style="fill: #caf8f8; stroke: #caf8f8"/>
    </g>
    <g clip-path="url(#p3c29c48028)">
     <use xlink:href="#C1_0_b9c1dd2275" x="110.937273" y="65.440622" style="fill: #caf8f8; stroke: #caf8f8"/>
    </g>
    <g clip-path="url(#p3c29c48028)">
     <use xlink:href="#C1_0_b9c1dd2275" x="99.946364" y="63.776712" style="fill: #caf8f8; stroke: #caf8f8"/>
    </g>
    <g clip-path="url(#p3c29c48028)">
     <use xlink:href="#C1_0_b9c1dd2275" x="88.955455" y="66.321378" style="fill: #caf8f8; stroke: #caf8f8"/>
    </g>
    <g clip-path="url(#p3c29c48028)">
     <use xlink:href="#C1_0_b9c1dd2275" x="77.964545" y="62.11825" style="fill: #caf8f8; stroke: #caf8f8"/>
    </g>
    <g clip-path="url(#p3c29c48028)">
     <use xlink:href="#C1_0_b9c1dd2275" x="66.973636" y="64.685704" style="fill: #caf8f8; stroke: #caf8f8"/>
    </g>
    <g clip-path="url(#p3c29c48028)">
     <use xlink:href="#C1_0_b9c1dd2275" x="55.982727" y="67.7439" style="fill: #caf8f8; stroke: #caf8f8"/>
    </g>
    <g clip-path="url(#p3c29c48028)">
     <use xlink:href="#C1_0_b9c1dd2275" x="44.991818" y="73.211606" style="fill: #caf8f8; stroke: #caf8f8"/>
    </g>
   </g>
   <g id="PathCollection_3">
    <defs>
     <path id="C2_0_5d9f769bcb" d="M 0 1.581139 
C 0.419323 1.581139 0.821528 1.41454 1.118034 1.118034 
C 1.41454 0.821528 1.581139 0.419323 1.581139 -0 
C 1.581139 -0.419323 1.41454 -0.821528 1.118034 -1.118034 
C 0.821528 -1.41454 0.419323 -1.581139 0 -1.581139 
C -0.419323 -1.581139 -0.821528 -1.41454 -1.118034 -1.118034 
C -1.41454 -0.821528 -1.581139 -0.419323 -1.581139 0 
C -1.581139 0.419323 -1.41454 0.821528 -1.118034 1.118034 
C -0.821528 1.41454 -0.419323 1.581139 0 1.581139 
z
"/>
    </defs>
    <g clip-path="url(#p3c29c48028)">
     <use xlink:href="#C2_0_5d9f769bcb" x="242.828182" y="110.808" style="fill: #f8caca; stroke: #f8caca"/>
    </g>
    <g clip-path="url(#p3c29c48028)">
     <use xlink:href="#C2_0_5d9f769bcb" x="231.837273" y="106.475175" style="fill: #f8caca; stroke: #f8caca"/>
    </g>
    <g clip-path="url(#p3c29c48028)">
     <use xlink:href="#C2_0_5d9f769bcb" x="220.846364" y="109.163328" style="fill: #f8caca; stroke: #f8caca"/>
    </g>
    <g clip-path="url(#p3c29c48028)">
     <use xlink:href="#C2_0_5d9f769bcb" x="209.855455" y="108.551749" style="fill: #f8caca; stroke: #f8caca"/>
    </g>
    <g clip-path="url(#p3c29c48028)">
     <use xlink:href="#C2_0_5d9f769bcb" x="198.864545" y="104.318614" style="fill: #f8caca; stroke: #f8caca"/>
    </g>
    <g clip-path="url(#p3c29c48028)">
     <use xlink:href="#C2_0_5d9f769bcb" x="187.873636" y="106.899153" style="fill: #f8caca; stroke: #f8caca"/>
    </g>
    <g clip-path="url(#p3c29c48028)">
     <use xlink:href="#C2_0_5d9f769bcb" x="176.882727" y="108.6672" style="fill: #f8caca; stroke: #f8caca"/>
    </g>
    <g clip-path="url(#p3c29c48028)">
     <use xlink:href="#C2_0_5d9f769bcb" x="165.891818" y="106.423108" style="fill: #f8caca; stroke: #f8caca"/>
    </g>
    <g clip-path="url(#p3c29c48028)">
     <use xlink:href="#C2_0_5d9f769bcb" x="154.900909" y="105.3274" style="fill: #f8caca; stroke: #f8caca"/>
    </g>
    <g clip-path="url(#p3c29c48028)">
     <use xlink:href="#C2_0_5d9f769bcb" x="143.91" y="102.57545" style="fill: #f8caca; stroke: #f8caca"/>
    </g>
    <g clip-path="url(#p3c29c48028)">
     <use xlink:href="#C2_0_5d9f769bcb" x="132.919091" y="86.841213" style="fill: #f8caca; stroke: #f8caca"/>
    </g>
    <g clip-path="url(#p3c29c48028)">
     <use xlink:href="#C2_0_5d9f769bcb" x="121.928182" y="82.251883" style="fill: #f8caca; stroke: #f8caca"/>
    </g>
    <g clip-path="url(#p3c29c48028)">
     <use xlink:href="#C2_0_5d9f769bcb" x="110.937273" y="78.714071" style="fill: #f8caca; stroke: #f8caca"/>
    </g>
    <g clip-path="url(#p3c29c48028)">
     <use xlink:href="#C2_0_5d9f769bcb" x="99.946364" y="76.845297" style="fill: #f8caca; stroke: #f8caca"/>
    </g>
    <g clip-path="url(#p3c29c48028)">
     <use xlink:href="#C2_0_5d9f769bcb" x="88.955455" y="65.906598" style="fill: #f8caca; stroke: #f8caca"/>
    </g>
    <g clip-path="url(#p3c29c48028)">
     <use xlink:href="#C2_0_5d9f769bcb" x="77.964545" y="47.83843" style="fill: #d61a1a; stroke: #d61a1a"/>
    </g>
    <g clip-path="url(#p3c29c48028)">
     <use xlink:href="#C2_0_5d9f769bcb" x="66.973636" y="20.088" style="fill: #d61a1a; stroke: #d61a1a"/>
    </g>
    <g clip-path="url(#p3c29c48028)">
     <use xlink:href="#C2_0_5d9f769bcb" x="55.982727" y="23.405514" style="fill: #d61a1a; stroke: #d61a1a"/>
    </g>
    <g clip-path="url(#p3c29c48028)">
     <use xlink:href="#C2_0_5d9f769bcb" x="44.991818" y="33.351809" style="fill: #d61a1a; stroke: #d61a1a"/>
    </g>
   </g>
   <g id="matplotlib.axis_1">
    <g id="xtick_1">
     <g id="line2d_4">
      <defs>
       <path id="mf8f04826d6" d="M 0 0 
L 0 3.5 
" style="stroke: #000000; stroke-width: 0.8"/>
      </defs>
      <g>
       <use xlink:href="#mf8f04826d6" x="55.982727" y="115.344" style="stroke: #000000; stroke-width: 0.8"/>
      </g>
     </g>
     <g id="text_1">
      <text style="font: 200 12px 'Calibri'; text-anchor: middle" x="55.982727" y="130.5115" transform="rotate(-0 55.982727 130.5115)">10</text>
     </g>
    </g>
    <g id="xtick_2">
     <g id="line2d_5">
      <g>
       <use xlink:href="#mf8f04826d6" x="77.964545" y="115.344" style="stroke: #000000; stroke-width: 0.8"/>
      </g>
     </g>
     <g id="text_2">
      <text style="font: 200 12px 'Calibri'; text-anchor: middle" x="77.964545" y="130.5115" transform="rotate(-0 77.964545 130.5115)">20</text>
     </g>
    </g>
    <g id="xtick_3">
     <g id="line2d_6">
      <g>
       <use xlink:href="#mf8f04826d6" x="99.946364" y="115.344" style="stroke: #000000; stroke-width: 0.8"/>
      </g>
     </g>
     <g id="text_3">
      <text style="font: 200 12px 'Calibri'; text-anchor: middle" x="99.946364" y="130.5115" transform="rotate(-0 99.946364 130.5115)">30</text>
     </g>
    </g>
    <g id="xtick_4">
     <g id="line2d_7">
      <g>
       <use xlink:href="#mf8f04826d6" x="121.928182" y="115.344" style="stroke: #000000; stroke-width: 0.8"/>
      </g>
     </g>
     <g id="text_4">
      <text style="font: 200 12px 'Calibri'; text-anchor: middle" x="121.928182" y="130.5115" transform="rotate(-0 121.928182 130.5115)">40</text>
     </g>
    </g>
    <g id="xtick_5">
     <g id="line2d_8">
      <g>
       <use xlink:href="#mf8f04826d6" x="143.91" y="115.344" style="stroke: #000000; stroke-width: 0.8"/>
      </g>
     </g>
     <g id="text_5">
      <text style="font: 200 12px 'Calibri'; text-anchor: middle" x="143.91" y="130.5115" transform="rotate(-0 143.91 130.5115)">50</text>
     </g>
    </g>
    <g id="xtick_6">
     <g id="line2d_9">
      <g>
       <use xlink:href="#mf8f04826d6" x="165.891818" y="115.344" style="stroke: #000000; stroke-width: 0.8"/>
      </g>
     </g>
     <g id="text_6">
      <text style="font: 200 12px 'Calibri'; text-anchor: middle" x="165.891818" y="130.5115" transform="rotate(-0 165.891818 130.5115)">60</text>
     </g>
    </g>
    <g id="xtick_7">
     <g id="line2d_10">
      <g>
       <use xlink:href="#mf8f04826d6" x="187.873636" y="115.344" style="stroke: #000000; stroke-width: 0.8"/>
      </g>
     </g>
     <g id="text_7">
      <text style="font: 200 12px 'Calibri'; text-anchor: middle" x="187.873636" y="130.5115" transform="rotate(-0 187.873636 130.5115)">70</text>
     </g>
    </g>
    <g id="xtick_8">
     <g id="line2d_11">
      <g>
       <use xlink:href="#mf8f04826d6" x="209.855455" y="115.344" style="stroke: #000000; stroke-width: 0.8"/>
      </g>
     </g>
     <g id="text_8">
      <text style="font: 200 12px 'Calibri'; text-anchor: middle" x="209.855455" y="130.5115" transform="rotate(-0 209.855455 130.5115)">80</text>
     </g>
    </g>
    <g id="xtick_9">
     <g id="line2d_12">
      <g>
       <use xlink:href="#mf8f04826d6" x="231.837273" y="115.344" style="stroke: #000000; stroke-width: 0.8"/>
      </g>
     </g>
     <g id="text_9">
      <text style="font: 200 12px 'Calibri'; text-anchor: middle" x="231.837273" y="130.5115" transform="rotate(-0 231.837273 130.5115)">90</text>
     </g>
    </g>
    <g id="xtick_10">
     <g id="line2d_13">
      <defs>
       <path id="m85342fdb30" d="M 0 0 
L 0 2 
" style="stroke: #000000; stroke-width: 0.6"/>
      </defs>
      <g>
       <use xlink:href="#m85342fdb30" x="44.991818" y="115.344" style="stroke: #000000; stroke-width: 0.6"/>
      </g>
     </g>
    </g>
    <g id="xtick_11">
     <g id="line2d_14">
      <g>
       <use xlink:href="#m85342fdb30" x="66.973636" y="115.344" style="stroke: #000000; stroke-width: 0.6"/>
      </g>
     </g>
    </g>
    <g id="xtick_12">
     <g id="line2d_15">
      <g>
       <use xlink:href="#m85342fdb30" x="88.955455" y="115.344" style="stroke: #000000; stroke-width: 0.6"/>
      </g>
     </g>
    </g>
    <g id="xtick_13">
     <g id="line2d_16">
      <g>
       <use xlink:href="#m85342fdb30" x="110.937273" y="115.344" style="stroke: #000000; stroke-width: 0.6"/>
      </g>
     </g>
    </g>
    <g id="xtick_14">
     <g id="line2d_17">
      <g>
       <use xlink:href="#m85342fdb30" x="132.919091" y="115.344" style="stroke: #000000; stroke-width: 0.6"/>
      </g>
     </g>
    </g>
    <g id="xtick_15">
     <g id="line2d_18">
      <g>
       <use xlink:href="#m85342fdb30" x="154.900909" y="115.344" style="stroke: #000000; stroke-width: 0.6"/>
      </g>
     </g>
    </g>
    <g id="xtick_16">
     <g id="line2d_19">
      <g>
       <use xlink:href="#m85342fdb30" x="176.882727" y="115.344" style="stroke: #000000; stroke-width: 0.6"/>
      </g>
     </g>
    </g>
    <g id="xtick_17">
     <g id="line2d_20">
      <g>
       <use xlink:href="#m85342fdb30" x="198.864545" y="115.344" style="stroke: #000000; stroke-width: 0.6"/>
      </g>
     </g>
    </g>
    <g id="xtick_18">
     <g id="line2d_21">
      <g>
       <use xlink:href="#m85342fdb30" x="220.846364" y="115.344" style="stroke: #000000; stroke-width: 0.6"/>
      </g>
     </g>
    </g>
    <g id="xtick_19">
     <g id="line2d_22">
      <g>
       <use xlink:href="#m85342fdb30" x="242.828182" y="115.344" style="stroke: #000000; stroke-width: 0.6"/>
      </g>
     </g>
    </g>
   </g>
   <g id="matplotlib.axis_2">
    <g id="ytick_1">
     <g id="line2d_23">
      <defs>
       <path id="md600d4cc22" d="M 0 0 
L -3.5 0 
" style="stroke: #000000; stroke-width: 0.8"/>
      </defs>
      <g>
       <use xlink:href="#md600d4cc22" x="35.1" y="88.088873" style="stroke: #000000; stroke-width: 0.8"/>
      </g>
     </g>
     <g id="text_10">
      <text style="font: 200 12px 'Calibri'; text-anchor: end" x="28.1" y="92.172623" transform="rotate(-0 28.1 92.172623)">0</text>
     </g>
    </g>
    <g id="ytick_2">
     <g id="line2d_24">
      <g>
       <use xlink:href="#md600d4cc22" x="35.1" y="59.945266" style="stroke: #000000; stroke-width: 0.8"/>
      </g>
     </g>
     <g id="text_11">
      <text style="font: 200 12px 'Calibri'; text-anchor: end" x="28.1" y="64.029016" transform="rotate(-0 28.1 64.029016)">2</text>
     </g>
    </g>
    <g id="ytick_3">
     <g id="line2d_25">
      <g>
       <use xlink:href="#md600d4cc22" x="35.1" y="31.80166" style="stroke: #000000; stroke-width: 0.8"/>
      </g>
     </g>
     <g id="text_12">
      <text style="font: 200 12px 'Calibri'; text-anchor: end" x="28.1" y="35.88541" transform="rotate(-0 28.1 35.88541)">4</text>
     </g>
    </g>
   </g>
   <g id="line2d_26">
    <path d="M 242.828182 88.088873 
L 231.837273 88.088873 
L 220.846364 88.088873 
L 209.855455 88.088873 
L 198.864545 88.088873 
L 187.873636 88.088873 
L 176.882727 88.088873 
L 165.891818 88.088873 
L 154.900909 88.088873 
L 143.91 88.088873 
L 132.919091 88.088873 
L 121.928182 88.088873 
L 110.937273 88.088873 
L 99.946364 88.088873 
L 88.955455 88.088873 
L 77.964545 88.088873 
L 66.973636 88.088873 
L 55.982727 88.088873 
L 44.991818 88.088873 
" clip-path="url(#p3c29c48028)" style="fill: none; stroke-dasharray: 5.55,2.4; stroke-dashoffset: 0; stroke: #d3d3d3; stroke-width: 1.5"/>
   </g>
   <g id="line2d_27">
    <path d="M 242.828182 88.088873 
L 231.837273 88.088873 
L 220.846364 88.088873 
L 209.855455 88.088873 
L 198.864545 88.088873 
L 187.873636 88.088873 
L 176.882727 88.088873 
L 165.891818 88.088873 
L 154.900909 88.088873 
L 143.91 88.088873 
L 132.919091 88.088873 
L 121.928182 88.088873 
L 110.937273 88.088873 
L 99.946364 88.088873 
L 88.955455 88.088873 
L 77.964545 88.088873 
L 66.973636 88.088873 
L 55.982727 88.088873 
L 44.991818 88.088873 
" clip-path="url(#p3c29c48028)" style="fill: none; stroke-dasharray: 5.55,2.4; stroke-dashoffset: 0; stroke: #d3d3d3; stroke-width: 1.5"/>
   </g>
   <g id="line2d_28">
    <path d="M 242.828182 88.088873 
L 231.837273 88.088873 
L 220.846364 88.088873 
L 209.855455 88.088873 
L 198.864545 88.088873 
L 187.873636 88.088873 
L 176.882727 88.088873 
L 165.891818 88.088873 
L 154.900909 88.088873 
L 143.91 88.088873 
L 132.919091 88.088873 
L 121.928182 88.088873 
L 110.937273 88.088873 
L 99.946364 88.088873 
L 88.955455 88.088873 
L 77.964545 88.088873 
L 66.973636 88.088873 
L 55.982727 88.088873 
L 44.991818 88.088873 
" clip-path="url(#p3c29c48028)" style="fill: none; stroke-dasharray: 5.55,2.4; stroke-dashoffset: 0; stroke: #d3d3d3; stroke-width: 1.5"/>
   </g>
   <g id="patch_3">
    <path d="M 35.1 115.344 
L 35.1 15.552 
" style="fill: none; stroke: #000000; stroke-width: 0.8; stroke-linejoin: miter; stroke-linecap: square"/>
   </g>
   <g id="patch_4">
    <path d="M 35.1 115.344 
L 252.72 115.344 
" style="fill: none; stroke: #000000; stroke-width: 0.8; stroke-linejoin: miter; stroke-linecap: square"/>
   </g>
   <g id="legend_1">
    <g id="patch_5">
     <path d="M 146.754375 74.770125 
L 244.32 74.770125 
Q 246.72 74.770125 246.72 72.370125 
L 246.72 23.952 
Q 246.72 21.552 244.32 21.552 
L 146.754375 21.552 
Q 144.354375 21.552 144.354375 23.952 
L 144.354375 72.370125 
Q 144.354375 74.770125 146.754375 74.770125 
z
" style="fill: #ffffff; opacity: 0.8; stroke: #cccccc; stroke-linejoin: miter"/>
    </g>
    <g id="PathCollection_4">
     <path d="M 161.154375 33.183139 
C 161.573698 33.183139 161.975903 33.01654 162.272409 32.720034 
C 162.568915 32.423528 162.735514 32.021323 162.735514 31.602 
C 162.735514 31.182677 162.568915 30.780472 162.272409 30.483966 
C 161.975903 30.18746 161.573698 30.020861 161.154375 30.020861 
C 160.735052 30.020861 160.332847 30.18746 160.036341 30.483966 
C 159.739835 30.780472 159.573236 31.182677 159.573236 31.602 
C 159.573236 32.021323 159.739835 32.423528 160.036341 32.720034 
C 160.332847 33.01654 160.735052 33.183139 161.154375 33.183139 
z
" style="fill: #f5cdf5; stroke: #f5cdf5"/>
    </g>
    <g id="text_13">
     <text style="font: 200 12px 'Calibri'; text-anchor: start" x="182.754375" y="34.752" transform="rotate(-0 182.754375 34.752)">t1t2</text>
    </g>
    <g id="PathCollection_5">
     <path d="M 161.154375 49.722514 
C 161.573698 49.722514 161.975903 49.555915 162.272409 49.259409 
C 162.568915 48.962903 162.735514 48.560698 162.735514 48.141375 
C 162.735514 47.722052 162.568915 47.319847 162.272409 47.023341 
C 161.975903 46.726835 161.573698 46.560236 161.154375 46.560236 
C 160.735052 46.560236 160.332847 46.726835 160.036341 47.023341 
C 159.739835 47.319847 159.573236 47.722052 159.573236 48.141375 
C 159.573236 48.560698 159.739835 48.962903 160.036341 49.259409 
C 160.332847 49.555915 160.735052 49.722514 161.154375 49.722514 
z
" style="fill: #caf8f8; stroke: #caf8f8"/>
    </g>
    <g id="text_14">
     <text style="font: 200 12px 'Calibri'; text-anchor: start" x="182.754375" y="51.291375" transform="rotate(-0 182.754375 51.291375)">thi</text>
    </g>
    <g id="PathCollection_6">
     <path d="M 161.154375 66.261889 
C 161.573698 66.261889 161.975903 66.09529 162.272409 65.798784 
C 162.568915 65.502278 162.735514 65.100073 162.735514 64.68075 
C 162.735514 64.261427 162.568915 63.859222 162.272409 63.562716 
C 161.975903 63.26621 161.573698 63.099611 161.154375 63.099611 
C 160.735052 63.099611 160.332847 63.26621 160.036341 63.562716 
C 159.739835 63.859222 159.573236 64.261427 159.573236 64.68075 
C 159.573236 65.100073 159.739835 65.502278 160.036341 65.798784 
C 160.332847 66.09529 160.735052 66.261889 161.154375 66.261889 
z
" style="fill: #f8caca; stroke: #f8caca"/>
    </g>
    <g id="text_15">
     <text style="font: 200 12px 'Calibri'; text-anchor: start" x="182.754375" y="67.83075" transform="rotate(-0 182.754375 67.83075)">neuron_den</text>
    </g>
   </g>
  </g>
 </g>
 <defs>
  <clipPath id="p3c29c48028">
   <rect x="35.1" y="15.552" width="217.62" height="99.792"/>
  </clipPath>
 </defs>
</svg>
