<?xml version="1.0" encoding="utf-8" standalone="no"?>
<!DOCTYPE svg PUBLIC "-//W3C//DTD SVG 1.1//EN"
  "http://www.w3.org/Graphics/SVG/1.1/DTD/svg11.dtd">
<svg xmlns:xlink="http://www.w3.org/1999/xlink" width="280.8pt" height="129.6pt" viewBox="0 0 280.8 129.6" xmlns="http://www.w3.org/2000/svg" version="1.1">
 <metadata>
  <rdf:RDF xmlns:dc="http://purl.org/dc/elements/1.1/" xmlns:cc="http://creativecommons.org/ns#" xmlns:rdf="http://www.w3.org/1999/02/22-rdf-syntax-ns#">
   <cc:Work>
    <dc:type rdf:resource="http://purl.org/dc/dcmitype/StillImage"/>
    <dc:date>2022-05-27T23:39:53.962312</dc:date>
    <dc:format>image/svg+xml</dc:format>
    <dc:creator>
     <cc:Agent>
      <dc:title>Matplotlib v3.5.1, https://matplotlib.org/</dc:title>
     </cc:Agent>
    </dc:creator>
   </cc:Work>
  </rdf:RDF>
 </metadata>
 <defs>
  <style type="text/css">*{stroke-linejoin: round; stroke-linecap: butt}</style>
 </defs>
 <g id="figure_1">
  <g id="patch_1">
   <path d="M 0 129.6 
L 280.8 129.6 
L 280.8 0 
L 0 0 
z
" style="fill: #ffffff"/>
  </g>
  <g id="axes_1">
   <g id="patch_2">
    <path d="M 35.1 115.344 
L 252.72 115.344 
L 252.72 15.552 
L 35.1 15.552 
z
" style="fill: #ffffff"/>
   </g>
   <g id="line2d_1">
    <path d="M 242.828182 107.644867 
L 231.837273 110.808 
L 220.846364 110.503009 
L 209.855455 107.944898 
L 198.864545 107.790683 
L 187.873636 107.766679 
L 176.882727 106.496001 
L 165.891818 109.076572 
L 154.900909 104.92027 
L 143.91 103.522535 
L 132.919091 103.11786 
L 121.928182 93.745847 
L 110.937273 85.368024 
L 99.946364 73.828542 
L 88.955455 60.4429 
L 77.964545 48.860062 
L 66.973636 35.380391 
L 55.982727 24.010266 
L 44.991818 20.088 
" clip-path="url(#p794b4597db)" style="fill: none; stroke: #feeeba; stroke-width: 1.5; stroke-linecap: square"/>
   </g>
   <g id="PathCollection_1">
    <defs>
     <path id="C0_0_2b1f9c31be" d="M 0 1.581139 
C 0.419323 1.581139 0.821528 1.41454 1.118034 1.118034 
C 1.41454 0.821528 1.581139 0.419323 1.581139 -0 
C 1.581139 -0.419323 1.41454 -0.821528 1.118034 -1.118034 
C 0.821528 -1.41454 0.419323 -1.581139 0 -1.581139 
C -0.419323 -1.581139 -0.821528 -1.41454 -1.118034 -1.118034 
C -1.41454 -0.821528 -1.581139 -0.419323 -1.581139 0 
C -1.581139 0.419323 -1.41454 0.821528 -1.118034 1.118034 
C -0.821528 1.41454 -0.419323 1.581139 0 1.581139 
z
"/>
    </defs>
    <g clip-path="url(#p794b4597db)">
     <use xlink:href="#C0_0_2b1f9c31be" x="242.828182" y="107.644867" style="fill: #feeeba; stroke: #feeeba"/>
    </g>
    <g clip-path="url(#p794b4597db)">
     <use xlink:href="#C0_0_2b1f9c31be" x="231.837273" y="110.808" style="fill: #feeeba; stroke: #feeeba"/>
    </g>
    <g clip-path="url(#p794b4597db)">
     <use xlink:href="#C0_0_2b1f9c31be" x="220.846364" y="110.503009" style="fill: #feeeba; stroke: #feeeba"/>
    </g>
    <g clip-path="url(#p794b4597db)">
     <use xlink:href="#C0_0_2b1f9c31be" x="209.855455" y="107.944898" style="fill: #feeeba; stroke: #feeeba"/>
    </g>
    <g clip-path="url(#p794b4597db)">
     <use xlink:href="#C0_0_2b1f9c31be" x="198.864545" y="107.790683" style="fill: #feeeba; stroke: #feeeba"/>
    </g>
    <g clip-path="url(#p794b4597db)">
     <use xlink:href="#C0_0_2b1f9c31be" x="187.873636" y="107.766679" style="fill: #feeeba; stroke: #feeeba"/>
    </g>
    <g clip-path="url(#p794b4597db)">
     <use xlink:href="#C0_0_2b1f9c31be" x="176.882727" y="106.496001" style="fill: #feeeba; stroke: #feeeba"/>
    </g>
    <g clip-path="url(#p794b4597db)">
     <use xlink:href="#C0_0_2b1f9c31be" x="165.891818" y="109.076572" style="fill: #feeeba; stroke: #feeeba"/>
    </g>
    <g clip-path="url(#p794b4597db)">
     <use xlink:href="#C0_0_2b1f9c31be" x="154.900909" y="104.92027" style="fill: #feeeba; stroke: #feeeba"/>
    </g>
    <g clip-path="url(#p794b4597db)">
     <use xlink:href="#C0_0_2b1f9c31be" x="143.91" y="103.522535" style="fill: #feeeba; stroke: #feeeba"/>
    </g>
    <g clip-path="url(#p794b4597db)">
     <use xlink:href="#C0_0_2b1f9c31be" x="132.919091" y="103.11786" style="fill: #feeeba; stroke: #feeeba"/>
    </g>
    <g clip-path="url(#p794b4597db)">
     <use xlink:href="#C0_0_2b1f9c31be" x="121.928182" y="93.745847" style="fill: #feeeba; stroke: #feeeba"/>
    </g>
    <g clip-path="url(#p794b4597db)">
     <use xlink:href="#C0_0_2b1f9c31be" x="110.937273" y="85.368024" style="fill: #feeeba; stroke: #feeeba"/>
    </g>
    <g clip-path="url(#p794b4597db)">
     <use xlink:href="#C0_0_2b1f9c31be" x="99.946364" y="73.828542" style="fill: #feeeba; stroke: #feeeba"/>
    </g>
    <g clip-path="url(#p794b4597db)">
     <use xlink:href="#C0_0_2b1f9c31be" x="88.955455" y="60.4429" style="fill: #feeeba; stroke: #feeeba"/>
    </g>
    <g clip-path="url(#p794b4597db)">
     <use xlink:href="#C0_0_2b1f9c31be" x="77.964545" y="48.860062" style="fill: #feeeba; stroke: #feeeba"/>
    </g>
    <g clip-path="url(#p794b4597db)">
     <use xlink:href="#C0_0_2b1f9c31be" x="66.973636" y="35.380391" style="fill: #feeeba; stroke: #feeeba"/>
    </g>
    <g clip-path="url(#p794b4597db)">
     <use xlink:href="#C0_0_2b1f9c31be" x="55.982727" y="24.010266" style="fill: #feeeba; stroke: #feeeba"/>
    </g>
    <g clip-path="url(#p794b4597db)">
     <use xlink:href="#C0_0_2b1f9c31be" x="44.991818" y="20.088" style="fill: #feeeba; stroke: #feeeba"/>
    </g>
   </g>
   <g id="matplotlib.axis_1">
    <g id="xtick_1">
     <g id="line2d_2">
      <defs>
       <path id="m2fee38abba" d="M 0 0 
L 0 3.5 
" style="stroke: #000000; stroke-width: 0.8"/>
      </defs>
      <g>
       <use xlink:href="#m2fee38abba" x="55.982727" y="115.344" style="stroke: #000000; stroke-width: 0.8"/>
      </g>
     </g>
     <g id="text_1">
      <text style="font: 200 12px 'Calibri'; text-anchor: middle" x="55.982727" y="130.5115" transform="rotate(-0, 55.982727, 130.5115)">10</text>
     </g>
    </g>
    <g id="xtick_2">
     <g id="line2d_3">
      <g>
       <use xlink:href="#m2fee38abba" x="77.964545" y="115.344" style="stroke: #000000; stroke-width: 0.8"/>
      </g>
     </g>
     <g id="text_2">
      <text style="font: 200 12px 'Calibri'; text-anchor: middle" x="77.964545" y="130.5115" transform="rotate(-0, 77.964545, 130.5115)">20</text>
     </g>
    </g>
    <g id="xtick_3">
     <g id="line2d_4">
      <g>
       <use xlink:href="#m2fee38abba" x="99.946364" y="115.344" style="stroke: #000000; stroke-width: 0.8"/>
      </g>
     </g>
     <g id="text_3">
      <text style="font: 200 12px 'Calibri'; text-anchor: middle" x="99.946364" y="130.5115" transform="rotate(-0, 99.946364, 130.5115)">30</text>
     </g>
    </g>
    <g id="xtick_4">
     <g id="line2d_5">
      <g>
       <use xlink:href="#m2fee38abba" x="121.928182" y="115.344" style="stroke: #000000; stroke-width: 0.8"/>
      </g>
     </g>
     <g id="text_4">
      <text style="font: 200 12px 'Calibri'; text-anchor: middle" x="121.928182" y="130.5115" transform="rotate(-0, 121.928182, 130.5115)">40</text>
     </g>
    </g>
    <g id="xtick_5">
     <g id="line2d_6">
      <g>
       <use xlink:href="#m2fee38abba" x="143.91" y="115.344" style="stroke: #000000; stroke-width: 0.8"/>
      </g>
     </g>
     <g id="text_5">
      <text style="font: 200 12px 'Calibri'; text-anchor: middle" x="143.91" y="130.5115" transform="rotate(-0, 143.91, 130.5115)">50</text>
     </g>
    </g>
    <g id="xtick_6">
     <g id="line2d_7">
      <g>
       <use xlink:href="#m2fee38abba" x="165.891818" y="115.344" style="stroke: #000000; stroke-width: 0.8"/>
      </g>
     </g>
     <g id="text_6">
      <text style="font: 200 12px 'Calibri'; text-anchor: middle" x="165.891818" y="130.5115" transform="rotate(-0, 165.891818, 130.5115)">60</text>
     </g>
    </g>
    <g id="xtick_7">
     <g id="line2d_8">
      <g>
       <use xlink:href="#m2fee38abba" x="187.873636" y="115.344" style="stroke: #000000; stroke-width: 0.8"/>
      </g>
     </g>
     <g id="text_7">
      <text style="font: 200 12px 'Calibri'; text-anchor: middle" x="187.873636" y="130.5115" transform="rotate(-0, 187.873636, 130.5115)">70</text>
     </g>
    </g>
    <g id="xtick_8">
     <g id="line2d_9">
      <g>
       <use xlink:href="#m2fee38abba" x="209.855455" y="115.344" style="stroke: #000000; stroke-width: 0.8"/>
      </g>
     </g>
     <g id="text_8">
      <text style="font: 200 12px 'Calibri'; text-anchor: middle" x="209.855455" y="130.5115" transform="rotate(-0, 209.855455, 130.5115)">80</text>
     </g>
    </g>
    <g id="xtick_9">
     <g id="line2d_10">
      <g>
       <use xlink:href="#m2fee38abba" x="231.837273" y="115.344" style="stroke: #000000; stroke-width: 0.8"/>
      </g>
     </g>
     <g id="text_9">
      <text style="font: 200 12px 'Calibri'; text-anchor: middle" x="231.837273" y="130.5115" transform="rotate(-0, 231.837273, 130.5115)">90</text>
     </g>
    </g>
    <g id="xtick_10">
     <g id="line2d_11">
      <defs>
       <path id="m1a99b4103e" d="M 0 0 
L 0 2 
" style="stroke: #000000; stroke-width: 0.6"/>
      </defs>
      <g>
       <use xlink:href="#m1a99b4103e" x="44.991818" y="115.344" style="stroke: #000000; stroke-width: 0.6"/>
      </g>
     </g>
    </g>
    <g id="xtick_11">
     <g id="line2d_12">
      <g>
       <use xlink:href="#m1a99b4103e" x="66.973636" y="115.344" style="stroke: #000000; stroke-width: 0.6"/>
      </g>
     </g>
    </g>
    <g id="xtick_12">
     <g id="line2d_13">
      <g>
       <use xlink:href="#m1a99b4103e" x="88.955455" y="115.344" style="stroke: #000000; stroke-width: 0.6"/>
      </g>
     </g>
    </g>
    <g id="xtick_13">
     <g id="line2d_14">
      <g>
       <use xlink:href="#m1a99b4103e" x="110.937273" y="115.344" style="stroke: #000000; stroke-width: 0.6"/>
      </g>
     </g>
    </g>
    <g id="xtick_14">
     <g id="line2d_15">
      <g>
       <use xlink:href="#m1a99b4103e" x="132.919091" y="115.344" style="stroke: #000000; stroke-width: 0.6"/>
      </g>
     </g>
    </g>
    <g id="xtick_15">
     <g id="line2d_16">
      <g>
       <use xlink:href="#m1a99b4103e" x="154.900909" y="115.344" style="stroke: #000000; stroke-width: 0.6"/>
      </g>
     </g>
    </g>
    <g id="xtick_16">
     <g id="line2d_17">
      <g>
       <use xlink:href="#m1a99b4103e" x="176.882727" y="115.344" style="stroke: #000000; stroke-width: 0.6"/>
      </g>
     </g>
    </g>
    <g id="xtick_17">
     <g id="line2d_18">
      <g>
       <use xlink:href="#m1a99b4103e" x="198.864545" y="115.344" style="stroke: #000000; stroke-width: 0.6"/>
      </g>
     </g>
    </g>
    <g id="xtick_18">
     <g id="line2d_19">
      <g>
       <use xlink:href="#m1a99b4103e" x="220.846364" y="115.344" style="stroke: #000000; stroke-width: 0.6"/>
      </g>
     </g>
    </g>
    <g id="xtick_19">
     <g id="line2d_20">
      <g>
       <use xlink:href="#m1a99b4103e" x="242.828182" y="115.344" style="stroke: #000000; stroke-width: 0.6"/>
      </g>
     </g>
    </g>
   </g>
   <g id="matplotlib.axis_2">
    <g id="ytick_1">
     <g id="line2d_21">
      <defs>
       <path id="m1ae712e98c" d="M 0 0 
L -3.5 0 
" style="stroke: #000000; stroke-width: 0.8"/>
      </defs>
      <g>
       <use xlink:href="#m1ae712e98c" x="35.1" y="94.51092" style="stroke: #000000; stroke-width: 0.8"/>
      </g>
     </g>
     <g id="text_10">
      <text style="font: 200 12px 'Calibri'; text-anchor: end" x="28.1" y="98.59467" transform="rotate(-0, 28.1, 98.59467)">−1</text>
     </g>
    </g>
    <g id="ytick_2">
     <g id="line2d_22">
      <g>
       <use xlink:href="#m1ae712e98c" x="35.1" y="61.697706" style="stroke: #000000; stroke-width: 0.8"/>
      </g>
     </g>
     <g id="text_11">
      <text style="font: 200 12px 'Calibri'; text-anchor: end" x="28.1" y="65.781456" transform="rotate(-0, 28.1, 65.781456)">0</text>
     </g>
    </g>
    <g id="ytick_3">
     <g id="line2d_23">
      <g>
       <use xlink:href="#m1ae712e98c" x="35.1" y="28.884492" style="stroke: #000000; stroke-width: 0.8"/>
      </g>
     </g>
     <g id="text_12">
      <text style="font: 200 12px 'Calibri'; text-anchor: end" x="28.1" y="32.968242" transform="rotate(-0, 28.1, 32.968242)">1</text>
     </g>
    </g>
   </g>
   <g id="line2d_24">
    <path d="M 242.828182 61.697706 
L 231.837273 61.697706 
L 220.846364 61.697706 
L 209.855455 61.697706 
L 198.864545 61.697706 
L 187.873636 61.697706 
L 176.882727 61.697706 
L 165.891818 61.697706 
L 154.900909 61.697706 
L 143.91 61.697706 
L 132.919091 61.697706 
L 121.928182 61.697706 
L 110.937273 61.697706 
L 99.946364 61.697706 
L 88.955455 61.697706 
L 77.964545 61.697706 
L 66.973636 61.697706 
L 55.982727 61.697706 
L 44.991818 61.697706 
" clip-path="url(#p794b4597db)" style="fill: none; stroke-dasharray: 5.55,2.4; stroke-dashoffset: 0; stroke: #d3d3d3; stroke-width: 1.5"/>
   </g>
   <g id="patch_3">
    <path d="M 35.1 115.344 
L 35.1 15.552 
" style="fill: none; stroke: #000000; stroke-width: 0.8; stroke-linejoin: miter; stroke-linecap: square"/>
   </g>
   <g id="patch_4">
    <path d="M 35.1 115.344 
L 252.72 115.344 
" style="fill: none; stroke: #000000; stroke-width: 0.8; stroke-linejoin: miter; stroke-linecap: square"/>
   </g>
   <g id="legend_1">
    <g id="patch_5">
     <path d="M 163.69125 41.691375 
L 244.32 41.691375 
Q 246.72 41.691375 246.72 39.291375 
L 246.72 23.952 
Q 246.72 21.552 244.32 21.552 
L 163.69125 21.552 
Q 161.29125 21.552 161.29125 23.952 
L 161.29125 39.291375 
Q 161.29125 41.691375 163.69125 41.691375 
z
" style="fill: #ffffff; opacity: 0.8; stroke: #cccccc; stroke-linejoin: miter"/>
    </g>
    <g id="PathCollection_2">
     <path d="M 178.09125 33.183139 
C 178.510573 33.183139 178.912778 33.01654 179.209284 32.720034 
C 179.50579 32.423528 179.672389 32.021323 179.672389 31.602 
C 179.672389 31.182677 179.50579 30.780472 179.209284 30.483966 
C 178.912778 30.18746 178.510573 30.020861 178.09125 30.020861 
C 177.671927 30.020861 177.269722 30.18746 176.973216 30.483966 
C 176.67671 30.780472 176.510111 31.182677 176.510111 31.602 
C 176.510111 32.021323 176.67671 32.423528 176.973216 32.720034 
C 177.269722 33.01654 177.671927 33.183139 178.09125 33.183139 
z
" style="fill: #feeeba; stroke: #feeeba"/>
    </g>
    <g id="text_13">
     <text style="font: 200 12px 'Calibri'; text-anchor: start" x="199.69125" y="34.752" transform="rotate(-0, 199.69125, 34.752)">genePC1</text>
    </g>
   </g>
  </g>
 </g>
 <defs>
  <clipPath id="p794b4597db">
   <rect x="35.1" y="15.552" width="217.62" height="99.792"/>
  </clipPath>
 </defs>
</svg>
