<?xml version="1.0" encoding="utf-8" standalone="no"?>
<!DOCTYPE svg PUBLIC "-//W3C//DTD SVG 1.1//EN"
  "http://www.w3.org/Graphics/SVG/1.1/DTD/svg11.dtd">
<svg xmlns:xlink="http://www.w3.org/1999/xlink" width="280.8pt" height="129.6pt" viewBox="0 0 280.8 129.6" xmlns="http://www.w3.org/2000/svg" version="1.1">
 <metadata>
  <rdf:RDF xmlns:dc="http://purl.org/dc/elements/1.1/" xmlns:cc="http://creativecommons.org/ns#" xmlns:rdf="http://www.w3.org/1999/02/22-rdf-syntax-ns#">
   <cc:Work>
    <dc:type rdf:resource="http://purl.org/dc/dcmitype/StillImage"/>
    <dc:date>2022-05-27T23:39:53.268311</dc:date>
    <dc:format>image/svg+xml</dc:format>
    <dc:creator>
     <cc:Agent>
      <dc:title>Matplotlib v3.5.1, https://matplotlib.org/</dc:title>
     </cc:Agent>
    </dc:creator>
   </cc:Work>
  </rdf:RDF>
 </metadata>
 <defs>
  <style type="text/css">*{stroke-linejoin: round; stroke-linecap: butt}</style>
 </defs>
 <g id="figure_1">
  <g id="patch_1">
   <path d="M 0 129.6 
L 280.8 129.6 
L 280.8 0 
L 0 0 
z
" style="fill: #ffffff"/>
  </g>
  <g id="axes_1">
   <g id="patch_2">
    <path d="M 35.1 115.344 
L 252.72 115.344 
L 252.72 15.552 
L 35.1 15.552 
z
" style="fill: #ffffff"/>
   </g>
   <g id="line2d_1">
    <path d="M 242.828182 76.25774 
L 231.837273 82.767314 
L 220.846364 87.723414 
L 209.855455 91.965993 
L 198.864545 93.882199 
L 187.873636 87.695403 
L 176.882727 81.152931 
L 165.891818 73.349869 
L 154.900909 68.369575 
L 143.91 65.86472 
L 132.919091 63.442029 
L 121.928182 63.555302 
L 110.937273 61.042456 
L 99.946364 63.250536 
L 88.955455 61.593416 
L 77.964545 61.65847 
L 66.973636 60.171034 
L 55.982727 59.637308 
L 44.991818 62.568863 
" clip-path="url(#p25659f98cf)" style="fill: none; stroke: #cdf5cd; stroke-width: 1.5; stroke-linecap: square"/>
   </g>
   <g id="line2d_2">
    <path d="M 242.828182 88.32314 
L 231.837273 96.589217 
L 220.846364 101.896059 
L 209.855455 103.73683 
L 198.864545 104.286913 
L 187.873636 100.985778 
L 176.882727 94.0774 
L 165.891818 85.540372 
L 154.900909 79.731279 
L 143.91 77.759976 
L 132.919091 75.132333 
L 121.928182 72.187818 
L 110.937273 70.429851 
L 99.946364 69.352895 
L 88.955455 67.377201 
L 77.964545 65.803148 
L 66.973636 64.554481 
L 55.982727 63.643011 
L 44.991818 64.724801 
" clip-path="url(#p25659f98cf)" style="fill: none; stroke: #cacaf8; stroke-width: 1.5; stroke-linecap: square"/>
   </g>
   <g id="line2d_3">
    <path d="M 242.828182 95.101758 
L 231.837273 99.664323 
L 220.846364 103.549574 
L 209.855455 107.955947 
L 198.864545 110.808 
L 187.873636 109.680289 
L 176.882727 107.434634 
L 165.891818 102.966432 
L 154.900909 98.690439 
L 143.91 96.834996 
L 132.919091 95.016279 
L 121.928182 93.628407 
L 110.937273 90.755595 
L 99.946364 89.377031 
L 88.955455 87.961559 
L 77.964545 85.346174 
L 66.973636 84.346717 
L 55.982727 83.168589 
L 44.991818 85.206575 
" clip-path="url(#p25659f98cf)" style="fill: none; stroke: #feeeba; stroke-width: 1.5; stroke-linecap: square"/>
   </g>
   <g id="line2d_4">
    <path d="M 242.828182 103.09271 
L 231.837273 100.171908 
L 220.846364 98.889183 
L 209.855455 96.503308 
L 198.864545 91.022188 
L 187.873636 83.099111 
L 176.882727 74.029829 
L 165.891818 63.161635 
L 154.900909 54.608568 
L 143.91 49.457901 
L 132.919091 42.753102 
L 121.928182 38.348899 
L 110.937273 34.370855 
L 99.946364 31.291104 
L 88.955455 27.516751 
L 77.964545 24.493833 
L 66.973636 22.218183 
L 55.982727 20.088 
L 44.991818 21.097594 
" clip-path="url(#p25659f98cf)" style="fill: none; stroke: #f5cdf5; stroke-width: 1.5; stroke-linecap: square"/>
   </g>
   <g id="line2d_5">
    <path d="M 242.828182 100.096497 
L 231.837273 98.543659 
L 220.846364 100.508165 
L 209.855455 100.784189 
L 198.864545 101.612593 
L 187.873636 98.527311 
L 176.882727 93.561493 
L 165.891818 87.641577 
L 154.900909 81.002716 
L 143.91 76.682032 
L 132.919091 73.419672 
L 121.928182 70.387531 
L 110.937273 66.274311 
L 99.946364 65.898122 
L 88.955455 63.112049 
L 77.964545 60.838222 
L 66.973636 58.254834 
L 55.982727 56.884093 
L 44.991818 57.116625 
" clip-path="url(#p25659f98cf)" style="fill: none; stroke: #caf8f8; stroke-width: 1.5; stroke-linecap: square"/>
   </g>
   <g id="PathCollection_1">
    <defs>
     <path id="C0_0_b6f3cb94e2" d="M 0 1.581139 
C 0.419323 1.581139 0.821528 1.41454 1.118034 1.118034 
C 1.41454 0.821528 1.581139 0.419323 1.581139 -0 
C 1.581139 -0.419323 1.41454 -0.821528 1.118034 -1.118034 
C 0.821528 -1.41454 0.419323 -1.581139 0 -1.581139 
C -0.419323 -1.581139 -0.821528 -1.41454 -1.118034 -1.118034 
C -1.41454 -0.821528 -1.581139 -0.419323 -1.581139 0 
C -1.581139 0.419323 -1.41454 0.821528 -1.118034 1.118034 
C -0.821528 1.41454 -0.419323 1.581139 0 1.581139 
z
"/>
    </defs>
    <g clip-path="url(#p25659f98cf)">
     <use xlink:href="#C0_0_b6f3cb94e2" x="242.828182" y="76.25774" style="fill: #cdf5cd; stroke: #cdf5cd"/>
    </g>
    <g clip-path="url(#p25659f98cf)">
     <use xlink:href="#C0_0_b6f3cb94e2" x="231.837273" y="82.767314" style="fill: #cdf5cd; stroke: #cdf5cd"/>
    </g>
    <g clip-path="url(#p25659f98cf)">
     <use xlink:href="#C0_0_b6f3cb94e2" x="220.846364" y="87.723414" style="fill: #cdf5cd; stroke: #cdf5cd"/>
    </g>
    <g clip-path="url(#p25659f98cf)">
     <use xlink:href="#C0_0_b6f3cb94e2" x="209.855455" y="91.965993" style="fill: #28c828; stroke: #28c828"/>
    </g>
    <g clip-path="url(#p25659f98cf)">
     <use xlink:href="#C0_0_b6f3cb94e2" x="198.864545" y="93.882199" style="fill: #28c828; stroke: #28c828"/>
    </g>
    <g clip-path="url(#p25659f98cf)">
     <use xlink:href="#C0_0_b6f3cb94e2" x="187.873636" y="87.695403" style="fill: #cdf5cd; stroke: #cdf5cd"/>
    </g>
    <g clip-path="url(#p25659f98cf)">
     <use xlink:href="#C0_0_b6f3cb94e2" x="176.882727" y="81.152931" style="fill: #cdf5cd; stroke: #cdf5cd"/>
    </g>
    <g clip-path="url(#p25659f98cf)">
     <use xlink:href="#C0_0_b6f3cb94e2" x="165.891818" y="73.349869" style="fill: #cdf5cd; stroke: #cdf5cd"/>
    </g>
    <g clip-path="url(#p25659f98cf)">
     <use xlink:href="#C0_0_b6f3cb94e2" x="154.900909" y="68.369575" style="fill: #cdf5cd; stroke: #cdf5cd"/>
    </g>
    <g clip-path="url(#p25659f98cf)">
     <use xlink:href="#C0_0_b6f3cb94e2" x="143.91" y="65.86472" style="fill: #cdf5cd; stroke: #cdf5cd"/>
    </g>
    <g clip-path="url(#p25659f98cf)">
     <use xlink:href="#C0_0_b6f3cb94e2" x="132.919091" y="63.442029" style="fill: #cdf5cd; stroke: #cdf5cd"/>
    </g>
    <g clip-path="url(#p25659f98cf)">
     <use xlink:href="#C0_0_b6f3cb94e2" x="121.928182" y="63.555302" style="fill: #cdf5cd; stroke: #cdf5cd"/>
    </g>
    <g clip-path="url(#p25659f98cf)">
     <use xlink:href="#C0_0_b6f3cb94e2" x="110.937273" y="61.042456" style="fill: #cdf5cd; stroke: #cdf5cd"/>
    </g>
    <g clip-path="url(#p25659f98cf)">
     <use xlink:href="#C0_0_b6f3cb94e2" x="99.946364" y="63.250536" style="fill: #cdf5cd; stroke: #cdf5cd"/>
    </g>
    <g clip-path="url(#p25659f98cf)">
     <use xlink:href="#C0_0_b6f3cb94e2" x="88.955455" y="61.593416" style="fill: #cdf5cd; stroke: #cdf5cd"/>
    </g>
    <g clip-path="url(#p25659f98cf)">
     <use xlink:href="#C0_0_b6f3cb94e2" x="77.964545" y="61.65847" style="fill: #cdf5cd; stroke: #cdf5cd"/>
    </g>
    <g clip-path="url(#p25659f98cf)">
     <use xlink:href="#C0_0_b6f3cb94e2" x="66.973636" y="60.171034" style="fill: #cdf5cd; stroke: #cdf5cd"/>
    </g>
    <g clip-path="url(#p25659f98cf)">
     <use xlink:href="#C0_0_b6f3cb94e2" x="55.982727" y="59.637308" style="fill: #cdf5cd; stroke: #cdf5cd"/>
    </g>
    <g clip-path="url(#p25659f98cf)">
     <use xlink:href="#C0_0_b6f3cb94e2" x="44.991818" y="62.568863" style="fill: #cdf5cd; stroke: #cdf5cd"/>
    </g>
   </g>
   <g id="PathCollection_2">
    <defs>
     <path id="C1_0_f7382ab6cf" d="M 0 1.581139 
C 0.419323 1.581139 0.821528 1.41454 1.118034 1.118034 
C 1.41454 0.821528 1.581139 0.419323 1.581139 -0 
C 1.581139 -0.419323 1.41454 -0.821528 1.118034 -1.118034 
C 0.821528 -1.41454 0.419323 -1.581139 0 -1.581139 
C -0.419323 -1.581139 -0.821528 -1.41454 -1.118034 -1.118034 
C -1.41454 -0.821528 -1.581139 -0.419323 -1.581139 0 
C -1.581139 0.419323 -1.41454 0.821528 -1.118034 1.118034 
C -0.821528 1.41454 -0.419323 1.581139 0 1.581139 
z
"/>
    </defs>
    <g clip-path="url(#p25659f98cf)">
     <use xlink:href="#C1_0_f7382ab6cf" x="242.828182" y="88.32314" style="fill: #cacaf8; stroke: #cacaf8"/>
    </g>
    <g clip-path="url(#p25659f98cf)">
     <use xlink:href="#C1_0_f7382ab6cf" x="231.837273" y="96.589217" style="fill: #1a1ad6; stroke: #1a1ad6"/>
    </g>
    <g clip-path="url(#p25659f98cf)">
     <use xlink:href="#C1_0_f7382ab6cf" x="220.846364" y="101.896059" style="fill: #1a1ad6; stroke: #1a1ad6"/>
    </g>
    <g clip-path="url(#p25659f98cf)">
     <use xlink:href="#C1_0_f7382ab6cf" x="209.855455" y="103.73683" style="fill: #1a1ad6; stroke: #1a1ad6"/>
    </g>
    <g clip-path="url(#p25659f98cf)">
     <use xlink:href="#C1_0_f7382ab6cf" x="198.864545" y="104.286913" style="fill: #1a1ad6; stroke: #1a1ad6"/>
    </g>
    <g clip-path="url(#p25659f98cf)">
     <use xlink:href="#C1_0_f7382ab6cf" x="187.873636" y="100.985778" style="fill: #1a1ad6; stroke: #1a1ad6"/>
    </g>
    <g clip-path="url(#p25659f98cf)">
     <use xlink:href="#C1_0_f7382ab6cf" x="176.882727" y="94.0774" style="fill: #1a1ad6; stroke: #1a1ad6"/>
    </g>
    <g clip-path="url(#p25659f98cf)">
     <use xlink:href="#C1_0_f7382ab6cf" x="165.891818" y="85.540372" style="fill: #cacaf8; stroke: #cacaf8"/>
    </g>
    <g clip-path="url(#p25659f98cf)">
     <use xlink:href="#C1_0_f7382ab6cf" x="154.900909" y="79.731279" style="fill: #cacaf8; stroke: #cacaf8"/>
    </g>
    <g clip-path="url(#p25659f98cf)">
     <use xlink:href="#C1_0_f7382ab6cf" x="143.91" y="77.759976" style="fill: #cacaf8; stroke: #cacaf8"/>
    </g>
    <g clip-path="url(#p25659f98cf)">
     <use xlink:href="#C1_0_f7382ab6cf" x="132.919091" y="75.132333" style="fill: #cacaf8; stroke: #cacaf8"/>
    </g>
    <g clip-path="url(#p25659f98cf)">
     <use xlink:href="#C1_0_f7382ab6cf" x="121.928182" y="72.187818" style="fill: #cacaf8; stroke: #cacaf8"/>
    </g>
    <g clip-path="url(#p25659f98cf)">
     <use xlink:href="#C1_0_f7382ab6cf" x="110.937273" y="70.429851" style="fill: #cacaf8; stroke: #cacaf8"/>
    </g>
    <g clip-path="url(#p25659f98cf)">
     <use xlink:href="#C1_0_f7382ab6cf" x="99.946364" y="69.352895" style="fill: #cacaf8; stroke: #cacaf8"/>
    </g>
    <g clip-path="url(#p25659f98cf)">
     <use xlink:href="#C1_0_f7382ab6cf" x="88.955455" y="67.377201" style="fill: #cacaf8; stroke: #cacaf8"/>
    </g>
    <g clip-path="url(#p25659f98cf)">
     <use xlink:href="#C1_0_f7382ab6cf" x="77.964545" y="65.803148" style="fill: #cacaf8; stroke: #cacaf8"/>
    </g>
    <g clip-path="url(#p25659f98cf)">
     <use xlink:href="#C1_0_f7382ab6cf" x="66.973636" y="64.554481" style="fill: #cacaf8; stroke: #cacaf8"/>
    </g>
    <g clip-path="url(#p25659f98cf)">
     <use xlink:href="#C1_0_f7382ab6cf" x="55.982727" y="63.643011" style="fill: #cacaf8; stroke: #cacaf8"/>
    </g>
    <g clip-path="url(#p25659f98cf)">
     <use xlink:href="#C1_0_f7382ab6cf" x="44.991818" y="64.724801" style="fill: #cacaf8; stroke: #cacaf8"/>
    </g>
   </g>
   <g id="PathCollection_3">
    <defs>
     <path id="C2_0_2e1c0559da" d="M 0 1.581139 
C 0.419323 1.581139 0.821528 1.41454 1.118034 1.118034 
C 1.41454 0.821528 1.581139 0.419323 1.581139 -0 
C 1.581139 -0.419323 1.41454 -0.821528 1.118034 -1.118034 
C 0.821528 -1.41454 0.419323 -1.581139 0 -1.581139 
C -0.419323 -1.581139 -0.821528 -1.41454 -1.118034 -1.118034 
C -1.41454 -0.821528 -1.581139 -0.419323 -1.581139 0 
C -1.581139 0.419323 -1.41454 0.821528 -1.118034 1.118034 
C -0.821528 1.41454 -0.419323 1.581139 0 1.581139 
z
"/>
    </defs>
    <g clip-path="url(#p25659f98cf)">
     <use xlink:href="#C2_0_2e1c0559da" x="242.828182" y="95.101758" style="fill: #f2b701; stroke: #f2b701"/>
    </g>
    <g clip-path="url(#p25659f98cf)">
     <use xlink:href="#C2_0_2e1c0559da" x="231.837273" y="99.664323" style="fill: #f2b701; stroke: #f2b701"/>
    </g>
    <g clip-path="url(#p25659f98cf)">
     <use xlink:href="#C2_0_2e1c0559da" x="220.846364" y="103.549574" style="fill: #f2b701; stroke: #f2b701"/>
    </g>
    <g clip-path="url(#p25659f98cf)">
     <use xlink:href="#C2_0_2e1c0559da" x="209.855455" y="107.955947" style="fill: #f2b701; stroke: #f2b701"/>
    </g>
    <g clip-path="url(#p25659f98cf)">
     <use xlink:href="#C2_0_2e1c0559da" x="198.864545" y="110.808" style="fill: #f2b701; stroke: #f2b701"/>
    </g>
    <g clip-path="url(#p25659f98cf)">
     <use xlink:href="#C2_0_2e1c0559da" x="187.873636" y="109.680289" style="fill: #f2b701; stroke: #f2b701"/>
    </g>
    <g clip-path="url(#p25659f98cf)">
     <use xlink:href="#C2_0_2e1c0559da" x="176.882727" y="107.434634" style="fill: #f2b701; stroke: #f2b701"/>
    </g>
    <g clip-path="url(#p25659f98cf)">
     <use xlink:href="#C2_0_2e1c0559da" x="165.891818" y="102.966432" style="fill: #f2b701; stroke: #f2b701"/>
    </g>
    <g clip-path="url(#p25659f98cf)">
     <use xlink:href="#C2_0_2e1c0559da" x="154.900909" y="98.690439" style="fill: #f2b701; stroke: #f2b701"/>
    </g>
    <g clip-path="url(#p25659f98cf)">
     <use xlink:href="#C2_0_2e1c0559da" x="143.91" y="96.834996" style="fill: #f2b701; stroke: #f2b701"/>
    </g>
    <g clip-path="url(#p25659f98cf)">
     <use xlink:href="#C2_0_2e1c0559da" x="132.919091" y="95.016279" style="fill: #f2b701; stroke: #f2b701"/>
    </g>
    <g clip-path="url(#p25659f98cf)">
     <use xlink:href="#C2_0_2e1c0559da" x="121.928182" y="93.628407" style="fill: #f2b701; stroke: #f2b701"/>
    </g>
    <g clip-path="url(#p25659f98cf)">
     <use xlink:href="#C2_0_2e1c0559da" x="110.937273" y="90.755595" style="fill: #feeeba; stroke: #feeeba"/>
    </g>
    <g clip-path="url(#p25659f98cf)">
     <use xlink:href="#C2_0_2e1c0559da" x="99.946364" y="89.377031" style="fill: #feeeba; stroke: #feeeba"/>
    </g>
    <g clip-path="url(#p25659f98cf)">
     <use xlink:href="#C2_0_2e1c0559da" x="88.955455" y="87.961559" style="fill: #feeeba; stroke: #feeeba"/>
    </g>
    <g clip-path="url(#p25659f98cf)">
     <use xlink:href="#C2_0_2e1c0559da" x="77.964545" y="85.346174" style="fill: #feeeba; stroke: #feeeba"/>
    </g>
    <g clip-path="url(#p25659f98cf)">
     <use xlink:href="#C2_0_2e1c0559da" x="66.973636" y="84.346717" style="fill: #feeeba; stroke: #feeeba"/>
    </g>
    <g clip-path="url(#p25659f98cf)">
     <use xlink:href="#C2_0_2e1c0559da" x="55.982727" y="83.168589" style="fill: #feeeba; stroke: #feeeba"/>
    </g>
    <g clip-path="url(#p25659f98cf)">
     <use xlink:href="#C2_0_2e1c0559da" x="44.991818" y="85.206575" style="fill: #feeeba; stroke: #feeeba"/>
    </g>
   </g>
   <g id="PathCollection_4">
    <defs>
     <path id="C3_0_0702ecf5a2" d="M 0 1.581139 
C 0.419323 1.581139 0.821528 1.41454 1.118034 1.118034 
C 1.41454 0.821528 1.581139 0.419323 1.581139 -0 
C 1.581139 -0.419323 1.41454 -0.821528 1.118034 -1.118034 
C 0.821528 -1.41454 0.419323 -1.581139 0 -1.581139 
C -0.419323 -1.581139 -0.821528 -1.41454 -1.118034 -1.118034 
C -1.41454 -0.821528 -1.581139 -0.419323 -1.581139 0 
C -1.581139 0.419323 -1.41454 0.821528 -1.118034 1.118034 
C -0.821528 1.41454 -0.419323 1.581139 0 1.581139 
z
"/>
    </defs>
    <g clip-path="url(#p25659f98cf)">
     <use xlink:href="#C3_0_0702ecf5a2" x="242.828182" y="103.09271" style="fill: #c828c6; stroke: #c828c6"/>
    </g>
    <g clip-path="url(#p25659f98cf)">
     <use xlink:href="#C3_0_0702ecf5a2" x="231.837273" y="100.171908" style="fill: #c828c6; stroke: #c828c6"/>
    </g>
    <g clip-path="url(#p25659f98cf)">
     <use xlink:href="#C3_0_0702ecf5a2" x="220.846364" y="98.889183" style="fill: #c828c6; stroke: #c828c6"/>
    </g>
    <g clip-path="url(#p25659f98cf)">
     <use xlink:href="#C3_0_0702ecf5a2" x="209.855455" y="96.503308" style="fill: #c828c6; stroke: #c828c6"/>
    </g>
    <g clip-path="url(#p25659f98cf)">
     <use xlink:href="#C3_0_0702ecf5a2" x="198.864545" y="91.022188" style="fill: #c828c6; stroke: #c828c6"/>
    </g>
    <g clip-path="url(#p25659f98cf)">
     <use xlink:href="#C3_0_0702ecf5a2" x="187.873636" y="83.099111" style="fill: #f5cdf5; stroke: #f5cdf5"/>
    </g>
    <g clip-path="url(#p25659f98cf)">
     <use xlink:href="#C3_0_0702ecf5a2" x="176.882727" y="74.029829" style="fill: #f5cdf5; stroke: #f5cdf5"/>
    </g>
    <g clip-path="url(#p25659f98cf)">
     <use xlink:href="#C3_0_0702ecf5a2" x="165.891818" y="63.161635" style="fill: #f5cdf5; stroke: #f5cdf5"/>
    </g>
    <g clip-path="url(#p25659f98cf)">
     <use xlink:href="#C3_0_0702ecf5a2" x="154.900909" y="54.608568" style="fill: #f5cdf5; stroke: #f5cdf5"/>
    </g>
    <g clip-path="url(#p25659f98cf)">
     <use xlink:href="#C3_0_0702ecf5a2" x="143.91" y="49.457901" style="fill: #f5cdf5; stroke: #f5cdf5"/>
    </g>
    <g clip-path="url(#p25659f98cf)">
     <use xlink:href="#C3_0_0702ecf5a2" x="132.919091" y="42.753102" style="fill: #f5cdf5; stroke: #f5cdf5"/>
    </g>
    <g clip-path="url(#p25659f98cf)">
     <use xlink:href="#C3_0_0702ecf5a2" x="121.928182" y="38.348899" style="fill: #f5cdf5; stroke: #f5cdf5"/>
    </g>
    <g clip-path="url(#p25659f98cf)">
     <use xlink:href="#C3_0_0702ecf5a2" x="110.937273" y="34.370855" style="fill: #f5cdf5; stroke: #f5cdf5"/>
    </g>
    <g clip-path="url(#p25659f98cf)">
     <use xlink:href="#C3_0_0702ecf5a2" x="99.946364" y="31.291104" style="fill: #f5cdf5; stroke: #f5cdf5"/>
    </g>
    <g clip-path="url(#p25659f98cf)">
     <use xlink:href="#C3_0_0702ecf5a2" x="88.955455" y="27.516751" style="fill: #f5cdf5; stroke: #f5cdf5"/>
    </g>
    <g clip-path="url(#p25659f98cf)">
     <use xlink:href="#C3_0_0702ecf5a2" x="77.964545" y="24.493833" style="fill: #f5cdf5; stroke: #f5cdf5"/>
    </g>
    <g clip-path="url(#p25659f98cf)">
     <use xlink:href="#C3_0_0702ecf5a2" x="66.973636" y="22.218183" style="fill: #f5cdf5; stroke: #f5cdf5"/>
    </g>
    <g clip-path="url(#p25659f98cf)">
     <use xlink:href="#C3_0_0702ecf5a2" x="55.982727" y="20.088" style="fill: #c828c6; stroke: #c828c6"/>
    </g>
    <g clip-path="url(#p25659f98cf)">
     <use xlink:href="#C3_0_0702ecf5a2" x="44.991818" y="21.097594" style="fill: #c828c6; stroke: #c828c6"/>
    </g>
   </g>
   <g id="PathCollection_5">
    <defs>
     <path id="C4_0_2582da1526" d="M 0 1.581139 
C 0.419323 1.581139 0.821528 1.41454 1.118034 1.118034 
C 1.41454 0.821528 1.581139 0.419323 1.581139 -0 
C 1.581139 -0.419323 1.41454 -0.821528 1.118034 -1.118034 
C 0.821528 -1.41454 0.419323 -1.581139 0 -1.581139 
C -0.419323 -1.581139 -0.821528 -1.41454 -1.118034 -1.118034 
C -1.41454 -0.821528 -1.581139 -0.419323 -1.581139 0 
C -1.581139 0.419323 -1.41454 0.821528 -1.118034 1.118034 
C -0.821528 1.41454 -0.419323 1.581139 0 1.581139 
z
"/>
    </defs>
    <g clip-path="url(#p25659f98cf)">
     <use xlink:href="#C4_0_2582da1526" x="242.828182" y="100.096497" style="fill: #1ad6d4; stroke: #1ad6d4"/>
    </g>
    <g clip-path="url(#p25659f98cf)">
     <use xlink:href="#C4_0_2582da1526" x="231.837273" y="98.543659" style="fill: #1ad6d4; stroke: #1ad6d4"/>
    </g>
    <g clip-path="url(#p25659f98cf)">
     <use xlink:href="#C4_0_2582da1526" x="220.846364" y="100.508165" style="fill: #1ad6d4; stroke: #1ad6d4"/>
    </g>
    <g clip-path="url(#p25659f98cf)">
     <use xlink:href="#C4_0_2582da1526" x="209.855455" y="100.784189" style="fill: #1ad6d4; stroke: #1ad6d4"/>
    </g>
    <g clip-path="url(#p25659f98cf)">
     <use xlink:href="#C4_0_2582da1526" x="198.864545" y="101.612593" style="fill: #1ad6d4; stroke: #1ad6d4"/>
    </g>
    <g clip-path="url(#p25659f98cf)">
     <use xlink:href="#C4_0_2582da1526" x="187.873636" y="98.527311" style="fill: #1ad6d4; stroke: #1ad6d4"/>
    </g>
    <g clip-path="url(#p25659f98cf)">
     <use xlink:href="#C4_0_2582da1526" x="176.882727" y="93.561493" style="fill: #1ad6d4; stroke: #1ad6d4"/>
    </g>
    <g clip-path="url(#p25659f98cf)">
     <use xlink:href="#C4_0_2582da1526" x="165.891818" y="87.641577" style="fill: #caf8f8; stroke: #caf8f8"/>
    </g>
    <g clip-path="url(#p25659f98cf)">
     <use xlink:href="#C4_0_2582da1526" x="154.900909" y="81.002716" style="fill: #caf8f8; stroke: #caf8f8"/>
    </g>
    <g clip-path="url(#p25659f98cf)">
     <use xlink:href="#C4_0_2582da1526" x="143.91" y="76.682032" style="fill: #caf8f8; stroke: #caf8f8"/>
    </g>
    <g clip-path="url(#p25659f98cf)">
     <use xlink:href="#C4_0_2582da1526" x="132.919091" y="73.419672" style="fill: #caf8f8; stroke: #caf8f8"/>
    </g>
    <g clip-path="url(#p25659f98cf)">
     <use xlink:href="#C4_0_2582da1526" x="121.928182" y="70.387531" style="fill: #caf8f8; stroke: #caf8f8"/>
    </g>
    <g clip-path="url(#p25659f98cf)">
     <use xlink:href="#C4_0_2582da1526" x="110.937273" y="66.274311" style="fill: #caf8f8; stroke: #caf8f8"/>
    </g>
    <g clip-path="url(#p25659f98cf)">
     <use xlink:href="#C4_0_2582da1526" x="99.946364" y="65.898122" style="fill: #caf8f8; stroke: #caf8f8"/>
    </g>
    <g clip-path="url(#p25659f98cf)">
     <use xlink:href="#C4_0_2582da1526" x="88.955455" y="63.112049" style="fill: #caf8f8; stroke: #caf8f8"/>
    </g>
    <g clip-path="url(#p25659f98cf)">
     <use xlink:href="#C4_0_2582da1526" x="77.964545" y="60.838222" style="fill: #caf8f8; stroke: #caf8f8"/>
    </g>
    <g clip-path="url(#p25659f98cf)">
     <use xlink:href="#C4_0_2582da1526" x="66.973636" y="58.254834" style="fill: #caf8f8; stroke: #caf8f8"/>
    </g>
    <g clip-path="url(#p25659f98cf)">
     <use xlink:href="#C4_0_2582da1526" x="55.982727" y="56.884093" style="fill: #caf8f8; stroke: #caf8f8"/>
    </g>
    <g clip-path="url(#p25659f98cf)">
     <use xlink:href="#C4_0_2582da1526" x="44.991818" y="57.116625" style="fill: #caf8f8; stroke: #caf8f8"/>
    </g>
   </g>
   <g id="matplotlib.axis_1">
    <g id="xtick_1">
     <g id="line2d_6">
      <defs>
       <path id="mef067dc8e2" d="M 0 0 
L 0 3.5 
" style="stroke: #000000; stroke-width: 0.8"/>
      </defs>
      <g>
       <use xlink:href="#mef067dc8e2" x="55.982727" y="115.344" style="stroke: #000000; stroke-width: 0.8"/>
      </g>
     </g>
     <g id="text_1">
      <text style="font: 200 12px 'Calibri'; text-anchor: middle" x="55.982727" y="130.5115" transform="rotate(-0, 55.982727, 130.5115)">10</text>
     </g>
    </g>
    <g id="xtick_2">
     <g id="line2d_7">
      <g>
       <use xlink:href="#mef067dc8e2" x="77.964545" y="115.344" style="stroke: #000000; stroke-width: 0.8"/>
      </g>
     </g>
     <g id="text_2">
      <text style="font: 200 12px 'Calibri'; text-anchor: middle" x="77.964545" y="130.5115" transform="rotate(-0, 77.964545, 130.5115)">20</text>
     </g>
    </g>
    <g id="xtick_3">
     <g id="line2d_8">
      <g>
       <use xlink:href="#mef067dc8e2" x="99.946364" y="115.344" style="stroke: #000000; stroke-width: 0.8"/>
      </g>
     </g>
     <g id="text_3">
      <text style="font: 200 12px 'Calibri'; text-anchor: middle" x="99.946364" y="130.5115" transform="rotate(-0, 99.946364, 130.5115)">30</text>
     </g>
    </g>
    <g id="xtick_4">
     <g id="line2d_9">
      <g>
       <use xlink:href="#mef067dc8e2" x="121.928182" y="115.344" style="stroke: #000000; stroke-width: 0.8"/>
      </g>
     </g>
     <g id="text_4">
      <text style="font: 200 12px 'Calibri'; text-anchor: middle" x="121.928182" y="130.5115" transform="rotate(-0, 121.928182, 130.5115)">40</text>
     </g>
    </g>
    <g id="xtick_5">
     <g id="line2d_10">
      <g>
       <use xlink:href="#mef067dc8e2" x="143.91" y="115.344" style="stroke: #000000; stroke-width: 0.8"/>
      </g>
     </g>
     <g id="text_5">
      <text style="font: 200 12px 'Calibri'; text-anchor: middle" x="143.91" y="130.5115" transform="rotate(-0, 143.91, 130.5115)">50</text>
     </g>
    </g>
    <g id="xtick_6">
     <g id="line2d_11">
      <g>
       <use xlink:href="#mef067dc8e2" x="165.891818" y="115.344" style="stroke: #000000; stroke-width: 0.8"/>
      </g>
     </g>
     <g id="text_6">
      <text style="font: 200 12px 'Calibri'; text-anchor: middle" x="165.891818" y="130.5115" transform="rotate(-0, 165.891818, 130.5115)">60</text>
     </g>
    </g>
    <g id="xtick_7">
     <g id="line2d_12">
      <g>
       <use xlink:href="#mef067dc8e2" x="187.873636" y="115.344" style="stroke: #000000; stroke-width: 0.8"/>
      </g>
     </g>
     <g id="text_7">
      <text style="font: 200 12px 'Calibri'; text-anchor: middle" x="187.873636" y="130.5115" transform="rotate(-0, 187.873636, 130.5115)">70</text>
     </g>
    </g>
    <g id="xtick_8">
     <g id="line2d_13">
      <g>
       <use xlink:href="#mef067dc8e2" x="209.855455" y="115.344" style="stroke: #000000; stroke-width: 0.8"/>
      </g>
     </g>
     <g id="text_8">
      <text style="font: 200 12px 'Calibri'; text-anchor: middle" x="209.855455" y="130.5115" transform="rotate(-0, 209.855455, 130.5115)">80</text>
     </g>
    </g>
    <g id="xtick_9">
     <g id="line2d_14">
      <g>
       <use xlink:href="#mef067dc8e2" x="231.837273" y="115.344" style="stroke: #000000; stroke-width: 0.8"/>
      </g>
     </g>
     <g id="text_9">
      <text style="font: 200 12px 'Calibri'; text-anchor: middle" x="231.837273" y="130.5115" transform="rotate(-0, 231.837273, 130.5115)">90</text>
     </g>
    </g>
    <g id="xtick_10">
     <g id="line2d_15">
      <defs>
       <path id="m30cbe3448b" d="M 0 0 
L 0 2 
" style="stroke: #000000; stroke-width: 0.6"/>
      </defs>
      <g>
       <use xlink:href="#m30cbe3448b" x="44.991818" y="115.344" style="stroke: #000000; stroke-width: 0.6"/>
      </g>
     </g>
    </g>
    <g id="xtick_11">
     <g id="line2d_16">
      <g>
       <use xlink:href="#m30cbe3448b" x="66.973636" y="115.344" style="stroke: #000000; stroke-width: 0.6"/>
      </g>
     </g>
    </g>
    <g id="xtick_12">
     <g id="line2d_17">
      <g>
       <use xlink:href="#m30cbe3448b" x="88.955455" y="115.344" style="stroke: #000000; stroke-width: 0.6"/>
      </g>
     </g>
    </g>
    <g id="xtick_13">
     <g id="line2d_18">
      <g>
       <use xlink:href="#m30cbe3448b" x="110.937273" y="115.344" style="stroke: #000000; stroke-width: 0.6"/>
      </g>
     </g>
    </g>
    <g id="xtick_14">
     <g id="line2d_19">
      <g>
       <use xlink:href="#m30cbe3448b" x="132.919091" y="115.344" style="stroke: #000000; stroke-width: 0.6"/>
      </g>
     </g>
    </g>
    <g id="xtick_15">
     <g id="line2d_20">
      <g>
       <use xlink:href="#m30cbe3448b" x="154.900909" y="115.344" style="stroke: #000000; stroke-width: 0.6"/>
      </g>
     </g>
    </g>
    <g id="xtick_16">
     <g id="line2d_21">
      <g>
       <use xlink:href="#m30cbe3448b" x="176.882727" y="115.344" style="stroke: #000000; stroke-width: 0.6"/>
      </g>
     </g>
    </g>
    <g id="xtick_17">
     <g id="line2d_22">
      <g>
       <use xlink:href="#m30cbe3448b" x="198.864545" y="115.344" style="stroke: #000000; stroke-width: 0.6"/>
      </g>
     </g>
    </g>
    <g id="xtick_18">
     <g id="line2d_23">
      <g>
       <use xlink:href="#m30cbe3448b" x="220.846364" y="115.344" style="stroke: #000000; stroke-width: 0.6"/>
      </g>
     </g>
    </g>
    <g id="xtick_19">
     <g id="line2d_24">
      <g>
       <use xlink:href="#m30cbe3448b" x="242.828182" y="115.344" style="stroke: #000000; stroke-width: 0.6"/>
      </g>
     </g>
    </g>
   </g>
   <g id="matplotlib.axis_2">
    <g id="ytick_1">
     <g id="line2d_25">
      <defs>
       <path id="me40e2aa122" d="M 0 0 
L -3.5 0 
" style="stroke: #000000; stroke-width: 0.8"/>
      </defs>
      <g>
       <use xlink:href="#me40e2aa122" x="35.1" y="92.376318" style="stroke: #000000; stroke-width: 0.8"/>
      </g>
     </g>
     <g id="text_10">
      <text style="font: 200 12px 'Calibri'; text-anchor: end" x="28.1" y="96.460068" transform="rotate(-0, 28.1, 96.460068)">−2</text>
     </g>
    </g>
    <g id="ytick_2">
     <g id="line2d_26">
      <g>
       <use xlink:href="#me40e2aa122" x="35.1" y="56.278261" style="stroke: #000000; stroke-width: 0.8"/>
      </g>
     </g>
     <g id="text_11">
      <text style="font: 200 12px 'Calibri'; text-anchor: end" x="28.1" y="60.362011" transform="rotate(-0, 28.1, 60.362011)">0</text>
     </g>
    </g>
    <g id="ytick_3">
     <g id="line2d_27">
      <g>
       <use xlink:href="#me40e2aa122" x="35.1" y="20.180203" style="stroke: #000000; stroke-width: 0.8"/>
      </g>
     </g>
     <g id="text_12">
      <text style="font: 200 12px 'Calibri'; text-anchor: end" x="28.1" y="24.263953" transform="rotate(-0, 28.1, 24.263953)">2</text>
     </g>
    </g>
   </g>
   <g id="line2d_28">
    <path d="M 242.828182 56.278261 
L 231.837273 56.278261 
L 220.846364 56.278261 
L 209.855455 56.278261 
L 198.864545 56.278261 
L 187.873636 56.278261 
L 176.882727 56.278261 
L 165.891818 56.278261 
L 154.900909 56.278261 
L 143.91 56.278261 
L 132.919091 56.278261 
L 121.928182 56.278261 
L 110.937273 56.278261 
L 99.946364 56.278261 
L 88.955455 56.278261 
L 77.964545 56.278261 
L 66.973636 56.278261 
L 55.982727 56.278261 
L 44.991818 56.278261 
" clip-path="url(#p25659f98cf)" style="fill: none; stroke-dasharray: 5.55,2.4; stroke-dashoffset: 0; stroke: #d3d3d3; stroke-width: 1.5"/>
   </g>
   <g id="line2d_29">
    <path d="M 242.828182 56.278261 
L 231.837273 56.278261 
L 220.846364 56.278261 
L 209.855455 56.278261 
L 198.864545 56.278261 
L 187.873636 56.278261 
L 176.882727 56.278261 
L 165.891818 56.278261 
L 154.900909 56.278261 
L 143.91 56.278261 
L 132.919091 56.278261 
L 121.928182 56.278261 
L 110.937273 56.278261 
L 99.946364 56.278261 
L 88.955455 56.278261 
L 77.964545 56.278261 
L 66.973636 56.278261 
L 55.982727 56.278261 
L 44.991818 56.278261 
" clip-path="url(#p25659f98cf)" style="fill: none; stroke-dasharray: 5.55,2.4; stroke-dashoffset: 0; stroke: #d3d3d3; stroke-width: 1.5"/>
   </g>
   <g id="line2d_30">
    <path d="M 242.828182 56.278261 
L 231.837273 56.278261 
L 220.846364 56.278261 
L 209.855455 56.278261 
L 198.864545 56.278261 
L 187.873636 56.278261 
L 176.882727 56.278261 
L 165.891818 56.278261 
L 154.900909 56.278261 
L 143.91 56.278261 
L 132.919091 56.278261 
L 121.928182 56.278261 
L 110.937273 56.278261 
L 99.946364 56.278261 
L 88.955455 56.278261 
L 77.964545 56.278261 
L 66.973636 56.278261 
L 55.982727 56.278261 
L 44.991818 56.278261 
" clip-path="url(#p25659f98cf)" style="fill: none; stroke-dasharray: 5.55,2.4; stroke-dashoffset: 0; stroke: #d3d3d3; stroke-width: 1.5"/>
   </g>
   <g id="line2d_31">
    <path d="M 242.828182 56.278261 
L 231.837273 56.278261 
L 220.846364 56.278261 
L 209.855455 56.278261 
L 198.864545 56.278261 
L 187.873636 56.278261 
L 176.882727 56.278261 
L 165.891818 56.278261 
L 154.900909 56.278261 
L 143.91 56.278261 
L 132.919091 56.278261 
L 121.928182 56.278261 
L 110.937273 56.278261 
L 99.946364 56.278261 
L 88.955455 56.278261 
L 77.964545 56.278261 
L 66.973636 56.278261 
L 55.982727 56.278261 
L 44.991818 56.278261 
" clip-path="url(#p25659f98cf)" style="fill: none; stroke-dasharray: 5.55,2.4; stroke-dashoffset: 0; stroke: #d3d3d3; stroke-width: 1.5"/>
   </g>
   <g id="line2d_32">
    <path d="M 242.828182 56.278261 
L 231.837273 56.278261 
L 220.846364 56.278261 
L 209.855455 56.278261 
L 198.864545 56.278261 
L 187.873636 56.278261 
L 176.882727 56.278261 
L 165.891818 56.278261 
L 154.900909 56.278261 
L 143.91 56.278261 
L 132.919091 56.278261 
L 121.928182 56.278261 
L 110.937273 56.278261 
L 99.946364 56.278261 
L 88.955455 56.278261 
L 77.964545 56.278261 
L 66.973636 56.278261 
L 55.982727 56.278261 
L 44.991818 56.278261 
" clip-path="url(#p25659f98cf)" style="fill: none; stroke-dasharray: 5.55,2.4; stroke-dashoffset: 0; stroke: #d3d3d3; stroke-width: 1.5"/>
   </g>
   <g id="patch_3">
    <path d="M 35.1 115.344 
L 35.1 15.552 
" style="fill: none; stroke: #000000; stroke-width: 0.8; stroke-linejoin: miter; stroke-linecap: square"/>
   </g>
   <g id="patch_4">
    <path d="M 35.1 115.344 
L 252.72 115.344 
" style="fill: none; stroke: #000000; stroke-width: 0.8; stroke-linejoin: miter; stroke-linecap: square"/>
   </g>
   <g id="legend_1">
    <g id="patch_5">
     <path d="M 91.864688 109.344 
L 195.955313 109.344 
Q 198.355313 109.344 198.355313 106.944 
L 198.355313 25.447125 
Q 198.355313 23.047125 195.955313 23.047125 
L 91.864688 23.047125 
Q 89.464688 23.047125 89.464688 25.447125 
L 89.464688 106.944 
Q 89.464688 109.344 91.864688 109.344 
z
" style="fill: #ffffff; opacity: 0.8; stroke: #cccccc; stroke-linejoin: miter"/>
    </g>
    <g id="PathCollection_6">
     <path d="M 106.264688 34.678264 
C 106.68401 34.678264 107.086215 34.511665 107.382721 34.215159 
C 107.679228 33.918653 107.845826 33.516448 107.845826 33.097125 
C 107.845826 32.677802 107.679228 32.275597 107.382721 31.979091 
C 107.086215 31.682585 106.68401 31.515986 106.264688 31.515986 
C 105.845365 31.515986 105.44316 31.682585 105.146654 31.979091 
C 104.850147 32.275597 104.683549 32.677802 104.683549 33.097125 
C 104.683549 33.516448 104.850147 33.918653 105.146654 34.215159 
C 105.44316 34.511665 105.845365 34.678264 106.264688 34.678264 
z
" style="fill: #cdf5cd; stroke: #cdf5cd"/>
    </g>
    <g id="text_13">
     <text style="font: 200 12px 'Calibri'; text-anchor: start" x="127.864688" y="36.247125" transform="rotate(-0, 127.864688, 36.247125)">receptor_den</text>
    </g>
    <g id="PathCollection_7">
     <path d="M 106.264688 51.217639 
C 106.68401 51.217639 107.086215 51.05104 107.382721 50.754534 
C 107.679228 50.458028 107.845826 50.055823 107.845826 49.6365 
C 107.845826 49.217177 107.679228 48.814972 107.382721 48.518466 
C 107.086215 48.22196 106.68401 48.055361 106.264688 48.055361 
C 105.845365 48.055361 105.44316 48.22196 105.146654 48.518466 
C 104.850147 48.814972 104.683549 49.217177 104.683549 49.6365 
C 104.683549 50.055823 104.850147 50.458028 105.146654 50.754534 
C 105.44316 51.05104 105.845365 51.217639 106.264688 51.217639 
z
" style="fill: #cacaf8; stroke: #cacaf8"/>
    </g>
    <g id="text_14">
     <text style="font: 200 12px 'Calibri'; text-anchor: start" x="127.864688" y="52.7865" transform="rotate(-0, 127.864688, 52.7865)">EI_ratio</text>
    </g>
    <g id="PathCollection_8">
     <path d="M 106.264688 67.757014 
C 106.68401 67.757014 107.086215 67.590415 107.382721 67.293909 
C 107.679228 66.997403 107.845826 66.595198 107.845826 66.175875 
C 107.845826 65.756552 107.679228 65.354347 107.382721 65.057841 
C 107.086215 64.761335 106.68401 64.594736 106.264688 64.594736 
C 105.845365 64.594736 105.44316 64.761335 105.146654 65.057841 
C 104.850147 65.354347 104.683549 65.756552 104.683549 66.175875 
C 104.683549 66.595198 104.850147 66.997403 105.146654 67.293909 
C 105.44316 67.590415 105.845365 67.757014 106.264688 67.757014 
z
" style="fill: #f2b701; stroke: #f2b701"/>
    </g>
    <g id="text_15">
     <text style="font: 200 12px 'Calibri'; text-anchor: start" x="127.864688" y="69.325875" transform="rotate(-0, 127.864688, 69.325875)">genePC1</text>
    </g>
    <g id="PathCollection_9">
     <path d="M 106.264688 84.296389 
C 106.68401 84.296389 107.086215 84.12979 107.382721 83.833284 
C 107.679228 83.536778 107.845826 83.134573 107.845826 82.71525 
C 107.845826 82.295927 107.679228 81.893722 107.382721 81.597216 
C 107.086215 81.30071 106.68401 81.134111 106.264688 81.134111 
C 105.845365 81.134111 105.44316 81.30071 105.146654 81.597216 
C 104.850147 81.893722 104.683549 82.295927 104.683549 82.71525 
C 104.683549 83.134573 104.850147 83.536778 105.146654 83.833284 
C 105.44316 84.12979 105.845365 84.296389 106.264688 84.296389 
z
" style="fill: #c828c6; stroke: #c828c6"/>
    </g>
    <g id="text_16">
     <text style="font: 200 12px 'Calibri'; text-anchor: start" x="127.864688" y="85.86525" transform="rotate(-0, 127.864688, 85.86525)">t1t2</text>
    </g>
    <g id="PathCollection_10">
     <path d="M 106.264688 100.835764 
C 106.68401 100.835764 107.086215 100.669165 107.382721 100.372659 
C 107.679228 100.076153 107.845826 99.673948 107.845826 99.254625 
C 107.845826 98.835302 107.679228 98.433097 107.382721 98.136591 
C 107.086215 97.840085 106.68401 97.673486 106.264688 97.673486 
C 105.845365 97.673486 105.44316 97.840085 105.146654 98.136591 
C 104.850147 98.433097 104.683549 98.835302 104.683549 99.254625 
C 104.683549 99.673948 104.850147 100.076153 105.146654 100.372659 
C 105.44316 100.669165 105.845365 100.835764 106.264688 100.835764 
z
" style="fill: #1ad6d4; stroke: #1ad6d4"/>
    </g>
    <g id="text_17">
     <text style="font: 200 12px 'Calibri'; text-anchor: start" x="127.864688" y="102.404625" transform="rotate(-0, 127.864688, 102.404625)">thi</text>
    </g>
   </g>
  </g>
 </g>
 <defs>
  <clipPath id="p25659f98cf">
   <rect x="35.1" y="15.552" width="217.62" height="99.792"/>
  </clipPath>
 </defs>
</svg>
