<?xml version="1.0" encoding="utf-8" standalone="no"?>
<!DOCTYPE svg PUBLIC "-//W3C//DTD SVG 1.1//EN"
  "http://www.w3.org/Graphics/SVG/1.1/DTD/svg11.dtd">
<svg xmlns:xlink="http://www.w3.org/1999/xlink" width="280.8pt" height="129.6pt" viewBox="0 0 280.8 129.6" xmlns="http://www.w3.org/2000/svg" version="1.1">
 <metadata>
  <rdf:RDF xmlns:dc="http://purl.org/dc/elements/1.1/" xmlns:cc="http://creativecommons.org/ns#" xmlns:rdf="http://www.w3.org/1999/02/22-rdf-syntax-ns#">
   <cc:Work>
    <dc:type rdf:resource="http://purl.org/dc/dcmitype/StillImage"/>
    <dc:date>2022-05-27T23:39:53.767311</dc:date>
    <dc:format>image/svg+xml</dc:format>
    <dc:creator>
     <cc:Agent>
      <dc:title>Matplotlib v3.5.1, https://matplotlib.org/</dc:title>
     </cc:Agent>
    </dc:creator>
   </cc:Work>
  </rdf:RDF>
 </metadata>
 <defs>
  <style type="text/css">*{stroke-linejoin: round; stroke-linecap: butt}</style>
 </defs>
 <g id="figure_1">
  <g id="patch_1">
   <path d="M 0 129.6 
L 280.8 129.6 
L 280.8 0 
L 0 0 
z
" style="fill: #ffffff"/>
  </g>
  <g id="axes_1">
   <g id="patch_2">
    <path d="M 35.1 115.344 
L 252.72 115.344 
L 252.72 15.552 
L 35.1 15.552 
z
" style="fill: #ffffff"/>
   </g>
   <g id="line2d_1">
    <path d="M 242.828182 108.96271 
L 231.837273 102.465101 
L 220.846364 102.167345 
L 209.855455 105.940781 
L 198.864545 97.326662 
L 187.873636 90.639976 
L 176.882727 83.906068 
L 165.891818 79.017226 
L 154.900909 77.788968 
L 143.91 74.427641 
L 132.919091 67.129108 
L 121.928182 62.142343 
L 110.937273 53.24654 
L 99.946364 49.595093 
L 88.955455 44.625651 
L 77.964545 41.940696 
L 66.973636 38.90929 
L 55.982727 37.636422 
L 44.991818 37.396925 
" clip-path="url(#p0c0a072c16)" style="fill: none; stroke: #f5cdf5; stroke-width: 1.5; stroke-linecap: square"/>
   </g>
   <g id="line2d_2">
    <path d="M 242.828182 82.295779 
L 231.837273 80.337844 
L 220.846364 67.769459 
L 209.855455 59.730228 
L 198.864545 66.477675 
L 187.873636 66.390373 
L 176.882727 67.683458 
L 165.891818 68.876718 
L 154.900909 68.499416 
L 143.91 71.399883 
L 132.919091 73.679585 
L 121.928182 72.08847 
L 110.937273 65.971748 
L 99.946364 64.212245 
L 88.955455 66.714303 
L 77.964545 62.75675 
L 66.973636 65.04141 
L 55.982727 68.106946 
L 44.991818 73.255976 
" clip-path="url(#p0c0a072c16)" style="fill: none; stroke: #caf8f8; stroke-width: 1.5; stroke-linecap: square"/>
   </g>
   <g id="line2d_3">
    <path d="M 242.828182 110.808 
L 231.837273 106.674873 
L 220.846364 108.898653 
L 209.855455 108.138233 
L 198.864545 104.363498 
L 187.873636 107.10527 
L 176.882727 108.613598 
L 165.891818 106.208501 
L 154.900909 104.972412 
L 143.91 102.632729 
L 132.919091 86.81376 
L 121.928182 82.432396 
L 110.937273 78.96704 
L 99.946364 77.019672 
L 88.955455 66.090623 
L 77.964545 49.277693 
L 66.973636 20.088 
L 55.982727 22.924887 
L 44.991818 33.760649 
" clip-path="url(#p0c0a072c16)" style="fill: none; stroke: #f8caca; stroke-width: 1.5; stroke-linecap: square"/>
   </g>
   <g id="PathCollection_1">
    <defs>
     <path id="C0_0_c07fc6bc96" d="M 0 1.581139 
C 0.419323 1.581139 0.821528 1.41454 1.118034 1.118034 
C 1.41454 0.821528 1.581139 0.419323 1.581139 -0 
C 1.581139 -0.419323 1.41454 -0.821528 1.118034 -1.118034 
C 0.821528 -1.41454 0.419323 -1.581139 0 -1.581139 
C -0.419323 -1.581139 -0.821528 -1.41454 -1.118034 -1.118034 
C -1.41454 -0.821528 -1.581139 -0.419323 -1.581139 0 
C -1.581139 0.419323 -1.41454 0.821528 -1.118034 1.118034 
C -0.821528 1.41454 -0.419323 1.581139 0 1.581139 
z
"/>
    </defs>
    <g clip-path="url(#p0c0a072c16)">
     <use xlink:href="#C0_0_c07fc6bc96" x="242.828182" y="108.96271" style="fill: #f5cdf5; stroke: #f5cdf5"/>
    </g>
    <g clip-path="url(#p0c0a072c16)">
     <use xlink:href="#C0_0_c07fc6bc96" x="231.837273" y="102.465101" style="fill: #f5cdf5; stroke: #f5cdf5"/>
    </g>
    <g clip-path="url(#p0c0a072c16)">
     <use xlink:href="#C0_0_c07fc6bc96" x="220.846364" y="102.167345" style="fill: #f5cdf5; stroke: #f5cdf5"/>
    </g>
    <g clip-path="url(#p0c0a072c16)">
     <use xlink:href="#C0_0_c07fc6bc96" x="209.855455" y="105.940781" style="fill: #f5cdf5; stroke: #f5cdf5"/>
    </g>
    <g clip-path="url(#p0c0a072c16)">
     <use xlink:href="#C0_0_c07fc6bc96" x="198.864545" y="97.326662" style="fill: #f5cdf5; stroke: #f5cdf5"/>
    </g>
    <g clip-path="url(#p0c0a072c16)">
     <use xlink:href="#C0_0_c07fc6bc96" x="187.873636" y="90.639976" style="fill: #f5cdf5; stroke: #f5cdf5"/>
    </g>
    <g clip-path="url(#p0c0a072c16)">
     <use xlink:href="#C0_0_c07fc6bc96" x="176.882727" y="83.906068" style="fill: #f5cdf5; stroke: #f5cdf5"/>
    </g>
    <g clip-path="url(#p0c0a072c16)">
     <use xlink:href="#C0_0_c07fc6bc96" x="165.891818" y="79.017226" style="fill: #f5cdf5; stroke: #f5cdf5"/>
    </g>
    <g clip-path="url(#p0c0a072c16)">
     <use xlink:href="#C0_0_c07fc6bc96" x="154.900909" y="77.788968" style="fill: #f5cdf5; stroke: #f5cdf5"/>
    </g>
    <g clip-path="url(#p0c0a072c16)">
     <use xlink:href="#C0_0_c07fc6bc96" x="143.91" y="74.427641" style="fill: #f5cdf5; stroke: #f5cdf5"/>
    </g>
    <g clip-path="url(#p0c0a072c16)">
     <use xlink:href="#C0_0_c07fc6bc96" x="132.919091" y="67.129108" style="fill: #f5cdf5; stroke: #f5cdf5"/>
    </g>
    <g clip-path="url(#p0c0a072c16)">
     <use xlink:href="#C0_0_c07fc6bc96" x="121.928182" y="62.142343" style="fill: #c828c6; stroke: #c828c6"/>
    </g>
    <g clip-path="url(#p0c0a072c16)">
     <use xlink:href="#C0_0_c07fc6bc96" x="110.937273" y="53.24654" style="fill: #c828c6; stroke: #c828c6"/>
    </g>
    <g clip-path="url(#p0c0a072c16)">
     <use xlink:href="#C0_0_c07fc6bc96" x="99.946364" y="49.595093" style="fill: #c828c6; stroke: #c828c6"/>
    </g>
    <g clip-path="url(#p0c0a072c16)">
     <use xlink:href="#C0_0_c07fc6bc96" x="88.955455" y="44.625651" style="fill: #c828c6; stroke: #c828c6"/>
    </g>
    <g clip-path="url(#p0c0a072c16)">
     <use xlink:href="#C0_0_c07fc6bc96" x="77.964545" y="41.940696" style="fill: #c828c6; stroke: #c828c6"/>
    </g>
    <g clip-path="url(#p0c0a072c16)">
     <use xlink:href="#C0_0_c07fc6bc96" x="66.973636" y="38.90929" style="fill: #c828c6; stroke: #c828c6"/>
    </g>
    <g clip-path="url(#p0c0a072c16)">
     <use xlink:href="#C0_0_c07fc6bc96" x="55.982727" y="37.636422" style="fill: #c828c6; stroke: #c828c6"/>
    </g>
    <g clip-path="url(#p0c0a072c16)">
     <use xlink:href="#C0_0_c07fc6bc96" x="44.991818" y="37.396925" style="fill: #c828c6; stroke: #c828c6"/>
    </g>
   </g>
   <g id="PathCollection_2">
    <defs>
     <path id="C1_0_dc124365dc" d="M 0 1.581139 
C 0.419323 1.581139 0.821528 1.41454 1.118034 1.118034 
C 1.41454 0.821528 1.581139 0.419323 1.581139 -0 
C 1.581139 -0.419323 1.41454 -0.821528 1.118034 -1.118034 
C 0.821528 -1.41454 0.419323 -1.581139 0 -1.581139 
C -0.419323 -1.581139 -0.821528 -1.41454 -1.118034 -1.118034 
C -1.41454 -0.821528 -1.581139 -0.419323 -1.581139 0 
C -1.581139 0.419323 -1.41454 0.821528 -1.118034 1.118034 
C -0.821528 1.41454 -0.419323 1.581139 0 1.581139 
z
"/>
    </defs>
    <g clip-path="url(#p0c0a072c16)">
     <use xlink:href="#C1_0_dc124365dc" x="242.828182" y="82.295779" style="fill: #caf8f8; stroke: #caf8f8"/>
    </g>
    <g clip-path="url(#p0c0a072c16)">
     <use xlink:href="#C1_0_dc124365dc" x="231.837273" y="80.337844" style="fill: #caf8f8; stroke: #caf8f8"/>
    </g>
    <g clip-path="url(#p0c0a072c16)">
     <use xlink:href="#C1_0_dc124365dc" x="220.846364" y="67.769459" style="fill: #caf8f8; stroke: #caf8f8"/>
    </g>
    <g clip-path="url(#p0c0a072c16)">
     <use xlink:href="#C1_0_dc124365dc" x="209.855455" y="59.730228" style="fill: #1ad6d4; stroke: #1ad6d4"/>
    </g>
    <g clip-path="url(#p0c0a072c16)">
     <use xlink:href="#C1_0_dc124365dc" x="198.864545" y="66.477675" style="fill: #caf8f8; stroke: #caf8f8"/>
    </g>
    <g clip-path="url(#p0c0a072c16)">
     <use xlink:href="#C1_0_dc124365dc" x="187.873636" y="66.390373" style="fill: #caf8f8; stroke: #caf8f8"/>
    </g>
    <g clip-path="url(#p0c0a072c16)">
     <use xlink:href="#C1_0_dc124365dc" x="176.882727" y="67.683458" style="fill: #caf8f8; stroke: #caf8f8"/>
    </g>
    <g clip-path="url(#p0c0a072c16)">
     <use xlink:href="#C1_0_dc124365dc" x="165.891818" y="68.876718" style="fill: #caf8f8; stroke: #caf8f8"/>
    </g>
    <g clip-path="url(#p0c0a072c16)">
     <use xlink:href="#C1_0_dc124365dc" x="154.900909" y="68.499416" style="fill: #caf8f8; stroke: #caf8f8"/>
    </g>
    <g clip-path="url(#p0c0a072c16)">
     <use xlink:href="#C1_0_dc124365dc" x="143.91" y="71.399883" style="fill: #caf8f8; stroke: #caf8f8"/>
    </g>
    <g clip-path="url(#p0c0a072c16)">
     <use xlink:href="#C1_0_dc124365dc" x="132.919091" y="73.679585" style="fill: #caf8f8; stroke: #caf8f8"/>
    </g>
    <g clip-path="url(#p0c0a072c16)">
     <use xlink:href="#C1_0_dc124365dc" x="121.928182" y="72.08847" style="fill: #caf8f8; stroke: #caf8f8"/>
    </g>
    <g clip-path="url(#p0c0a072c16)">
     <use xlink:href="#C1_0_dc124365dc" x="110.937273" y="65.971748" style="fill: #caf8f8; stroke: #caf8f8"/>
    </g>
    <g clip-path="url(#p0c0a072c16)">
     <use xlink:href="#C1_0_dc124365dc" x="99.946364" y="64.212245" style="fill: #caf8f8; stroke: #caf8f8"/>
    </g>
    <g clip-path="url(#p0c0a072c16)">
     <use xlink:href="#C1_0_dc124365dc" x="88.955455" y="66.714303" style="fill: #caf8f8; stroke: #caf8f8"/>
    </g>
    <g clip-path="url(#p0c0a072c16)">
     <use xlink:href="#C1_0_dc124365dc" x="77.964545" y="62.75675" style="fill: #caf8f8; stroke: #caf8f8"/>
    </g>
    <g clip-path="url(#p0c0a072c16)">
     <use xlink:href="#C1_0_dc124365dc" x="66.973636" y="65.04141" style="fill: #caf8f8; stroke: #caf8f8"/>
    </g>
    <g clip-path="url(#p0c0a072c16)">
     <use xlink:href="#C1_0_dc124365dc" x="55.982727" y="68.106946" style="fill: #caf8f8; stroke: #caf8f8"/>
    </g>
    <g clip-path="url(#p0c0a072c16)">
     <use xlink:href="#C1_0_dc124365dc" x="44.991818" y="73.255976" style="fill: #caf8f8; stroke: #caf8f8"/>
    </g>
   </g>
   <g id="PathCollection_3">
    <defs>
     <path id="C2_0_0111ebea20" d="M 0 1.581139 
C 0.419323 1.581139 0.821528 1.41454 1.118034 1.118034 
C 1.41454 0.821528 1.581139 0.419323 1.581139 -0 
C 1.581139 -0.419323 1.41454 -0.821528 1.118034 -1.118034 
C 0.821528 -1.41454 0.419323 -1.581139 0 -1.581139 
C -0.419323 -1.581139 -0.821528 -1.41454 -1.118034 -1.118034 
C -1.41454 -0.821528 -1.581139 -0.419323 -1.581139 0 
C -1.581139 0.419323 -1.41454 0.821528 -1.118034 1.118034 
C -0.821528 1.41454 -0.419323 1.581139 0 1.581139 
z
"/>
    </defs>
    <g clip-path="url(#p0c0a072c16)">
     <use xlink:href="#C2_0_0111ebea20" x="242.828182" y="110.808" style="fill: #d61a1a; stroke: #d61a1a"/>
    </g>
    <g clip-path="url(#p0c0a072c16)">
     <use xlink:href="#C2_0_0111ebea20" x="231.837273" y="106.674873" style="fill: #f8caca; stroke: #f8caca"/>
    </g>
    <g clip-path="url(#p0c0a072c16)">
     <use xlink:href="#C2_0_0111ebea20" x="220.846364" y="108.898653" style="fill: #f8caca; stroke: #f8caca"/>
    </g>
    <g clip-path="url(#p0c0a072c16)">
     <use xlink:href="#C2_0_0111ebea20" x="209.855455" y="108.138233" style="fill: #f8caca; stroke: #f8caca"/>
    </g>
    <g clip-path="url(#p0c0a072c16)">
     <use xlink:href="#C2_0_0111ebea20" x="198.864545" y="104.363498" style="fill: #f8caca; stroke: #f8caca"/>
    </g>
    <g clip-path="url(#p0c0a072c16)">
     <use xlink:href="#C2_0_0111ebea20" x="187.873636" y="107.10527" style="fill: #f8caca; stroke: #f8caca"/>
    </g>
    <g clip-path="url(#p0c0a072c16)">
     <use xlink:href="#C2_0_0111ebea20" x="176.882727" y="108.613598" style="fill: #f8caca; stroke: #f8caca"/>
    </g>
    <g clip-path="url(#p0c0a072c16)">
     <use xlink:href="#C2_0_0111ebea20" x="165.891818" y="106.208501" style="fill: #f8caca; stroke: #f8caca"/>
    </g>
    <g clip-path="url(#p0c0a072c16)">
     <use xlink:href="#C2_0_0111ebea20" x="154.900909" y="104.972412" style="fill: #f8caca; stroke: #f8caca"/>
    </g>
    <g clip-path="url(#p0c0a072c16)">
     <use xlink:href="#C2_0_0111ebea20" x="143.91" y="102.632729" style="fill: #f8caca; stroke: #f8caca"/>
    </g>
    <g clip-path="url(#p0c0a072c16)">
     <use xlink:href="#C2_0_0111ebea20" x="132.919091" y="86.81376" style="fill: #f8caca; stroke: #f8caca"/>
    </g>
    <g clip-path="url(#p0c0a072c16)">
     <use xlink:href="#C2_0_0111ebea20" x="121.928182" y="82.432396" style="fill: #f8caca; stroke: #f8caca"/>
    </g>
    <g clip-path="url(#p0c0a072c16)">
     <use xlink:href="#C2_0_0111ebea20" x="110.937273" y="78.96704" style="fill: #f8caca; stroke: #f8caca"/>
    </g>
    <g clip-path="url(#p0c0a072c16)">
     <use xlink:href="#C2_0_0111ebea20" x="99.946364" y="77.019672" style="fill: #f8caca; stroke: #f8caca"/>
    </g>
    <g clip-path="url(#p0c0a072c16)">
     <use xlink:href="#C2_0_0111ebea20" x="88.955455" y="66.090623" style="fill: #f8caca; stroke: #f8caca"/>
    </g>
    <g clip-path="url(#p0c0a072c16)">
     <use xlink:href="#C2_0_0111ebea20" x="77.964545" y="49.277693" style="fill: #d61a1a; stroke: #d61a1a"/>
    </g>
    <g clip-path="url(#p0c0a072c16)">
     <use xlink:href="#C2_0_0111ebea20" x="66.973636" y="20.088" style="fill: #d61a1a; stroke: #d61a1a"/>
    </g>
    <g clip-path="url(#p0c0a072c16)">
     <use xlink:href="#C2_0_0111ebea20" x="55.982727" y="22.924887" style="fill: #d61a1a; stroke: #d61a1a"/>
    </g>
    <g clip-path="url(#p0c0a072c16)">
     <use xlink:href="#C2_0_0111ebea20" x="44.991818" y="33.760649" style="fill: #d61a1a; stroke: #d61a1a"/>
    </g>
   </g>
   <g id="matplotlib.axis_1">
    <g id="xtick_1">
     <g id="line2d_4">
      <defs>
       <path id="mfcdafe0fd2" d="M 0 0 
L 0 3.5 
" style="stroke: #000000; stroke-width: 0.8"/>
      </defs>
      <g>
       <use xlink:href="#mfcdafe0fd2" x="55.982727" y="115.344" style="stroke: #000000; stroke-width: 0.8"/>
      </g>
     </g>
     <g id="text_1">
      <text style="font: 200 12px 'Calibri'; text-anchor: middle" x="55.982727" y="130.5115" transform="rotate(-0, 55.982727, 130.5115)">10</text>
     </g>
    </g>
    <g id="xtick_2">
     <g id="line2d_5">
      <g>
       <use xlink:href="#mfcdafe0fd2" x="77.964545" y="115.344" style="stroke: #000000; stroke-width: 0.8"/>
      </g>
     </g>
     <g id="text_2">
      <text style="font: 200 12px 'Calibri'; text-anchor: middle" x="77.964545" y="130.5115" transform="rotate(-0, 77.964545, 130.5115)">20</text>
     </g>
    </g>
    <g id="xtick_3">
     <g id="line2d_6">
      <g>
       <use xlink:href="#mfcdafe0fd2" x="99.946364" y="115.344" style="stroke: #000000; stroke-width: 0.8"/>
      </g>
     </g>
     <g id="text_3">
      <text style="font: 200 12px 'Calibri'; text-anchor: middle" x="99.946364" y="130.5115" transform="rotate(-0, 99.946364, 130.5115)">30</text>
     </g>
    </g>
    <g id="xtick_4">
     <g id="line2d_7">
      <g>
       <use xlink:href="#mfcdafe0fd2" x="121.928182" y="115.344" style="stroke: #000000; stroke-width: 0.8"/>
      </g>
     </g>
     <g id="text_4">
      <text style="font: 200 12px 'Calibri'; text-anchor: middle" x="121.928182" y="130.5115" transform="rotate(-0, 121.928182, 130.5115)">40</text>
     </g>
    </g>
    <g id="xtick_5">
     <g id="line2d_8">
      <g>
       <use xlink:href="#mfcdafe0fd2" x="143.91" y="115.344" style="stroke: #000000; stroke-width: 0.8"/>
      </g>
     </g>
     <g id="text_5">
      <text style="font: 200 12px 'Calibri'; text-anchor: middle" x="143.91" y="130.5115" transform="rotate(-0, 143.91, 130.5115)">50</text>
     </g>
    </g>
    <g id="xtick_6">
     <g id="line2d_9">
      <g>
       <use xlink:href="#mfcdafe0fd2" x="165.891818" y="115.344" style="stroke: #000000; stroke-width: 0.8"/>
      </g>
     </g>
     <g id="text_6">
      <text style="font: 200 12px 'Calibri'; text-anchor: middle" x="165.891818" y="130.5115" transform="rotate(-0, 165.891818, 130.5115)">60</text>
     </g>
    </g>
    <g id="xtick_7">
     <g id="line2d_10">
      <g>
       <use xlink:href="#mfcdafe0fd2" x="187.873636" y="115.344" style="stroke: #000000; stroke-width: 0.8"/>
      </g>
     </g>
     <g id="text_7">
      <text style="font: 200 12px 'Calibri'; text-anchor: middle" x="187.873636" y="130.5115" transform="rotate(-0, 187.873636, 130.5115)">70</text>
     </g>
    </g>
    <g id="xtick_8">
     <g id="line2d_11">
      <g>
       <use xlink:href="#mfcdafe0fd2" x="209.855455" y="115.344" style="stroke: #000000; stroke-width: 0.8"/>
      </g>
     </g>
     <g id="text_8">
      <text style="font: 200 12px 'Calibri'; text-anchor: middle" x="209.855455" y="130.5115" transform="rotate(-0, 209.855455, 130.5115)">80</text>
     </g>
    </g>
    <g id="xtick_9">
     <g id="line2d_12">
      <g>
       <use xlink:href="#mfcdafe0fd2" x="231.837273" y="115.344" style="stroke: #000000; stroke-width: 0.8"/>
      </g>
     </g>
     <g id="text_9">
      <text style="font: 200 12px 'Calibri'; text-anchor: middle" x="231.837273" y="130.5115" transform="rotate(-0, 231.837273, 130.5115)">90</text>
     </g>
    </g>
    <g id="xtick_10">
     <g id="line2d_13">
      <defs>
       <path id="m04a89c8c08" d="M 0 0 
L 0 2 
" style="stroke: #000000; stroke-width: 0.6"/>
      </defs>
      <g>
       <use xlink:href="#m04a89c8c08" x="44.991818" y="115.344" style="stroke: #000000; stroke-width: 0.6"/>
      </g>
     </g>
    </g>
    <g id="xtick_11">
     <g id="line2d_14">
      <g>
       <use xlink:href="#m04a89c8c08" x="66.973636" y="115.344" style="stroke: #000000; stroke-width: 0.6"/>
      </g>
     </g>
    </g>
    <g id="xtick_12">
     <g id="line2d_15">
      <g>
       <use xlink:href="#m04a89c8c08" x="88.955455" y="115.344" style="stroke: #000000; stroke-width: 0.6"/>
      </g>
     </g>
    </g>
    <g id="xtick_13">
     <g id="line2d_16">
      <g>
       <use xlink:href="#m04a89c8c08" x="110.937273" y="115.344" style="stroke: #000000; stroke-width: 0.6"/>
      </g>
     </g>
    </g>
    <g id="xtick_14">
     <g id="line2d_17">
      <g>
       <use xlink:href="#m04a89c8c08" x="132.919091" y="115.344" style="stroke: #000000; stroke-width: 0.6"/>
      </g>
     </g>
    </g>
    <g id="xtick_15">
     <g id="line2d_18">
      <g>
       <use xlink:href="#m04a89c8c08" x="154.900909" y="115.344" style="stroke: #000000; stroke-width: 0.6"/>
      </g>
     </g>
    </g>
    <g id="xtick_16">
     <g id="line2d_19">
      <g>
       <use xlink:href="#m04a89c8c08" x="176.882727" y="115.344" style="stroke: #000000; stroke-width: 0.6"/>
      </g>
     </g>
    </g>
    <g id="xtick_17">
     <g id="line2d_20">
      <g>
       <use xlink:href="#m04a89c8c08" x="198.864545" y="115.344" style="stroke: #000000; stroke-width: 0.6"/>
      </g>
     </g>
    </g>
    <g id="xtick_18">
     <g id="line2d_21">
      <g>
       <use xlink:href="#m04a89c8c08" x="220.846364" y="115.344" style="stroke: #000000; stroke-width: 0.6"/>
      </g>
     </g>
    </g>
    <g id="xtick_19">
     <g id="line2d_22">
      <g>
       <use xlink:href="#m04a89c8c08" x="242.828182" y="115.344" style="stroke: #000000; stroke-width: 0.6"/>
      </g>
     </g>
    </g>
   </g>
   <g id="matplotlib.axis_2">
    <g id="ytick_1">
     <g id="line2d_23">
      <defs>
       <path id="m3a0c367d4f" d="M 0 0 
L -3.5 0 
" style="stroke: #000000; stroke-width: 0.8"/>
      </defs>
      <g>
       <use xlink:href="#m3a0c367d4f" x="35.1" y="88.18286" style="stroke: #000000; stroke-width: 0.8"/>
      </g>
     </g>
     <g id="text_10">
      <text style="font: 200 12px 'Calibri'; text-anchor: end" x="28.1" y="92.26661" transform="rotate(-0, 28.1, 92.26661)">0</text>
     </g>
    </g>
    <g id="ytick_2">
     <g id="line2d_24">
      <g>
       <use xlink:href="#m3a0c367d4f" x="35.1" y="60.419391" style="stroke: #000000; stroke-width: 0.8"/>
      </g>
     </g>
     <g id="text_11">
      <text style="font: 200 12px 'Calibri'; text-anchor: end" x="28.1" y="64.503141" transform="rotate(-0, 28.1, 64.503141)">2</text>
     </g>
    </g>
    <g id="ytick_3">
     <g id="line2d_25">
      <g>
       <use xlink:href="#m3a0c367d4f" x="35.1" y="32.655921" style="stroke: #000000; stroke-width: 0.8"/>
      </g>
     </g>
     <g id="text_12">
      <text style="font: 200 12px 'Calibri'; text-anchor: end" x="28.1" y="36.739671" transform="rotate(-0, 28.1, 36.739671)">4</text>
     </g>
    </g>
   </g>
   <g id="line2d_26">
    <path d="M 242.828182 88.18286 
L 231.837273 88.18286 
L 220.846364 88.18286 
L 209.855455 88.18286 
L 198.864545 88.18286 
L 187.873636 88.18286 
L 176.882727 88.18286 
L 165.891818 88.18286 
L 154.900909 88.18286 
L 143.91 88.18286 
L 132.919091 88.18286 
L 121.928182 88.18286 
L 110.937273 88.18286 
L 99.946364 88.18286 
L 88.955455 88.18286 
L 77.964545 88.18286 
L 66.973636 88.18286 
L 55.982727 88.18286 
L 44.991818 88.18286 
" clip-path="url(#p0c0a072c16)" style="fill: none; stroke-dasharray: 5.55,2.4; stroke-dashoffset: 0; stroke: #d3d3d3; stroke-width: 1.5"/>
   </g>
   <g id="line2d_27">
    <path d="M 242.828182 88.18286 
L 231.837273 88.18286 
L 220.846364 88.18286 
L 209.855455 88.18286 
L 198.864545 88.18286 
L 187.873636 88.18286 
L 176.882727 88.18286 
L 165.891818 88.18286 
L 154.900909 88.18286 
L 143.91 88.18286 
L 132.919091 88.18286 
L 121.928182 88.18286 
L 110.937273 88.18286 
L 99.946364 88.18286 
L 88.955455 88.18286 
L 77.964545 88.18286 
L 66.973636 88.18286 
L 55.982727 88.18286 
L 44.991818 88.18286 
" clip-path="url(#p0c0a072c16)" style="fill: none; stroke-dasharray: 5.55,2.4; stroke-dashoffset: 0; stroke: #d3d3d3; stroke-width: 1.5"/>
   </g>
   <g id="line2d_28">
    <path d="M 242.828182 88.18286 
L 231.837273 88.18286 
L 220.846364 88.18286 
L 209.855455 88.18286 
L 198.864545 88.18286 
L 187.873636 88.18286 
L 176.882727 88.18286 
L 165.891818 88.18286 
L 154.900909 88.18286 
L 143.91 88.18286 
L 132.919091 88.18286 
L 121.928182 88.18286 
L 110.937273 88.18286 
L 99.946364 88.18286 
L 88.955455 88.18286 
L 77.964545 88.18286 
L 66.973636 88.18286 
L 55.982727 88.18286 
L 44.991818 88.18286 
" clip-path="url(#p0c0a072c16)" style="fill: none; stroke-dasharray: 5.55,2.4; stroke-dashoffset: 0; stroke: #d3d3d3; stroke-width: 1.5"/>
   </g>
   <g id="patch_3">
    <path d="M 35.1 115.344 
L 35.1 15.552 
" style="fill: none; stroke: #000000; stroke-width: 0.8; stroke-linejoin: miter; stroke-linecap: square"/>
   </g>
   <g id="patch_4">
    <path d="M 35.1 115.344 
L 252.72 115.344 
" style="fill: none; stroke: #000000; stroke-width: 0.8; stroke-linejoin: miter; stroke-linecap: square"/>
   </g>
   <g id="legend_1">
    <g id="patch_5">
     <path d="M 146.754375 74.770125 
L 244.32 74.770125 
Q 246.72 74.770125 246.72 72.370125 
L 246.72 23.952 
Q 246.72 21.552 244.32 21.552 
L 146.754375 21.552 
Q 144.354375 21.552 144.354375 23.952 
L 144.354375 72.370125 
Q 144.354375 74.770125 146.754375 74.770125 
z
" style="fill: #ffffff; opacity: 0.8; stroke: #cccccc; stroke-linejoin: miter"/>
    </g>
    <g id="PathCollection_4">
     <path d="M 161.154375 33.183139 
C 161.573698 33.183139 161.975903 33.01654 162.272409 32.720034 
C 162.568915 32.423528 162.735514 32.021323 162.735514 31.602 
C 162.735514 31.182677 162.568915 30.780472 162.272409 30.483966 
C 161.975903 30.18746 161.573698 30.020861 161.154375 30.020861 
C 160.735052 30.020861 160.332847 30.18746 160.036341 30.483966 
C 159.739835 30.780472 159.573236 31.182677 159.573236 31.602 
C 159.573236 32.021323 159.739835 32.423528 160.036341 32.720034 
C 160.332847 33.01654 160.735052 33.183139 161.154375 33.183139 
z
" style="fill: #f5cdf5; stroke: #f5cdf5"/>
    </g>
    <g id="text_13">
     <text style="font: 200 12px 'Calibri'; text-anchor: start" x="182.754375" y="34.752" transform="rotate(-0, 182.754375, 34.752)">t1t2</text>
    </g>
    <g id="PathCollection_5">
     <path d="M 161.154375 49.722514 
C 161.573698 49.722514 161.975903 49.555915 162.272409 49.259409 
C 162.568915 48.962903 162.735514 48.560698 162.735514 48.141375 
C 162.735514 47.722052 162.568915 47.319847 162.272409 47.023341 
C 161.975903 46.726835 161.573698 46.560236 161.154375 46.560236 
C 160.735052 46.560236 160.332847 46.726835 160.036341 47.023341 
C 159.739835 47.319847 159.573236 47.722052 159.573236 48.141375 
C 159.573236 48.560698 159.739835 48.962903 160.036341 49.259409 
C 160.332847 49.555915 160.735052 49.722514 161.154375 49.722514 
z
" style="fill: #caf8f8; stroke: #caf8f8"/>
    </g>
    <g id="text_14">
     <text style="font: 200 12px 'Calibri'; text-anchor: start" x="182.754375" y="51.291375" transform="rotate(-0, 182.754375, 51.291375)">thi</text>
    </g>
    <g id="PathCollection_6">
     <path d="M 161.154375 66.261889 
C 161.573698 66.261889 161.975903 66.09529 162.272409 65.798784 
C 162.568915 65.502278 162.735514 65.100073 162.735514 64.68075 
C 162.735514 64.261427 162.568915 63.859222 162.272409 63.562716 
C 161.975903 63.26621 161.573698 63.099611 161.154375 63.099611 
C 160.735052 63.099611 160.332847 63.26621 160.036341 63.562716 
C 159.739835 63.859222 159.573236 64.261427 159.573236 64.68075 
C 159.573236 65.100073 159.739835 65.502278 160.036341 65.798784 
C 160.332847 66.09529 160.735052 66.261889 161.154375 66.261889 
z
" style="fill: #d61a1a; stroke: #d61a1a"/>
    </g>
    <g id="text_15">
     <text style="font: 200 12px 'Calibri'; text-anchor: start" x="182.754375" y="67.83075" transform="rotate(-0, 182.754375, 67.83075)">neuron_den</text>
    </g>
   </g>
  </g>
 </g>
 <defs>
  <clipPath id="p0c0a072c16">
   <rect x="35.1" y="15.552" width="217.62" height="99.792"/>
  </clipPath>
 </defs>
</svg>
