<?xml version="1.0" encoding="utf-8" standalone="no"?>
<!DOCTYPE svg PUBLIC "-//W3C//DTD SVG 1.1//EN"
  "http://www.w3.org/Graphics/SVG/1.1/DTD/svg11.dtd">
<svg xmlns:xlink="http://www.w3.org/1999/xlink" width="280.8pt" height="129.6pt" viewBox="0 0 280.8 129.6" xmlns="http://www.w3.org/2000/svg" version="1.1">
 <metadata>
  <rdf:RDF xmlns:dc="http://purl.org/dc/elements/1.1/" xmlns:cc="http://creativecommons.org/ns#" xmlns:rdf="http://www.w3.org/1999/02/22-rdf-syntax-ns#">
   <cc:Work>
    <dc:type rdf:resource="http://purl.org/dc/dcmitype/StillImage"/>
    <dc:date>2023-02-27T09:50:59.050429</dc:date>
    <dc:format>image/svg+xml</dc:format>
    <dc:creator>
     <cc:Agent>
      <dc:title>Matplotlib v3.6.2, https://matplotlib.org/</dc:title>
     </cc:Agent>
    </dc:creator>
   </cc:Work>
  </rdf:RDF>
 </metadata>
 <defs>
  <style type="text/css">*{stroke-linejoin: round; stroke-linecap: butt}</style>
 </defs>
 <g id="figure_1">
  <g id="patch_1">
   <path d="M 0 129.6 
L 280.8 129.6 
L 280.8 0 
L 0 0 
z
" style="fill: #ffffff"/>
  </g>
  <g id="axes_1">
   <g id="patch_2">
    <path d="M 35.1 115.344 
L 252.72 115.344 
L 252.72 15.552 
L 35.1 15.552 
z
" style="fill: #ffffff"/>
   </g>
   <g id="line2d_1">
    <path d="M 242.828182 64.609969 
L 231.837273 76.402132 
L 220.846364 85.356169 
L 209.855455 89.193504 
L 198.864545 92.789006 
L 187.873636 87.084536 
L 176.882727 78.880165 
L 165.891818 72.091496 
L 154.900909 65.539097 
L 143.91 62.739084 
L 132.919091 60.594429 
L 121.928182 59.972873 
L 110.937273 57.711673 
L 99.946364 58.400663 
L 88.955455 56.499851 
L 77.964545 56.685841 
L 66.973636 54.860635 
L 55.982727 53.493268 
L 44.991818 56.528162 
" clip-path="url(#peaf7280274)" style="fill: none; stroke: #cdf5cd; stroke-width: 1.5; stroke-linecap: square"/>
   </g>
   <g id="line2d_2">
    <path d="M 242.828182 94.438481 
L 231.837273 100.068183 
L 220.846364 105.660113 
L 209.855455 108.783174 
L 198.864545 110.808 
L 187.873636 108.699458 
L 176.882727 100.013696 
L 165.891818 89.977621 
L 154.900909 82.490765 
L 143.91 77.808015 
L 132.919091 72.159036 
L 121.928182 69.211547 
L 110.937273 66.664202 
L 99.946364 64.09548 
L 88.955455 62.250234 
L 77.964545 60.572664 
L 66.973636 59.86072 
L 55.982727 58.846743 
L 44.991818 57.245267 
" clip-path="url(#peaf7280274)" style="fill: none; stroke: #cacaf8; stroke-width: 1.5; stroke-linecap: square"/>
   </g>
   <g id="line2d_3">
    <path d="M 242.828182 95.065631 
L 231.837273 99.391442 
L 220.846364 103.32909 
L 209.855455 107.725771 
L 198.864545 110.08586 
L 187.873636 108.955641 
L 176.882727 106.729703 
L 165.891818 102.236507 
L 154.900909 97.795621 
L 143.91 95.550553 
L 132.919091 93.553114 
L 121.928182 92.623822 
L 110.937273 89.547337 
L 99.946364 87.841032 
L 88.955455 86.4971 
L 77.964545 84.138943 
L 66.973636 82.645517 
L 55.982727 81.327417 
L 44.991818 83.367627 
" clip-path="url(#peaf7280274)" style="fill: none; stroke: #feeeba; stroke-width: 1.5; stroke-linecap: square"/>
   </g>
   <g id="line2d_4">
    <path d="M 242.828182 101.120367 
L 231.837273 99.500768 
L 220.846364 99.32129 
L 209.855455 96.973325 
L 198.864545 91.552903 
L 187.873636 82.467006 
L 176.882727 73.742134 
L 165.891818 64.057204 
L 154.900909 54.646869 
L 143.91 49.06601 
L 132.919091 42.254798 
L 121.928182 38.643932 
L 110.937273 34.548027 
L 99.946364 31.173092 
L 88.955455 27.883999 
L 77.964545 24.888923 
L 66.973636 22.338579 
L 55.982727 20.088 
L 44.991818 21.035589 
" clip-path="url(#peaf7280274)" style="fill: none; stroke: #f5cdf5; stroke-width: 1.5; stroke-linecap: square"/>
   </g>
   <g id="line2d_5">
    <path d="M 242.828182 99.607395 
L 231.837273 98.188437 
L 220.846364 100.273957 
L 209.855455 100.819801 
L 198.864545 100.140667 
L 187.873636 97.099334 
L 176.882727 91.751341 
L 165.891818 87.811096 
L 154.900909 82.478702 
L 143.91 78.390857 
L 132.919091 74.991558 
L 121.928182 71.544177 
L 110.937273 68.064374 
L 99.946364 67.238008 
L 88.955455 64.76528 
L 77.964545 62.674985 
L 66.973636 59.554241 
L 55.982727 57.904032 
L 44.991818 58.024281 
" clip-path="url(#peaf7280274)" style="fill: none; stroke: #caf8f8; stroke-width: 1.5; stroke-linecap: square"/>
   </g>
   <g id="PathCollection_1">
    <defs>
     <path id="C0_0_eca2cd0b36" d="M 0 1.581139 
C 0.419323 1.581139 0.821528 1.41454 1.118034 1.118034 
C 1.41454 0.821528 1.581139 0.419323 1.581139 -0 
C 1.581139 -0.419323 1.41454 -0.821528 1.118034 -1.118034 
C 0.821528 -1.41454 0.419323 -1.581139 0 -1.581139 
C -0.419323 -1.581139 -0.821528 -1.41454 -1.118034 -1.118034 
C -1.41454 -0.821528 -1.581139 -0.419323 -1.581139 0 
C -1.581139 0.419323 -1.41454 0.821528 -1.118034 1.118034 
C -0.821528 1.41454 -0.419323 1.581139 0 1.581139 
z
"/>
    </defs>
    <g clip-path="url(#peaf7280274)">
     <use xlink:href="#C0_0_eca2cd0b36" x="242.828182" y="64.609969" style="fill: #cdf5cd; stroke: #cdf5cd"/>
    </g>
    <g clip-path="url(#peaf7280274)">
     <use xlink:href="#C0_0_eca2cd0b36" x="231.837273" y="76.402132" style="fill: #cdf5cd; stroke: #cdf5cd"/>
    </g>
    <g clip-path="url(#peaf7280274)">
     <use xlink:href="#C0_0_eca2cd0b36" x="220.846364" y="85.356169" style="fill: #cdf5cd; stroke: #cdf5cd"/>
    </g>
    <g clip-path="url(#peaf7280274)">
     <use xlink:href="#C0_0_eca2cd0b36" x="209.855455" y="89.193504" style="fill: #cdf5cd; stroke: #cdf5cd"/>
    </g>
    <g clip-path="url(#peaf7280274)">
     <use xlink:href="#C0_0_eca2cd0b36" x="198.864545" y="92.789006" style="fill: #cdf5cd; stroke: #cdf5cd"/>
    </g>
    <g clip-path="url(#peaf7280274)">
     <use xlink:href="#C0_0_eca2cd0b36" x="187.873636" y="87.084536" style="fill: #cdf5cd; stroke: #cdf5cd"/>
    </g>
    <g clip-path="url(#peaf7280274)">
     <use xlink:href="#C0_0_eca2cd0b36" x="176.882727" y="78.880165" style="fill: #cdf5cd; stroke: #cdf5cd"/>
    </g>
    <g clip-path="url(#peaf7280274)">
     <use xlink:href="#C0_0_eca2cd0b36" x="165.891818" y="72.091496" style="fill: #cdf5cd; stroke: #cdf5cd"/>
    </g>
    <g clip-path="url(#peaf7280274)">
     <use xlink:href="#C0_0_eca2cd0b36" x="154.900909" y="65.539097" style="fill: #cdf5cd; stroke: #cdf5cd"/>
    </g>
    <g clip-path="url(#peaf7280274)">
     <use xlink:href="#C0_0_eca2cd0b36" x="143.91" y="62.739084" style="fill: #cdf5cd; stroke: #cdf5cd"/>
    </g>
    <g clip-path="url(#peaf7280274)">
     <use xlink:href="#C0_0_eca2cd0b36" x="132.919091" y="60.594429" style="fill: #cdf5cd; stroke: #cdf5cd"/>
    </g>
    <g clip-path="url(#peaf7280274)">
     <use xlink:href="#C0_0_eca2cd0b36" x="121.928182" y="59.972873" style="fill: #cdf5cd; stroke: #cdf5cd"/>
    </g>
    <g clip-path="url(#peaf7280274)">
     <use xlink:href="#C0_0_eca2cd0b36" x="110.937273" y="57.711673" style="fill: #cdf5cd; stroke: #cdf5cd"/>
    </g>
    <g clip-path="url(#peaf7280274)">
     <use xlink:href="#C0_0_eca2cd0b36" x="99.946364" y="58.400663" style="fill: #cdf5cd; stroke: #cdf5cd"/>
    </g>
    <g clip-path="url(#peaf7280274)">
     <use xlink:href="#C0_0_eca2cd0b36" x="88.955455" y="56.499851" style="fill: #cdf5cd; stroke: #cdf5cd"/>
    </g>
    <g clip-path="url(#peaf7280274)">
     <use xlink:href="#C0_0_eca2cd0b36" x="77.964545" y="56.685841" style="fill: #cdf5cd; stroke: #cdf5cd"/>
    </g>
    <g clip-path="url(#peaf7280274)">
     <use xlink:href="#C0_0_eca2cd0b36" x="66.973636" y="54.860635" style="fill: #cdf5cd; stroke: #cdf5cd"/>
    </g>
    <g clip-path="url(#peaf7280274)">
     <use xlink:href="#C0_0_eca2cd0b36" x="55.982727" y="53.493268" style="fill: #cdf5cd; stroke: #cdf5cd"/>
    </g>
    <g clip-path="url(#peaf7280274)">
     <use xlink:href="#C0_0_eca2cd0b36" x="44.991818" y="56.528162" style="fill: #cdf5cd; stroke: #cdf5cd"/>
    </g>
   </g>
   <g id="PathCollection_2">
    <defs>
     <path id="C1_0_de6e82a774" d="M 0 1.581139 
C 0.419323 1.581139 0.821528 1.41454 1.118034 1.118034 
C 1.41454 0.821528 1.581139 0.419323 1.581139 -0 
C 1.581139 -0.419323 1.41454 -0.821528 1.118034 -1.118034 
C 0.821528 -1.41454 0.419323 -1.581139 0 -1.581139 
C -0.419323 -1.581139 -0.821528 -1.41454 -1.118034 -1.118034 
C -1.41454 -0.821528 -1.581139 -0.419323 -1.581139 0 
C -1.581139 0.419323 -1.41454 0.821528 -1.118034 1.118034 
C -0.821528 1.41454 -0.419323 1.581139 0 1.581139 
z
"/>
    </defs>
    <g clip-path="url(#peaf7280274)">
     <use xlink:href="#C1_0_de6e82a774" x="242.828182" y="94.438481" style="fill: #cacaf8; stroke: #cacaf8"/>
    </g>
    <g clip-path="url(#peaf7280274)">
     <use xlink:href="#C1_0_de6e82a774" x="231.837273" y="100.068183" style="fill: #1a1ad6; stroke: #1a1ad6"/>
    </g>
    <g clip-path="url(#peaf7280274)">
     <use xlink:href="#C1_0_de6e82a774" x="220.846364" y="105.660113" style="fill: #1a1ad6; stroke: #1a1ad6"/>
    </g>
    <g clip-path="url(#peaf7280274)">
     <use xlink:href="#C1_0_de6e82a774" x="209.855455" y="108.783174" style="fill: #1a1ad6; stroke: #1a1ad6"/>
    </g>
    <g clip-path="url(#peaf7280274)">
     <use xlink:href="#C1_0_de6e82a774" x="198.864545" y="110.808" style="fill: #1a1ad6; stroke: #1a1ad6"/>
    </g>
    <g clip-path="url(#peaf7280274)">
     <use xlink:href="#C1_0_de6e82a774" x="187.873636" y="108.699458" style="fill: #1a1ad6; stroke: #1a1ad6"/>
    </g>
    <g clip-path="url(#peaf7280274)">
     <use xlink:href="#C1_0_de6e82a774" x="176.882727" y="100.013696" style="fill: #cacaf8; stroke: #cacaf8"/>
    </g>
    <g clip-path="url(#peaf7280274)">
     <use xlink:href="#C1_0_de6e82a774" x="165.891818" y="89.977621" style="fill: #cacaf8; stroke: #cacaf8"/>
    </g>
    <g clip-path="url(#peaf7280274)">
     <use xlink:href="#C1_0_de6e82a774" x="154.900909" y="82.490765" style="fill: #cacaf8; stroke: #cacaf8"/>
    </g>
    <g clip-path="url(#peaf7280274)">
     <use xlink:href="#C1_0_de6e82a774" x="143.91" y="77.808015" style="fill: #cacaf8; stroke: #cacaf8"/>
    </g>
    <g clip-path="url(#peaf7280274)">
     <use xlink:href="#C1_0_de6e82a774" x="132.919091" y="72.159036" style="fill: #cacaf8; stroke: #cacaf8"/>
    </g>
    <g clip-path="url(#peaf7280274)">
     <use xlink:href="#C1_0_de6e82a774" x="121.928182" y="69.211547" style="fill: #cacaf8; stroke: #cacaf8"/>
    </g>
    <g clip-path="url(#peaf7280274)">
     <use xlink:href="#C1_0_de6e82a774" x="110.937273" y="66.664202" style="fill: #cacaf8; stroke: #cacaf8"/>
    </g>
    <g clip-path="url(#peaf7280274)">
     <use xlink:href="#C1_0_de6e82a774" x="99.946364" y="64.09548" style="fill: #cacaf8; stroke: #cacaf8"/>
    </g>
    <g clip-path="url(#peaf7280274)">
     <use xlink:href="#C1_0_de6e82a774" x="88.955455" y="62.250234" style="fill: #cacaf8; stroke: #cacaf8"/>
    </g>
    <g clip-path="url(#peaf7280274)">
     <use xlink:href="#C1_0_de6e82a774" x="77.964545" y="60.572664" style="fill: #cacaf8; stroke: #cacaf8"/>
    </g>
    <g clip-path="url(#peaf7280274)">
     <use xlink:href="#C1_0_de6e82a774" x="66.973636" y="59.86072" style="fill: #cacaf8; stroke: #cacaf8"/>
    </g>
    <g clip-path="url(#peaf7280274)">
     <use xlink:href="#C1_0_de6e82a774" x="55.982727" y="58.846743" style="fill: #cacaf8; stroke: #cacaf8"/>
    </g>
    <g clip-path="url(#peaf7280274)">
     <use xlink:href="#C1_0_de6e82a774" x="44.991818" y="57.245267" style="fill: #cacaf8; stroke: #cacaf8"/>
    </g>
   </g>
   <g id="PathCollection_3">
    <defs>
     <path id="C2_0_04fc1697fb" d="M 0 1.581139 
C 0.419323 1.581139 0.821528 1.41454 1.118034 1.118034 
C 1.41454 0.821528 1.581139 0.419323 1.581139 -0 
C 1.581139 -0.419323 1.41454 -0.821528 1.118034 -1.118034 
C 0.821528 -1.41454 0.419323 -1.581139 0 -1.581139 
C -0.419323 -1.581139 -0.821528 -1.41454 -1.118034 -1.118034 
C -1.41454 -0.821528 -1.581139 -0.419323 -1.581139 0 
C -1.581139 0.419323 -1.41454 0.821528 -1.118034 1.118034 
C -0.821528 1.41454 -0.419323 1.581139 0 1.581139 
z
"/>
    </defs>
    <g clip-path="url(#peaf7280274)">
     <use xlink:href="#C2_0_04fc1697fb" x="242.828182" y="95.065631" style="fill: #f2b701; stroke: #f2b701"/>
    </g>
    <g clip-path="url(#peaf7280274)">
     <use xlink:href="#C2_0_04fc1697fb" x="231.837273" y="99.391442" style="fill: #f2b701; stroke: #f2b701"/>
    </g>
    <g clip-path="url(#peaf7280274)">
     <use xlink:href="#C2_0_04fc1697fb" x="220.846364" y="103.32909" style="fill: #f2b701; stroke: #f2b701"/>
    </g>
    <g clip-path="url(#peaf7280274)">
     <use xlink:href="#C2_0_04fc1697fb" x="209.855455" y="107.725771" style="fill: #f2b701; stroke: #f2b701"/>
    </g>
    <g clip-path="url(#peaf7280274)">
     <use xlink:href="#C2_0_04fc1697fb" x="198.864545" y="110.08586" style="fill: #f2b701; stroke: #f2b701"/>
    </g>
    <g clip-path="url(#peaf7280274)">
     <use xlink:href="#C2_0_04fc1697fb" x="187.873636" y="108.955641" style="fill: #f2b701; stroke: #f2b701"/>
    </g>
    <g clip-path="url(#peaf7280274)">
     <use xlink:href="#C2_0_04fc1697fb" x="176.882727" y="106.729703" style="fill: #f2b701; stroke: #f2b701"/>
    </g>
    <g clip-path="url(#peaf7280274)">
     <use xlink:href="#C2_0_04fc1697fb" x="165.891818" y="102.236507" style="fill: #feeeba; stroke: #feeeba"/>
    </g>
    <g clip-path="url(#peaf7280274)">
     <use xlink:href="#C2_0_04fc1697fb" x="154.900909" y="97.795621" style="fill: #feeeba; stroke: #feeeba"/>
    </g>
    <g clip-path="url(#peaf7280274)">
     <use xlink:href="#C2_0_04fc1697fb" x="143.91" y="95.550553" style="fill: #feeeba; stroke: #feeeba"/>
    </g>
    <g clip-path="url(#peaf7280274)">
     <use xlink:href="#C2_0_04fc1697fb" x="132.919091" y="93.553114" style="fill: #feeeba; stroke: #feeeba"/>
    </g>
    <g clip-path="url(#peaf7280274)">
     <use xlink:href="#C2_0_04fc1697fb" x="121.928182" y="92.623822" style="fill: #feeeba; stroke: #feeeba"/>
    </g>
    <g clip-path="url(#peaf7280274)">
     <use xlink:href="#C2_0_04fc1697fb" x="110.937273" y="89.547337" style="fill: #feeeba; stroke: #feeeba"/>
    </g>
    <g clip-path="url(#peaf7280274)">
     <use xlink:href="#C2_0_04fc1697fb" x="99.946364" y="87.841032" style="fill: #feeeba; stroke: #feeeba"/>
    </g>
    <g clip-path="url(#peaf7280274)">
     <use xlink:href="#C2_0_04fc1697fb" x="88.955455" y="86.4971" style="fill: #feeeba; stroke: #feeeba"/>
    </g>
    <g clip-path="url(#peaf7280274)">
     <use xlink:href="#C2_0_04fc1697fb" x="77.964545" y="84.138943" style="fill: #feeeba; stroke: #feeeba"/>
    </g>
    <g clip-path="url(#peaf7280274)">
     <use xlink:href="#C2_0_04fc1697fb" x="66.973636" y="82.645517" style="fill: #feeeba; stroke: #feeeba"/>
    </g>
    <g clip-path="url(#peaf7280274)">
     <use xlink:href="#C2_0_04fc1697fb" x="55.982727" y="81.327417" style="fill: #feeeba; stroke: #feeeba"/>
    </g>
    <g clip-path="url(#peaf7280274)">
     <use xlink:href="#C2_0_04fc1697fb" x="44.991818" y="83.367627" style="fill: #feeeba; stroke: #feeeba"/>
    </g>
   </g>
   <g id="PathCollection_4">
    <defs>
     <path id="C3_0_323d6a3585" d="M 0 1.581139 
C 0.419323 1.581139 0.821528 1.41454 1.118034 1.118034 
C 1.41454 0.821528 1.581139 0.419323 1.581139 -0 
C 1.581139 -0.419323 1.41454 -0.821528 1.118034 -1.118034 
C 0.821528 -1.41454 0.419323 -1.581139 0 -1.581139 
C -0.419323 -1.581139 -0.821528 -1.41454 -1.118034 -1.118034 
C -1.41454 -0.821528 -1.581139 -0.419323 -1.581139 0 
C -1.581139 0.419323 -1.41454 0.821528 -1.118034 1.118034 
C -0.821528 1.41454 -0.419323 1.581139 0 1.581139 
z
"/>
    </defs>
    <g clip-path="url(#peaf7280274)">
     <use xlink:href="#C3_0_323d6a3585" x="242.828182" y="101.120367" style="fill: #c828c6; stroke: #c828c6"/>
    </g>
    <g clip-path="url(#peaf7280274)">
     <use xlink:href="#C3_0_323d6a3585" x="231.837273" y="99.500768" style="fill: #c828c6; stroke: #c828c6"/>
    </g>
    <g clip-path="url(#peaf7280274)">
     <use xlink:href="#C3_0_323d6a3585" x="220.846364" y="99.32129" style="fill: #c828c6; stroke: #c828c6"/>
    </g>
    <g clip-path="url(#peaf7280274)">
     <use xlink:href="#C3_0_323d6a3585" x="209.855455" y="96.973325" style="fill: #c828c6; stroke: #c828c6"/>
    </g>
    <g clip-path="url(#peaf7280274)">
     <use xlink:href="#C3_0_323d6a3585" x="198.864545" y="91.552903" style="fill: #f5cdf5; stroke: #f5cdf5"/>
    </g>
    <g clip-path="url(#peaf7280274)">
     <use xlink:href="#C3_0_323d6a3585" x="187.873636" y="82.467006" style="fill: #f5cdf5; stroke: #f5cdf5"/>
    </g>
    <g clip-path="url(#peaf7280274)">
     <use xlink:href="#C3_0_323d6a3585" x="176.882727" y="73.742134" style="fill: #f5cdf5; stroke: #f5cdf5"/>
    </g>
    <g clip-path="url(#peaf7280274)">
     <use xlink:href="#C3_0_323d6a3585" x="165.891818" y="64.057204" style="fill: #f5cdf5; stroke: #f5cdf5"/>
    </g>
    <g clip-path="url(#peaf7280274)">
     <use xlink:href="#C3_0_323d6a3585" x="154.900909" y="54.646869" style="fill: #f5cdf5; stroke: #f5cdf5"/>
    </g>
    <g clip-path="url(#peaf7280274)">
     <use xlink:href="#C3_0_323d6a3585" x="143.91" y="49.06601" style="fill: #f5cdf5; stroke: #f5cdf5"/>
    </g>
    <g clip-path="url(#peaf7280274)">
     <use xlink:href="#C3_0_323d6a3585" x="132.919091" y="42.254798" style="fill: #f5cdf5; stroke: #f5cdf5"/>
    </g>
    <g clip-path="url(#peaf7280274)">
     <use xlink:href="#C3_0_323d6a3585" x="121.928182" y="38.643932" style="fill: #f5cdf5; stroke: #f5cdf5"/>
    </g>
    <g clip-path="url(#peaf7280274)">
     <use xlink:href="#C3_0_323d6a3585" x="110.937273" y="34.548027" style="fill: #f5cdf5; stroke: #f5cdf5"/>
    </g>
    <g clip-path="url(#peaf7280274)">
     <use xlink:href="#C3_0_323d6a3585" x="99.946364" y="31.173092" style="fill: #f5cdf5; stroke: #f5cdf5"/>
    </g>
    <g clip-path="url(#peaf7280274)">
     <use xlink:href="#C3_0_323d6a3585" x="88.955455" y="27.883999" style="fill: #f5cdf5; stroke: #f5cdf5"/>
    </g>
    <g clip-path="url(#peaf7280274)">
     <use xlink:href="#C3_0_323d6a3585" x="77.964545" y="24.888923" style="fill: #f5cdf5; stroke: #f5cdf5"/>
    </g>
    <g clip-path="url(#peaf7280274)">
     <use xlink:href="#C3_0_323d6a3585" x="66.973636" y="22.338579" style="fill: #f5cdf5; stroke: #f5cdf5"/>
    </g>
    <g clip-path="url(#peaf7280274)">
     <use xlink:href="#C3_0_323d6a3585" x="55.982727" y="20.088" style="fill: #f5cdf5; stroke: #f5cdf5"/>
    </g>
    <g clip-path="url(#peaf7280274)">
     <use xlink:href="#C3_0_323d6a3585" x="44.991818" y="21.035589" style="fill: #f5cdf5; stroke: #f5cdf5"/>
    </g>
   </g>
   <g id="PathCollection_5">
    <defs>
     <path id="C4_0_403555ea0d" d="M 0 1.581139 
C 0.419323 1.581139 0.821528 1.41454 1.118034 1.118034 
C 1.41454 0.821528 1.581139 0.419323 1.581139 -0 
C 1.581139 -0.419323 1.41454 -0.821528 1.118034 -1.118034 
C 0.821528 -1.41454 0.419323 -1.581139 0 -1.581139 
C -0.419323 -1.581139 -0.821528 -1.41454 -1.118034 -1.118034 
C -1.41454 -0.821528 -1.581139 -0.419323 -1.581139 0 
C -1.581139 0.419323 -1.41454 0.821528 -1.118034 1.118034 
C -0.821528 1.41454 -0.419323 1.581139 0 1.581139 
z
"/>
    </defs>
    <g clip-path="url(#peaf7280274)">
     <use xlink:href="#C4_0_403555ea0d" x="242.828182" y="99.607395" style="fill: #1ad6d4; stroke: #1ad6d4"/>
    </g>
    <g clip-path="url(#peaf7280274)">
     <use xlink:href="#C4_0_403555ea0d" x="231.837273" y="98.188437" style="fill: #1ad6d4; stroke: #1ad6d4"/>
    </g>
    <g clip-path="url(#peaf7280274)">
     <use xlink:href="#C4_0_403555ea0d" x="220.846364" y="100.273957" style="fill: #1ad6d4; stroke: #1ad6d4"/>
    </g>
    <g clip-path="url(#peaf7280274)">
     <use xlink:href="#C4_0_403555ea0d" x="209.855455" y="100.819801" style="fill: #1ad6d4; stroke: #1ad6d4"/>
    </g>
    <g clip-path="url(#peaf7280274)">
     <use xlink:href="#C4_0_403555ea0d" x="198.864545" y="100.140667" style="fill: #1ad6d4; stroke: #1ad6d4"/>
    </g>
    <g clip-path="url(#peaf7280274)">
     <use xlink:href="#C4_0_403555ea0d" x="187.873636" y="97.099334" style="fill: #caf8f8; stroke: #caf8f8"/>
    </g>
    <g clip-path="url(#peaf7280274)">
     <use xlink:href="#C4_0_403555ea0d" x="176.882727" y="91.751341" style="fill: #caf8f8; stroke: #caf8f8"/>
    </g>
    <g clip-path="url(#peaf7280274)">
     <use xlink:href="#C4_0_403555ea0d" x="165.891818" y="87.811096" style="fill: #caf8f8; stroke: #caf8f8"/>
    </g>
    <g clip-path="url(#peaf7280274)">
     <use xlink:href="#C4_0_403555ea0d" x="154.900909" y="82.478702" style="fill: #caf8f8; stroke: #caf8f8"/>
    </g>
    <g clip-path="url(#peaf7280274)">
     <use xlink:href="#C4_0_403555ea0d" x="143.91" y="78.390857" style="fill: #caf8f8; stroke: #caf8f8"/>
    </g>
    <g clip-path="url(#peaf7280274)">
     <use xlink:href="#C4_0_403555ea0d" x="132.919091" y="74.991558" style="fill: #caf8f8; stroke: #caf8f8"/>
    </g>
    <g clip-path="url(#peaf7280274)">
     <use xlink:href="#C4_0_403555ea0d" x="121.928182" y="71.544177" style="fill: #caf8f8; stroke: #caf8f8"/>
    </g>
    <g clip-path="url(#peaf7280274)">
     <use xlink:href="#C4_0_403555ea0d" x="110.937273" y="68.064374" style="fill: #caf8f8; stroke: #caf8f8"/>
    </g>
    <g clip-path="url(#peaf7280274)">
     <use xlink:href="#C4_0_403555ea0d" x="99.946364" y="67.238008" style="fill: #caf8f8; stroke: #caf8f8"/>
    </g>
    <g clip-path="url(#peaf7280274)">
     <use xlink:href="#C4_0_403555ea0d" x="88.955455" y="64.76528" style="fill: #caf8f8; stroke: #caf8f8"/>
    </g>
    <g clip-path="url(#peaf7280274)">
     <use xlink:href="#C4_0_403555ea0d" x="77.964545" y="62.674985" style="fill: #caf8f8; stroke: #caf8f8"/>
    </g>
    <g clip-path="url(#peaf7280274)">
     <use xlink:href="#C4_0_403555ea0d" x="66.973636" y="59.554241" style="fill: #caf8f8; stroke: #caf8f8"/>
    </g>
    <g clip-path="url(#peaf7280274)">
     <use xlink:href="#C4_0_403555ea0d" x="55.982727" y="57.904032" style="fill: #caf8f8; stroke: #caf8f8"/>
    </g>
    <g clip-path="url(#peaf7280274)">
     <use xlink:href="#C4_0_403555ea0d" x="44.991818" y="58.024281" style="fill: #caf8f8; stroke: #caf8f8"/>
    </g>
   </g>
   <g id="matplotlib.axis_1">
    <g id="xtick_1">
     <g id="line2d_6">
      <defs>
       <path id="m3ee98574d4" d="M 0 0 
L 0 3.5 
" style="stroke: #000000; stroke-width: 0.8"/>
      </defs>
      <g>
       <use xlink:href="#m3ee98574d4" x="55.982727" y="115.344" style="stroke: #000000; stroke-width: 0.8"/>
      </g>
     </g>
     <g id="text_1">
      <text style="font: 200 12px 'Calibri'; text-anchor: middle" x="55.982727" y="130.5115" transform="rotate(-0 55.982727 130.5115)">10</text>
     </g>
    </g>
    <g id="xtick_2">
     <g id="line2d_7">
      <g>
       <use xlink:href="#m3ee98574d4" x="77.964545" y="115.344" style="stroke: #000000; stroke-width: 0.8"/>
      </g>
     </g>
     <g id="text_2">
      <text style="font: 200 12px 'Calibri'; text-anchor: middle" x="77.964545" y="130.5115" transform="rotate(-0 77.964545 130.5115)">20</text>
     </g>
    </g>
    <g id="xtick_3">
     <g id="line2d_8">
      <g>
       <use xlink:href="#m3ee98574d4" x="99.946364" y="115.344" style="stroke: #000000; stroke-width: 0.8"/>
      </g>
     </g>
     <g id="text_3">
      <text style="font: 200 12px 'Calibri'; text-anchor: middle" x="99.946364" y="130.5115" transform="rotate(-0 99.946364 130.5115)">30</text>
     </g>
    </g>
    <g id="xtick_4">
     <g id="line2d_9">
      <g>
       <use xlink:href="#m3ee98574d4" x="121.928182" y="115.344" style="stroke: #000000; stroke-width: 0.8"/>
      </g>
     </g>
     <g id="text_4">
      <text style="font: 200 12px 'Calibri'; text-anchor: middle" x="121.928182" y="130.5115" transform="rotate(-0 121.928182 130.5115)">40</text>
     </g>
    </g>
    <g id="xtick_5">
     <g id="line2d_10">
      <g>
       <use xlink:href="#m3ee98574d4" x="143.91" y="115.344" style="stroke: #000000; stroke-width: 0.8"/>
      </g>
     </g>
     <g id="text_5">
      <text style="font: 200 12px 'Calibri'; text-anchor: middle" x="143.91" y="130.5115" transform="rotate(-0 143.91 130.5115)">50</text>
     </g>
    </g>
    <g id="xtick_6">
     <g id="line2d_11">
      <g>
       <use xlink:href="#m3ee98574d4" x="165.891818" y="115.344" style="stroke: #000000; stroke-width: 0.8"/>
      </g>
     </g>
     <g id="text_6">
      <text style="font: 200 12px 'Calibri'; text-anchor: middle" x="165.891818" y="130.5115" transform="rotate(-0 165.891818 130.5115)">60</text>
     </g>
    </g>
    <g id="xtick_7">
     <g id="line2d_12">
      <g>
       <use xlink:href="#m3ee98574d4" x="187.873636" y="115.344" style="stroke: #000000; stroke-width: 0.8"/>
      </g>
     </g>
     <g id="text_7">
      <text style="font: 200 12px 'Calibri'; text-anchor: middle" x="187.873636" y="130.5115" transform="rotate(-0 187.873636 130.5115)">70</text>
     </g>
    </g>
    <g id="xtick_8">
     <g id="line2d_13">
      <g>
       <use xlink:href="#m3ee98574d4" x="209.855455" y="115.344" style="stroke: #000000; stroke-width: 0.8"/>
      </g>
     </g>
     <g id="text_8">
      <text style="font: 200 12px 'Calibri'; text-anchor: middle" x="209.855455" y="130.5115" transform="rotate(-0 209.855455 130.5115)">80</text>
     </g>
    </g>
    <g id="xtick_9">
     <g id="line2d_14">
      <g>
       <use xlink:href="#m3ee98574d4" x="231.837273" y="115.344" style="stroke: #000000; stroke-width: 0.8"/>
      </g>
     </g>
     <g id="text_9">
      <text style="font: 200 12px 'Calibri'; text-anchor: middle" x="231.837273" y="130.5115" transform="rotate(-0 231.837273 130.5115)">90</text>
     </g>
    </g>
    <g id="xtick_10">
     <g id="line2d_15">
      <defs>
       <path id="me30318a16c" d="M 0 0 
L 0 2 
" style="stroke: #000000; stroke-width: 0.6"/>
      </defs>
      <g>
       <use xlink:href="#me30318a16c" x="44.991818" y="115.344" style="stroke: #000000; stroke-width: 0.6"/>
      </g>
     </g>
    </g>
    <g id="xtick_11">
     <g id="line2d_16">
      <g>
       <use xlink:href="#me30318a16c" x="66.973636" y="115.344" style="stroke: #000000; stroke-width: 0.6"/>
      </g>
     </g>
    </g>
    <g id="xtick_12">
     <g id="line2d_17">
      <g>
       <use xlink:href="#me30318a16c" x="88.955455" y="115.344" style="stroke: #000000; stroke-width: 0.6"/>
      </g>
     </g>
    </g>
    <g id="xtick_13">
     <g id="line2d_18">
      <g>
       <use xlink:href="#me30318a16c" x="110.937273" y="115.344" style="stroke: #000000; stroke-width: 0.6"/>
      </g>
     </g>
    </g>
    <g id="xtick_14">
     <g id="line2d_19">
      <g>
       <use xlink:href="#me30318a16c" x="132.919091" y="115.344" style="stroke: #000000; stroke-width: 0.6"/>
      </g>
     </g>
    </g>
    <g id="xtick_15">
     <g id="line2d_20">
      <g>
       <use xlink:href="#me30318a16c" x="154.900909" y="115.344" style="stroke: #000000; stroke-width: 0.6"/>
      </g>
     </g>
    </g>
    <g id="xtick_16">
     <g id="line2d_21">
      <g>
       <use xlink:href="#me30318a16c" x="176.882727" y="115.344" style="stroke: #000000; stroke-width: 0.6"/>
      </g>
     </g>
    </g>
    <g id="xtick_17">
     <g id="line2d_22">
      <g>
       <use xlink:href="#me30318a16c" x="198.864545" y="115.344" style="stroke: #000000; stroke-width: 0.6"/>
      </g>
     </g>
    </g>
    <g id="xtick_18">
     <g id="line2d_23">
      <g>
       <use xlink:href="#me30318a16c" x="220.846364" y="115.344" style="stroke: #000000; stroke-width: 0.6"/>
      </g>
     </g>
    </g>
    <g id="xtick_19">
     <g id="line2d_24">
      <g>
       <use xlink:href="#me30318a16c" x="242.828182" y="115.344" style="stroke: #000000; stroke-width: 0.6"/>
      </g>
     </g>
    </g>
   </g>
   <g id="matplotlib.axis_2">
    <g id="ytick_1">
     <g id="line2d_25">
      <defs>
       <path id="m0298c9d4c1" d="M 0 0 
L -3.5 0 
" style="stroke: #000000; stroke-width: 0.8"/>
      </defs>
      <g>
       <use xlink:href="#m0298c9d4c1" x="35.1" y="92.158234" style="stroke: #000000; stroke-width: 0.8"/>
      </g>
     </g>
     <g id="text_10">
      <text style="font: 200 12px 'Calibri'; text-anchor: end" x="28.1" y="96.241984" transform="rotate(-0 28.1 96.241984)">−2</text>
     </g>
    </g>
    <g id="ytick_2">
     <g id="line2d_26">
      <g>
       <use xlink:href="#m0298c9d4c1" x="35.1" y="56.860017" style="stroke: #000000; stroke-width: 0.8"/>
      </g>
     </g>
     <g id="text_11">
      <text style="font: 200 12px 'Calibri'; text-anchor: end" x="28.1" y="60.943767" transform="rotate(-0 28.1 60.943767)">0</text>
     </g>
    </g>
    <g id="ytick_3">
     <g id="line2d_27">
      <g>
       <use xlink:href="#m0298c9d4c1" x="35.1" y="21.5618" style="stroke: #000000; stroke-width: 0.8"/>
      </g>
     </g>
     <g id="text_12">
      <text style="font: 200 12px 'Calibri'; text-anchor: end" x="28.1" y="25.64555" transform="rotate(-0 28.1 25.64555)">2</text>
     </g>
    </g>
   </g>
   <g id="line2d_28">
    <path d="M 242.828182 56.860017 
L 231.837273 56.860017 
L 220.846364 56.860017 
L 209.855455 56.860017 
L 198.864545 56.860017 
L 187.873636 56.860017 
L 176.882727 56.860017 
L 165.891818 56.860017 
L 154.900909 56.860017 
L 143.91 56.860017 
L 132.919091 56.860017 
L 121.928182 56.860017 
L 110.937273 56.860017 
L 99.946364 56.860017 
L 88.955455 56.860017 
L 77.964545 56.860017 
L 66.973636 56.860017 
L 55.982727 56.860017 
L 44.991818 56.860017 
" clip-path="url(#peaf7280274)" style="fill: none; stroke-dasharray: 5.55,2.4; stroke-dashoffset: 0; stroke: #d3d3d3; stroke-width: 1.5"/>
   </g>
   <g id="line2d_29">
    <path d="M 242.828182 56.860017 
L 231.837273 56.860017 
L 220.846364 56.860017 
L 209.855455 56.860017 
L 198.864545 56.860017 
L 187.873636 56.860017 
L 176.882727 56.860017 
L 165.891818 56.860017 
L 154.900909 56.860017 
L 143.91 56.860017 
L 132.919091 56.860017 
L 121.928182 56.860017 
L 110.937273 56.860017 
L 99.946364 56.860017 
L 88.955455 56.860017 
L 77.964545 56.860017 
L 66.973636 56.860017 
L 55.982727 56.860017 
L 44.991818 56.860017 
" clip-path="url(#peaf7280274)" style="fill: none; stroke-dasharray: 5.55,2.4; stroke-dashoffset: 0; stroke: #d3d3d3; stroke-width: 1.5"/>
   </g>
   <g id="line2d_30">
    <path d="M 242.828182 56.860017 
L 231.837273 56.860017 
L 220.846364 56.860017 
L 209.855455 56.860017 
L 198.864545 56.860017 
L 187.873636 56.860017 
L 176.882727 56.860017 
L 165.891818 56.860017 
L 154.900909 56.860017 
L 143.91 56.860017 
L 132.919091 56.860017 
L 121.928182 56.860017 
L 110.937273 56.860017 
L 99.946364 56.860017 
L 88.955455 56.860017 
L 77.964545 56.860017 
L 66.973636 56.860017 
L 55.982727 56.860017 
L 44.991818 56.860017 
" clip-path="url(#peaf7280274)" style="fill: none; stroke-dasharray: 5.55,2.4; stroke-dashoffset: 0; stroke: #d3d3d3; stroke-width: 1.5"/>
   </g>
   <g id="line2d_31">
    <path d="M 242.828182 56.860017 
L 231.837273 56.860017 
L 220.846364 56.860017 
L 209.855455 56.860017 
L 198.864545 56.860017 
L 187.873636 56.860017 
L 176.882727 56.860017 
L 165.891818 56.860017 
L 154.900909 56.860017 
L 143.91 56.860017 
L 132.919091 56.860017 
L 121.928182 56.860017 
L 110.937273 56.860017 
L 99.946364 56.860017 
L 88.955455 56.860017 
L 77.964545 56.860017 
L 66.973636 56.860017 
L 55.982727 56.860017 
L 44.991818 56.860017 
" clip-path="url(#peaf7280274)" style="fill: none; stroke-dasharray: 5.55,2.4; stroke-dashoffset: 0; stroke: #d3d3d3; stroke-width: 1.5"/>
   </g>
   <g id="line2d_32">
    <path d="M 242.828182 56.860017 
L 231.837273 56.860017 
L 220.846364 56.860017 
L 209.855455 56.860017 
L 198.864545 56.860017 
L 187.873636 56.860017 
L 176.882727 56.860017 
L 165.891818 56.860017 
L 154.900909 56.860017 
L 143.91 56.860017 
L 132.919091 56.860017 
L 121.928182 56.860017 
L 110.937273 56.860017 
L 99.946364 56.860017 
L 88.955455 56.860017 
L 77.964545 56.860017 
L 66.973636 56.860017 
L 55.982727 56.860017 
L 44.991818 56.860017 
" clip-path="url(#peaf7280274)" style="fill: none; stroke-dasharray: 5.55,2.4; stroke-dashoffset: 0; stroke: #d3d3d3; stroke-width: 1.5"/>
   </g>
   <g id="patch_3">
    <path d="M 35.1 115.344 
L 35.1 15.552 
" style="fill: none; stroke: #000000; stroke-width: 0.8; stroke-linejoin: miter; stroke-linecap: square"/>
   </g>
   <g id="patch_4">
    <path d="M 35.1 115.344 
L 252.72 115.344 
" style="fill: none; stroke: #000000; stroke-width: 0.8; stroke-linejoin: miter; stroke-linecap: square"/>
   </g>
   <g id="legend_1">
    <g id="patch_5">
     <path d="M 91.864688 107.848875 
L 195.955313 107.848875 
Q 198.355313 107.848875 198.355313 105.448875 
L 198.355313 23.952 
Q 198.355313 21.552 195.955313 21.552 
L 91.864688 21.552 
Q 89.464688 21.552 89.464688 23.952 
L 89.464688 105.448875 
Q 89.464688 107.848875 91.864688 107.848875 
z
" style="fill: #ffffff; opacity: 0.8; stroke: #cccccc; stroke-linejoin: miter"/>
    </g>
    <g id="PathCollection_6">
     <path d="M 106.264688 33.183139 
C 106.68401 33.183139 107.086215 33.01654 107.382721 32.720034 
C 107.679228 32.423528 107.845826 32.021323 107.845826 31.602 
C 107.845826 31.182677 107.679228 30.780472 107.382721 30.483966 
C 107.086215 30.18746 106.68401 30.020861 106.264688 30.020861 
C 105.845365 30.020861 105.44316 30.18746 105.146654 30.483966 
C 104.850147 30.780472 104.683549 31.182677 104.683549 31.602 
C 104.683549 32.021323 104.850147 32.423528 105.146654 32.720034 
C 105.44316 33.01654 105.845365 33.183139 106.264688 33.183139 
z
" style="fill: #cdf5cd; stroke: #cdf5cd"/>
    </g>
    <g id="text_13">
     <text style="font: 200 12px 'Calibri'; text-anchor: start" x="127.864688" y="34.752" transform="rotate(-0 127.864688 34.752)">receptor_den</text>
    </g>
    <g id="PathCollection_7">
     <path d="M 106.264688 49.722514 
C 106.68401 49.722514 107.086215 49.555915 107.382721 49.259409 
C 107.679228 48.962903 107.845826 48.560698 107.845826 48.141375 
C 107.845826 47.722052 107.679228 47.319847 107.382721 47.023341 
C 107.086215 46.726835 106.68401 46.560236 106.264688 46.560236 
C 105.845365 46.560236 105.44316 46.726835 105.146654 47.023341 
C 104.850147 47.319847 104.683549 47.722052 104.683549 48.141375 
C 104.683549 48.560698 104.850147 48.962903 105.146654 49.259409 
C 105.44316 49.555915 105.845365 49.722514 106.264688 49.722514 
z
" style="fill: #cacaf8; stroke: #cacaf8"/>
    </g>
    <g id="text_14">
     <text style="font: 200 12px 'Calibri'; text-anchor: start" x="127.864688" y="51.291375" transform="rotate(-0 127.864688 51.291375)">EI_ratio</text>
    </g>
    <g id="PathCollection_8">
     <path d="M 106.264688 66.261889 
C 106.68401 66.261889 107.086215 66.09529 107.382721 65.798784 
C 107.679228 65.502278 107.845826 65.100073 107.845826 64.68075 
C 107.845826 64.261427 107.679228 63.859222 107.382721 63.562716 
C 107.086215 63.26621 106.68401 63.099611 106.264688 63.099611 
C 105.845365 63.099611 105.44316 63.26621 105.146654 63.562716 
C 104.850147 63.859222 104.683549 64.261427 104.683549 64.68075 
C 104.683549 65.100073 104.850147 65.502278 105.146654 65.798784 
C 105.44316 66.09529 105.845365 66.261889 106.264688 66.261889 
z
" style="fill: #f2b701; stroke: #f2b701"/>
    </g>
    <g id="text_15">
     <text style="font: 200 12px 'Calibri'; text-anchor: start" x="127.864688" y="67.83075" transform="rotate(-0 127.864688 67.83075)">genePC1</text>
    </g>
    <g id="PathCollection_9">
     <path d="M 106.264688 82.801264 
C 106.68401 82.801264 107.086215 82.634665 107.382721 82.338159 
C 107.679228 82.041653 107.845826 81.639448 107.845826 81.220125 
C 107.845826 80.800802 107.679228 80.398597 107.382721 80.102091 
C 107.086215 79.805585 106.68401 79.638986 106.264688 79.638986 
C 105.845365 79.638986 105.44316 79.805585 105.146654 80.102091 
C 104.850147 80.398597 104.683549 80.800802 104.683549 81.220125 
C 104.683549 81.639448 104.850147 82.041653 105.146654 82.338159 
C 105.44316 82.634665 105.845365 82.801264 106.264688 82.801264 
z
" style="fill: #c828c6; stroke: #c828c6"/>
    </g>
    <g id="text_16">
     <text style="font: 200 12px 'Calibri'; text-anchor: start" x="127.864688" y="84.370125" transform="rotate(-0 127.864688 84.370125)">t1t2</text>
    </g>
    <g id="PathCollection_10">
     <path d="M 106.264688 99.340639 
C 106.68401 99.340639 107.086215 99.17404 107.382721 98.877534 
C 107.679228 98.581028 107.845826 98.178823 107.845826 97.7595 
C 107.845826 97.340177 107.679228 96.937972 107.382721 96.641466 
C 107.086215 96.34496 106.68401 96.178361 106.264688 96.178361 
C 105.845365 96.178361 105.44316 96.34496 105.146654 96.641466 
C 104.850147 96.937972 104.683549 97.340177 104.683549 97.7595 
C 104.683549 98.178823 104.850147 98.581028 105.146654 98.877534 
C 105.44316 99.17404 105.845365 99.340639 106.264688 99.340639 
z
" style="fill: #1ad6d4; stroke: #1ad6d4"/>
    </g>
    <g id="text_17">
     <text style="font: 200 12px 'Calibri'; text-anchor: start" x="127.864688" y="100.9095" transform="rotate(-0 127.864688 100.9095)">thi</text>
    </g>
   </g>
  </g>
 </g>
 <defs>
  <clipPath id="peaf7280274">
   <rect x="35.1" y="15.552" width="217.62" height="99.792"/>
  </clipPath>
 </defs>
</svg>
