<?xml version="1.0" encoding="utf-8" standalone="no"?>
<!DOCTYPE svg PUBLIC "-//W3C//DTD SVG 1.1//EN"
  "http://www.w3.org/Graphics/SVG/1.1/DTD/svg11.dtd">
<svg xmlns:xlink="http://www.w3.org/1999/xlink" width="280.8pt" height="129.6pt" viewBox="0 0 280.8 129.6" xmlns="http://www.w3.org/2000/svg" version="1.1">
 <metadata>
  <rdf:RDF xmlns:dc="http://purl.org/dc/elements/1.1/" xmlns:cc="http://creativecommons.org/ns#" xmlns:rdf="http://www.w3.org/1999/02/22-rdf-syntax-ns#">
   <cc:Work>
    <dc:type rdf:resource="http://purl.org/dc/dcmitype/StillImage"/>
    <dc:date>2023-02-27T09:50:59.486398</dc:date>
    <dc:format>image/svg+xml</dc:format>
    <dc:creator>
     <cc:Agent>
      <dc:title>Matplotlib v3.6.2, https://matplotlib.org/</dc:title>
     </cc:Agent>
    </dc:creator>
   </cc:Work>
  </rdf:RDF>
 </metadata>
 <defs>
  <style type="text/css">*{stroke-linejoin: round; stroke-linecap: butt}</style>
 </defs>
 <g id="figure_1">
  <g id="patch_1">
   <path d="M 0 129.6 
L 280.8 129.6 
L 280.8 0 
L 0 0 
z
" style="fill: #ffffff"/>
  </g>
  <g id="axes_1">
   <g id="patch_2">
    <path d="M 35.1 115.344 
L 252.72 115.344 
L 252.72 15.552 
L 35.1 15.552 
z
" style="fill: #ffffff"/>
   </g>
   <g id="line2d_1">
    <path d="M 242.828182 89.27919 
L 231.837273 88.809728 
L 220.846364 89.702314 
L 209.855455 89.901981 
L 198.864545 90.349733 
L 187.873636 90.357378 
L 176.882727 90.219198 
L 165.891818 89.087716 
L 154.900909 87.592122 
L 143.91 85.040253 
L 132.919091 82.537146 
L 121.928182 80.185643 
L 110.937273 77.374579 
L 99.946364 74.709492 
L 88.955455 71.501446 
L 77.964545 69.025664 
L 66.973636 66.92717 
L 55.982727 64.584495 
L 44.991818 60.882361 
" clip-path="url(#p58265221f7)" style="fill: none; stroke: #cdf5cd; stroke-width: 1.5; stroke-linecap: square"/>
   </g>
   <g id="line2d_2">
    <path d="M 242.828182 94.085943 
L 231.837273 98.347873 
L 220.846364 101.197129 
L 209.855455 103.250279 
L 198.864545 104.981175 
L 187.873636 106.700659 
L 176.882727 108.210768 
L 165.891818 109.747974 
L 154.900909 110.246783 
L 143.91 110.808 
L 132.919091 110.598484 
L 121.928182 109.790584 
L 110.937273 108.820352 
L 99.946364 107.02285 
L 88.955455 104.675624 
L 77.964545 101.367656 
L 66.973636 95.84687 
L 55.982727 85.67104 
L 44.991818 69.204448 
" clip-path="url(#p58265221f7)" style="fill: none; stroke: #cacaf8; stroke-width: 1.5; stroke-linecap: square"/>
   </g>
   <g id="line2d_3">
    <path d="M 242.828182 86.125057 
L 231.837273 87.608647 
L 220.846364 88.657769 
L 209.855455 88.954413 
L 198.864545 89.223394 
L 187.873636 88.882459 
L 176.882727 87.942394 
L 165.891818 86.694166 
L 154.900909 84.930281 
L 143.91 82.910215 
L 132.919091 80.705217 
L 121.928182 78.639499 
L 110.937273 76.121182 
L 99.946364 73.265328 
L 88.955455 69.784521 
L 77.964545 66.028864 
L 66.973636 60.644219 
L 55.982727 52.798159 
L 44.991818 44.918682 
" clip-path="url(#p58265221f7)" style="fill: none; stroke: #feeeba; stroke-width: 1.5; stroke-linecap: square"/>
   </g>
   <g id="line2d_4">
    <path d="M 242.828182 93.203115 
L 231.837273 95.202185 
L 220.846364 94.540595 
L 209.855455 93.241843 
L 198.864545 91.59054 
L 187.873636 88.957997 
L 176.882727 85.938434 
L 165.891818 82.396157 
L 154.900909 78.447685 
L 143.91 74.628089 
L 132.919091 70.86069 
L 121.928182 67.234173 
L 110.937273 63.693505 
L 99.946364 60.405802 
L 88.955455 56.849924 
L 77.964545 52.200603 
L 66.973636 44.596413 
L 55.982727 32.792646 
L 44.991818 20.088 
" clip-path="url(#p58265221f7)" style="fill: none; stroke: #f5cdf5; stroke-width: 1.5; stroke-linecap: square"/>
   </g>
   <g id="line2d_5">
    <path d="M 242.828182 82.219208 
L 231.837273 84.302157 
L 220.846364 85.928823 
L 209.855455 86.797548 
L 198.864545 86.982314 
L 187.873636 86.254976 
L 176.882727 84.730986 
L 165.891818 82.892413 
L 154.900909 80.401434 
L 143.91 77.280737 
L 132.919091 73.627517 
L 121.928182 69.655177 
L 110.937273 64.886789 
L 99.946364 59.913469 
L 88.955455 54.84137 
L 77.964545 50.451798 
L 66.973636 45.876928 
L 55.982727 41.888254 
L 44.991818 40.478878 
" clip-path="url(#p58265221f7)" style="fill: none; stroke: #caf8f8; stroke-width: 1.5; stroke-linecap: square"/>
   </g>
   <g id="PathCollection_1">
    <defs>
     <path id="C0_0_932b415a01" d="M 0 1.581139 
C 0.419323 1.581139 0.821528 1.41454 1.118034 1.118034 
C 1.41454 0.821528 1.581139 0.419323 1.581139 -0 
C 1.581139 -0.419323 1.41454 -0.821528 1.118034 -1.118034 
C 0.821528 -1.41454 0.419323 -1.581139 0 -1.581139 
C -0.419323 -1.581139 -0.821528 -1.41454 -1.118034 -1.118034 
C -1.41454 -0.821528 -1.581139 -0.419323 -1.581139 0 
C -1.581139 0.419323 -1.41454 0.821528 -1.118034 1.118034 
C -0.821528 1.41454 -0.419323 1.581139 0 1.581139 
z
"/>
    </defs>
    <g clip-path="url(#p58265221f7)">
     <use xlink:href="#C0_0_932b415a01" x="242.828182" y="89.27919" style="fill: #cdf5cd; stroke: #cdf5cd"/>
    </g>
    <g clip-path="url(#p58265221f7)">
     <use xlink:href="#C0_0_932b415a01" x="231.837273" y="88.809728" style="fill: #cdf5cd; stroke: #cdf5cd"/>
    </g>
    <g clip-path="url(#p58265221f7)">
     <use xlink:href="#C0_0_932b415a01" x="220.846364" y="89.702314" style="fill: #cdf5cd; stroke: #cdf5cd"/>
    </g>
    <g clip-path="url(#p58265221f7)">
     <use xlink:href="#C0_0_932b415a01" x="209.855455" y="89.901981" style="fill: #cdf5cd; stroke: #cdf5cd"/>
    </g>
    <g clip-path="url(#p58265221f7)">
     <use xlink:href="#C0_0_932b415a01" x="198.864545" y="90.349733" style="fill: #cdf5cd; stroke: #cdf5cd"/>
    </g>
    <g clip-path="url(#p58265221f7)">
     <use xlink:href="#C0_0_932b415a01" x="187.873636" y="90.357378" style="fill: #cdf5cd; stroke: #cdf5cd"/>
    </g>
    <g clip-path="url(#p58265221f7)">
     <use xlink:href="#C0_0_932b415a01" x="176.882727" y="90.219198" style="fill: #cdf5cd; stroke: #cdf5cd"/>
    </g>
    <g clip-path="url(#p58265221f7)">
     <use xlink:href="#C0_0_932b415a01" x="165.891818" y="89.087716" style="fill: #cdf5cd; stroke: #cdf5cd"/>
    </g>
    <g clip-path="url(#p58265221f7)">
     <use xlink:href="#C0_0_932b415a01" x="154.900909" y="87.592122" style="fill: #cdf5cd; stroke: #cdf5cd"/>
    </g>
    <g clip-path="url(#p58265221f7)">
     <use xlink:href="#C0_0_932b415a01" x="143.91" y="85.040253" style="fill: #cdf5cd; stroke: #cdf5cd"/>
    </g>
    <g clip-path="url(#p58265221f7)">
     <use xlink:href="#C0_0_932b415a01" x="132.919091" y="82.537146" style="fill: #cdf5cd; stroke: #cdf5cd"/>
    </g>
    <g clip-path="url(#p58265221f7)">
     <use xlink:href="#C0_0_932b415a01" x="121.928182" y="80.185643" style="fill: #cdf5cd; stroke: #cdf5cd"/>
    </g>
    <g clip-path="url(#p58265221f7)">
     <use xlink:href="#C0_0_932b415a01" x="110.937273" y="77.374579" style="fill: #cdf5cd; stroke: #cdf5cd"/>
    </g>
    <g clip-path="url(#p58265221f7)">
     <use xlink:href="#C0_0_932b415a01" x="99.946364" y="74.709492" style="fill: #cdf5cd; stroke: #cdf5cd"/>
    </g>
    <g clip-path="url(#p58265221f7)">
     <use xlink:href="#C0_0_932b415a01" x="88.955455" y="71.501446" style="fill: #cdf5cd; stroke: #cdf5cd"/>
    </g>
    <g clip-path="url(#p58265221f7)">
     <use xlink:href="#C0_0_932b415a01" x="77.964545" y="69.025664" style="fill: #cdf5cd; stroke: #cdf5cd"/>
    </g>
    <g clip-path="url(#p58265221f7)">
     <use xlink:href="#C0_0_932b415a01" x="66.973636" y="66.92717" style="fill: #cdf5cd; stroke: #cdf5cd"/>
    </g>
    <g clip-path="url(#p58265221f7)">
     <use xlink:href="#C0_0_932b415a01" x="55.982727" y="64.584495" style="fill: #cdf5cd; stroke: #cdf5cd"/>
    </g>
    <g clip-path="url(#p58265221f7)">
     <use xlink:href="#C0_0_932b415a01" x="44.991818" y="60.882361" style="fill: #cdf5cd; stroke: #cdf5cd"/>
    </g>
   </g>
   <g id="PathCollection_2">
    <defs>
     <path id="C1_0_807ff44b79" d="M 0 1.581139 
C 0.419323 1.581139 0.821528 1.41454 1.118034 1.118034 
C 1.41454 0.821528 1.581139 0.419323 1.581139 -0 
C 1.581139 -0.419323 1.41454 -0.821528 1.118034 -1.118034 
C 0.821528 -1.41454 0.419323 -1.581139 0 -1.581139 
C -0.419323 -1.581139 -0.821528 -1.41454 -1.118034 -1.118034 
C -1.41454 -0.821528 -1.581139 -0.419323 -1.581139 0 
C -1.581139 0.419323 -1.41454 0.821528 -1.118034 1.118034 
C -0.821528 1.41454 -0.419323 1.581139 0 1.581139 
z
"/>
    </defs>
    <g clip-path="url(#p58265221f7)">
     <use xlink:href="#C1_0_807ff44b79" x="242.828182" y="94.085943" style="fill: #cacaf8; stroke: #cacaf8"/>
    </g>
    <g clip-path="url(#p58265221f7)">
     <use xlink:href="#C1_0_807ff44b79" x="231.837273" y="98.347873" style="fill: #cacaf8; stroke: #cacaf8"/>
    </g>
    <g clip-path="url(#p58265221f7)">
     <use xlink:href="#C1_0_807ff44b79" x="220.846364" y="101.197129" style="fill: #1a1ad6; stroke: #1a1ad6"/>
    </g>
    <g clip-path="url(#p58265221f7)">
     <use xlink:href="#C1_0_807ff44b79" x="209.855455" y="103.250279" style="fill: #1a1ad6; stroke: #1a1ad6"/>
    </g>
    <g clip-path="url(#p58265221f7)">
     <use xlink:href="#C1_0_807ff44b79" x="198.864545" y="104.981175" style="fill: #1a1ad6; stroke: #1a1ad6"/>
    </g>
    <g clip-path="url(#p58265221f7)">
     <use xlink:href="#C1_0_807ff44b79" x="187.873636" y="106.700659" style="fill: #1a1ad6; stroke: #1a1ad6"/>
    </g>
    <g clip-path="url(#p58265221f7)">
     <use xlink:href="#C1_0_807ff44b79" x="176.882727" y="108.210768" style="fill: #1a1ad6; stroke: #1a1ad6"/>
    </g>
    <g clip-path="url(#p58265221f7)">
     <use xlink:href="#C1_0_807ff44b79" x="165.891818" y="109.747974" style="fill: #1a1ad6; stroke: #1a1ad6"/>
    </g>
    <g clip-path="url(#p58265221f7)">
     <use xlink:href="#C1_0_807ff44b79" x="154.900909" y="110.246783" style="fill: #1a1ad6; stroke: #1a1ad6"/>
    </g>
    <g clip-path="url(#p58265221f7)">
     <use xlink:href="#C1_0_807ff44b79" x="143.91" y="110.808" style="fill: #1a1ad6; stroke: #1a1ad6"/>
    </g>
    <g clip-path="url(#p58265221f7)">
     <use xlink:href="#C1_0_807ff44b79" x="132.919091" y="110.598484" style="fill: #1a1ad6; stroke: #1a1ad6"/>
    </g>
    <g clip-path="url(#p58265221f7)">
     <use xlink:href="#C1_0_807ff44b79" x="121.928182" y="109.790584" style="fill: #1a1ad6; stroke: #1a1ad6"/>
    </g>
    <g clip-path="url(#p58265221f7)">
     <use xlink:href="#C1_0_807ff44b79" x="110.937273" y="108.820352" style="fill: #1a1ad6; stroke: #1a1ad6"/>
    </g>
    <g clip-path="url(#p58265221f7)">
     <use xlink:href="#C1_0_807ff44b79" x="99.946364" y="107.02285" style="fill: #1a1ad6; stroke: #1a1ad6"/>
    </g>
    <g clip-path="url(#p58265221f7)">
     <use xlink:href="#C1_0_807ff44b79" x="88.955455" y="104.675624" style="fill: #1a1ad6; stroke: #1a1ad6"/>
    </g>
    <g clip-path="url(#p58265221f7)">
     <use xlink:href="#C1_0_807ff44b79" x="77.964545" y="101.367656" style="fill: #cacaf8; stroke: #cacaf8"/>
    </g>
    <g clip-path="url(#p58265221f7)">
     <use xlink:href="#C1_0_807ff44b79" x="66.973636" y="95.84687" style="fill: #cacaf8; stroke: #cacaf8"/>
    </g>
    <g clip-path="url(#p58265221f7)">
     <use xlink:href="#C1_0_807ff44b79" x="55.982727" y="85.67104" style="fill: #cacaf8; stroke: #cacaf8"/>
    </g>
    <g clip-path="url(#p58265221f7)">
     <use xlink:href="#C1_0_807ff44b79" x="44.991818" y="69.204448" style="fill: #cacaf8; stroke: #cacaf8"/>
    </g>
   </g>
   <g id="PathCollection_3">
    <defs>
     <path id="C2_0_9aab0cc642" d="M 0 1.581139 
C 0.419323 1.581139 0.821528 1.41454 1.118034 1.118034 
C 1.41454 0.821528 1.581139 0.419323 1.581139 -0 
C 1.581139 -0.419323 1.41454 -0.821528 1.118034 -1.118034 
C 0.821528 -1.41454 0.419323 -1.581139 0 -1.581139 
C -0.419323 -1.581139 -0.821528 -1.41454 -1.118034 -1.118034 
C -1.41454 -0.821528 -1.581139 -0.419323 -1.581139 0 
C -1.581139 0.419323 -1.41454 0.821528 -1.118034 1.118034 
C -0.821528 1.41454 -0.419323 1.581139 0 1.581139 
z
"/>
    </defs>
    <g clip-path="url(#p58265221f7)">
     <use xlink:href="#C2_0_9aab0cc642" x="242.828182" y="86.125057" style="fill: #feeeba; stroke: #feeeba"/>
    </g>
    <g clip-path="url(#p58265221f7)">
     <use xlink:href="#C2_0_9aab0cc642" x="231.837273" y="87.608647" style="fill: #feeeba; stroke: #feeeba"/>
    </g>
    <g clip-path="url(#p58265221f7)">
     <use xlink:href="#C2_0_9aab0cc642" x="220.846364" y="88.657769" style="fill: #feeeba; stroke: #feeeba"/>
    </g>
    <g clip-path="url(#p58265221f7)">
     <use xlink:href="#C2_0_9aab0cc642" x="209.855455" y="88.954413" style="fill: #feeeba; stroke: #feeeba"/>
    </g>
    <g clip-path="url(#p58265221f7)">
     <use xlink:href="#C2_0_9aab0cc642" x="198.864545" y="89.223394" style="fill: #feeeba; stroke: #feeeba"/>
    </g>
    <g clip-path="url(#p58265221f7)">
     <use xlink:href="#C2_0_9aab0cc642" x="187.873636" y="88.882459" style="fill: #feeeba; stroke: #feeeba"/>
    </g>
    <g clip-path="url(#p58265221f7)">
     <use xlink:href="#C2_0_9aab0cc642" x="176.882727" y="87.942394" style="fill: #feeeba; stroke: #feeeba"/>
    </g>
    <g clip-path="url(#p58265221f7)">
     <use xlink:href="#C2_0_9aab0cc642" x="165.891818" y="86.694166" style="fill: #feeeba; stroke: #feeeba"/>
    </g>
    <g clip-path="url(#p58265221f7)">
     <use xlink:href="#C2_0_9aab0cc642" x="154.900909" y="84.930281" style="fill: #feeeba; stroke: #feeeba"/>
    </g>
    <g clip-path="url(#p58265221f7)">
     <use xlink:href="#C2_0_9aab0cc642" x="143.91" y="82.910215" style="fill: #feeeba; stroke: #feeeba"/>
    </g>
    <g clip-path="url(#p58265221f7)">
     <use xlink:href="#C2_0_9aab0cc642" x="132.919091" y="80.705217" style="fill: #feeeba; stroke: #feeeba"/>
    </g>
    <g clip-path="url(#p58265221f7)">
     <use xlink:href="#C2_0_9aab0cc642" x="121.928182" y="78.639499" style="fill: #feeeba; stroke: #feeeba"/>
    </g>
    <g clip-path="url(#p58265221f7)">
     <use xlink:href="#C2_0_9aab0cc642" x="110.937273" y="76.121182" style="fill: #feeeba; stroke: #feeeba"/>
    </g>
    <g clip-path="url(#p58265221f7)">
     <use xlink:href="#C2_0_9aab0cc642" x="99.946364" y="73.265328" style="fill: #feeeba; stroke: #feeeba"/>
    </g>
    <g clip-path="url(#p58265221f7)">
     <use xlink:href="#C2_0_9aab0cc642" x="88.955455" y="69.784521" style="fill: #feeeba; stroke: #feeeba"/>
    </g>
    <g clip-path="url(#p58265221f7)">
     <use xlink:href="#C2_0_9aab0cc642" x="77.964545" y="66.028864" style="fill: #feeeba; stroke: #feeeba"/>
    </g>
    <g clip-path="url(#p58265221f7)">
     <use xlink:href="#C2_0_9aab0cc642" x="66.973636" y="60.644219" style="fill: #feeeba; stroke: #feeeba"/>
    </g>
    <g clip-path="url(#p58265221f7)">
     <use xlink:href="#C2_0_9aab0cc642" x="55.982727" y="52.798159" style="fill: #feeeba; stroke: #feeeba"/>
    </g>
    <g clip-path="url(#p58265221f7)">
     <use xlink:href="#C2_0_9aab0cc642" x="44.991818" y="44.918682" style="fill: #f2b701; stroke: #f2b701"/>
    </g>
   </g>
   <g id="PathCollection_4">
    <defs>
     <path id="C3_0_df987941cc" d="M 0 1.581139 
C 0.419323 1.581139 0.821528 1.41454 1.118034 1.118034 
C 1.41454 0.821528 1.581139 0.419323 1.581139 -0 
C 1.581139 -0.419323 1.41454 -0.821528 1.118034 -1.118034 
C 0.821528 -1.41454 0.419323 -1.581139 0 -1.581139 
C -0.419323 -1.581139 -0.821528 -1.41454 -1.118034 -1.118034 
C -1.41454 -0.821528 -1.581139 -0.419323 -1.581139 0 
C -1.581139 0.419323 -1.41454 0.821528 -1.118034 1.118034 
C -0.821528 1.41454 -0.419323 1.581139 0 1.581139 
z
"/>
    </defs>
    <g clip-path="url(#p58265221f7)">
     <use xlink:href="#C3_0_df987941cc" x="242.828182" y="93.203115" style="fill: #f5cdf5; stroke: #f5cdf5"/>
    </g>
    <g clip-path="url(#p58265221f7)">
     <use xlink:href="#C3_0_df987941cc" x="231.837273" y="95.202185" style="fill: #f5cdf5; stroke: #f5cdf5"/>
    </g>
    <g clip-path="url(#p58265221f7)">
     <use xlink:href="#C3_0_df987941cc" x="220.846364" y="94.540595" style="fill: #f5cdf5; stroke: #f5cdf5"/>
    </g>
    <g clip-path="url(#p58265221f7)">
     <use xlink:href="#C3_0_df987941cc" x="209.855455" y="93.241843" style="fill: #f5cdf5; stroke: #f5cdf5"/>
    </g>
    <g clip-path="url(#p58265221f7)">
     <use xlink:href="#C3_0_df987941cc" x="198.864545" y="91.59054" style="fill: #f5cdf5; stroke: #f5cdf5"/>
    </g>
    <g clip-path="url(#p58265221f7)">
     <use xlink:href="#C3_0_df987941cc" x="187.873636" y="88.957997" style="fill: #f5cdf5; stroke: #f5cdf5"/>
    </g>
    <g clip-path="url(#p58265221f7)">
     <use xlink:href="#C3_0_df987941cc" x="176.882727" y="85.938434" style="fill: #f5cdf5; stroke: #f5cdf5"/>
    </g>
    <g clip-path="url(#p58265221f7)">
     <use xlink:href="#C3_0_df987941cc" x="165.891818" y="82.396157" style="fill: #f5cdf5; stroke: #f5cdf5"/>
    </g>
    <g clip-path="url(#p58265221f7)">
     <use xlink:href="#C3_0_df987941cc" x="154.900909" y="78.447685" style="fill: #f5cdf5; stroke: #f5cdf5"/>
    </g>
    <g clip-path="url(#p58265221f7)">
     <use xlink:href="#C3_0_df987941cc" x="143.91" y="74.628089" style="fill: #f5cdf5; stroke: #f5cdf5"/>
    </g>
    <g clip-path="url(#p58265221f7)">
     <use xlink:href="#C3_0_df987941cc" x="132.919091" y="70.86069" style="fill: #f5cdf5; stroke: #f5cdf5"/>
    </g>
    <g clip-path="url(#p58265221f7)">
     <use xlink:href="#C3_0_df987941cc" x="121.928182" y="67.234173" style="fill: #f5cdf5; stroke: #f5cdf5"/>
    </g>
    <g clip-path="url(#p58265221f7)">
     <use xlink:href="#C3_0_df987941cc" x="110.937273" y="63.693505" style="fill: #f5cdf5; stroke: #f5cdf5"/>
    </g>
    <g clip-path="url(#p58265221f7)">
     <use xlink:href="#C3_0_df987941cc" x="99.946364" y="60.405802" style="fill: #f5cdf5; stroke: #f5cdf5"/>
    </g>
    <g clip-path="url(#p58265221f7)">
     <use xlink:href="#C3_0_df987941cc" x="88.955455" y="56.849924" style="fill: #f5cdf5; stroke: #f5cdf5"/>
    </g>
    <g clip-path="url(#p58265221f7)">
     <use xlink:href="#C3_0_df987941cc" x="77.964545" y="52.200603" style="fill: #f5cdf5; stroke: #f5cdf5"/>
    </g>
    <g clip-path="url(#p58265221f7)">
     <use xlink:href="#C3_0_df987941cc" x="66.973636" y="44.596413" style="fill: #c828c6; stroke: #c828c6"/>
    </g>
    <g clip-path="url(#p58265221f7)">
     <use xlink:href="#C3_0_df987941cc" x="55.982727" y="32.792646" style="fill: #c828c6; stroke: #c828c6"/>
    </g>
    <g clip-path="url(#p58265221f7)">
     <use xlink:href="#C3_0_df987941cc" x="44.991818" y="20.088" style="fill: #c828c6; stroke: #c828c6"/>
    </g>
   </g>
   <g id="PathCollection_5">
    <defs>
     <path id="C4_0_af69fdd815" d="M 0 1.581139 
C 0.419323 1.581139 0.821528 1.41454 1.118034 1.118034 
C 1.41454 0.821528 1.581139 0.419323 1.581139 -0 
C 1.581139 -0.419323 1.41454 -0.821528 1.118034 -1.118034 
C 0.821528 -1.41454 0.419323 -1.581139 0 -1.581139 
C -0.419323 -1.581139 -0.821528 -1.41454 -1.118034 -1.118034 
C -1.41454 -0.821528 -1.581139 -0.419323 -1.581139 0 
C -1.581139 0.419323 -1.41454 0.821528 -1.118034 1.118034 
C -0.821528 1.41454 -0.419323 1.581139 0 1.581139 
z
"/>
    </defs>
    <g clip-path="url(#p58265221f7)">
     <use xlink:href="#C4_0_af69fdd815" x="242.828182" y="82.219208" style="fill: #caf8f8; stroke: #caf8f8"/>
    </g>
    <g clip-path="url(#p58265221f7)">
     <use xlink:href="#C4_0_af69fdd815" x="231.837273" y="84.302157" style="fill: #caf8f8; stroke: #caf8f8"/>
    </g>
    <g clip-path="url(#p58265221f7)">
     <use xlink:href="#C4_0_af69fdd815" x="220.846364" y="85.928823" style="fill: #caf8f8; stroke: #caf8f8"/>
    </g>
    <g clip-path="url(#p58265221f7)">
     <use xlink:href="#C4_0_af69fdd815" x="209.855455" y="86.797548" style="fill: #caf8f8; stroke: #caf8f8"/>
    </g>
    <g clip-path="url(#p58265221f7)">
     <use xlink:href="#C4_0_af69fdd815" x="198.864545" y="86.982314" style="fill: #caf8f8; stroke: #caf8f8"/>
    </g>
    <g clip-path="url(#p58265221f7)">
     <use xlink:href="#C4_0_af69fdd815" x="187.873636" y="86.254976" style="fill: #caf8f8; stroke: #caf8f8"/>
    </g>
    <g clip-path="url(#p58265221f7)">
     <use xlink:href="#C4_0_af69fdd815" x="176.882727" y="84.730986" style="fill: #caf8f8; stroke: #caf8f8"/>
    </g>
    <g clip-path="url(#p58265221f7)">
     <use xlink:href="#C4_0_af69fdd815" x="165.891818" y="82.892413" style="fill: #caf8f8; stroke: #caf8f8"/>
    </g>
    <g clip-path="url(#p58265221f7)">
     <use xlink:href="#C4_0_af69fdd815" x="154.900909" y="80.401434" style="fill: #caf8f8; stroke: #caf8f8"/>
    </g>
    <g clip-path="url(#p58265221f7)">
     <use xlink:href="#C4_0_af69fdd815" x="143.91" y="77.280737" style="fill: #caf8f8; stroke: #caf8f8"/>
    </g>
    <g clip-path="url(#p58265221f7)">
     <use xlink:href="#C4_0_af69fdd815" x="132.919091" y="73.627517" style="fill: #caf8f8; stroke: #caf8f8"/>
    </g>
    <g clip-path="url(#p58265221f7)">
     <use xlink:href="#C4_0_af69fdd815" x="121.928182" y="69.655177" style="fill: #caf8f8; stroke: #caf8f8"/>
    </g>
    <g clip-path="url(#p58265221f7)">
     <use xlink:href="#C4_0_af69fdd815" x="110.937273" y="64.886789" style="fill: #caf8f8; stroke: #caf8f8"/>
    </g>
    <g clip-path="url(#p58265221f7)">
     <use xlink:href="#C4_0_af69fdd815" x="99.946364" y="59.913469" style="fill: #caf8f8; stroke: #caf8f8"/>
    </g>
    <g clip-path="url(#p58265221f7)">
     <use xlink:href="#C4_0_af69fdd815" x="88.955455" y="54.84137" style="fill: #caf8f8; stroke: #caf8f8"/>
    </g>
    <g clip-path="url(#p58265221f7)">
     <use xlink:href="#C4_0_af69fdd815" x="77.964545" y="50.451798" style="fill: #caf8f8; stroke: #caf8f8"/>
    </g>
    <g clip-path="url(#p58265221f7)">
     <use xlink:href="#C4_0_af69fdd815" x="66.973636" y="45.876928" style="fill: #1ad6d4; stroke: #1ad6d4"/>
    </g>
    <g clip-path="url(#p58265221f7)">
     <use xlink:href="#C4_0_af69fdd815" x="55.982727" y="41.888254" style="fill: #1ad6d4; stroke: #1ad6d4"/>
    </g>
    <g clip-path="url(#p58265221f7)">
     <use xlink:href="#C4_0_af69fdd815" x="44.991818" y="40.478878" style="fill: #1ad6d4; stroke: #1ad6d4"/>
    </g>
   </g>
   <g id="matplotlib.axis_1">
    <g id="xtick_1">
     <g id="line2d_6">
      <defs>
       <path id="ma46c3415cc" d="M 0 0 
L 0 3.5 
" style="stroke: #000000; stroke-width: 0.8"/>
      </defs>
      <g>
       <use xlink:href="#ma46c3415cc" x="55.982727" y="115.344" style="stroke: #000000; stroke-width: 0.8"/>
      </g>
     </g>
     <g id="text_1">
      <text style="font: 200 12px 'Calibri'; text-anchor: middle" x="55.982727" y="130.5115" transform="rotate(-0 55.982727 130.5115)">10</text>
     </g>
    </g>
    <g id="xtick_2">
     <g id="line2d_7">
      <g>
       <use xlink:href="#ma46c3415cc" x="77.964545" y="115.344" style="stroke: #000000; stroke-width: 0.8"/>
      </g>
     </g>
     <g id="text_2">
      <text style="font: 200 12px 'Calibri'; text-anchor: middle" x="77.964545" y="130.5115" transform="rotate(-0 77.964545 130.5115)">20</text>
     </g>
    </g>
    <g id="xtick_3">
     <g id="line2d_8">
      <g>
       <use xlink:href="#ma46c3415cc" x="99.946364" y="115.344" style="stroke: #000000; stroke-width: 0.8"/>
      </g>
     </g>
     <g id="text_3">
      <text style="font: 200 12px 'Calibri'; text-anchor: middle" x="99.946364" y="130.5115" transform="rotate(-0 99.946364 130.5115)">30</text>
     </g>
    </g>
    <g id="xtick_4">
     <g id="line2d_9">
      <g>
       <use xlink:href="#ma46c3415cc" x="121.928182" y="115.344" style="stroke: #000000; stroke-width: 0.8"/>
      </g>
     </g>
     <g id="text_4">
      <text style="font: 200 12px 'Calibri'; text-anchor: middle" x="121.928182" y="130.5115" transform="rotate(-0 121.928182 130.5115)">40</text>
     </g>
    </g>
    <g id="xtick_5">
     <g id="line2d_10">
      <g>
       <use xlink:href="#ma46c3415cc" x="143.91" y="115.344" style="stroke: #000000; stroke-width: 0.8"/>
      </g>
     </g>
     <g id="text_5">
      <text style="font: 200 12px 'Calibri'; text-anchor: middle" x="143.91" y="130.5115" transform="rotate(-0 143.91 130.5115)">50</text>
     </g>
    </g>
    <g id="xtick_6">
     <g id="line2d_11">
      <g>
       <use xlink:href="#ma46c3415cc" x="165.891818" y="115.344" style="stroke: #000000; stroke-width: 0.8"/>
      </g>
     </g>
     <g id="text_6">
      <text style="font: 200 12px 'Calibri'; text-anchor: middle" x="165.891818" y="130.5115" transform="rotate(-0 165.891818 130.5115)">60</text>
     </g>
    </g>
    <g id="xtick_7">
     <g id="line2d_12">
      <g>
       <use xlink:href="#ma46c3415cc" x="187.873636" y="115.344" style="stroke: #000000; stroke-width: 0.8"/>
      </g>
     </g>
     <g id="text_7">
      <text style="font: 200 12px 'Calibri'; text-anchor: middle" x="187.873636" y="130.5115" transform="rotate(-0 187.873636 130.5115)">70</text>
     </g>
    </g>
    <g id="xtick_8">
     <g id="line2d_13">
      <g>
       <use xlink:href="#ma46c3415cc" x="209.855455" y="115.344" style="stroke: #000000; stroke-width: 0.8"/>
      </g>
     </g>
     <g id="text_8">
      <text style="font: 200 12px 'Calibri'; text-anchor: middle" x="209.855455" y="130.5115" transform="rotate(-0 209.855455 130.5115)">80</text>
     </g>
    </g>
    <g id="xtick_9">
     <g id="line2d_14">
      <g>
       <use xlink:href="#ma46c3415cc" x="231.837273" y="115.344" style="stroke: #000000; stroke-width: 0.8"/>
      </g>
     </g>
     <g id="text_9">
      <text style="font: 200 12px 'Calibri'; text-anchor: middle" x="231.837273" y="130.5115" transform="rotate(-0 231.837273 130.5115)">90</text>
     </g>
    </g>
    <g id="xtick_10">
     <g id="line2d_15">
      <defs>
       <path id="m97f43ee728" d="M 0 0 
L 0 2 
" style="stroke: #000000; stroke-width: 0.6"/>
      </defs>
      <g>
       <use xlink:href="#m97f43ee728" x="44.991818" y="115.344" style="stroke: #000000; stroke-width: 0.6"/>
      </g>
     </g>
    </g>
    <g id="xtick_11">
     <g id="line2d_16">
      <g>
       <use xlink:href="#m97f43ee728" x="66.973636" y="115.344" style="stroke: #000000; stroke-width: 0.6"/>
      </g>
     </g>
    </g>
    <g id="xtick_12">
     <g id="line2d_17">
      <g>
       <use xlink:href="#m97f43ee728" x="88.955455" y="115.344" style="stroke: #000000; stroke-width: 0.6"/>
      </g>
     </g>
    </g>
    <g id="xtick_13">
     <g id="line2d_18">
      <g>
       <use xlink:href="#m97f43ee728" x="110.937273" y="115.344" style="stroke: #000000; stroke-width: 0.6"/>
      </g>
     </g>
    </g>
    <g id="xtick_14">
     <g id="line2d_19">
      <g>
       <use xlink:href="#m97f43ee728" x="132.919091" y="115.344" style="stroke: #000000; stroke-width: 0.6"/>
      </g>
     </g>
    </g>
    <g id="xtick_15">
     <g id="line2d_20">
      <g>
       <use xlink:href="#m97f43ee728" x="154.900909" y="115.344" style="stroke: #000000; stroke-width: 0.6"/>
      </g>
     </g>
    </g>
    <g id="xtick_16">
     <g id="line2d_21">
      <g>
       <use xlink:href="#m97f43ee728" x="176.882727" y="115.344" style="stroke: #000000; stroke-width: 0.6"/>
      </g>
     </g>
    </g>
    <g id="xtick_17">
     <g id="line2d_22">
      <g>
       <use xlink:href="#m97f43ee728" x="198.864545" y="115.344" style="stroke: #000000; stroke-width: 0.6"/>
      </g>
     </g>
    </g>
    <g id="xtick_18">
     <g id="line2d_23">
      <g>
       <use xlink:href="#m97f43ee728" x="220.846364" y="115.344" style="stroke: #000000; stroke-width: 0.6"/>
      </g>
     </g>
    </g>
    <g id="xtick_19">
     <g id="line2d_24">
      <g>
       <use xlink:href="#m97f43ee728" x="242.828182" y="115.344" style="stroke: #000000; stroke-width: 0.6"/>
      </g>
     </g>
    </g>
   </g>
   <g id="matplotlib.axis_2">
    <g id="ytick_1">
     <g id="line2d_25">
      <defs>
       <path id="m5940d973c5" d="M 0 0 
L -3.5 0 
" style="stroke: #000000; stroke-width: 0.8"/>
      </defs>
      <g>
       <use xlink:href="#m5940d973c5" x="35.1" y="76.626965" style="stroke: #000000; stroke-width: 0.8"/>
      </g>
     </g>
     <g id="text_10">
      <text style="font: 200 12px 'Calibri'; text-anchor: end" x="28.1" y="80.710715" transform="rotate(-0 28.1 80.710715)">0</text>
     </g>
    </g>
    <g id="ytick_2">
     <g id="line2d_26">
      <g>
       <use xlink:href="#m5940d973c5" x="35.1" y="27.051334" style="stroke: #000000; stroke-width: 0.8"/>
      </g>
     </g>
     <g id="text_11">
      <text style="font: 200 12px 'Calibri'; text-anchor: end" x="28.1" y="31.135084" transform="rotate(-0 28.1 31.135084)">5</text>
     </g>
    </g>
   </g>
   <g id="line2d_27">
    <path d="M 242.828182 76.626965 
L 231.837273 76.626965 
L 220.846364 76.626965 
L 209.855455 76.626965 
L 198.864545 76.626965 
L 187.873636 76.626965 
L 176.882727 76.626965 
L 165.891818 76.626965 
L 154.900909 76.626965 
L 143.91 76.626965 
L 132.919091 76.626965 
L 121.928182 76.626965 
L 110.937273 76.626965 
L 99.946364 76.626965 
L 88.955455 76.626965 
L 77.964545 76.626965 
L 66.973636 76.626965 
L 55.982727 76.626965 
L 44.991818 76.626965 
" clip-path="url(#p58265221f7)" style="fill: none; stroke-dasharray: 5.55,2.4; stroke-dashoffset: 0; stroke: #d3d3d3; stroke-width: 1.5"/>
   </g>
   <g id="line2d_28">
    <path d="M 242.828182 76.626965 
L 231.837273 76.626965 
L 220.846364 76.626965 
L 209.855455 76.626965 
L 198.864545 76.626965 
L 187.873636 76.626965 
L 176.882727 76.626965 
L 165.891818 76.626965 
L 154.900909 76.626965 
L 143.91 76.626965 
L 132.919091 76.626965 
L 121.928182 76.626965 
L 110.937273 76.626965 
L 99.946364 76.626965 
L 88.955455 76.626965 
L 77.964545 76.626965 
L 66.973636 76.626965 
L 55.982727 76.626965 
L 44.991818 76.626965 
" clip-path="url(#p58265221f7)" style="fill: none; stroke-dasharray: 5.55,2.4; stroke-dashoffset: 0; stroke: #d3d3d3; stroke-width: 1.5"/>
   </g>
   <g id="line2d_29">
    <path d="M 242.828182 76.626965 
L 231.837273 76.626965 
L 220.846364 76.626965 
L 209.855455 76.626965 
L 198.864545 76.626965 
L 187.873636 76.626965 
L 176.882727 76.626965 
L 165.891818 76.626965 
L 154.900909 76.626965 
L 143.91 76.626965 
L 132.919091 76.626965 
L 121.928182 76.626965 
L 110.937273 76.626965 
L 99.946364 76.626965 
L 88.955455 76.626965 
L 77.964545 76.626965 
L 66.973636 76.626965 
L 55.982727 76.626965 
L 44.991818 76.626965 
" clip-path="url(#p58265221f7)" style="fill: none; stroke-dasharray: 5.55,2.4; stroke-dashoffset: 0; stroke: #d3d3d3; stroke-width: 1.5"/>
   </g>
   <g id="line2d_30">
    <path d="M 242.828182 76.626965 
L 231.837273 76.626965 
L 220.846364 76.626965 
L 209.855455 76.626965 
L 198.864545 76.626965 
L 187.873636 76.626965 
L 176.882727 76.626965 
L 165.891818 76.626965 
L 154.900909 76.626965 
L 143.91 76.626965 
L 132.919091 76.626965 
L 121.928182 76.626965 
L 110.937273 76.626965 
L 99.946364 76.626965 
L 88.955455 76.626965 
L 77.964545 76.626965 
L 66.973636 76.626965 
L 55.982727 76.626965 
L 44.991818 76.626965 
" clip-path="url(#p58265221f7)" style="fill: none; stroke-dasharray: 5.55,2.4; stroke-dashoffset: 0; stroke: #d3d3d3; stroke-width: 1.5"/>
   </g>
   <g id="line2d_31">
    <path d="M 242.828182 76.626965 
L 231.837273 76.626965 
L 220.846364 76.626965 
L 209.855455 76.626965 
L 198.864545 76.626965 
L 187.873636 76.626965 
L 176.882727 76.626965 
L 165.891818 76.626965 
L 154.900909 76.626965 
L 143.91 76.626965 
L 132.919091 76.626965 
L 121.928182 76.626965 
L 110.937273 76.626965 
L 99.946364 76.626965 
L 88.955455 76.626965 
L 77.964545 76.626965 
L 66.973636 76.626965 
L 55.982727 76.626965 
L 44.991818 76.626965 
" clip-path="url(#p58265221f7)" style="fill: none; stroke-dasharray: 5.55,2.4; stroke-dashoffset: 0; stroke: #d3d3d3; stroke-width: 1.5"/>
   </g>
   <g id="patch_3">
    <path d="M 35.1 115.344 
L 35.1 15.552 
" style="fill: none; stroke: #000000; stroke-width: 0.8; stroke-linejoin: miter; stroke-linecap: square"/>
   </g>
   <g id="patch_4">
    <path d="M 35.1 115.344 
L 252.72 115.344 
" style="fill: none; stroke: #000000; stroke-width: 0.8; stroke-linejoin: miter; stroke-linecap: square"/>
   </g>
   <g id="legend_1">
    <g id="patch_5">
     <path d="M 91.864688 107.848875 
L 195.955313 107.848875 
Q 198.355313 107.848875 198.355313 105.448875 
L 198.355313 23.952 
Q 198.355313 21.552 195.955313 21.552 
L 91.864688 21.552 
Q 89.464688 21.552 89.464688 23.952 
L 89.464688 105.448875 
Q 89.464688 107.848875 91.864688 107.848875 
z
" style="fill: #ffffff; opacity: 0.8; stroke: #cccccc; stroke-linejoin: miter"/>
    </g>
    <g id="PathCollection_6">
     <path d="M 106.264688 33.183139 
C 106.68401 33.183139 107.086215 33.01654 107.382721 32.720034 
C 107.679228 32.423528 107.845826 32.021323 107.845826 31.602 
C 107.845826 31.182677 107.679228 30.780472 107.382721 30.483966 
C 107.086215 30.18746 106.68401 30.020861 106.264688 30.020861 
C 105.845365 30.020861 105.44316 30.18746 105.146654 30.483966 
C 104.850147 30.780472 104.683549 31.182677 104.683549 31.602 
C 104.683549 32.021323 104.850147 32.423528 105.146654 32.720034 
C 105.44316 33.01654 105.845365 33.183139 106.264688 33.183139 
z
" style="fill: #cdf5cd; stroke: #cdf5cd"/>
    </g>
    <g id="text_12">
     <text style="font: 200 12px 'Calibri'; text-anchor: start" x="127.864688" y="34.752" transform="rotate(-0 127.864688 34.752)">receptor_den</text>
    </g>
    <g id="PathCollection_7">
     <path d="M 106.264688 49.722514 
C 106.68401 49.722514 107.086215 49.555915 107.382721 49.259409 
C 107.679228 48.962903 107.845826 48.560698 107.845826 48.141375 
C 107.845826 47.722052 107.679228 47.319847 107.382721 47.023341 
C 107.086215 46.726835 106.68401 46.560236 106.264688 46.560236 
C 105.845365 46.560236 105.44316 46.726835 105.146654 47.023341 
C 104.850147 47.319847 104.683549 47.722052 104.683549 48.141375 
C 104.683549 48.560698 104.850147 48.962903 105.146654 49.259409 
C 105.44316 49.555915 105.845365 49.722514 106.264688 49.722514 
z
" style="fill: #cacaf8; stroke: #cacaf8"/>
    </g>
    <g id="text_13">
     <text style="font: 200 12px 'Calibri'; text-anchor: start" x="127.864688" y="51.291375" transform="rotate(-0 127.864688 51.291375)">EI_ratio</text>
    </g>
    <g id="PathCollection_8">
     <path d="M 106.264688 66.261889 
C 106.68401 66.261889 107.086215 66.09529 107.382721 65.798784 
C 107.679228 65.502278 107.845826 65.100073 107.845826 64.68075 
C 107.845826 64.261427 107.679228 63.859222 107.382721 63.562716 
C 107.086215 63.26621 106.68401 63.099611 106.264688 63.099611 
C 105.845365 63.099611 105.44316 63.26621 105.146654 63.562716 
C 104.850147 63.859222 104.683549 64.261427 104.683549 64.68075 
C 104.683549 65.100073 104.850147 65.502278 105.146654 65.798784 
C 105.44316 66.09529 105.845365 66.261889 106.264688 66.261889 
z
" style="fill: #feeeba; stroke: #feeeba"/>
    </g>
    <g id="text_14">
     <text style="font: 200 12px 'Calibri'; text-anchor: start" x="127.864688" y="67.83075" transform="rotate(-0 127.864688 67.83075)">genePC1</text>
    </g>
    <g id="PathCollection_9">
     <path d="M 106.264688 82.801264 
C 106.68401 82.801264 107.086215 82.634665 107.382721 82.338159 
C 107.679228 82.041653 107.845826 81.639448 107.845826 81.220125 
C 107.845826 80.800802 107.679228 80.398597 107.382721 80.102091 
C 107.086215 79.805585 106.68401 79.638986 106.264688 79.638986 
C 105.845365 79.638986 105.44316 79.805585 105.146654 80.102091 
C 104.850147 80.398597 104.683549 80.800802 104.683549 81.220125 
C 104.683549 81.639448 104.850147 82.041653 105.146654 82.338159 
C 105.44316 82.634665 105.845365 82.801264 106.264688 82.801264 
z
" style="fill: #f5cdf5; stroke: #f5cdf5"/>
    </g>
    <g id="text_15">
     <text style="font: 200 12px 'Calibri'; text-anchor: start" x="127.864688" y="84.370125" transform="rotate(-0 127.864688 84.370125)">t1t2</text>
    </g>
    <g id="PathCollection_10">
     <path d="M 106.264688 99.340639 
C 106.68401 99.340639 107.086215 99.17404 107.382721 98.877534 
C 107.679228 98.581028 107.845826 98.178823 107.845826 97.7595 
C 107.845826 97.340177 107.679228 96.937972 107.382721 96.641466 
C 107.086215 96.34496 106.68401 96.178361 106.264688 96.178361 
C 105.845365 96.178361 105.44316 96.34496 105.146654 96.641466 
C 104.850147 96.937972 104.683549 97.340177 104.683549 97.7595 
C 104.683549 98.178823 104.850147 98.581028 105.146654 98.877534 
C 105.44316 99.17404 105.845365 99.340639 106.264688 99.340639 
z
" style="fill: #caf8f8; stroke: #caf8f8"/>
    </g>
    <g id="text_16">
     <text style="font: 200 12px 'Calibri'; text-anchor: start" x="127.864688" y="100.9095" transform="rotate(-0 127.864688 100.9095)">thi</text>
    </g>
   </g>
  </g>
 </g>
 <defs>
  <clipPath id="p58265221f7">
   <rect x="35.1" y="15.552" width="217.62" height="99.792"/>
  </clipPath>
 </defs>
</svg>
