<?xml version="1.0" encoding="utf-8" standalone="no"?>
<!DOCTYPE svg PUBLIC "-//W3C//DTD SVG 1.1//EN"
  "http://www.w3.org/Graphics/SVG/1.1/DTD/svg11.dtd">
<svg xmlns:xlink="http://www.w3.org/1999/xlink" width="167.38pt" height="114.866875pt" viewBox="0 0 167.38 114.866875" xmlns="http://www.w3.org/2000/svg" version="1.1">
 <metadata>
  <rdf:RDF xmlns:dc="http://purl.org/dc/elements/1.1/" xmlns:cc="http://creativecommons.org/ns#" xmlns:rdf="http://www.w3.org/1999/02/22-rdf-syntax-ns#">
   <cc:Work>
    <dc:type rdf:resource="http://purl.org/dc/dcmitype/StillImage"/>
    <dc:date>2023-04-11T00:54:18.969285</dc:date>
    <dc:format>image/svg+xml</dc:format>
    <dc:creator>
     <cc:Agent>
      <dc:title>Matplotlib v3.6.2, https://matplotlib.org/</dc:title>
     </cc:Agent>
    </dc:creator>
   </cc:Work>
  </rdf:RDF>
 </metadata>
 <defs>
  <style type="text/css">*{stroke-linejoin: round; stroke-linecap: butt}</style>
 </defs>
 <g id="figure_1">
  <g id="patch_1">
   <path d="M 0 114.866875 
L 167.38 114.866875 
L 167.38 0 
L 0 0 
z
" style="fill: #ffffff"/>
  </g>
  <g id="axes_1">
   <g id="patch_2">
    <path d="M 26.26 90.36 
L 160.18 90.36 
L 160.18 7.2 
L 26.26 7.2 
z
" style="fill: #ffffff"/>
   </g>
   <g id="line2d_1">
    <path d="M 154.092727 79.38036 
L 147.329091 82.32649 
L 140.565455 83.180274 
L 133.801818 82.542817 
L 127.038182 83.510529 
L 120.274545 84.330956 
L 113.510909 83.982834 
L 106.747273 86.58 
L 99.983636 85.135643 
L 93.22 83.371577 
L 86.456364 82.264402 
L 79.692727 76.804851 
L 72.929091 70.523865 
L 66.165455 61.718317 
L 59.401818 50.194592 
L 52.638182 38.333695 
L 45.874545 25.468585 
L 39.110909 15.236296 
L 32.347273 10.98 
" clip-path="url(#pc933678dd0)" style="fill: none; stroke: #feeeba; stroke-width: 1.5; stroke-linecap: square"/>
   </g>
   <g id="PathCollection_1">
    <defs>
     <path id="C0_0_0638df5220" d="M 0 1.581139 
C 0.419323 1.581139 0.821528 1.41454 1.118034 1.118034 
C 1.41454 0.821528 1.581139 0.419323 1.581139 -0 
C 1.581139 -0.419323 1.41454 -0.821528 1.118034 -1.118034 
C 0.821528 -1.41454 0.419323 -1.581139 0 -1.581139 
C -0.419323 -1.581139 -0.821528 -1.41454 -1.118034 -1.118034 
C -1.41454 -0.821528 -1.581139 -0.419323 -1.581139 0 
C -1.581139 0.419323 -1.41454 0.821528 -1.118034 1.118034 
C -0.821528 1.41454 -0.419323 1.581139 0 1.581139 
z
"/>
    </defs>
    <g clip-path="url(#pc933678dd0)">
     <use xlink:href="#C0_0_0638df5220" x="154.092727" y="79.38036" style="fill: #feeeba; stroke: #feeeba"/>
    </g>
    <g clip-path="url(#pc933678dd0)">
     <use xlink:href="#C0_0_0638df5220" x="147.329091" y="82.32649" style="fill: #feeeba; stroke: #feeeba"/>
    </g>
    <g clip-path="url(#pc933678dd0)">
     <use xlink:href="#C0_0_0638df5220" x="140.565455" y="83.180274" style="fill: #feeeba; stroke: #feeeba"/>
    </g>
    <g clip-path="url(#pc933678dd0)">
     <use xlink:href="#C0_0_0638df5220" x="133.801818" y="82.542817" style="fill: #feeeba; stroke: #feeeba"/>
    </g>
    <g clip-path="url(#pc933678dd0)">
     <use xlink:href="#C0_0_0638df5220" x="127.038182" y="83.510529" style="fill: #feeeba; stroke: #feeeba"/>
    </g>
    <g clip-path="url(#pc933678dd0)">
     <use xlink:href="#C0_0_0638df5220" x="120.274545" y="84.330956" style="fill: #feeeba; stroke: #feeeba"/>
    </g>
    <g clip-path="url(#pc933678dd0)">
     <use xlink:href="#C0_0_0638df5220" x="113.510909" y="83.982834" style="fill: #feeeba; stroke: #feeeba"/>
    </g>
    <g clip-path="url(#pc933678dd0)">
     <use xlink:href="#C0_0_0638df5220" x="106.747273" y="86.58" style="fill: #feeeba; stroke: #feeeba"/>
    </g>
    <g clip-path="url(#pc933678dd0)">
     <use xlink:href="#C0_0_0638df5220" x="99.983636" y="85.135643" style="fill: #feeeba; stroke: #feeeba"/>
    </g>
    <g clip-path="url(#pc933678dd0)">
     <use xlink:href="#C0_0_0638df5220" x="93.22" y="83.371577" style="fill: #feeeba; stroke: #feeeba"/>
    </g>
    <g clip-path="url(#pc933678dd0)">
     <use xlink:href="#C0_0_0638df5220" x="86.456364" y="82.264402" style="fill: #feeeba; stroke: #feeeba"/>
    </g>
    <g clip-path="url(#pc933678dd0)">
     <use xlink:href="#C0_0_0638df5220" x="79.692727" y="76.804851" style="fill: #feeeba; stroke: #feeeba"/>
    </g>
    <g clip-path="url(#pc933678dd0)">
     <use xlink:href="#C0_0_0638df5220" x="72.929091" y="70.523865" style="fill: #feeeba; stroke: #feeeba"/>
    </g>
    <g clip-path="url(#pc933678dd0)">
     <use xlink:href="#C0_0_0638df5220" x="66.165455" y="61.718317" style="fill: #feeeba; stroke: #feeeba"/>
    </g>
    <g clip-path="url(#pc933678dd0)">
     <use xlink:href="#C0_0_0638df5220" x="59.401818" y="50.194592" style="fill: #feeeba; stroke: #feeeba"/>
    </g>
    <g clip-path="url(#pc933678dd0)">
     <use xlink:href="#C0_0_0638df5220" x="52.638182" y="38.333695" style="fill: #feeeba; stroke: #feeeba"/>
    </g>
    <g clip-path="url(#pc933678dd0)">
     <use xlink:href="#C0_0_0638df5220" x="45.874545" y="25.468585" style="fill: #feeeba; stroke: #feeeba"/>
    </g>
    <g clip-path="url(#pc933678dd0)">
     <use xlink:href="#C0_0_0638df5220" x="39.110909" y="15.236296" style="fill: #feeeba; stroke: #feeeba"/>
    </g>
    <g clip-path="url(#pc933678dd0)">
     <use xlink:href="#C0_0_0638df5220" x="32.347273" y="10.98" style="fill: #feeeba; stroke: #feeeba"/>
    </g>
   </g>
   <g id="matplotlib.axis_1">
    <g id="xtick_1">
     <g id="line2d_2">
      <defs>
       <path id="m610a0405df" d="M 0 0 
L 0 3.5 
" style="stroke: #000000; stroke-width: 0.8"/>
      </defs>
      <g>
       <use xlink:href="#m610a0405df" x="39.110909" y="90.36" style="stroke: #000000; stroke-width: 0.8"/>
      </g>
     </g>
     <g id="text_1">
      <text style="font: 200 12px 'Calibri'; text-anchor: middle" x="39.110909" y="105.5275" transform="rotate(-0 39.110909 105.5275)">10</text>
     </g>
    </g>
    <g id="xtick_2">
     <g id="line2d_3">
      <g>
       <use xlink:href="#m610a0405df" x="52.638182" y="90.36" style="stroke: #000000; stroke-width: 0.8"/>
      </g>
     </g>
     <g id="text_2">
      <text style="font: 200 12px 'Calibri'; text-anchor: middle" x="52.638182" y="105.5275" transform="rotate(-0 52.638182 105.5275)">20</text>
     </g>
    </g>
    <g id="xtick_3">
     <g id="line2d_4">
      <g>
       <use xlink:href="#m610a0405df" x="66.165455" y="90.36" style="stroke: #000000; stroke-width: 0.8"/>
      </g>
     </g>
     <g id="text_3">
      <text style="font: 200 12px 'Calibri'; text-anchor: middle" x="66.165455" y="105.5275" transform="rotate(-0 66.165455 105.5275)">30</text>
     </g>
    </g>
    <g id="xtick_4">
     <g id="line2d_5">
      <g>
       <use xlink:href="#m610a0405df" x="79.692727" y="90.36" style="stroke: #000000; stroke-width: 0.8"/>
      </g>
     </g>
     <g id="text_4">
      <text style="font: 200 12px 'Calibri'; text-anchor: middle" x="79.692727" y="105.5275" transform="rotate(-0 79.692727 105.5275)">40</text>
     </g>
    </g>
    <g id="xtick_5">
     <g id="line2d_6">
      <g>
       <use xlink:href="#m610a0405df" x="93.22" y="90.36" style="stroke: #000000; stroke-width: 0.8"/>
      </g>
     </g>
     <g id="text_5">
      <text style="font: 200 12px 'Calibri'; text-anchor: middle" x="93.22" y="105.5275" transform="rotate(-0 93.22 105.5275)">50</text>
     </g>
    </g>
    <g id="xtick_6">
     <g id="line2d_7">
      <g>
       <use xlink:href="#m610a0405df" x="106.747273" y="90.36" style="stroke: #000000; stroke-width: 0.8"/>
      </g>
     </g>
     <g id="text_6">
      <text style="font: 200 12px 'Calibri'; text-anchor: middle" x="106.747273" y="105.5275" transform="rotate(-0 106.747273 105.5275)">60</text>
     </g>
    </g>
    <g id="xtick_7">
     <g id="line2d_8">
      <g>
       <use xlink:href="#m610a0405df" x="120.274545" y="90.36" style="stroke: #000000; stroke-width: 0.8"/>
      </g>
     </g>
     <g id="text_7">
      <text style="font: 200 12px 'Calibri'; text-anchor: middle" x="120.274545" y="105.5275" transform="rotate(-0 120.274545 105.5275)">70</text>
     </g>
    </g>
    <g id="xtick_8">
     <g id="line2d_9">
      <g>
       <use xlink:href="#m610a0405df" x="133.801818" y="90.36" style="stroke: #000000; stroke-width: 0.8"/>
      </g>
     </g>
     <g id="text_8">
      <text style="font: 200 12px 'Calibri'; text-anchor: middle" x="133.801818" y="105.5275" transform="rotate(-0 133.801818 105.5275)">80</text>
     </g>
    </g>
    <g id="xtick_9">
     <g id="line2d_10">
      <g>
       <use xlink:href="#m610a0405df" x="147.329091" y="90.36" style="stroke: #000000; stroke-width: 0.8"/>
      </g>
     </g>
     <g id="text_9">
      <text style="font: 200 12px 'Calibri'; text-anchor: middle" x="147.329091" y="105.5275" transform="rotate(-0 147.329091 105.5275)">90</text>
     </g>
    </g>
    <g id="xtick_10">
     <g id="line2d_11">
      <defs>
       <path id="m888e5e5e0b" d="M 0 0 
L 0 2 
" style="stroke: #000000; stroke-width: 0.6"/>
      </defs>
      <g>
       <use xlink:href="#m888e5e5e0b" x="32.347273" y="90.36" style="stroke: #000000; stroke-width: 0.6"/>
      </g>
     </g>
    </g>
    <g id="xtick_11">
     <g id="line2d_12">
      <g>
       <use xlink:href="#m888e5e5e0b" x="45.874545" y="90.36" style="stroke: #000000; stroke-width: 0.6"/>
      </g>
     </g>
    </g>
    <g id="xtick_12">
     <g id="line2d_13">
      <g>
       <use xlink:href="#m888e5e5e0b" x="59.401818" y="90.36" style="stroke: #000000; stroke-width: 0.6"/>
      </g>
     </g>
    </g>
    <g id="xtick_13">
     <g id="line2d_14">
      <g>
       <use xlink:href="#m888e5e5e0b" x="72.929091" y="90.36" style="stroke: #000000; stroke-width: 0.6"/>
      </g>
     </g>
    </g>
    <g id="xtick_14">
     <g id="line2d_15">
      <g>
       <use xlink:href="#m888e5e5e0b" x="86.456364" y="90.36" style="stroke: #000000; stroke-width: 0.6"/>
      </g>
     </g>
    </g>
    <g id="xtick_15">
     <g id="line2d_16">
      <g>
       <use xlink:href="#m888e5e5e0b" x="99.983636" y="90.36" style="stroke: #000000; stroke-width: 0.6"/>
      </g>
     </g>
    </g>
    <g id="xtick_16">
     <g id="line2d_17">
      <g>
       <use xlink:href="#m888e5e5e0b" x="113.510909" y="90.36" style="stroke: #000000; stroke-width: 0.6"/>
      </g>
     </g>
    </g>
    <g id="xtick_17">
     <g id="line2d_18">
      <g>
       <use xlink:href="#m888e5e5e0b" x="127.038182" y="90.36" style="stroke: #000000; stroke-width: 0.6"/>
      </g>
     </g>
    </g>
    <g id="xtick_18">
     <g id="line2d_19">
      <g>
       <use xlink:href="#m888e5e5e0b" x="140.565455" y="90.36" style="stroke: #000000; stroke-width: 0.6"/>
      </g>
     </g>
    </g>
    <g id="xtick_19">
     <g id="line2d_20">
      <g>
       <use xlink:href="#m888e5e5e0b" x="154.092727" y="90.36" style="stroke: #000000; stroke-width: 0.6"/>
      </g>
     </g>
    </g>
   </g>
   <g id="matplotlib.axis_2">
    <g id="ytick_1">
     <g id="line2d_21">
      <defs>
       <path id="medf0526854" d="M 0 0 
L -3.5 0 
" style="stroke: #000000; stroke-width: 0.8"/>
      </defs>
      <g>
       <use xlink:href="#medf0526854" x="26.26" y="71.316698" style="stroke: #000000; stroke-width: 0.8"/>
      </g>
     </g>
     <g id="text_10">
      <text style="font: 200 12px 'Calibri'; text-anchor: end" x="19.26" y="75.400448" transform="rotate(-0 19.26 75.400448)">−1</text>
     </g>
    </g>
    <g id="ytick_2">
     <g id="line2d_22">
      <g>
       <use xlink:href="#medf0526854" x="26.26" y="46.81236" style="stroke: #000000; stroke-width: 0.8"/>
      </g>
     </g>
     <g id="text_11">
      <text style="font: 200 12px 'Calibri'; text-anchor: end" x="19.26" y="50.89611" transform="rotate(-0 19.26 50.89611)">0</text>
     </g>
    </g>
    <g id="ytick_3">
     <g id="line2d_23">
      <g>
       <use xlink:href="#medf0526854" x="26.26" y="22.308023" style="stroke: #000000; stroke-width: 0.8"/>
      </g>
     </g>
     <g id="text_12">
      <text style="font: 200 12px 'Calibri'; text-anchor: end" x="19.26" y="26.391773" transform="rotate(-0 19.26 26.391773)">1</text>
     </g>
    </g>
   </g>
   <g id="line2d_24">
    <path d="M 154.092727 46.81236 
L 147.329091 46.81236 
L 140.565455 46.81236 
L 133.801818 46.81236 
L 127.038182 46.81236 
L 120.274545 46.81236 
L 113.510909 46.81236 
L 106.747273 46.81236 
L 99.983636 46.81236 
L 93.22 46.81236 
L 86.456364 46.81236 
L 79.692727 46.81236 
L 72.929091 46.81236 
L 66.165455 46.81236 
L 59.401818 46.81236 
L 52.638182 46.81236 
L 45.874545 46.81236 
L 39.110909 46.81236 
L 32.347273 46.81236 
" clip-path="url(#pc933678dd0)" style="fill: none; stroke-dasharray: 5.55,2.4; stroke-dashoffset: 0; stroke: #d3d3d3; stroke-width: 1.5"/>
   </g>
   <g id="patch_3">
    <path d="M 26.26 90.36 
L 26.26 7.2 
" style="fill: none; stroke: #000000; stroke-width: 0.8; stroke-linejoin: miter; stroke-linecap: square"/>
   </g>
   <g id="patch_4">
    <path d="M 26.26 90.36 
L 160.18 90.36 
" style="fill: none; stroke: #000000; stroke-width: 0.8; stroke-linejoin: miter; stroke-linecap: square"/>
   </g>
   <g id="legend_1">
    <g id="patch_5">
     <path d="M 71.15125 33.339375 
L 151.78 33.339375 
Q 154.18 33.339375 154.18 30.939375 
L 154.18 15.6 
Q 154.18 13.2 151.78 13.2 
L 71.15125 13.2 
Q 68.75125 13.2 68.75125 15.6 
L 68.75125 30.939375 
Q 68.75125 33.339375 71.15125 33.339375 
z
" style="fill: #ffffff; opacity: 0.8; stroke: #cccccc; stroke-linejoin: miter"/>
    </g>
    <g id="PathCollection_2">
     <path d="M 85.55125 24.831139 
C 85.970573 24.831139 86.372778 24.66454 86.669284 24.368034 
C 86.96579 24.071528 87.132389 23.669323 87.132389 23.25 
C 87.132389 22.830677 86.96579 22.428472 86.669284 22.131966 
C 86.372778 21.83546 85.970573 21.668861 85.55125 21.668861 
C 85.131927 21.668861 84.729722 21.83546 84.433216 22.131966 
C 84.13671 22.428472 83.970111 22.830677 83.970111 23.25 
C 83.970111 23.669323 84.13671 24.071528 84.433216 24.368034 
C 84.729722 24.66454 85.131927 24.831139 85.55125 24.831139 
z
" style="fill: #feeeba; stroke: #feeeba"/>
    </g>
    <g id="text_13">
     <text style="font: 200 12px 'Calibri'; text-anchor: start" x="107.15125" y="26.4" transform="rotate(-0 107.15125 26.4)">genePC1</text>
    </g>
   </g>
  </g>
 </g>
 <defs>
  <clipPath id="pc933678dd0">
   <rect x="26.26" y="7.2" width="133.92" height="83.16"/>
  </clipPath>
 </defs>
</svg>
