<?xml version="1.0" encoding="utf-8" standalone="no"?>
<!DOCTYPE svg PUBLIC "-//W3C//DTD SVG 1.1//EN"
  "http://www.w3.org/Graphics/SVG/1.1/DTD/svg11.dtd">
<svg xmlns:xlink="http://www.w3.org/1999/xlink" width="170.42125pt" height="114.866875pt" viewBox="0 0 170.42125 114.866875" xmlns="http://www.w3.org/2000/svg" version="1.1">
 <metadata>
  <rdf:RDF xmlns:dc="http://purl.org/dc/elements/1.1/" xmlns:cc="http://creativecommons.org/ns#" xmlns:rdf="http://www.w3.org/1999/02/22-rdf-syntax-ns#">
   <cc:Work>
    <dc:type rdf:resource="http://purl.org/dc/dcmitype/StillImage"/>
    <dc:date>2023-04-11T00:54:18.498682</dc:date>
    <dc:format>image/svg+xml</dc:format>
    <dc:creator>
     <cc:Agent>
      <dc:title>Matplotlib v3.6.2, https://matplotlib.org/</dc:title>
     </cc:Agent>
    </dc:creator>
   </cc:Work>
  </rdf:RDF>
 </metadata>
 <defs>
  <style type="text/css">*{stroke-linejoin: round; stroke-linecap: butt}</style>
 </defs>
 <g id="figure_1">
  <g id="patch_1">
   <path d="M 0 114.866875 
L 170.42125 114.866875 
L 170.42125 0 
L 0 0 
z
" style="fill: #ffffff"/>
  </g>
  <g id="axes_1">
   <g id="patch_2">
    <path d="M 29.30125 90.36 
L 163.22125 90.36 
L 163.22125 7.2 
L 29.30125 7.2 
z
" style="fill: #ffffff"/>
   </g>
   <g id="line2d_1">
    <path d="M 157.133977 86.58 
L 150.370341 86.548562 
L 143.606705 77.878373 
L 136.843068 65.492108 
L 130.079432 57.700986 
L 123.315795 50.249486 
L 116.552159 42.919426 
L 109.788523 40.474092 
L 103.024886 33.344528 
L 96.26125 28.813132 
L 89.497614 25.818124 
L 82.733977 19.582654 
L 75.970341 14.895208 
L 69.206705 12.53235 
L 62.443068 10.98 
L 55.679432 15.086318 
L 48.915795 21.217091 
L 42.152159 31.64108 
L 35.388523 53.683917 
" clip-path="url(#pc7607155f8)" style="fill: none; stroke: #feeeba; stroke-width: 1.5; stroke-linecap: square"/>
   </g>
   <g id="PathCollection_1">
    <defs>
     <path id="C0_0_4ef1fea761" d="M 0 1.581139 
C 0.419323 1.581139 0.821528 1.41454 1.118034 1.118034 
C 1.41454 0.821528 1.581139 0.419323 1.581139 -0 
C 1.581139 -0.419323 1.41454 -0.821528 1.118034 -1.118034 
C 0.821528 -1.41454 0.419323 -1.581139 0 -1.581139 
C -0.419323 -1.581139 -0.821528 -1.41454 -1.118034 -1.118034 
C -1.41454 -0.821528 -1.581139 -0.419323 -1.581139 0 
C -1.581139 0.419323 -1.41454 0.821528 -1.118034 1.118034 
C -0.821528 1.41454 -0.419323 1.581139 0 1.581139 
z
"/>
    </defs>
    <g clip-path="url(#pc7607155f8)">
     <use xlink:href="#C0_0_4ef1fea761" x="157.133977" y="86.58" style="fill: #feeeba; stroke: #feeeba"/>
    </g>
    <g clip-path="url(#pc7607155f8)">
     <use xlink:href="#C0_0_4ef1fea761" x="150.370341" y="86.548562" style="fill: #feeeba; stroke: #feeeba"/>
    </g>
    <g clip-path="url(#pc7607155f8)">
     <use xlink:href="#C0_0_4ef1fea761" x="143.606705" y="77.878373" style="fill: #feeeba; stroke: #feeeba"/>
    </g>
    <g clip-path="url(#pc7607155f8)">
     <use xlink:href="#C0_0_4ef1fea761" x="136.843068" y="65.492108" style="fill: #feeeba; stroke: #feeeba"/>
    </g>
    <g clip-path="url(#pc7607155f8)">
     <use xlink:href="#C0_0_4ef1fea761" x="130.079432" y="57.700986" style="fill: #feeeba; stroke: #feeeba"/>
    </g>
    <g clip-path="url(#pc7607155f8)">
     <use xlink:href="#C0_0_4ef1fea761" x="123.315795" y="50.249486" style="fill: #feeeba; stroke: #feeeba"/>
    </g>
    <g clip-path="url(#pc7607155f8)">
     <use xlink:href="#C0_0_4ef1fea761" x="116.552159" y="42.919426" style="fill: #feeeba; stroke: #feeeba"/>
    </g>
    <g clip-path="url(#pc7607155f8)">
     <use xlink:href="#C0_0_4ef1fea761" x="109.788523" y="40.474092" style="fill: #feeeba; stroke: #feeeba"/>
    </g>
    <g clip-path="url(#pc7607155f8)">
     <use xlink:href="#C0_0_4ef1fea761" x="103.024886" y="33.344528" style="fill: #feeeba; stroke: #feeeba"/>
    </g>
    <g clip-path="url(#pc7607155f8)">
     <use xlink:href="#C0_0_4ef1fea761" x="96.26125" y="28.813132" style="fill: #feeeba; stroke: #feeeba"/>
    </g>
    <g clip-path="url(#pc7607155f8)">
     <use xlink:href="#C0_0_4ef1fea761" x="89.497614" y="25.818124" style="fill: #feeeba; stroke: #feeeba"/>
    </g>
    <g clip-path="url(#pc7607155f8)">
     <use xlink:href="#C0_0_4ef1fea761" x="82.733977" y="19.582654" style="fill: #feeeba; stroke: #feeeba"/>
    </g>
    <g clip-path="url(#pc7607155f8)">
     <use xlink:href="#C0_0_4ef1fea761" x="75.970341" y="14.895208" style="fill: #feeeba; stroke: #feeeba"/>
    </g>
    <g clip-path="url(#pc7607155f8)">
     <use xlink:href="#C0_0_4ef1fea761" x="69.206705" y="12.53235" style="fill: #feeeba; stroke: #feeeba"/>
    </g>
    <g clip-path="url(#pc7607155f8)">
     <use xlink:href="#C0_0_4ef1fea761" x="62.443068" y="10.98" style="fill: #feeeba; stroke: #feeeba"/>
    </g>
    <g clip-path="url(#pc7607155f8)">
     <use xlink:href="#C0_0_4ef1fea761" x="55.679432" y="15.086318" style="fill: #feeeba; stroke: #feeeba"/>
    </g>
    <g clip-path="url(#pc7607155f8)">
     <use xlink:href="#C0_0_4ef1fea761" x="48.915795" y="21.217091" style="fill: #feeeba; stroke: #feeeba"/>
    </g>
    <g clip-path="url(#pc7607155f8)">
     <use xlink:href="#C0_0_4ef1fea761" x="42.152159" y="31.64108" style="fill: #feeeba; stroke: #feeeba"/>
    </g>
    <g clip-path="url(#pc7607155f8)">
     <use xlink:href="#C0_0_4ef1fea761" x="35.388523" y="53.683917" style="fill: #feeeba; stroke: #feeeba"/>
    </g>
   </g>
   <g id="matplotlib.axis_1">
    <g id="xtick_1">
     <g id="line2d_2">
      <defs>
       <path id="m05e5c55e1c" d="M 0 0 
L 0 3.5 
" style="stroke: #000000; stroke-width: 0.8"/>
      </defs>
      <g>
       <use xlink:href="#m05e5c55e1c" x="42.152159" y="90.36" style="stroke: #000000; stroke-width: 0.8"/>
      </g>
     </g>
     <g id="text_1">
      <text style="font: 200 12px 'Calibri'; text-anchor: middle" x="42.152159" y="105.5275" transform="rotate(-0 42.152159 105.5275)">10</text>
     </g>
    </g>
    <g id="xtick_2">
     <g id="line2d_3">
      <g>
       <use xlink:href="#m05e5c55e1c" x="55.679432" y="90.36" style="stroke: #000000; stroke-width: 0.8"/>
      </g>
     </g>
     <g id="text_2">
      <text style="font: 200 12px 'Calibri'; text-anchor: middle" x="55.679432" y="105.5275" transform="rotate(-0 55.679432 105.5275)">20</text>
     </g>
    </g>
    <g id="xtick_3">
     <g id="line2d_4">
      <g>
       <use xlink:href="#m05e5c55e1c" x="69.206705" y="90.36" style="stroke: #000000; stroke-width: 0.8"/>
      </g>
     </g>
     <g id="text_3">
      <text style="font: 200 12px 'Calibri'; text-anchor: middle" x="69.206705" y="105.5275" transform="rotate(-0 69.206705 105.5275)">30</text>
     </g>
    </g>
    <g id="xtick_4">
     <g id="line2d_5">
      <g>
       <use xlink:href="#m05e5c55e1c" x="82.733977" y="90.36" style="stroke: #000000; stroke-width: 0.8"/>
      </g>
     </g>
     <g id="text_4">
      <text style="font: 200 12px 'Calibri'; text-anchor: middle" x="82.733977" y="105.5275" transform="rotate(-0 82.733977 105.5275)">40</text>
     </g>
    </g>
    <g id="xtick_5">
     <g id="line2d_6">
      <g>
       <use xlink:href="#m05e5c55e1c" x="96.26125" y="90.36" style="stroke: #000000; stroke-width: 0.8"/>
      </g>
     </g>
     <g id="text_5">
      <text style="font: 200 12px 'Calibri'; text-anchor: middle" x="96.26125" y="105.5275" transform="rotate(-0 96.26125 105.5275)">50</text>
     </g>
    </g>
    <g id="xtick_6">
     <g id="line2d_7">
      <g>
       <use xlink:href="#m05e5c55e1c" x="109.788523" y="90.36" style="stroke: #000000; stroke-width: 0.8"/>
      </g>
     </g>
     <g id="text_6">
      <text style="font: 200 12px 'Calibri'; text-anchor: middle" x="109.788523" y="105.5275" transform="rotate(-0 109.788523 105.5275)">60</text>
     </g>
    </g>
    <g id="xtick_7">
     <g id="line2d_8">
      <g>
       <use xlink:href="#m05e5c55e1c" x="123.315795" y="90.36" style="stroke: #000000; stroke-width: 0.8"/>
      </g>
     </g>
     <g id="text_7">
      <text style="font: 200 12px 'Calibri'; text-anchor: middle" x="123.315795" y="105.5275" transform="rotate(-0 123.315795 105.5275)">70</text>
     </g>
    </g>
    <g id="xtick_8">
     <g id="line2d_9">
      <g>
       <use xlink:href="#m05e5c55e1c" x="136.843068" y="90.36" style="stroke: #000000; stroke-width: 0.8"/>
      </g>
     </g>
     <g id="text_8">
      <text style="font: 200 12px 'Calibri'; text-anchor: middle" x="136.843068" y="105.5275" transform="rotate(-0 136.843068 105.5275)">80</text>
     </g>
    </g>
    <g id="xtick_9">
     <g id="line2d_10">
      <g>
       <use xlink:href="#m05e5c55e1c" x="150.370341" y="90.36" style="stroke: #000000; stroke-width: 0.8"/>
      </g>
     </g>
     <g id="text_9">
      <text style="font: 200 12px 'Calibri'; text-anchor: middle" x="150.370341" y="105.5275" transform="rotate(-0 150.370341 105.5275)">90</text>
     </g>
    </g>
    <g id="xtick_10">
     <g id="line2d_11">
      <defs>
       <path id="mb0a8d690af" d="M 0 0 
L 0 2 
" style="stroke: #000000; stroke-width: 0.6"/>
      </defs>
      <g>
       <use xlink:href="#mb0a8d690af" x="35.388523" y="90.36" style="stroke: #000000; stroke-width: 0.6"/>
      </g>
     </g>
    </g>
    <g id="xtick_11">
     <g id="line2d_12">
      <g>
       <use xlink:href="#mb0a8d690af" x="48.915795" y="90.36" style="stroke: #000000; stroke-width: 0.6"/>
      </g>
     </g>
    </g>
    <g id="xtick_12">
     <g id="line2d_13">
      <g>
       <use xlink:href="#mb0a8d690af" x="62.443068" y="90.36" style="stroke: #000000; stroke-width: 0.6"/>
      </g>
     </g>
    </g>
    <g id="xtick_13">
     <g id="line2d_14">
      <g>
       <use xlink:href="#mb0a8d690af" x="75.970341" y="90.36" style="stroke: #000000; stroke-width: 0.6"/>
      </g>
     </g>
    </g>
    <g id="xtick_14">
     <g id="line2d_15">
      <g>
       <use xlink:href="#mb0a8d690af" x="89.497614" y="90.36" style="stroke: #000000; stroke-width: 0.6"/>
      </g>
     </g>
    </g>
    <g id="xtick_15">
     <g id="line2d_16">
      <g>
       <use xlink:href="#mb0a8d690af" x="103.024886" y="90.36" style="stroke: #000000; stroke-width: 0.6"/>
      </g>
     </g>
    </g>
    <g id="xtick_16">
     <g id="line2d_17">
      <g>
       <use xlink:href="#mb0a8d690af" x="116.552159" y="90.36" style="stroke: #000000; stroke-width: 0.6"/>
      </g>
     </g>
    </g>
    <g id="xtick_17">
     <g id="line2d_18">
      <g>
       <use xlink:href="#mb0a8d690af" x="130.079432" y="90.36" style="stroke: #000000; stroke-width: 0.6"/>
      </g>
     </g>
    </g>
    <g id="xtick_18">
     <g id="line2d_19">
      <g>
       <use xlink:href="#mb0a8d690af" x="143.606705" y="90.36" style="stroke: #000000; stroke-width: 0.6"/>
      </g>
     </g>
    </g>
    <g id="xtick_19">
     <g id="line2d_20">
      <g>
       <use xlink:href="#mb0a8d690af" x="157.133977" y="90.36" style="stroke: #000000; stroke-width: 0.6"/>
      </g>
     </g>
    </g>
   </g>
   <g id="matplotlib.axis_2">
    <g id="ytick_1">
     <g id="line2d_21">
      <defs>
       <path id="mca4e309b51" d="M 0 0 
L -3.5 0 
" style="stroke: #000000; stroke-width: 0.8"/>
      </defs>
      <g>
       <use xlink:href="#mca4e309b51" x="29.30125" y="60.243959" style="stroke: #000000; stroke-width: 0.8"/>
      </g>
     </g>
     <g id="text_10">
      <text style="font: 200 12px 'Calibri'; text-anchor: end" x="22.30125" y="64.327709" transform="rotate(-0 22.30125 64.327709)">0.0</text>
     </g>
    </g>
    <g id="ytick_2">
     <g id="line2d_22">
      <g>
       <use xlink:href="#mca4e309b51" x="29.30125" y="24.173247" style="stroke: #000000; stroke-width: 0.8"/>
      </g>
     </g>
     <g id="text_11">
      <text style="font: 200 12px 'Calibri'; text-anchor: end" x="22.30125" y="28.256997" transform="rotate(-0 22.30125 28.256997)">0.5</text>
     </g>
    </g>
   </g>
   <g id="line2d_23">
    <path d="M 157.133977 60.243959 
L 150.370341 60.243959 
L 143.606705 60.243959 
L 136.843068 60.243959 
L 130.079432 60.243959 
L 123.315795 60.243959 
L 116.552159 60.243959 
L 109.788523 60.243959 
L 103.024886 60.243959 
L 96.26125 60.243959 
L 89.497614 60.243959 
L 82.733977 60.243959 
L 75.970341 60.243959 
L 69.206705 60.243959 
L 62.443068 60.243959 
L 55.679432 60.243959 
L 48.915795 60.243959 
L 42.152159 60.243959 
L 35.388523 60.243959 
" clip-path="url(#pc7607155f8)" style="fill: none; stroke-dasharray: 5.55,2.4; stroke-dashoffset: 0; stroke: #d3d3d3; stroke-width: 1.5"/>
   </g>
   <g id="patch_3">
    <path d="M 29.30125 90.36 
L 29.30125 7.2 
" style="fill: none; stroke: #000000; stroke-width: 0.8; stroke-linejoin: miter; stroke-linecap: square"/>
   </g>
   <g id="patch_4">
    <path d="M 29.30125 90.36 
L 163.22125 90.36 
" style="fill: none; stroke: #000000; stroke-width: 0.8; stroke-linejoin: miter; stroke-linecap: square"/>
   </g>
   <g id="legend_1">
    <g id="patch_5">
     <path d="M 37.70125 84.36 
L 118.33 84.36 
Q 120.73 84.36 120.73 81.96 
L 120.73 66.620625 
Q 120.73 64.220625 118.33 64.220625 
L 37.70125 64.220625 
Q 35.30125 64.220625 35.30125 66.620625 
L 35.30125 81.96 
Q 35.30125 84.36 37.70125 84.36 
z
" style="fill: #ffffff; opacity: 0.8; stroke: #cccccc; stroke-linejoin: miter"/>
    </g>
    <g id="PathCollection_2">
     <path d="M 52.10125 75.851764 
C 52.520573 75.851764 52.922778 75.685165 53.219284 75.388659 
C 53.51579 75.092153 53.682389 74.689948 53.682389 74.270625 
C 53.682389 73.851302 53.51579 73.449097 53.219284 73.152591 
C 52.922778 72.856085 52.520573 72.689486 52.10125 72.689486 
C 51.681927 72.689486 51.279722 72.856085 50.983216 73.152591 
C 50.68671 73.449097 50.520111 73.851302 50.520111 74.270625 
C 50.520111 74.689948 50.68671 75.092153 50.983216 75.388659 
C 51.279722 75.685165 51.681927 75.851764 52.10125 75.851764 
z
" style="fill: #feeeba; stroke: #feeeba"/>
    </g>
    <g id="text_12">
     <text style="font: 200 12px 'Calibri'; text-anchor: start" x="73.70125" y="77.420625" transform="rotate(-0 73.70125 77.420625)">genePC1</text>
    </g>
   </g>
  </g>
 </g>
 <defs>
  <clipPath id="pc7607155f8">
   <rect x="29.30125" y="7.2" width="133.92" height="83.16"/>
  </clipPath>
 </defs>
</svg>
